<svg width="48" height="48" viewBox="0 0 48 48" fill="none" xmlns="http://www.w3.org/2000/svg">
<g id="Frame" clip-path="url(#clip0_145_189)">
<g id="Group">
<path id="Vector" d="M42 16C43.0609 16 44.0783 16.4214 44.8284 17.1716C45.5786 17.9217 46 18.9391 46 20V28C46 29.0609 45.5786 30.0783 44.8284 30.8284C44.0783 31.5786 43.0609 32 42 32H39.876C39.3884 35.8666 37.5065 39.4224 34.5835 42C31.6605 44.5776 27.8972 46 24 46V42C27.1826 42 30.2348 40.7357 32.4853 38.4853C34.7357 36.2349 36 33.1826 36 30V18C36 14.8174 34.7357 11.7652 32.4853 9.51473C30.2348 7.2643 27.1826 6.00001 24 6.00001C20.8174 6.00001 17.7652 7.2643 15.5147 9.51473C13.2643 11.7652 12 14.8174 12 18V32H6C4.93913 32 3.92172 31.5786 3.17157 30.8284C2.42143 30.0783 2 29.0609 2 28V20C2 18.9391 2.42143 17.9217 3.17157 17.1716C3.92172 16.4214 4.93913 16 6 16H8.124C8.61206 12.1338 10.4942 8.57856 13.4171 6.00137C16.3401 3.42417 20.1031 2.00217 24 2.00217C27.8969 2.00217 31.6599 3.42417 34.5829 6.00137C37.5058 8.57856 39.3879 12.1338 39.876 16H42ZM15.52 31.57L17.64 28.178C19.5462 29.3721 21.7507 30.0036 24 30C26.2493 30.0036 28.4538 29.3721 30.36 28.178L32.48 31.57C29.9385 33.1623 26.9991 34.0046 24 34C21.0009 34.0046 18.0615 33.1623 15.52 31.57Z" fill="#FDD880"/>
</g>
</g>
<defs>
<clipPath id="clip0_145_189">
<rect width="48" height="48" fill="white"/>
</clipPath>
</defs>
</svg>
