<svg xmlns="http://www.w3.org/2000/svg" width="45" height="45" viewBox="0 0 45 45" fill="none">
  <path fill-rule="evenodd" clip-rule="evenodd" d="M19.9171 13.9244C19.9216 13.7993 19.9744 13.6808 20.0646 13.5938C20.1547 13.5069 20.275 13.4583 20.4002 13.4583C20.5254 13.4583 20.6458 13.5069 20.7359 13.5938C20.826 13.6808 20.8788 13.7993 20.8833 13.9244C20.8833 14.8459 21.7948 15.412 22.6426 15.412C23.4904 15.412 24.4019 14.8459 24.4019 13.9244C24.4019 12.7914 23.4879 12.6018 22.5754 12.4127C21.2822 12.1446 19.9924 11.8771 19.9924 9.98446C19.9924 8.71383 21.034 7.76382 22.2347 7.56958V6.81029C22.2392 6.68515 22.292 6.56663 22.3821 6.47968C22.4723 6.39273 22.5926 6.34414 22.7178 6.34414C22.843 6.34414 22.9634 6.39273 23.0535 6.47968C23.1436 6.56663 23.1964 6.68515 23.2009 6.81029V7.56949C24.4017 7.76373 25.4433 8.71383 25.4433 9.98437C25.4457 10.0494 25.4351 10.1142 25.4119 10.1749C25.3888 10.2357 25.3536 10.2912 25.3085 10.338C25.2634 10.3849 25.2093 10.4222 25.1494 10.4476C25.0896 10.4731 25.0252 10.4862 24.9602 10.4862C24.8952 10.4862 24.8308 10.4731 24.771 10.4476C24.7111 10.4222 24.657 10.3849 24.6119 10.338C24.5668 10.2912 24.5317 10.2357 24.5085 10.1749C24.4853 10.1142 24.4747 10.0494 24.4772 9.98437C24.4772 9.06302 23.5656 8.49691 22.7178 8.49691C21.8699 8.49691 20.9585 9.06302 20.9585 9.98437C20.9585 11.094 21.8621 11.2814 22.7679 11.4692C24.0663 11.7384 25.3681 12.0083 25.3681 13.9244C25.3681 15.166 24.3709 16.106 23.2009 16.3263V17.0986C23.1964 17.2237 23.1436 17.3423 23.0535 17.4292C22.9634 17.5162 22.843 17.5647 22.7178 17.5647C22.5926 17.5647 22.4723 17.5162 22.3821 17.4292C22.292 17.3423 22.2392 17.2237 22.2347 17.0986V16.3506C21.0035 16.1837 19.9171 15.2234 19.9171 13.9244ZM22.6802 4.43224C21.1925 4.43222 19.7382 4.87336 18.5012 5.69987C17.2643 6.52638 16.3001 7.70114 15.7308 9.07559C15.1615 10.45 15.0125 11.9625 15.3027 13.4216C15.5929 14.8807 16.3093 16.221 17.3613 17.273C18.4133 18.3249 19.7535 19.0413 21.2127 19.3316C22.6718 19.6218 24.1842 19.4729 25.5587 18.9036C26.9331 18.3342 28.1079 17.3701 28.9344 16.1332C29.7609 14.8962 30.2021 13.4419 30.2021 11.9542C30.2021 10.9664 30.0076 9.98827 29.6295 9.07566C29.2515 8.16306 28.6975 7.33384 27.999 6.63537C27.3006 5.93689 26.4713 5.38282 25.5587 5.00481C24.6461 4.6268 23.668 4.43224 22.6802 4.43224ZM22.6802 3.46605C21.0014 3.46604 19.3603 3.96384 17.9645 4.89652C16.5686 5.82919 15.4806 7.15485 14.8382 8.70585C14.1957 10.2569 14.0276 11.9635 14.3551 13.6101C14.6826 15.2566 15.491 16.7691 16.6781 17.9562C17.8652 19.1433 19.3776 19.9517 21.0242 20.2792C22.6707 20.6067 24.3774 20.4386 25.9284 19.7962C27.4794 19.1537 28.8051 18.0658 29.7378 16.6699C30.6704 15.2741 31.1683 13.633 31.1683 11.9542C31.1681 9.70308 30.2738 7.54422 28.682 5.95248C27.0902 4.36073 24.9313 3.46612 22.6802 3.46605ZM22.6802 2.37208C20.7851 2.37206 18.9325 2.93402 17.3567 3.98689C15.7809 5.03975 14.5528 6.53625 13.8275 8.28713C13.1022 10.038 12.9124 11.9646 13.2821 13.8234C13.6518 15.6821 14.5644 17.3895 15.9044 18.7296C17.2445 20.0697 18.9518 20.9823 20.8105 21.3521C22.6692 21.7219 24.5959 21.5322 26.3468 20.807C28.0977 20.0818 29.5943 18.8537 30.6472 17.278C31.7001 15.7022 32.2622 13.8497 32.2622 11.9545C32.2623 10.6962 32.0144 9.45018 31.5329 8.28763C31.0513 7.12507 30.3455 6.06875 29.4558 5.17897C28.566 4.28919 27.5097 3.58337 26.3471 3.10183C25.1846 2.62028 23.9386 2.37208 22.6802 2.37208ZM23.1812 22.4902C22.8472 22.5059 22.5132 22.5059 22.1793 22.4902V42.1259C22.1793 42.2588 22.232 42.3862 22.326 42.4801C22.4199 42.5741 22.5474 42.6269 22.6802 42.6269C22.8131 42.6269 22.9405 42.5741 23.0345 42.4801C23.1284 42.3862 23.1812 42.2588 23.1812 42.1259V22.4902ZM14.6639 29.8876C14.5393 29.8597 14.4309 29.7833 14.3626 29.6754C14.2942 29.5676 14.2715 29.4369 14.2995 29.3123C14.3275 29.1877 14.4038 29.0793 14.5117 29.011C14.6196 28.9426 14.7502 28.9199 14.8748 28.9479C16.5657 29.3329 17.9871 29.9246 19.1389 30.7228C18.7139 29.0445 17.8078 27.8312 16.4208 27.0827C14.6805 26.1439 12.175 25.9003 8.90408 26.3518C10.0433 29.0641 11.4729 30.8841 13.1931 31.8119C14.8822 32.7231 16.8827 32.7786 19.1947 31.9783C19.0992 31.8972 19.001 31.818 18.9002 31.741C17.8006 30.8983 16.3885 30.2804 14.6639 29.8876ZM25.5694 35.0077C27.8332 35.8697 30.1836 36.1186 32.3809 34.9188C34.8134 33.5902 36.2876 30.8744 37.2296 28.3644L37.4352 27.8163L36.8559 27.721C33.196 27.1182 30.3799 27.3672 28.4077 28.468C26.4558 29.5579 25.3458 31.4454 25.0778 34.1306C24.7346 34.4697 24.4232 34.8394 24.1476 35.2354V22.4014C26.7919 22.0299 29.1969 20.6694 30.8775 18.5943C32.558 16.5192 33.389 13.884 33.2028 11.2202C33.0167 8.55644 31.8272 6.06241 29.8743 4.24126C27.9214 2.42011 25.3505 1.40738 22.6802 1.40738C20.01 1.40738 17.4391 2.42011 15.4862 4.24126C13.5333 6.06241 12.3438 8.55644 12.1576 11.2202C11.9714 13.884 12.8025 16.5192 14.483 18.5943C16.1636 20.6694 18.5686 22.0299 21.2129 22.4014V32.7733C20.941 32.3831 20.6344 32.0183 20.2967 31.6834C19.9812 29.1102 18.8416 27.2938 16.8778 26.2342C14.8433 25.1366 11.9353 24.8887 8.15376 25.4905L7.56445 25.5843L7.78014 26.1396C9.04066 29.3851 10.6928 31.5591 12.7365 32.6616C14.7853 33.767 17.1916 33.789 19.9553 32.7277C20.4924 33.3446 20.918 34.0505 21.2129 34.8135V42.1265C21.2223 42.5094 21.381 42.8736 21.6551 43.1411C21.9293 43.4086 22.2972 43.5584 22.6802 43.5584C23.0633 43.5584 23.4312 43.4086 23.7053 43.1411C23.9795 42.8736 24.1382 42.5094 24.1476 42.1265V37.2753C24.4718 36.4353 24.9545 35.6655 25.5694 35.0077ZM30.4851 31.4103C28.781 31.7982 27.3506 32.3962 26.1938 33.2041C26.5763 31.3926 27.4702 30.0946 28.8756 29.3099C30.5491 28.3757 32.9607 28.1328 36.1103 28.5813C34.9975 31.3248 33.6008 33.1555 31.9203 34.0734C30.3491 34.9315 28.4988 34.9983 26.3694 34.2739C27.6191 33.2863 29.1555 32.7007 30.6964 32.3501C30.821 32.3221 30.9294 32.2458 30.9977 32.1379C31.0661 32.03 31.0888 31.8994 31.0608 31.7747C31.0328 31.6501 30.9565 31.5417 30.8486 31.4734C30.7407 31.4051 30.6097 31.3824 30.4851 31.4103Z" fill="#009ABC"/>
</svg>
