<svg width="48" height="48" viewBox="0 0 48 48" fill="none" xmlns="http://www.w3.org/2000/svg">
<g id="Layer_1">
<g id="Group">
<path id="Vector" d="M36.9922 28.4424L30.2352 25.2192L27.4733 23.9016C27.5218 23.8685 27.5698 23.8349 27.6178 23.8018H31.3776C31.9594 23.8018 32.4317 23.3299 32.4317 22.7477V19.9738H32.4221C32.3126 16.3003 31.0939 13.0498 29.2435 10.9046C27.9427 9.23232 26.0731 8.17776 23.9774 8.17776C21.7061 8.17776 19.7002 9.41904 18.3974 11.3424C16.7486 13.4794 15.6787 16.5422 15.5765 19.9738H15.5669V22.7477C15.5669 23.3299 16.0387 23.8018 16.621 23.8018H20.3914C20.4658 23.8522 20.5411 23.9011 20.6165 23.9501L17.952 25.1904L10.9757 28.439C10.4227 28.6982 10.0464 29.2915 9.98448 29.9741C9.97056 30.0725 9.9624 30.1728 9.9624 30.2746V36.7882V37.957C9.9624 38.987 10.68 39.8213 11.5656 39.8213H36.4325C37.3186 39.8213 38.0357 38.9866 38.0357 37.957V36.7882V30.2746C38.0357 29.8882 37.9339 29.5243 37.7563 29.2205C37.584 28.8792 37.321 28.6013 36.9922 28.4424Z" fill="#FDD880"/>
<path id="Vector_2" d="M12.3101 25.2096V22.2907H12.323C12.4397 18.3682 13.464 14.7898 15.0955 11.9842C14.3016 11.5003 13.4093 11.2051 12.4502 11.2051C9.25056 11.2051 6.66048 14.2195 6.66048 17.9415C6.66048 20.5455 7.93296 22.7991 9.792 23.9208L1.94448 27.5736C1.45488 27.8035 1.1328 28.3555 1.1328 28.9728V35.1663C1.1328 35.9962 1.71312 36.6687 2.42592 36.6687H7.61232V30.1695C7.61232 28.488 8.54256 26.9669 9.98496 26.2911L12.3101 25.2096Z" fill="#FDD880"/>
<path id="Vector_3" d="M46.055 27.6648L38.208 24.012C40.067 22.8902 41.3395 20.6366 41.3395 18.0326C41.3395 14.3107 38.7494 11.2963 35.5498 11.2963C34.5907 11.2963 33.6984 11.5915 32.9045 12.0754C34.536 14.881 35.5598 18.4594 35.677 22.3819H35.6899V25.3008L38.015 26.3837C39.4574 27.059 40.3877 28.5802 40.3877 30.2621V36.7613H45.5741C46.2869 36.7613 46.8672 36.0888 46.8672 35.2589V29.064C46.8667 28.4467 46.5446 27.8947 46.055 27.6648Z" fill="#FDD880"/>
</g>
</g>
</svg>
