<svg width="56" height="56" viewBox="0 0 56 56" fill="none" xmlns="http://www.w3.org/2000/svg">
<path d="M28 53.375H7C6.07174 53.375 5.1815 53.0062 4.52513 52.3499C3.86875 51.6935 3.5 50.8033 3.5 49.875V31.5362C3.49999 29.7651 3.35366 27.997 3.0625 26.25C2.77134 24.503 2.62501 22.7349 2.625 20.9638V6.125C2.625 5.19674 2.99375 4.3065 3.65013 3.65013C4.3065 2.99375 5.19674 2.625 6.125 2.625H28.875C29.8033 2.625 30.6935 2.99375 31.3499 3.65013C32.0063 4.3065 32.375 5.19674 32.375 6.125V20.9638C32.375 22.7349 32.2287 24.503 31.9375 26.25C31.6463 27.997 31.5 29.7651 31.5 31.5362V49.875C31.5 50.8033 31.1313 51.6935 30.4749 52.3499C29.8185 53.0062 28.9283 53.375 28 53.375Z" fill="#426887"/>
<path d="M10.468 46.375H7.90705C7.4061 46.375 7 46.7811 7 47.282V48.968C7 49.4689 7.4061 49.875 7.90705 49.875H10.468C10.9689 49.875 11.375 49.4689 11.375 48.968V47.282C11.375 46.7811 10.9689 46.375 10.468 46.375Z" fill="#DE5540"/>
<path d="M18.343 46.375H15.782C15.2811 46.375 14.875 46.7811 14.875 47.282V48.968C14.875 49.4689 15.2811 49.875 15.782 49.875H18.343C18.8439 49.875 19.25 49.4689 19.25 48.968V47.282C19.25 46.7811 18.8439 46.375 18.343 46.375Z" fill="#FFB431"/>
<path d="M26.218 46.375H23.657C23.1561 46.375 22.75 46.7811 22.75 47.282V48.968C22.75 49.4689 23.1561 49.875 23.657 49.875H26.218C26.7189 49.875 27.125 49.4689 27.125 48.968V47.282C27.125 46.7811 26.7189 46.375 26.218 46.375Z" fill="#96B268"/>
<path d="M10.468 39.375H7.90705C7.4061 39.375 7 39.7811 7 40.282V41.968C7 42.4689 7.4061 42.875 7.90705 42.875H10.468C10.9689 42.875 11.375 42.4689 11.375 41.968V40.282C11.375 39.7811 10.9689 39.375 10.468 39.375Z" fill="#4DB6E4"/>
<path d="M18.343 39.375H15.782C15.2811 39.375 14.875 39.7811 14.875 40.282V41.968C14.875 42.4689 15.2811 42.875 15.782 42.875H18.343C18.8439 42.875 19.25 42.4689 19.25 41.968V40.282C19.25 39.7811 18.8439 39.375 18.343 39.375Z" fill="#4DB6E4"/>
<path d="M26.218 39.375H23.657C23.1561 39.375 22.75 39.7811 22.75 40.282V41.968C22.75 42.4689 23.1561 42.875 23.657 42.875H26.218C26.7189 42.875 27.125 42.4689 27.125 41.968V40.282C27.125 39.7811 26.7189 39.375 26.218 39.375Z" fill="#4DB6E4"/>
<path d="M10.468 32.375H7.90705C7.4061 32.375 7 32.7811 7 33.282V34.968C7 35.4689 7.4061 35.875 7.90705 35.875H10.468C10.9689 35.875 11.375 35.4689 11.375 34.968V33.282C11.375 32.7811 10.9689 32.375 10.468 32.375Z" fill="#4DB6E4"/>
<path d="M18.343 32.375H15.782C15.2811 32.375 14.875 32.7811 14.875 33.282V34.968C14.875 35.4689 15.2811 35.875 15.782 35.875H18.343C18.8439 35.875 19.25 35.4689 19.25 34.968V33.282C19.25 32.7811 18.8439 32.375 18.343 32.375Z" fill="#4DB6E4"/>
<path d="M26.218 32.375H23.657C23.1561 32.375 22.75 32.7811 22.75 33.282V34.968C22.75 35.4689 23.1561 35.875 23.657 35.875H26.218C26.7189 35.875 27.125 35.4689 27.125 34.968V33.282C27.125 32.7811 26.7189 32.375 26.218 32.375Z" fill="#4DB6E4"/>
<path d="M7 2.625H28V26.25C28 26.9462 27.7234 27.6139 27.2312 28.1062C26.7389 28.5984 26.0712 28.875 25.375 28.875H9.625C8.92881 28.875 8.26113 28.5984 7.76884 28.1062C7.27656 27.6139 7 26.9462 7 26.25V2.625Z" fill="#35546D"/>
<path d="M9.625 24.5H12.25V26.25H9.625V24.5Z" fill="#4DB6E4"/>
<path d="M14 24.5H16.625V26.25H14V24.5Z" fill="#4DB6E4"/>
<path d="M18.375 24.5H21V26.25H18.375V24.5Z" fill="#4DB6E4"/>
<path d="M22.75 24.5H25.375V26.25H22.75V24.5Z" fill="#4DB6E4"/>
<path d="M7 7H28V21.875H7V7Z" fill="#348ED8"/>
<path d="M7 7H28V8.75H7V7Z" fill="#2C86D1"/>
<path d="M22.75 17.5H24.5V19.25H22.75V17.5Z" fill="#2D7DBE"/>
<path d="M19.25 17.5H21V19.25H19.25V17.5Z" fill="#2D7DBE"/>
<path d="M15.75 17.5H17.5V19.25H15.75V17.5Z" fill="#2D7DBE"/>
<path d="M9.625 9.625H11.375V11.375H9.625V9.625Z" fill="#459CE5"/>
<path d="M9.625 13.125H11.375V19.25H9.625V13.125Z" fill="#459CE5"/>
<path d="M46.375 19.25H34.125C32.6753 19.25 31.5 20.4253 31.5 21.875V42.875C31.5 44.3247 32.6753 45.5 34.125 45.5H46.375C47.8247 45.5 49 44.3247 49 42.875V21.875C49 20.4253 47.8247 19.25 46.375 19.25Z" fill="#DE5540"/>
<path d="M44.625 22.75H42.875C42.3918 22.75 42 23.1418 42 23.625V25.375C42 25.8582 42.3918 26.25 42.875 26.25H44.625C45.1082 26.25 45.5 25.8582 45.5 25.375V23.625C45.5 23.1418 45.1082 22.75 44.625 22.75Z" fill="#FFB431"/>
<path d="M38.5 38.5C38.5 37.5335 37.7165 36.75 36.75 36.75C35.7835 36.75 35 37.5335 35 38.5V40.25C35 41.2165 35.7835 42 36.75 42C37.7165 42 38.5 41.2165 38.5 40.25V38.5Z" fill="#FFB431"/>
<path d="M51.8373 35.2123L49 32.375V40.25L45.3498 36.5998C45.12 36.37 44.8472 36.1877 44.5469 36.0634C44.2467 35.939 43.9248 35.875 43.5998 35.875C42.9435 35.875 42.314 36.1358 41.8499 36.5999C41.3858 37.064 41.125 37.6935 41.125 38.3498C41.125 38.6748 41.189 38.9967 41.3134 39.2969C41.4377 39.5972 41.62 39.87 41.8498 40.0998L45.5 43.75C44.5066 44.9918 43.9654 46.5347 43.9654 48.125C43.9654 49.7153 44.5066 51.2582 45.5 52.5V54.25H53.375V38.9246C53.375 37.5322 52.8219 36.1969 51.8373 35.2123Z" fill="#FDC8A2"/>
<path d="M48.3716 40.8682L49.6088 39.6309L50.7399 40.762L49.5027 41.9992L48.3716 40.8682Z" fill="#FDB683"/>
<path d="M37.625 25.375H39.375V27.125H37.625V25.375Z" fill="#E86954"/>
<path d="M37.625 28.875H39.375V30.625H37.625V28.875Z" fill="#E86954"/>
<path d="M37.625 32.375H39.375V34.125H37.625V32.375Z" fill="#E86954"/>
<path d="M35 5.25H36.75V7H35V5.25Z" fill="#DFDFDD"/>
<path d="M35 8.75H36.75V16.625H35V8.75Z" fill="#DFDFDD"/>
</svg>
