<svg width="107" height="32" viewBox="0 0 107 32" fill="none" xmlns="http://www.w3.org/2000/svg">
  <g clip-path="url(#clip0_302_3581)">
    <path d="M103.505 0.134155C104.396 0.135102 105.251 0.500993 105.881 1.15157C106.511 1.80214 106.865 2.68427 106.867 3.60444V28.3947C106.865 29.315 106.511 30.1973 105.881 30.8482C105.251 31.499 104.397 31.8653 103.505 31.8667H3.49028C2.59911 31.8655 1.74479 31.4993 1.1148 30.8484C0.484803 30.1974 0.130601 29.315 0.129913 28.3947V3.60444C0.13083 2.68436 0.485162 1.80222 1.11515 1.15162C1.74515 0.501022 2.59934 0.135102 3.49028 0.134155H103.505Z" fill="white"/>
    <path d="M103.505 0.134155C104.396 0.135102 105.251 0.500993 105.881 1.15157C106.511 1.80214 106.865 2.68427 106.867 3.60444V28.3946C106.865 29.315 106.511 30.1973 105.881 30.8482C105.251 31.499 104.397 31.8653 103.505 31.8667H3.49028C2.59911 31.8655 1.74479 31.4993 1.1148 30.8484C0.484803 30.1974 0.130601 29.315 0.129913 28.3946V3.60444C0.13083 2.68436 0.485162 1.80222 1.11515 1.15162C1.74515 0.501022 2.59934 0.135102 3.49028 0.134155H103.505Z" stroke="black" stroke-width="3" stroke-miterlimit="10"/>
    <path d="M37.4309 7.93692C37.4309 8.63098 37.2322 9.18253 36.835 9.59157C36.3829 10.0817 35.7948 10.3265 35.0708 10.3259C34.7427 10.3318 34.4169 10.2689 34.1131 10.141C33.8093 10.0131 33.5337 9.82281 33.3031 9.58173C33.0654 9.34222 32.8779 9.0547 32.7525 8.73709C32.627 8.41949 32.5662 8.0786 32.5739 7.73568C32.5659 7.39309 32.6263 7.05246 32.7513 6.73501C32.8763 6.41756 33.0633 6.1301 33.3006 5.89052C33.5311 5.64944 33.8067 5.45918 34.1105 5.33127C34.4143 5.20337 34.7401 5.14047 35.0682 5.14638C35.4067 5.14538 35.7419 5.216 36.0529 5.35388C36.3423 5.4747 36.6001 5.66403 36.8056 5.90662L36.3846 6.34399C36.0659 5.95224 35.6294 5.75636 35.0699 5.75636C34.8269 5.7529 34.5856 5.7998 34.3604 5.89427C34.1352 5.98875 33.9306 6.12889 33.7587 6.30642C33.3909 6.67312 33.2067 7.15014 33.2061 7.73746C33.2056 8.32479 33.3898 8.80181 33.7587 9.16851C33.9306 9.34604 34.1352 9.48618 34.3604 9.58066C34.5856 9.67514 34.8269 9.72203 35.0699 9.71857C35.3181 9.72581 35.5651 9.68051 35.7957 9.58545C36.0262 9.49039 36.2355 9.34758 36.4106 9.16583C36.6427 8.92613 36.777 8.58984 36.8125 8.16052H35.0708V7.56574H37.3971C37.419 7.68908 37.4304 7.81419 37.4309 7.9396" fill="black"/>
    <path d="M41.1186 5.86552H38.9335V7.43878H40.9038V8.03356H38.9335V9.60592H41.1186V10.215H38.316V5.25732H41.1186V5.86552Z" fill="black"/>
    <path d="M43.7203 10.2142H43.1028V5.86556H41.763V5.25647H45.0618V5.86556H43.7203V10.2142Z" fill="black"/>
    <path d="M48.0637 5.25732H47.4479V10.215H48.0637V5.25732Z" fill="black"/>
    <path d="M50.8013 10.2142H50.1838V5.86556H48.844V5.25647H52.1411V5.86556H50.8013V10.2142Z" fill="black"/>
    <path d="M58.3881 9.57365C58.1615 9.81859 57.8878 10.0119 57.5846 10.1413C57.2814 10.2707 56.9554 10.3332 56.6274 10.325C56.2994 10.3334 55.9734 10.2709 55.6701 10.1415C55.3669 10.0122 55.0932 9.81872 54.8667 9.57365C54.6359 9.33146 54.4544 9.04394 54.333 8.7281C54.2117 8.41225 54.1528 8.07449 54.16 7.73476C54.1527 7.39514 54.2115 7.05748 54.3329 6.74176C54.4543 6.42604 54.6358 6.1387 54.8667 5.89676C55.0935 5.65204 55.3672 5.45884 55.6704 5.32948C55.9735 5.20012 56.2995 5.13745 56.6274 5.14546C56.9549 5.13811 57.2802 5.20155 57.5825 5.3317C57.8849 5.46186 58.1575 5.65585 58.3829 5.90123C58.6146 6.14208 58.7969 6.42862 58.9191 6.74377C59.0413 7.05893 59.1007 7.39626 59.094 7.73565C59.101 8.07515 59.0421 8.41264 58.9209 8.72829C58.7996 9.04394 58.6185 9.33137 58.3881 9.57365ZM55.3231 9.15775C55.4915 9.33857 55.6943 9.48142 55.9188 9.57732C56.1433 9.67322 56.3845 9.72009 56.6274 9.71497C56.8694 9.71956 57.1098 9.67243 57.3333 9.57654C57.5569 9.48065 57.7589 9.33807 57.9265 9.15775C58.2816 8.78628 58.4594 8.31195 58.46 7.73476C58.4606 7.15757 58.2828 6.68353 57.9265 6.31265C57.7587 6.13251 57.5567 5.99005 57.3332 5.89417C57.1097 5.7983 56.8694 5.75107 56.6274 5.75544C56.3846 5.75054 56.1434 5.79751 55.9189 5.89339C55.6945 5.98928 55.4916 6.13201 55.3231 6.31265C54.9692 6.68413 54.7916 7.15817 54.7905 7.73476C54.7893 8.31135 54.9669 8.78568 55.3231 9.15775Z" fill="black"/>
    <path d="M59.9601 10.2142V5.25647H60.7109L63.0441 9.11404H63.071L63.0441 8.15881V5.25647H63.6617V10.2142H63.0182L60.5767 6.17145H60.5507L60.5767 7.12756V10.2142H59.9601Z" fill="black"/>
    <path d="M54.0084 17.4445C52.1255 17.4445 50.5882 18.9247 50.5882 20.9613C50.5882 22.9844 52.1221 24.4763 54.0049 24.4763C55.8878 24.4763 57.4216 22.9844 57.4216 20.9613C57.4216 18.9247 55.8869 17.4472 54.0049 17.4472M54.0049 23.0909C52.9734 23.0909 52.084 22.2135 52.084 20.9613C52.084 19.7091 52.9734 18.8308 54.0049 18.8308C55.0364 18.8308 55.9259 19.6975 55.9259 20.9613C55.9259 22.2251 55.0355 23.0909 54.0049 23.0909ZM46.5567 17.4472C44.673 17.4445 43.14 18.9247 43.14 20.9613C43.14 22.9844 44.6738 24.4763 46.5567 24.4763C48.4395 24.4763 49.9716 22.9844 49.9716 20.9613C49.9716 18.9247 48.4395 17.4472 46.5567 17.4472ZM46.5567 23.0909C45.5252 23.0909 44.6357 22.2135 44.6357 20.9613C44.6357 19.7091 45.5252 18.8308 46.5567 18.8308C47.5882 18.8308 48.4776 19.6975 48.4776 20.9613C48.4776 22.2251 47.5882 23.0909 46.5567 23.0909ZM37.6924 18.5294V20.0195H41.148C41.045 20.8575 40.7739 21.4711 40.3616 21.8977C39.8593 22.4183 39.0729 22.9889 37.6933 22.9889C35.5653 22.9889 33.9025 21.2189 33.9025 19.0213C33.9025 16.8238 35.5653 15.0538 37.6933 15.0538C38.6634 15.0408 39.5992 15.4244 40.2967 16.1208L41.3152 15.069C40.4491 14.2157 39.305 13.5646 37.6933 13.5646C34.7789 13.5646 32.3305 16.0135 32.3305 19.0204C32.3305 22.0274 34.7789 24.4763 37.6933 24.4763C39.2652 24.4763 40.4508 23.9397 41.3784 22.9451C42.3311 21.9612 42.6299 20.5767 42.6299 19.4569C42.633 19.1447 42.6072 18.833 42.5528 18.5258L37.6924 18.5294ZM73.9445 19.6805C73.6605 18.8952 72.7979 17.4445 71.0319 17.4445C69.266 17.4445 67.8231 18.8755 67.8231 20.9613C67.8231 22.929 69.2677 24.4763 71.2008 24.4763C71.7614 24.4794 72.314 24.3387 72.8089 24.0668C73.3039 23.7948 73.7256 23.4002 74.0363 22.9183L72.8767 22.1196C72.4895 22.7063 71.9612 23.0909 71.2008 23.0909C70.4404 23.0909 69.9017 22.7331 69.5501 22.0256L74.1013 20.083L73.9445 19.6805ZM69.3032 20.8522C69.2651 19.4954 70.3218 18.8031 71.083 18.8031C71.6763 18.8031 72.1795 19.1099 72.3466 19.549L69.3032 20.8522ZM65.6051 24.2608H67.1008V13.9304H65.6051V24.2608ZM63.155 18.2316H63.1039C62.7679 17.8202 62.1235 17.4472 61.312 17.4472C59.6101 17.4472 58.0495 18.9918 58.0495 20.9738C58.0495 22.9558 59.6084 24.4763 61.312 24.4763C62.1235 24.4763 62.7679 24.1033 63.1039 23.6776H63.155V24.1838C63.155 25.5254 62.4621 26.2463 61.3362 26.2463C60.4217 26.2463 59.8535 25.5675 59.6223 24.9942L58.3188 25.5541C58.6947 26.486 59.6864 27.6318 61.3362 27.6318C63.09 27.6318 64.5719 26.5656 64.5719 23.9701V17.6609H63.155V18.2316ZM61.4402 23.0909C60.4095 23.0909 59.5452 22.1965 59.5452 20.9738C59.5452 19.7512 60.4113 18.8273 61.4402 18.8273C62.4691 18.8273 63.2589 19.7333 63.2589 20.9738C63.2589 22.2144 62.4595 23.0909 61.4402 23.0909ZM80.9485 13.934H77.3725V24.2625H78.8638V20.3477H80.9485C82.6036 20.3477 84.2309 19.1117 84.2309 17.1404C84.2309 15.1691 82.6036 13.934 80.9485 13.934ZM80.9875 18.9113H78.8638V15.3704H80.9875C81.2149 15.3679 81.4406 15.4117 81.6517 15.4993C81.8628 15.5869 82.0551 15.7166 82.2176 15.881C82.3802 16.0454 82.5098 16.2412 82.599 16.4573C82.6883 16.6734 82.7354 16.9055 82.7378 17.1404C82.7303 17.614 82.5423 18.0655 82.2147 18.397C81.8871 18.7285 81.4461 18.9133 80.9875 18.9113ZM90.2155 17.4266C89.1338 17.4266 88.0139 17.9194 87.5514 19.0079L88.8774 19.5803C89.1589 19.0079 89.6872 18.8228 90.2415 18.8228C91.0131 18.8228 91.8004 19.3022 91.8108 20.1519V20.2592C91.3309 19.9954 90.7954 19.8581 90.2518 19.8594C88.8237 19.8594 87.3704 20.6697 87.3704 22.1848C87.3704 23.5667 88.5405 24.4575 89.8535 24.4575C90.8581 24.4575 91.4124 23.9924 91.7588 23.4486H91.8116V24.2447H93.2537V20.2842C93.2537 18.4516 91.9277 17.4221 90.2163 17.4221M90.0353 23.0837C89.5469 23.0837 88.8635 22.8333 88.8635 22.2072C88.8635 21.4103 89.7132 21.1044 90.4476 21.1044C91.1032 21.1044 91.4124 21.252 91.8116 21.4496C91.757 21.8978 91.5469 22.3103 91.2203 22.6108C90.8937 22.9112 90.4727 23.0793 90.0353 23.0837ZM98.5029 17.6502L96.7916 22.1285H96.7396L94.965 17.6502H93.355L96.019 23.911L94.4982 27.3965H96.0571L100.162 17.6547L98.5029 17.6502ZM85.058 24.2625H86.5511V13.9322H85.058V24.2625Z" fill="black"/>
    <path d="M25.3335 17.0662L21.315 19.4614L17.9156 15.9929L21.2769 12.5164L25.3318 14.9312C25.5138 15.0389 25.6651 15.1942 25.7704 15.3816C25.8756 15.5689 25.9311 15.7816 25.9313 15.9982C25.9315 16.2148 25.8763 16.4276 25.7714 16.6151C25.6664 16.8026 25.5154 16.9582 25.3335 17.0662Z" fill="#FED400"/>
    <path d="M21.3149 19.4613L9.25746 26.6514C9.02855 26.7887 8.76181 26.8432 8.49951 26.8063C8.2372 26.7694 7.99434 26.6431 7.80939 26.4475L17.9173 15.9928L21.3149 19.4613Z" fill="#F83345"/>
    <path d="M17.9173 15.9928L7.8094 26.4475C7.7003 26.3341 7.61399 26.1996 7.55543 26.0516C7.49687 25.9036 7.46721 25.7451 7.46816 25.5853V6.41374C7.4665 6.12282 7.56608 5.84096 7.74877 5.61951L17.9173 15.9928Z" fill="#00D7FE"/>
    <path d="M21.2786 12.5163L17.9174 15.9929L7.74878 5.61776C7.9299 5.39747 8.18021 5.24991 8.45598 5.20087C8.73175 5.15182 9.01544 5.20441 9.25748 5.34944L21.2786 12.5163Z" fill="#00EF77"/>
  </g>
  <defs>
    <clipPath id="clip0_302_3581">
      <rect width="107" height="32" fill="white"/>
    </clipPath>
  </defs>
</svg>
