<svg width="106" height="32" viewBox="0 0 106 32" fill="none" xmlns="http://www.w3.org/2000/svg">
  <g clip-path="url(#clip0_302_3596)">
    <path d="M105.867 6.82187C105.867 6.57877 105.867 6.33415 105.867 6.0903C105.855 5.55752 105.8 5.02621 105.702 4.50065C105.606 3.97471 105.422 3.46493 105.156 2.98875C104.883 2.51393 104.529 2.08062 104.106 1.7047C103.686 1.32736 103.204 1.01134 102.676 0.768134C102.144 0.52751 101.576 0.359784 100.989 0.270523C100.405 0.183499 99.815 0.136363 99.2232 0.129536C98.9528 0.129536 98.6772 0.121153 98.4085 0.119629C98.0905 0.119629 97.7666 0.119629 97.4495 0.119629H8.55467C8.23079 0.119629 7.91031 0.119629 7.58813 0.119629C7.31767 0.119629 7.04806 0.12725 6.77506 0.129536C6.18216 0.136767 5.59069 0.183899 5.00562 0.270523C4.42069 0.35899 3.85409 0.526768 3.32521 0.768134C2.79604 1.01104 2.31254 1.32708 1.89236 1.7047C1.47021 2.08046 1.11886 2.51542 0.852069 2.99256C0.583051 3.46823 0.396627 3.9781 0.299278 4.50447C0.201451 5.02993 0.148729 5.56137 0.141579 6.0941C0.132252 6.33796 0.132254 6.58258 0.127167 6.82567V25.1835C0.132254 25.4311 0.132252 25.6704 0.141579 25.9181C0.148802 26.4508 0.201524 26.9822 0.299278 27.5077C0.396872 28.034 0.583284 28.5439 0.852069 29.0196C1.11918 29.495 1.47053 29.9282 1.89236 30.3022C2.3111 30.6806 2.79419 30.9968 3.32351 31.2387C3.85248 31.4802 4.41901 31.6485 5.00393 31.7379C5.58936 31.8235 6.18111 31.8696 6.77421 31.8758C7.04721 31.8811 7.31683 31.8842 7.58729 31.8842C7.90947 31.8842 8.22995 31.8842 8.55382 31.8842H97.4521C97.7692 31.8842 98.0931 31.8842 98.411 31.8842C98.6798 31.8842 98.9553 31.8842 99.2258 31.8758C99.8176 31.8687 100.408 31.8213 100.992 31.734C101.578 31.6439 102.147 31.4757 102.678 31.2349C103.206 30.9925 103.688 30.6764 104.106 30.2983C104.526 29.9226 104.879 29.4898 105.15 29.0158C105.416 28.5395 105.6 28.0298 105.696 27.5039C105.794 26.9783 105.849 26.447 105.861 25.9143C105.861 25.6666 105.861 25.4273 105.861 25.1797C105.867 24.8916 105.867 24.6051 105.867 24.3124V7.68908C105.867 7.39797 105.867 7.10992 105.861 6.82187" fill="white"/>
    <path d="M105.867 6.82186C105.867 6.57877 105.867 6.33415 105.867 6.0903C105.855 5.55752 105.8 5.02621 105.702 4.50065C105.606 3.97471 105.422 3.46493 105.156 2.98875C104.883 2.51393 104.529 2.08062 104.106 1.7047C103.686 1.32736 103.204 1.01134 102.676 0.768134C102.144 0.52751 101.576 0.359784 100.989 0.270523C100.405 0.183499 99.815 0.136363 99.2232 0.129536C98.9528 0.129536 98.6772 0.121153 98.4085 0.119629C98.0905 0.119629 97.7666 0.119629 97.4495 0.119629H8.55467C8.23079 0.119629 7.91031 0.119629 7.58813 0.119629C7.31767 0.119629 7.04806 0.12725 6.77506 0.129536C6.18216 0.136767 5.59069 0.183899 5.00562 0.270523C4.42069 0.35899 3.85409 0.526768 3.32521 0.768134C2.79604 1.01104 2.31254 1.32708 1.89236 1.7047C1.47021 2.08046 1.11886 2.51542 0.852069 2.99256C0.583051 3.46823 0.396627 3.9781 0.299278 4.50447C0.201451 5.02993 0.148729 5.56137 0.141579 6.0941C0.132252 6.33796 0.132254 6.58258 0.127167 6.82567V25.1835C0.132254 25.4311 0.132252 25.6704 0.141579 25.9181C0.148802 26.4508 0.201524 26.9822 0.299278 27.5077C0.396872 28.034 0.583284 28.5439 0.852069 29.0196C1.11918 29.495 1.47053 29.9282 1.89236 30.3022C2.3111 30.6806 2.79419 30.9968 3.32351 31.2387C3.85248 31.4802 4.41901 31.6485 5.00393 31.7379C5.58936 31.8235 6.18111 31.8696 6.77421 31.8758C7.04721 31.8811 7.31683 31.8842 7.58729 31.8842C7.90947 31.8842 8.22995 31.8842 8.55382 31.8842H97.4521C97.7692 31.8842 98.0931 31.8842 98.411 31.8842C98.6798 31.8842 98.9553 31.8842 99.2258 31.8758C99.8176 31.8687 100.408 31.8213 100.992 31.734C101.578 31.6439 102.147 31.4757 102.678 31.2349C103.206 30.9925 103.688 30.6764 104.106 30.2983C104.526 29.9226 104.879 29.4898 105.15 29.0158C105.416 28.5395 105.6 28.0298 105.696 27.5039C105.794 26.9783 105.849 26.447 105.861 25.9143C105.861 25.6666 105.861 25.4273 105.861 25.1797C105.867 24.8916 105.867 24.6051 105.867 24.3124V7.68908C105.867 7.39798 105.867 7.10992 105.861 6.82186" stroke="black" stroke-width="3" stroke-miterlimit="10"/>
    <path d="M22.2167 15.9117C22.1938 13.6407 24.2863 12.5358 24.3821 12.4824C23.1951 10.9286 21.3596 10.7168 20.7152 10.7C19.1713 10.5537 17.6757 11.5306 16.8898 11.5306C16.0877 11.5306 14.877 10.7152 13.5739 10.7373C11.8952 10.7617 10.3241 11.635 9.46271 12.9915C7.68225 15.7577 9.01165 19.821 10.7141 22.0599C11.5619 23.1542 12.5615 24.3788 13.863 24.3338C15.1347 24.2873 15.6138 23.6038 17.1526 23.6038C18.6787 23.6038 19.1238 24.3338 20.4541 24.3072C21.8208 24.2873 22.6813 23.2075 23.5063 22.1018C24.1179 21.3221 24.5888 20.4605 24.9018 19.5489C24.8688 19.539 22.2455 18.6345 22.2184 15.9139" fill="black"/>
    <path d="M19.7071 9.23C20.3922 8.4588 20.861 7.41175 20.7313 6.34717C19.7393 6.38832 18.4973 6.96443 17.7842 7.71886C17.1509 8.3826 16.5862 9.47157 16.7329 10.4942C17.847 10.5704 18.9907 9.98976 19.7071 9.23076" fill="black"/>
    <path d="M37.5092 21.6704H33.3259L32.3221 24.3376H30.5493L34.512 14.4751H36.3536L40.3146 24.3376H38.5121L37.5092 21.6704ZM33.76 20.4404H37.0742L35.4413 16.115H35.3946L33.76 20.4404Z" fill="black"/>
    <path d="M48.871 20.7422C48.871 22.9766 47.5416 24.4123 45.5331 24.4123C44.3919 24.4123 43.4864 23.955 43.0142 23.1534H42.9769V26.7152H41.3354V17.1454H42.9251V18.3418H42.9548C43.4118 17.5698 44.3843 17.0707 45.4983 17.0707C47.5331 17.0707 48.8676 18.5132 48.8676 20.7422M47.1796 20.7422C47.1796 19.2852 46.3428 18.3281 45.0651 18.3281C43.812 18.3281 42.9667 19.3065 42.9667 20.7422C42.9667 22.1901 43.8145 23.161 45.0651 23.161C46.3428 23.161 47.1796 22.2099 47.1796 20.7422Z" fill="black"/>
    <path d="M57.6767 20.7422C57.6767 22.9766 56.3473 24.4123 54.3388 24.4123C53.1984 24.4123 52.2921 23.955 51.8198 23.1534H51.7842V26.7152H50.1411V17.1454H51.7308V18.3418H51.7605C52.2175 17.5698 53.1908 17.0707 54.304 17.0707C56.3388 17.0707 57.6733 18.5132 57.6733 20.7422M55.9861 20.7422C55.9861 19.2852 55.1484 18.3281 53.8665 18.3281C52.6117 18.3281 51.7681 19.3065 51.7681 20.7422C51.7681 22.1901 52.6159 23.161 53.8665 23.161C55.1442 23.161 55.9861 22.2099 55.9861 20.7422Z" fill="black"/>
    <path d="M63.4945 21.5882C63.6166 22.5666 64.6722 23.2083 66.1177 23.2083C67.5023 23.2083 68.4993 22.5666 68.4993 21.6842C68.4993 20.9221 67.8965 20.4611 66.4747 20.1479L65.0546 19.8431C63.0375 19.4041 62.1024 18.559 62.1024 17.1835C62.1024 15.4811 63.7523 14.3129 66.0948 14.3129C68.4145 14.3129 70.0042 15.4811 70.0568 17.1835H68.4001C68.3001 16.1997 67.3963 15.6045 66.0728 15.6045C64.7493 15.6045 63.8447 16.2066 63.8447 17.0814C63.8447 17.7787 64.4221 18.1894 65.8363 18.5041L67.0461 18.7701C69.2971 19.2479 70.2323 20.061 70.2323 21.5051C70.2323 23.3493 68.5977 24.5053 65.9931 24.5053C63.559 24.5053 61.9167 23.3775 61.8099 21.592L63.4945 21.5882Z" fill="black"/>
    <path d="M73.7796 15.443V17.1462H75.3057V18.3174H73.7796V22.2801C73.7796 22.8974 74.0849 23.1839 74.7538 23.1839C74.9344 23.1806 75.1146 23.1689 75.2939 23.1488V24.3117C74.9931 24.3621 74.6875 24.3848 74.3816 24.3796C72.7614 24.3796 72.1289 23.8324 72.1289 22.4386V18.3174H70.9665V17.1492H72.1289V15.446L73.7796 15.443Z" fill="black"/>
    <path d="M76.1816 20.7423C76.1816 18.4798 77.6644 17.057 79.9765 17.057C82.2886 17.057 83.7723 18.4798 83.7723 20.7423C83.7723 23.0048 82.303 24.426 79.9765 24.426C77.65 24.426 76.1816 23.0101 76.1816 20.7423ZM82.0978 20.7423C82.0978 19.19 81.3068 18.2732 79.9782 18.2732C78.6496 18.2732 77.8586 19.1953 77.8586 20.7423C77.8586 22.2892 78.6496 23.2083 79.9782 23.2083C81.3068 23.2083 82.0978 22.2991 82.0978 20.7423Z" fill="black"/>
    <path d="M85.1254 17.1462H86.6913V18.3654H86.7287C86.983 17.5523 87.7113 17.07 88.6549 17.07C88.8437 17.0695 89.032 17.0879 89.2162 17.1248V18.5072C88.9777 18.4412 88.7288 18.4108 88.4794 18.4173C87.4213 18.4173 86.7677 19.0597 86.7677 20.0717V24.3391H85.1254V17.1462Z" fill="black"/>
    <path d="M96.7891 22.2245C96.567 23.5299 95.1528 24.4268 93.3443 24.4268C91.0162 24.4268 89.5723 23.0246 89.5723 20.7751C89.5723 18.5255 91.0247 17.057 93.274 17.057C95.4877 17.057 96.8798 18.4241 96.8798 20.6051V21.1096H91.229V21.1995C91.229 22.4302 92.0878 23.2357 93.3816 23.2357C94.2939 23.2357 95.0087 22.8478 95.2291 22.2245H96.7891ZM91.2375 20.0793H95.2376C95.1994 18.9781 94.416 18.2504 93.274 18.2504C92.1319 18.2504 91.3239 18.9896 91.2392 20.0793" fill="black"/>
    <path d="M33.554 7.04822C35.1174 7.04822 36.0356 7.91315 36.0356 9.40372C36.0356 10.9179 35.125 11.7897 33.554 11.7897H31.6506V7.04822H33.554ZM32.4688 11.1176H33.4624C34.5646 11.1176 35.2013 10.5018 35.2013 9.41362C35.2013 8.34218 34.5536 7.71959 33.4624 7.71959H32.4688V11.1176Z" fill="black"/>
    <path d="M36.9572 9.99887C36.9572 8.84589 37.6736 8.14404 38.8343 8.14404C39.995 8.14404 40.7106 8.84589 40.7106 9.99887C40.7106 11.1519 39.9984 11.8575 38.8343 11.8575C37.6702 11.8575 36.9572 11.1541 36.9572 9.99887ZM39.9034 9.99887C39.9034 9.22234 39.5151 8.76968 38.8343 8.76968C38.1535 8.76968 37.7694 9.22234 37.7694 9.99887C37.7694 10.7754 38.1527 11.2303 38.8343 11.2303C39.516 11.2303 39.9034 10.7777 39.9034 9.99887Z" fill="black"/>
    <path d="M45.7018 11.7889H44.887L44.0655 9.15369H44.0027L43.1846 11.7889H42.3774L41.2812 8.21179H42.0773L42.7903 10.9399H42.848L43.6662 8.21179H44.4207L45.2389 10.9399H45.2999L46.0096 8.21179H46.7955L45.7018 11.7889Z" fill="black"/>
    <path d="M47.7171 8.2119H48.4725V8.78038H48.5319C48.7261 8.38259 49.1203 8.14331 49.7189 8.14331C50.6074 8.14331 51.0958 8.62264 51.0958 9.47233V11.7897H50.3098V9.64912C50.3098 9.0753 50.0334 8.79029 49.4509 8.79029C48.8685 8.79029 48.5014 9.13779 48.5014 9.69713V11.7897H47.7163L47.7171 8.2119Z" fill="black"/>
    <path d="M53.1323 6.8158H52.3472V11.7889H53.1323V6.8158Z" fill="black"/>
    <path d="M54.2251 9.99887C54.2251 8.84589 54.9416 8.14404 56.1022 8.14404C57.2629 8.14404 57.9793 8.84589 57.9793 9.99887C57.9793 11.1519 57.2663 11.8575 56.1022 11.8575C54.9382 11.8575 54.2251 11.1572 54.2251 9.99887ZM57.1705 9.99887C57.1705 9.22234 56.7831 8.76968 56.1022 8.76968C55.4214 8.76968 55.0365 9.22234 55.0365 9.99887C55.0365 10.7754 55.4206 11.2303 56.1022 11.2303C56.7839 11.2303 57.1705 10.7777 57.1705 9.99887Z" fill="black"/>
    <path d="M58.806 10.7776C58.806 10.1337 59.3393 9.76258 60.2855 9.71076L61.3639 9.65589V9.3465C61.3639 8.96547 61.085 8.75438 60.5483 8.75438C60.1108 8.75438 59.8056 8.9007 59.7191 9.1537H58.9561C59.0358 8.53949 59.6784 8.14551 60.5814 8.14551C61.5793 8.14551 62.1422 8.59131 62.1422 9.3465V11.7904H61.3851V11.2867H61.3241C61.0867 11.6456 60.6517 11.8491 60.1278 11.8491C59.3647 11.8491 58.8026 11.433 58.8026 10.7822M61.3605 10.4774V10.1794L60.3872 10.2335C59.8395 10.2678 59.5928 10.4347 59.5928 10.7502C59.5928 11.0657 59.9023 11.26 60.3296 11.26C60.9231 11.26 61.3605 10.9201 61.3605 10.4774Z" fill="black"/>
    <path d="M63.1766 9.9989C63.1766 8.86802 63.8244 8.15398 64.8299 8.15398C65.3725 8.15398 65.8346 8.38259 66.0482 8.78115H66.1084V6.81506H66.8935V11.789H66.1406V11.2235H66.0788C65.8422 11.6145 65.3776 11.8461 64.8299 11.8461C63.8125 11.8461 63.1766 11.1321 63.1766 9.9989ZM63.988 9.9989C63.988 10.761 64.3856 11.2136 65.052 11.2136C65.7184 11.2136 66.122 10.751 66.122 10.0012C66.122 9.25133 65.7091 8.78649 65.052 8.78649C64.3949 8.78649 63.988 9.24371 63.988 9.9989Z" fill="black"/>
    <path d="M70.1416 9.99887C70.1416 8.84589 70.858 8.14404 72.0204 8.14404C73.1828 8.14404 73.8966 8.84589 73.8966 9.99887C73.8966 11.1519 73.1828 11.8575 72.0204 11.8575C70.858 11.8575 70.1416 11.1572 70.1416 9.99887ZM73.0878 9.99887C73.0878 9.22234 72.6995 8.76968 72.0204 8.76968C71.3413 8.76968 70.9538 9.22234 70.9538 9.99887C70.9538 10.7754 71.337 11.2303 72.0204 11.2303C72.7037 11.2303 73.0878 10.7777 73.0878 9.99887Z" fill="black"/>
    <path d="M74.9488 8.2119H75.7034V8.78038H75.7627C75.9569 8.38259 76.3511 8.14331 76.9497 8.14331C77.8382 8.14331 78.3266 8.62264 78.3266 9.47233V11.7897H77.5407V9.64912C77.5407 9.0753 77.2626 8.79029 76.6818 8.79029C76.101 8.79029 75.7322 9.13779 75.7322 9.69713V11.7897H74.9471L74.9488 8.2119Z" fill="black"/>
    <path d="M82.7658 7.32104V8.22941H83.6272V8.82305H82.7658V10.6619C82.7658 11.0376 82.9354 11.2006 83.3288 11.2006C83.4286 11.2007 83.5283 11.1951 83.6272 11.1839V11.7729C83.4873 11.7954 83.3455 11.8072 83.2033 11.808C82.33 11.808 81.9824 11.5321 81.9824 10.8432V8.82305H81.3508V8.22941H81.9774V7.32104H82.7658Z" fill="black"/>
    <path d="M84.7006 6.8158H85.4798V8.7857H85.5417C85.7342 8.38486 86.1555 8.14558 86.7541 8.14558C87.6019 8.14558 88.1251 8.62796 88.1251 9.47993V11.7889H87.34V9.65519C87.34 9.0829 87.0424 8.79332 86.4921 8.79332C85.8478 8.79332 85.4891 9.15911 85.4891 9.70016V11.7897H84.704L84.7006 6.8158Z" fill="black"/>
    <path d="M92.7042 10.8219C92.5253 11.4636 91.8894 11.8583 90.9797 11.8583C89.8394 11.8583 89.1416 11.1557 89.1416 10.0111C89.1416 8.8665 89.8538 8.14331 90.9772 8.14331C92.0794 8.14331 92.7508 8.8223 92.7508 9.94632V10.1925H89.9411V10.2313C89.9682 10.86 90.3727 11.2563 91.0018 11.2563C91.4757 11.2563 91.8013 11.1039 91.9488 10.8219H92.7042ZM89.9411 9.67046H91.9513C91.9327 9.10959 91.5545 8.74381 90.9721 8.74381C90.3896 8.74381 89.9852 9.11264 89.9411 9.67046Z" fill="black"/>
  </g>
  <defs>
    <clipPath id="clip0_302_3596">
      <rect width="106" height="32" fill="white"/>
    </clipPath>
  </defs>
</svg>
