<svg
                          xmlns="http://www.w3.org/2000/svg"
                          width="32"
                          height="32"
                          viewBox="0 0 32 32"
                          fill="none"
                        >
                          <circle
                            cx="15.9048"
                            cy="15.9048"
                            r="15.9048"
                            fill="#2E2D2D"
                          />
                          <path
                            d="M22.4442 12.7236H14.6685C13.5949 12.7236 12.7246 13.594 12.7246 14.6675V22.4432C12.7246 23.5168 13.5949 24.3871 14.6685 24.3871H22.4442C23.5178 24.3871 24.3881 23.5168 24.3881 22.4432V14.6675C24.3881 13.594 23.5178 12.7236 22.4442 12.7236Z"
                            stroke="white"
                            stroke-linecap="round"
                            stroke-linejoin="round"
                          />
                          <path
                            d="M20.1464 12.3704V10.4265C20.1464 9.9109 19.9416 9.41646 19.577 9.0519C19.2125 8.68735 18.718 8.48254 18.2025 8.48254H10.4268C9.91127 8.48254 9.41682 8.68735 9.05227 9.0519C8.68771 9.41646 8.48291 9.9109 8.48291 10.4265V18.2021C8.48291 18.7177 8.68771 19.2121 9.05227 19.5767C9.41682 19.9412 9.91127 20.146 10.4268 20.146H12.3707"
                            stroke="white"
                            stroke-linecap="round"
                            stroke-linejoin="round"
                          />
                        </svg>