<svg width="67" height="54" viewBox="0 0 67 54" fill="none" xmlns="http://www.w3.org/2000/svg">
<mask id="mask0_247_2013" style="mask-type:luminance" maskUnits="userSpaceOnUse" x="4" y="12" width="60" height="42">
<path d="M6.07049 37.9162C21.1638 46.4346 36.9029 51.5937 52.2065 53.3931C53.215 53.5127 54.2821 52.8003 54.706 51.7424C57.6796 44.335 60.6346 36.8005 63.5626 29.138C64.0454 27.871 63.5068 26.7247 62.3848 26.6182C47.6865 25.2077 32.343 20.5952 17.36 12.7808C16.3134 12.2364 15.1536 12.5402 14.7125 13.4917C11.3671 20.713 8.04286 27.7736 4.75138 34.6736C4.25811 35.7061 4.87434 37.2399 6.07049 37.9162Z" fill="white"/>
</mask>
<g mask="url(#mask0_247_2013)">
<path d="M5.20076 40.3334C20.5353 48.1994 36.5602 52.5865 52.136 53.4937C53.1948 53.5562 54.2741 52.8006 54.7117 51.711C57.6605 44.3712 60.5907 36.9061 63.4946 29.3152C64.0145 27.9523 63.431 26.7188 62.2175 26.6021C47.5503 25.1708 32.2444 20.5533 17.2992 12.7491C16.1638 12.1581 14.9076 12.4848 14.437 13.5148C10.8112 21.4546 7.21016 29.2054 3.64904 36.7672C3.10795 37.9146 3.84749 39.637 5.20112 40.3334H5.20076Z" fill="url(#paint0_linear_247_2013)"/>
<path d="M5.13628 40.2909C20.4892 48.1802 36.5356 52.5808 52.132 53.4927C53.1922 53.5559 54.2729 52.8 54.7101 51.7104C57.6593 44.371 60.5902 36.9058 63.4948 29.3149C64.0151 27.952 63.4298 26.7185 62.2149 26.6015C47.5275 25.1681 32.1997 20.5392 17.2347 12.715C16.0979 12.1222 14.8403 12.4479 14.3697 13.4772C10.7435 21.414 7.14245 29.1623 3.58096 36.7216C3.03987 37.8686 3.78086 39.5928 5.13592 40.2909H5.13628Z" fill="url(#paint1_linear_247_2013)"/>
</g>
<path d="M12.8565 28.3983C12.6555 28.8312 12.8713 29.4185 13.3347 29.7183C16.1099 31.5043 17.6163 34.7226 16.8289 37.5651C16.697 38.0412 16.9659 38.5998 17.4549 38.8212C27.2279 43.2428 37.1538 46.3019 46.953 47.9992C47.3967 48.0733 47.8677 47.8277 48.1197 47.4032C49.308 45.4068 51.5787 44.1489 53.7456 44.0518C54.2159 44.0318 54.6732 43.6819 54.854 43.1992C55.4904 41.5034 56.126 39.8017 56.761 38.0943C56.9558 37.5691 56.7804 37.0425 56.3328 36.888C54.1422 36.1248 53.0424 33.697 53.6874 31.1191C53.8225 30.5764 53.532 30.0992 53.0359 30.0098C43.6048 28.3049 34.0003 25.3218 24.4768 21.0597C24.0551 20.871 23.5823 20.9964 23.3583 21.365C21.8677 23.8233 18.7995 24.7483 15.9085 23.5605C15.4688 23.3813 15.0202 23.5373 14.8465 23.9276C14.1825 25.4243 13.5191 26.9147 12.8569 28.3987L12.8565 28.3983ZM48.2189 35.1831C49.871 35.5596 50.7209 37.4328 50.159 39.4234C49.5974 41.4154 47.3794 43.0298 45.7231 42.6046C44.0668 42.1823 43.6055 39.9427 44.171 37.9918C44.7366 36.0394 46.5673 34.808 48.2189 35.1831ZM37.5553 29.7496C40.3011 30.6419 41.6209 33.6672 40.565 37.2878C39.5094 40.9088 36.0558 42.7227 33.3079 41.6975C30.5607 40.6776 29.5638 37.3448 30.6211 33.8449C31.6785 30.3417 34.8096 28.8606 37.5553 29.7496ZM24.4038 27.6453C26.2949 28.4954 27.0866 30.5735 26.4254 32.7495C25.7643 34.9265 23.2994 36.063 21.4133 35.1467C19.5268 34.2338 18.9282 31.6878 19.5858 29.5642C20.243 27.4403 22.5127 26.7973 24.4038 27.6453Z" fill="#70CFB1"/>
<path d="M47.0061 47.262C46.9813 47.262 46.9569 47.2602 46.9335 47.2562C37.077 45.5491 27.1951 42.4744 17.5655 38.1178C17.2973 37.9964 17.1772 37.698 17.2333 37.4955C18.071 34.4728 16.5412 31.0008 13.5136 29.0524C13.2583 28.8874 13.1533 28.5781 13.2303 28.412C13.8961 26.9201 14.5595 25.4296 15.2235 23.9322C15.2692 23.8293 15.3655 23.8075 15.4381 23.8075C15.4913 23.8075 15.5471 23.8195 15.6042 23.8424C16.4973 24.2095 17.4195 24.3959 18.3438 24.3959C20.574 24.3959 22.5776 23.2871 23.7037 21.4302C23.7785 21.307 23.9154 21.2939 23.9708 21.2939C24.0326 21.2939 24.0952 21.3078 24.1563 21.335C33.6169 25.5688 43.2667 28.5926 52.8366 30.3223C52.9239 30.3379 52.9901 30.38 53.0332 30.4473C53.0868 30.5312 53.099 30.6472 53.0678 30.7736C52.3526 33.6332 53.6085 36.3274 56.0543 37.1797C56.0889 37.1917 56.1374 37.2153 56.1708 37.2869C56.219 37.3905 56.2147 37.5417 56.159 37.6914C55.5284 39.388 54.887 41.1049 54.2528 42.7945C54.1485 43.0729 53.8752 43.291 53.6175 43.3019C51.1777 43.4109 48.8002 44.828 47.5598 46.912C47.4354 47.1213 47.2132 47.262 47.0061 47.262ZM47.5091 34.3663C45.7657 34.3663 44.1036 35.7379 43.5564 37.6275C43.1441 39.0507 43.2487 40.5732 43.8297 41.601C44.2129 42.2788 44.7864 42.7317 45.4875 42.9105C45.7064 42.9668 45.9383 42.9952 46.176 42.9952C47.9977 42.9952 50.0064 41.3291 50.5622 39.3567C50.9073 38.1348 50.784 36.8868 50.2239 35.9327C49.7734 35.1651 49.0651 34.6374 48.2292 34.447C47.9945 34.3935 47.7525 34.3667 47.5091 34.3667V34.3663ZM35.8575 28.7474C33.1708 28.7474 30.8748 30.6028 30.008 33.4744C28.8252 37.3887 30.0634 40.889 33.019 41.9859C33.5824 42.196 34.1803 42.3028 34.7958 42.3028C37.5577 42.3028 40.0953 40.2145 40.9668 37.2248C42.0817 33.4017 40.7018 30.03 37.6109 29.0255C37.0407 28.8409 36.4507 28.7474 35.8572 28.7474H35.8575ZM22.6366 26.5337C20.8843 26.5337 19.4807 27.5517 18.9737 29.1905C18.2942 31.3857 18.8004 34.3136 21.0781 35.4159C21.5853 35.6623 22.1358 35.7874 22.7135 35.7874C24.5813 35.7874 26.2721 34.5146 26.8255 32.6923C27.5668 30.2521 26.6159 27.8872 24.5126 26.9415C23.9169 26.6744 23.2683 26.5333 22.6366 26.5333V26.5337Z" fill="#8EE8CD"/>
<mask id="mask1_247_2013" style="mask-type:luminance" maskUnits="userSpaceOnUse" x="9" y="0" width="58" height="36">
<path d="M64.8016 27.1715C49.4836 34.3975 32.8806 36.6283 17.3195 33.864C16.2938 33.683 15.3515 32.7035 15.1066 31.6008C13.3906 23.8773 11.689 16.0919 10.0046 8.24518C9.72703 6.94805 10.4605 6.06743 11.6128 6.28804C26.7061 9.16724 43.098 7.16539 58.5408 0.281765C59.6198 -0.197618 60.6527 0.190904 60.9033 1.20019C62.8041 8.85395 64.6888 16.4328 66.5529 23.9369C66.8319 25.0606 66.0158 26.5984 64.802 27.1719L64.8016 27.1715Z" fill="white"/>
</mask>
<g mask="url(#mask1_247_2013)">
<path d="M65.1972 29.7733C49.7872 36.2451 33.0522 37.6466 17.3725 33.9776C16.3065 33.729 15.3584 32.7059 15.106 31.5698C13.4037 23.916 11.715 16.202 10.0435 8.4268C9.74476 7.03118 10.5379 6.08477 11.784 6.32065C26.8504 9.15587 43.2002 7.13367 58.6031 0.254043C59.7734 -0.266772 60.8915 0.150825 61.1561 1.24261C63.1954 9.65706 65.2159 17.985 67.2117 26.2268C67.5147 27.4782 66.5573 29.2012 65.1969 29.7733H65.1972Z" fill="url(#paint2_linear_247_2013)"/>
<path d="M65.2643 29.7367C49.8373 36.2347 33.0786 37.6485 17.3773 33.9781C16.3099 33.7295 15.3607 32.706 15.1084 31.5703C13.4053 23.9165 11.7158 16.202 10.044 8.42689C9.74492 7.03127 10.5398 6.08522 11.7874 6.3211C26.8746 9.15959 43.2489 7.12758 58.6702 0.224329C59.8419 -0.298303 60.9611 0.117476 61.2257 1.20926C63.2653 9.62153 65.2858 17.9473 67.2816 26.1866C67.5847 27.4375 66.6258 29.1624 65.2643 29.7367Z" fill="url(#paint3_linear_247_2013)"/>
</g>
<path d="M59.0044 11.8916C58.9081 11.4758 58.5126 11.2755 58.0682 11.4173C55.1438 12.3579 52.3632 11.0738 51.3555 8.44359C51.2038 8.04889 50.7713 7.87262 50.3319 8.01545C40.4133 11.2443 30.2739 12.5269 20.4789 11.8629C19.9637 11.828 19.5894 12.2016 19.6326 12.7413C19.8407 15.305 18.3192 17.3083 15.988 17.4148C15.512 17.4359 15.2463 17.872 15.3538 18.4114C15.7029 20.1643 16.0531 21.9146 16.4033 23.6624C16.5029 24.1596 16.9012 24.6121 17.369 24.7604C19.5229 25.4488 21.5798 27.2038 22.4218 29.3841C22.6005 29.8475 23.0283 30.199 23.4835 30.2411C33.5517 31.1087 43.919 29.9464 53.9836 26.7539C54.4873 26.594 54.8386 26.0622 54.7951 25.5629C54.5341 22.5837 56.5295 19.517 59.4362 17.9673C59.922 17.7078 60.2232 17.1259 60.1086 16.6621C59.7411 15.0746 59.373 13.4846 59.0041 11.8916H59.0044ZM27.9934 21.4127C28.2184 23.3931 27.3692 25.432 25.6435 25.4448C23.9167 25.4604 21.976 23.3866 21.7545 21.3804C21.5327 19.3745 22.7083 17.8299 24.4301 17.8499C26.1515 17.872 27.7687 19.4294 27.9934 21.4127ZM42.1307 19.9062C42.5521 23.5181 40.9989 26.6561 38.1188 27.146C35.2379 27.644 32.129 25.1762 31.7094 21.4894C31.2892 17.8004 33.1364 15.1666 36.0152 14.7671C38.8946 14.3743 41.7097 16.2874 42.1307 19.9062ZM53.55 17.1313C53.8096 19.3534 52.8037 21.863 50.8352 22.5288C48.8668 23.1983 46.6762 21.7027 46.4131 19.4468C46.1499 17.1902 47.2846 15.2403 49.2587 14.6236C51.2332 14.0101 53.2905 14.9071 53.5504 17.1317L53.55 17.1313Z" fill="#70CFB1"/>
<path d="M29.9732 29.7693C27.8235 29.7693 25.6552 29.6763 23.5286 29.4931C23.2816 29.4706 23.0224 29.2525 22.9156 28.9755C22.0542 26.7451 19.9398 24.8061 17.5288 24.0356C17.2441 23.9451 16.9838 23.6471 16.9227 23.3418C16.5721 21.594 16.2223 19.844 15.8732 18.0911C15.8419 17.9345 15.8707 17.8276 15.9077 17.7797C15.9181 17.7662 15.9397 17.7386 16.0113 17.7353C17.1981 17.6812 18.2669 17.1742 19.0216 16.3077C19.8765 15.326 20.2814 13.9675 20.1609 12.4828C20.1552 12.4134 20.1609 12.3167 20.2195 12.2524C20.2727 12.1939 20.354 12.1815 20.4126 12.1815C20.4227 12.1815 20.4331 12.1819 20.4432 12.1826C22.1182 12.2964 23.8256 12.3538 25.5183 12.3538C33.8507 12.3538 42.2539 10.9934 50.4943 8.31086C50.5417 8.29523 50.5888 8.2876 50.6334 8.2876C50.6992 8.2876 50.8164 8.30504 50.8617 8.42316C51.7174 10.6576 53.7509 12.0456 56.1676 12.0456C56.85 12.0456 57.5435 11.9337 58.2288 11.7134C58.2698 11.7003 58.3101 11.6934 58.3464 11.6934C58.4549 11.6934 58.4765 11.7483 58.4884 11.7992L59.5929 16.5701C59.6446 16.7798 59.4818 17.1233 59.1887 17.2796C56.0206 18.9685 53.9968 22.3063 54.2675 25.396C54.2898 25.6511 54.0831 25.947 53.8253 26.0287C46.0005 28.5107 37.9744 29.7693 29.9735 29.7693H29.9732ZM36.7564 13.9664C36.4867 13.9664 36.2135 13.9853 35.9442 14.022C32.7009 14.4716 30.7433 17.4795 31.183 21.3363C31.5781 24.8101 34.2965 27.5312 37.3712 27.5312C37.6523 27.5312 37.9338 27.5072 38.2081 27.4596C41.2544 26.9413 43.1261 23.6478 42.6569 19.6289C42.2694 16.295 39.8429 13.9664 36.7567 13.9664H36.7564ZM24.3972 17.0993C23.5002 17.0993 22.6834 17.4642 22.097 18.1267C21.4124 18.9005 21.0953 20.0297 21.2276 21.2251C21.4808 23.5166 23.6584 25.766 25.624 25.766H25.648C26.3926 25.7605 27.0563 25.4494 27.5672 24.8661C28.3186 24.008 28.6835 22.5789 28.5196 21.1368C28.2704 18.9365 26.4386 17.1251 24.4364 17.0993H24.3969H24.3972ZM50.4709 13.6844C50.0161 13.6844 49.5559 13.7556 49.1029 13.8963C46.8832 14.5901 45.591 16.7595 45.8869 19.2945C46.13 21.3781 47.8766 23.0103 49.863 23.0103C50.252 23.0103 50.6359 22.9467 51.0045 22.8213C53.3594 22.0247 54.3452 19.152 54.0766 16.8532C53.8551 14.9575 52.4062 13.684 50.4713 13.684L50.4709 13.6844Z" fill="#8EE8CD"/>
<path style="mix-blend-mode:multiply" d="M38.9884 47.946C52.591 46.143 62.5148 36.1753 61.1538 25.6825C59.7928 15.1897 47.6624 8.14528 34.0598 9.94828C20.4573 11.7513 10.5335 21.719 11.8945 32.2117C13.2554 42.7045 25.3858 49.749 38.9884 47.946Z" fill="url(#paint4_radial_247_2013)"/>
<path d="M34.5367 37.8705C24.8826 37.3511 13.4464 36.0493 4.32016 33.8911C0.878398 33.0367 -0.59207 30.3585 0.217227 26.9973C1.52375 21.847 4.17635 15.1512 6.98138 10.1833C8.84949 6.95341 11.7581 4.91413 15.5194 5.28884C25.5873 6.29158 36.2308 6.86328 45.6705 8.15423C49.278 8.64779 51.8555 12.5981 51.0174 16.0791C49.6045 21.5969 47.1532 27.6606 44.0174 32.9869C42.0188 36.2877 38.2808 38.0358 34.5367 37.8708V37.8705Z" fill="url(#paint5_linear_247_2013)"/>
<path d="M34.5367 37.8704C24.8826 37.351 13.4464 36.0492 4.32016 33.891C0.878398 33.0366 -0.59207 30.3584 0.217227 26.9972C1.52375 21.8469 4.17635 15.1511 6.98138 10.1832C8.84949 6.9533 11.7591 4.90494 15.5194 5.28873C25.5873 6.31582 36.2308 7.32474 45.6705 8.15412C49.2974 8.47286 51.8555 12.5979 51.0174 16.079C49.6045 21.5968 47.1532 27.6605 44.0174 32.9868C42.0188 36.2876 38.2808 38.0357 34.5367 37.8707V37.8704Z" fill="url(#paint6_linear_247_2013)"/>
<path opacity="0.3" d="M37.1205 29.1659C36.9979 29.1688 36.8764 29.1623 36.7556 29.1463L33.9049 28.7658C32.593 28.5906 31.9325 27.3276 32.4297 25.9443C32.927 24.5611 34.3935 23.582 35.7058 23.7571L38.5565 24.1377C39.8684 24.3128 40.5288 25.5758 40.0316 26.9591C39.58 28.2151 38.3292 29.1379 37.1205 29.1659ZM28.5684 28.024C28.4458 28.0269 28.3239 28.0203 28.2035 28.0043L25.3528 27.6238C24.0409 27.4486 23.3804 26.1853 23.8777 24.8024C24.3752 23.4195 25.8421 22.44 27.1537 22.6156L30.0044 22.9961C31.3163 23.1713 31.9767 24.4346 31.4795 25.8175C31.0279 27.0732 29.7771 27.996 28.5684 28.024ZM20.0163 26.882C19.8937 26.8849 19.7722 26.8784 19.6514 26.8624L16.8007 26.4819C15.4888 26.3067 14.8283 25.0437 15.3256 23.6605C15.8228 22.2776 17.2897 21.2984 18.6016 21.4733L21.4523 21.8538C22.7642 22.029 23.4247 23.2919 22.9274 24.6752C22.4759 25.9313 21.2251 26.854 20.0163 26.8817V26.882ZM11.4642 25.7401C11.3416 25.743 11.2201 25.7364 11.0993 25.7205L8.24863 25.3399C6.93671 25.1648 6.27626 23.9018 6.77348 22.5185C7.27071 21.1353 8.73794 20.1561 10.0495 20.3313L12.9002 20.7118C14.2121 20.887 14.8726 22.15 14.3753 23.5333C13.9238 24.7893 12.673 25.7121 11.4642 25.7401Z" fill="#3453FA"/>
<path opacity="0.3" d="M15.7422 27.3107L9.84735 26.5234L7.88253 26.261C6.97832 26.1404 5.96733 26.8153 5.62434 27.7686C5.28171 28.7219 5.73687 29.5927 6.64108 29.7134C6.64108 29.7134 14.6679 30.7783 14.7524 30.7765C15.5854 30.7572 16.4476 30.1212 16.7589 29.2554C17.1015 28.3021 16.6464 27.4313 15.7422 27.3107Z" fill="#3453FA"/>
<path opacity="0.3" d="M25.1032 28.4203C25.1032 28.4203 22.1285 28.0645 22.1281 28.0645L20.1633 27.802C19.2591 27.6814 18.2481 28.3563 17.9051 29.3096C17.5625 30.2629 18.0176 31.1337 18.9218 31.2544C18.9218 31.2544 24.0289 31.8879 24.1134 31.8861C24.9465 31.8668 25.8086 31.2308 26.1199 30.365C26.4626 29.4117 26.0074 28.5409 25.1032 28.4203Z" fill="#3453FA"/>
<path d="M37.1205 28.5111C36.9979 28.514 36.8764 28.5075 36.7556 28.4915L33.9049 28.111C32.593 27.9358 31.9325 26.6728 32.4297 25.2896C32.927 23.9063 34.3935 22.9272 35.7058 23.1024L38.5565 23.4829C39.8684 23.6581 40.5288 24.921 40.0316 26.3043C39.58 27.56 38.3292 28.4831 37.1205 28.5111ZM28.5684 27.3692C28.4458 27.3721 28.3239 27.3655 28.2035 27.3496L25.3528 26.969C24.0409 26.7938 23.3804 25.5305 23.8777 24.1476C24.3752 22.7647 25.8421 21.7852 27.1537 21.9608L30.0044 22.3413C31.3163 22.5165 31.9767 23.7798 31.4795 25.1627C31.0279 26.4184 29.7771 27.3412 28.5684 27.3692ZM20.0163 26.2272C19.8937 26.2301 19.7722 26.2236 19.6514 26.2076L16.8007 25.8271C15.4888 25.6519 14.8283 24.3889 15.3256 23.0057C15.8228 21.6224 17.2897 20.6437 18.6016 20.8185L21.4523 21.199C22.7642 21.3742 23.4247 22.6371 22.9274 24.0204C22.4759 25.2765 21.2251 26.1993 20.0163 26.2272ZM11.4642 25.0853C11.3416 25.0882 11.2201 25.0817 11.0993 25.0657L8.24863 24.6851C6.93671 24.51 6.27626 23.247 6.77348 21.8637C7.27071 20.4805 8.73794 19.5014 10.0495 19.6765L12.9002 20.0571C14.2121 20.2322 14.8726 21.4952 14.3753 22.8785C13.9238 24.1345 12.673 25.0573 11.4642 25.0853Z" fill="url(#paint7_linear_247_2013)"/>
<path opacity="0.3" d="M14.1911 17.4111L11.4256 16.9866C10.6354 16.8652 10.1849 16.0078 10.5279 15.278L11.888 12.3839C12.2518 11.6094 13.0622 11.154 13.9049 11.25L16.9393 11.5953C17.7353 11.6858 18.2182 12.5286 17.8996 13.2715L16.7369 15.9857C16.3069 16.9899 15.2614 17.575 14.1911 17.4107V17.4111Z" fill="#3453FA"/>
<path opacity="0.3" d="M39.7507 20.5117L36.9852 20.0872C36.195 19.9658 35.7445 19.1084 36.0875 18.3786L37.4475 15.4845C37.8114 14.71 38.6218 14.2546 39.4645 14.3506L42.4989 14.6958C43.2949 14.7863 43.7778 15.6292 43.4596 16.372L42.2969 19.0862C41.8669 20.0904 40.8214 20.6756 39.751 20.5113L39.7507 20.5117Z" fill="#3453FA"/>
<path d="M13.9836 16.8642L11.2181 16.4397C10.4279 16.3183 9.97737 15.461 10.3204 14.7312L11.6805 11.8371C12.0443 11.0626 12.8547 10.6072 13.6974 10.7031L16.7318 11.0484C17.5278 11.1389 18.0107 11.9817 17.6921 12.7246L16.5294 15.4388C16.0994 16.443 15.0539 17.0281 13.9836 16.8638V16.8642Z" fill="url(#paint8_linear_247_2013)"/>
<path d="M14.3425 16.0883C14.2627 16.0883 14.1822 16.0821 14.1027 16.0701L11.3373 15.6453C11.1654 15.6187 11.0809 15.5032 11.046 15.4367C11.0112 15.3701 10.9633 15.2346 11.0381 15.0758L12.3982 12.1817C12.5945 11.7637 13.017 11.4937 13.4743 11.4937C13.5189 11.4937 13.5638 11.4962 13.6084 11.5013L16.6424 11.8469C16.8157 11.8665 16.9042 11.9792 16.9419 12.0446C16.9793 12.1101 17.0318 12.2438 16.9628 12.4055L15.8001 15.1197C15.548 15.7081 14.976 16.0883 14.3425 16.0883Z" fill="url(#paint9_linear_247_2013)"/>
<defs>
<linearGradient id="paint0_linear_247_2013" x1="36.9045" y1="21.6901" x2="28.9473" y2="48.2102" gradientUnits="userSpaceOnUse">
<stop stop-color="#3F9D7B"/>
<stop offset="0.39" stop-color="#43AB85"/>
<stop offset="0.85" stop-color="#4AC296"/>
<stop offset="1" stop-color="#3F9D7B"/>
</linearGradient>
<linearGradient id="paint1_linear_247_2013" x1="59.2693" y1="43.2892" x2="6.80593" y2="24.5456" gradientUnits="userSpaceOnUse">
<stop offset="0.02" stop-color="#8EE8CD"/>
<stop offset="0.04" stop-color="#71D8B6"/>
<stop offset="0.06" stop-color="#5BCBA4"/>
<stop offset="0.07" stop-color="#4EC499"/>
<stop offset="0.09" stop-color="#4AC296"/>
<stop offset="0.87" stop-color="#4AC296"/>
<stop offset="0.9" stop-color="#48BC92"/>
<stop offset="0.94" stop-color="#44AE87"/>
<stop offset="0.97" stop-color="#3F9D7B"/>
</linearGradient>
<linearGradient id="paint2_linear_247_2013" x1="35.0868" y1="7.64798" x2="44.7033" y2="34.8127" gradientUnits="userSpaceOnUse">
<stop stop-color="#8EE8CD"/>
<stop offset="0.05" stop-color="#72D8B6"/>
<stop offset="0.1" stop-color="#55C89E"/>
<stop offset="0.14" stop-color="#4AC296"/>
<stop offset="0.84" stop-color="#4AC296"/>
<stop offset="0.9" stop-color="#49BE93"/>
<stop offset="0.95" stop-color="#45B48C"/>
<stop offset="0.99" stop-color="#40A27F"/>
<stop offset="1" stop-color="#3F9D7B"/>
</linearGradient>
<linearGradient id="paint3_linear_247_2013" x1="11.9365" y1="26.4356" x2="64.7499" y2="10.2427" gradientUnits="userSpaceOnUse">
<stop offset="0.66" stop-color="#3F9D7B"/>
<stop offset="0.75" stop-color="#41A782"/>
<stop offset="0.92" stop-color="#4AC296"/>
<stop offset="0.94" stop-color="#51C69C"/>
<stop offset="0.96" stop-color="#66D1AC"/>
<stop offset="1" stop-color="#8EE8CD"/>
</linearGradient>
<radialGradient id="paint4_radial_247_2013" cx="0" cy="0" r="1" gradientUnits="userSpaceOnUse" gradientTransform="translate(36.4284 28.9648) rotate(-97.3904) scale(19.1738 24.8188)">
<stop offset="0.25" stop-color="#729EB1"/>
<stop offset="0.43" stop-color="#76A0B2"/>
<stop offset="0.62" stop-color="#82A8B6"/>
<stop offset="0.81" stop-color="#97B4BC"/>
<stop offset="0.94" stop-color="#ABC0C3"/>
</radialGradient>
<linearGradient id="paint5_linear_247_2013" x1="28.1144" y1="2.80507" x2="23.0966" y2="39.5381" gradientUnits="userSpaceOnUse">
<stop stop-color="#4B6FFA"/>
<stop offset="0.02" stop-color="#5F8AFA"/>
<stop offset="0.04" stop-color="#6FA0FA"/>
<stop offset="0.06" stop-color="#7AB0FA"/>
<stop offset="0.09" stop-color="#80B9FA"/>
<stop offset="0.13" stop-color="#83BCFA"/>
<stop offset="0.16" stop-color="#79AFF9"/>
<stop offset="0.24" stop-color="#6B9DF7"/>
<stop offset="0.32" stop-color="#6190F6"/>
<stop offset="0.43" stop-color="#5B89F6"/>
<stop offset="0.67" stop-color="#5A87F6"/>
<stop offset="0.74" stop-color="#5782F6"/>
<stop offset="0.82" stop-color="#4F74F9"/>
<stop offset="0.85" stop-color="#4C6FFA"/>
<stop offset="0.93" stop-color="#3453FA"/>
</linearGradient>
<linearGradient id="paint6_linear_247_2013" x1="5.64574" y1="11.9866" x2="46.2084" y2="30.3331" gradientUnits="userSpaceOnUse">
<stop offset="0.84" stop-color="#3453FA"/>
<stop offset="1" stop-color="#3453FA"/>
</linearGradient>
<linearGradient id="paint7_linear_247_2013" x1="23.7756" y1="21.448" x2="22.9258" y2="27.3303" gradientUnits="userSpaceOnUse">
<stop offset="0.03" stop-color="#CFEBFE"/>
<stop offset="0.08" stop-color="#E0F1FC"/>
<stop offset="0.13" stop-color="#EEF6FB"/>
<stop offset="0.18" stop-color="#F3F8FB"/>
<stop offset="0.29" stop-color="#EEF6FB"/>
<stop offset="0.41" stop-color="#E2F2FC"/>
<stop offset="0.53" stop-color="#CFEBFE"/>
<stop offset="0.6" stop-color="#C7E6FB"/>
<stop offset="0.7" stop-color="#B3D9F3"/>
<stop offset="0.82" stop-color="#93C4E6"/>
<stop offset="0.93" stop-color="#70AED8"/>
</linearGradient>
<linearGradient id="paint8_linear_247_2013" x1="12.3711" y1="11.1251" x2="15.7779" y2="16.5003" gradientUnits="userSpaceOnUse">
<stop stop-color="#F9D075"/>
<stop offset="0.18" stop-color="#F9C870"/>
<stop offset="0.46" stop-color="#F9B363"/>
<stop offset="0.79" stop-color="#FA914E"/>
<stop offset="1" stop-color="#FB793F"/>
</linearGradient>
<linearGradient id="paint9_linear_247_2013" x1="15.2729" y1="13.9649" x2="20.3786" y2="14.7047" gradientUnits="userSpaceOnUse">
<stop stop-color="#F29E50"/>
<stop offset="0.04" stop-color="#F3AB5A"/>
<stop offset="0.11" stop-color="#F6BF68"/>
<stop offset="0.18" stop-color="#F8CB71"/>
<stop offset="0.25" stop-color="#F9D075"/>
<stop offset="0.38" stop-color="#F9BE6A"/>
<stop offset="0.62" stop-color="#FA914E"/>
<stop offset="0.74" stop-color="#FB793F"/>
<stop offset="0.86" stop-color="#FA7B40"/>
<stop offset="0.92" stop-color="#F88343"/>
<stop offset="0.97" stop-color="#F59049"/>
<stop offset="1" stop-color="#F29E50"/>
</linearGradient>
</defs>
</svg>
