<svg width="56" height="56" viewBox="0 0 56 56" fill="none" xmlns="http://www.w3.org/2000/svg">
<g clip-path="url(#clip0_313_5184)">
<path d="M32.3039 12.1944C31.8795 12.3414 31.4305 12.3206 31.0604 12.0985L28.0534 10.2949C26.9478 9.63208 25.6587 9.32375 24.3154 9.37931C25.4248 7.58369 27.4941 6.74753 29.099 7.45653C29.5073 7.63694 29.9052 7.84085 30.2915 8.06803L32.8865 9.59617C33.3565 9.87288 33.5893 10.4049 33.558 10.9806C33.5129 11.0885 33.4591 11.1943 33.3948 11.2973C33.1217 11.7379 32.7243 12.0486 32.3039 12.1944Z" fill="url(#paint0_linear_313_5184)"/>
<path d="M37.3221 7.70823L32.8531 6.32305C32.188 6.11706 31.5163 5.94423 30.8402 5.80434C28.1823 5.25433 25.542 6.82013 24.7322 9.41074C26.6649 9.02763 28.6823 9.12986 30.5916 9.73521L35.785 11.3831C36.4243 11.5862 37.088 11.5091 37.6405 11.2198C38.1879 10.9331 38.6274 10.4372 38.8273 9.8012C38.8277 9.79966 38.8283 9.79823 38.8287 9.7967C38.9208 9.5066 38.8904 9.18761 38.7528 8.91618C38.4699 8.35772 37.97 7.90906 37.3221 7.70823Z" fill="url(#paint1_linear_313_5184)"/>
<path d="M40.3964 3.98045L34.4226 3.51038C33.5336 3.44066 32.6457 3.41409 31.7617 3.43001C28.2861 3.4926 25.4292 6.19333 25.1482 9.6582C27.4547 8.63449 30.0038 8.19319 32.56 8.41104L39.5127 9.00508C40.3687 9.07843 41.1761 8.79503 41.7847 8.27763C42.3877 7.76507 42.797 7.02169 42.8673 6.17082C42.8675 6.16885 42.8676 6.16687 42.8678 6.16489C42.9028 5.75598 42.7536 5.35147 42.4859 5.04028C41.9761 4.44734 41.2409 4.04689 40.3964 3.98045Z" fill="url(#paint2_linear_313_5184)"/>
<path d="M48.0575 41.7368C52.4441 41.7368 56.0001 38.1808 56.0001 33.7942C56.0001 29.4077 52.4441 25.8517 48.0575 25.8517C43.671 25.8517 40.115 29.4077 40.115 33.7942C40.115 38.1808 43.671 41.7368 48.0575 41.7368Z" fill="url(#paint3_linear_313_5184)"/>
<path d="M48.0575 40.0224C51.4973 40.0224 54.2857 37.234 54.2857 33.7942C54.2857 30.3545 51.4973 27.566 48.0575 27.566C44.6178 27.566 41.8293 30.3545 41.8293 33.7942C41.8293 37.234 44.6178 40.0224 48.0575 40.0224Z" fill="url(#paint4_linear_313_5184)"/>
<path d="M48.7077 32.7215V30.7639C49.5793 30.8309 49.8341 31.26 50.2765 31.26C50.8666 31.26 51.1079 30.5226 51.1079 30.1606C51.1079 29.2355 49.5392 29.0208 48.7077 28.9941V28.6589C48.7077 28.4711 48.453 28.2968 48.1983 28.2968C47.9034 28.2968 47.6887 28.4711 47.6887 28.6589V29.0342C46.2674 29.2355 45.0071 30.0533 45.0071 31.7562C45.0071 33.4725 46.4552 34.0491 47.6887 34.5184V36.6904C46.6966 36.516 46.2406 35.725 45.6776 35.725C45.168 35.725 44.7659 36.3953 44.7659 36.8512C44.7659 37.7094 46.0798 38.5408 47.6888 38.5944V38.9296C47.6888 39.1174 47.9034 39.2917 48.1985 39.2917C48.4532 39.2917 48.7078 39.1174 48.7078 38.9296V38.5408C50.2766 38.2861 51.3494 37.2804 51.3494 35.6178C51.3493 33.8076 49.928 33.1773 48.7077 32.7215ZM47.8228 32.3997C47.3132 32.1852 46.9647 31.9439 46.9647 31.555C46.9647 31.2332 47.2194 30.9248 47.8228 30.8042V32.3997ZM48.5738 36.677V34.8803C49.0565 35.1082 49.3917 35.3899 49.3917 35.8323C49.3917 36.3149 49.0296 36.5697 48.5738 36.677Z" fill="url(#paint5_linear_313_5184)"/>
<path d="M40.115 33.7943C40.115 38.1808 43.671 41.7367 48.0575 41.7367C52.4441 41.7367 56 38.1807 56 33.7943C56 33.5286 55.9864 33.2661 55.9609 33.0072H40.1541C40.1286 33.2661 40.115 33.5286 40.115 33.7943Z" fill="url(#paint6_linear_313_5184)"/>
<path d="M48.0575 41.7368C52.4441 41.7368 56.0001 38.1808 56.0001 33.7942C56.0001 29.4077 52.4441 25.8517 48.0575 25.8517C43.671 25.8517 40.115 29.4077 40.115 33.7942C40.115 38.1808 43.671 41.7368 48.0575 41.7368Z" fill="url(#paint7_linear_313_5184)"/>
<path d="M53.9571 7.57071C42.8982 2.9943 31.6987 12.7564 20.6369 8.48812C20.0482 8.26093 19.4141 8.68873 19.4141 9.31966V27.6324C19.4141 28.1976 19.7545 28.708 20.2767 28.9241C31.3355 33.5005 42.5349 23.7382 53.5968 28.0066C54.1856 28.2338 54.8197 27.806 54.8197 27.175V8.86233C54.8197 8.29717 54.4793 7.7868 53.9571 7.57071Z" fill="url(#paint8_linear_313_5184)"/>
<path d="M52.9878 12.0643C52.811 11.8875 52.5761 11.7909 52.3224 11.7909C52.3213 11.7909 52.3213 11.7909 52.3202 11.7909C51.153 11.7909 50.2032 10.8411 50.2032 9.67383C50.2032 9.56623 50.2109 9.45862 50.2274 9.35321C50.2768 9.02819 50.19 8.69219 49.9891 8.43195C49.787 8.17172 49.4829 8.00262 49.1546 7.96968C48.5737 7.91038 47.9676 7.88074 47.3538 7.88074C44.131 7.88074 40.9006 8.65595 37.4813 9.47619C34.0346 10.303 30.4714 11.1584 26.8797 11.1584C26.4834 11.1584 25.8827 11.1408 25.449 11.1254C24.8187 11.1024 24.2565 11.5251 24.1083 12.1269C23.8744 13.0734 23.0289 13.7344 22.0517 13.7344C22.0187 13.7344 21.9847 13.7344 21.9517 13.7322C21.697 13.7201 21.4455 13.8134 21.2611 13.9891C21.0777 14.1648 20.9756 14.4009 20.9756 14.6556V23.7792C20.9756 24.0252 21.0722 24.2569 21.2457 24.4304C21.4225 24.6072 21.6575 24.7038 21.9122 24.7038H21.9133C23.0805 24.7038 24.0303 25.6536 24.0303 26.8208C24.0303 26.9284 24.0226 27.036 24.0062 27.1414C23.9568 27.4665 24.0435 27.8025 24.2444 28.0627C24.4465 28.3229 24.7506 28.492 25.079 28.525C25.6598 28.5843 26.2659 28.6139 26.8797 28.6139C30.1014 28.6139 33.3318 27.8387 36.7522 27.0185C40.199 26.1916 43.7621 25.3363 47.3538 25.3363C47.5525 25.3363 47.8018 25.3407 48.0554 25.3472C48.3091 25.3538 48.5671 25.3615 48.7845 25.3692C49.4126 25.3912 49.977 24.9695 50.1252 24.3678C50.3591 23.4213 51.2046 22.7603 52.1819 22.7603C52.2148 22.7603 52.2488 22.7603 52.2818 22.7625C52.5365 22.7734 52.788 22.6812 52.9725 22.5055C53.1558 22.3298 53.2579 22.0938 53.2579 21.839V12.7154C53.2579 12.4694 53.1613 12.2378 52.9878 12.0643ZM28.4741 14.9203H26.1463C25.5632 14.9203 25.091 14.447 25.091 13.864C25.091 13.2809 25.5632 12.8087 26.1463 12.8087H28.4741C29.0572 12.8087 29.5293 13.2809 29.5293 13.864C29.5293 14.447 29.0572 14.9203 28.4741 14.9203ZM48.0873 23.6859H45.7594C45.1764 23.6859 44.7042 23.2138 44.7042 22.6307C44.7042 22.0476 45.1764 21.5744 45.7594 21.5744H48.0873C48.6703 21.5744 49.1425 22.0476 49.1425 22.6307C49.1425 23.2138 48.6703 23.6859 48.0873 23.6859Z" fill="url(#paint9_linear_313_5184)"/>
<path d="M19.4141 17.692V27.6324C19.4141 28.1976 19.7545 28.708 20.2767 28.9241C31.3355 33.5005 42.5349 23.7382 53.5968 28.0067C54.1856 28.2338 54.8197 27.806 54.8197 27.175V17.6919L19.4141 17.692Z" fill="url(#paint10_linear_313_5184)"/>
<path d="M53.9571 7.57077C50.2535 6.03813 46.5342 6.11378 42.8096 6.73187V27.312C46.4134 26.7139 50.0124 26.6236 53.5968 28.0067C54.1856 28.2339 54.8197 27.8061 54.8197 27.1751V8.86239C54.8197 8.29723 54.4793 7.78686 53.9571 7.57077Z" fill="url(#paint11_linear_313_5184)"/>
<path d="M36.7013 25.8516C40.7164 25.8516 43.9714 22.5967 43.9714 18.5815C43.9714 14.5663 40.7164 11.3114 36.7013 11.3114C32.6861 11.3114 29.4312 14.5663 29.4312 18.5815C29.4312 22.5967 32.6861 25.8516 36.7013 25.8516Z" fill="url(#paint12_linear_313_5184)"/>
<path d="M37.3515 17.5089V15.5513C38.2231 15.6183 38.4779 16.0474 38.9203 16.0474C39.5104 16.0474 39.7517 15.3099 39.7517 14.9479C39.7517 14.0228 38.183 13.8082 37.3515 13.7815V13.4462C37.3515 13.2585 37.0968 13.0841 36.8421 13.0841C36.5472 13.0841 36.3325 13.2585 36.3325 13.4462V13.8216C34.9112 14.0228 33.6509 14.8406 33.6509 16.5436C33.6509 18.2598 35.099 18.8364 36.3325 19.3057V21.4777C35.3403 21.3034 34.8844 20.5123 34.3214 20.5123C33.8118 20.5123 33.4097 21.1827 33.4097 21.6386C33.4097 22.4967 34.7236 23.3282 36.3326 23.3817V23.717C36.3326 23.9047 36.5472 24.0791 36.8423 24.0791C37.097 24.0791 37.3516 23.9047 37.3516 23.717V23.3282C38.9204 23.0734 39.9932 22.0677 39.9932 20.4052C39.9931 18.5949 38.5718 17.9647 37.3515 17.5089ZM36.4666 17.187C35.957 16.9726 35.6085 16.7312 35.6085 16.3423C35.6085 16.0206 35.8632 15.7122 36.4666 15.5916V17.187ZM37.2176 21.4643V19.6676C37.7003 19.8956 38.0355 20.1772 38.0355 20.6196C38.0354 21.1022 37.6734 21.3571 37.2176 21.4643Z" fill="url(#paint13_linear_313_5184)"/>
<path d="M20.2767 28.9241C28.5728 32.3572 36.9481 27.721 45.2851 26.9924L34.682 16.3893H19.4141V27.6324C19.4141 28.1976 19.7545 28.708 20.2767 28.9241Z" fill="url(#paint14_linear_313_5184)"/>
<path d="M6.24048 9.62843V20.7022C6.24048 21.3068 6.58032 21.8603 7.11968 22.1337L10.749 23.9739C12.2238 24.7227 13.9075 24.9921 15.5301 24.6723C15.6057 24.6581 15.6812 24.6417 15.7567 24.6241C15.7688 24.6208 15.7808 24.6186 15.7929 24.6153C17.1023 24.3154 20.8127 22.6863 22.2655 22.037C22.6913 21.8465 23.1315 21.6889 23.5848 21.5794C26.2562 20.9301 29.0282 20.8459 31.7226 21.3254C33.0813 21.5663 34.406 20.8809 35.0092 19.692C35.0957 19.5212 35.168 19.3394 35.2227 19.1489C35.7022 17.4848 34.7147 15.7473 33.0364 15.3181C30.1132 14.5704 27.1243 14.0931 24.1103 13.8927L23.9319 13.8094C23.2826 13.5062 23.1546 12.8317 23.6484 12.3128C26.4773 9.33382 27.4835 8.79732 30.0662 7.66744C33.1568 6.31751 36.6198 6.00446 39.8681 6.90979C39.9886 6.94262 40.1091 6.97765 40.2283 7.01377L42.9938 7.95205C44.7028 8.47208 46.5159 7.50317 47.0304 5.79199C47.545 4.08849 46.5794 2.29726 44.8748 1.7915L43.0793 1.18824C35.7865 -0.977208 27.9147 -0.161584 21.2035 3.45799L16.9391 5.79978L14.2601 7.30409C13.3558 7.81205 12.3441 8.05296 11.3369 8.02342H7.84548C6.95904 8.02331 6.24048 8.74198 6.24048 9.62843Z" fill="url(#paint15_linear_313_5184)"/>
<path d="M23.3541 13.0831C23.3872 13.3777 23.5838 13.6471 23.9317 13.8096L24.1101 13.8928C27.1241 14.0931 30.113 14.5705 33.0362 15.3183C34.7145 15.7475 35.7021 17.485 35.2225 19.149C35.1677 19.3395 35.0954 19.5213 35.009 19.6921C34.4057 20.8811 33.0811 21.5665 31.7223 21.3256C29.028 20.846 26.2559 20.9303 23.5846 21.5795C23.1313 21.689 22.6912 21.8467 22.2653 22.0372C20.8124 22.6865 17.1021 24.3155 15.7927 24.6155C15.7806 24.6188 15.7686 24.621 15.7565 24.6243C15.681 24.6419 15.6054 24.6582 15.5299 24.6725C13.9073 24.9921 12.2235 24.7229 10.7488 23.974L7.11968 22.1337C6.58032 21.8603 6.24048 21.3069 6.24048 20.7022V13.0831H23.3541Z" fill="url(#paint16_linear_313_5184)"/>
<path d="M22.6378 2.73694C22.1546 2.9639 21.6758 3.20317 21.2034 3.45802L16.9391 5.79981L14.2601 7.30412C13.3558 7.81208 12.3441 8.05299 11.3369 8.02345H7.84548C6.95904 8.02345 6.24048 8.74201 6.24048 9.62845V20.7022C6.24048 21.3069 6.58032 21.8603 7.11968 22.1337L10.749 23.9739C12.2237 24.7228 13.9075 24.9921 15.5301 24.6724C15.6057 24.6581 15.6812 24.6417 15.7567 24.6242C15.7688 24.6209 15.7808 24.6187 15.7929 24.6154C17.1023 24.3154 20.8127 22.6863 22.2655 22.0371C22.3884 21.9822 22.5128 21.9308 22.6379 21.8817V2.73694H22.6378Z" fill="url(#paint17_linear_313_5184)"/>
<path d="M10.4675 25.278H7.6956C6.89195 25.278 6.24048 24.6266 6.24048 23.8229V7.99699C6.24048 7.19334 6.89195 6.54187 7.6956 6.54187H10.4675C11.2711 6.54187 11.9226 7.19334 11.9226 7.99699V23.8228C11.9226 24.6266 11.2711 25.278 10.4675 25.278Z" fill="url(#paint18_linear_313_5184)"/>
<path d="M10.4675 25.278H7.6956C6.89195 25.278 6.24048 24.6266 6.24048 23.8229V7.99699C6.24048 7.19334 6.89195 6.54187 7.6956 6.54187H10.4675C11.2711 6.54187 11.9226 7.19334 11.9226 7.99699V23.8228C11.9226 24.6266 11.2711 25.278 10.4675 25.278Z" fill="url(#paint19_linear_313_5184)"/>
<path d="M6.24048 13.0841V23.8228C6.24048 24.6265 6.89195 25.2779 7.6956 25.2779H10.4675C11.2711 25.2779 11.9226 24.6265 11.9226 23.8228V13.0841H6.24048Z" fill="url(#paint20_linear_313_5184)"/>
<path d="M29.8901 38.1188C34.2766 38.1188 37.8326 34.5628 37.8326 30.1762C37.8326 25.7896 34.2766 22.2336 29.8901 22.2336C25.5035 22.2336 21.9475 25.7896 21.9475 30.1762C21.9475 34.5628 25.5035 38.1188 29.8901 38.1188Z" fill="url(#paint21_linear_313_5184)"/>
<path d="M29.8901 36.4044C33.3298 36.4044 36.1182 33.6159 36.1182 30.1762C36.1182 26.7365 33.3298 23.948 29.8901 23.948C26.4503 23.948 23.6619 26.7365 23.6619 30.1762C23.6619 33.6159 26.4503 36.4044 29.8901 36.4044Z" fill="url(#paint22_linear_313_5184)"/>
<path d="M30.5402 29.1035V27.1459C31.4119 27.2129 31.6666 27.642 32.109 27.642C32.6991 27.642 32.9404 26.9045 32.9404 26.5425C32.9404 25.6174 31.3717 25.4028 30.5402 25.3761V25.0408C30.5402 24.8531 30.2855 24.6787 30.0309 24.6787C29.7359 24.6787 29.5213 24.8531 29.5213 25.0408V25.4162C28.1 25.6174 26.8396 26.4352 26.8396 28.1382C26.8396 29.8544 28.2877 30.431 29.5213 30.9003V33.0723C28.5291 32.898 28.0732 32.1069 27.5101 32.1069C27.0005 32.1069 26.5984 32.7773 26.5984 33.2332C26.5984 34.0913 27.9123 34.9228 29.5214 34.9763V35.3116C29.5214 35.4993 29.7359 35.6737 30.031 35.6737C30.2857 35.6737 30.5403 35.4993 30.5403 35.3116V34.9228C32.1091 34.668 33.1819 33.6623 33.1819 31.9998C33.1817 30.1896 31.7604 29.5593 30.5402 29.1035ZM29.6553 28.7816C29.1457 28.5672 28.7972 28.3258 28.7972 27.9369C28.7972 27.6152 29.052 27.3068 29.6553 27.1862V28.7816ZM30.4063 33.0589V31.2621C30.889 31.4901 31.2242 31.7717 31.2242 32.2141C31.2241 32.6968 30.8621 32.9517 30.4063 33.0589Z" fill="url(#paint23_linear_313_5184)"/>
<path d="M21.9475 30.1762C21.9475 34.5628 25.5035 38.1187 29.8901 38.1187C34.2766 38.1187 37.8325 34.5627 37.8325 30.1762C37.8325 29.9105 37.8189 29.6481 37.7934 29.3892H21.9866C21.9611 29.6481 21.9475 29.9105 21.9475 30.1762Z" fill="url(#paint24_linear_313_5184)"/>
<path d="M37.1169 56.0001C41.5034 56.0001 45.0594 52.4441 45.0594 48.0575C45.0594 43.671 41.5034 40.115 37.1169 40.115C32.7303 40.115 29.1743 43.671 29.1743 48.0575C29.1743 52.4441 32.7303 56.0001 37.1169 56.0001Z" fill="url(#paint25_linear_313_5184)"/>
<path d="M37.1169 54.2857C40.5566 54.2857 43.345 51.4973 43.345 48.0575C43.345 44.6178 40.5566 41.8293 37.1169 41.8293C33.6771 41.8293 30.8887 44.6178 30.8887 48.0575C30.8887 51.4973 33.6771 54.2857 37.1169 54.2857Z" fill="url(#paint26_linear_313_5184)"/>
<path d="M37.767 46.9848V45.0272C38.6387 45.0942 38.8934 45.5233 39.3358 45.5233C39.9259 45.5233 40.1673 44.7859 40.1673 44.4239C40.1673 43.4988 38.5985 43.2841 37.767 43.2574V42.9222C37.767 42.7344 37.5123 42.5601 37.2577 42.5601C36.9627 42.5601 36.7481 42.7344 36.7481 42.9222V43.2975C35.3268 43.4988 34.0664 44.3166 34.0664 46.0195C34.0664 47.7358 35.5145 48.3124 36.7481 48.7817V50.9537C35.7559 50.7793 35.3 49.9883 34.7369 49.9883C34.2273 49.9883 33.8252 50.6586 33.8252 51.1146C33.8252 51.9727 35.1391 52.8041 36.7482 52.8577V53.1929C36.7482 53.3807 36.9627 53.5551 37.2578 53.5551C37.5125 53.5551 37.7672 53.3807 37.7672 53.1929V52.8041C39.3359 52.5494 40.4087 51.5437 40.4087 49.8811C40.4086 48.0709 38.9873 47.4406 37.767 46.9848ZM36.8822 46.663C36.3726 46.4485 36.0241 46.2072 36.0241 45.8183C36.0241 45.4965 36.2789 45.1881 36.8822 45.0675V46.663ZM37.6331 50.9402V49.1435C38.1158 49.3714 38.451 49.6531 38.451 50.0955C38.451 50.5782 38.0889 50.833 37.6331 50.9402Z" fill="url(#paint27_linear_313_5184)"/>
<path d="M29.1743 48.0575C29.1743 52.444 32.7303 55.9999 37.1169 55.9999C41.5034 55.9999 45.0593 52.4439 45.0593 48.0575C45.0593 47.7917 45.0457 47.5293 45.0202 47.2704H29.2135C29.1879 47.5294 29.1743 47.7918 29.1743 48.0575Z" fill="url(#paint28_linear_313_5184)"/>
<path d="M7.16504 26.3348H1.61928C0.725035 26.3348 0 25.6099 0 24.7155V7.10439C0 6.21003 0.725035 5.48511 1.61928 5.48511H7.16504C8.05928 5.48511 8.78431 6.21014 8.78431 7.10439V24.7155C8.78431 25.6099 8.05928 26.3348 7.16504 26.3348Z" fill="url(#paint29_linear_313_5184)"/>
<path d="M0 12.7654V24.7156C0 25.6099 0.725035 26.3348 1.61928 26.3348H7.16504C8.05939 26.3348 8.78431 25.6098 8.78431 24.7156V12.7654H0Z" fill="url(#paint30_linear_313_5184)"/>
</g>
<defs>
<linearGradient id="paint0_linear_313_5184" x1="28.9999" y1="12.3058" x2="29.1095" y2="10.0786" gradientUnits="userSpaceOnUse">
<stop stop-color="#FFDFCF"/>
<stop offset="1" stop-color="#FFA78F"/>
</linearGradient>
<linearGradient id="paint1_linear_313_5184" x1="31.857" y1="11.7236" x2="31.9796" y2="6.5143" gradientUnits="userSpaceOnUse">
<stop stop-color="#FFDFCF"/>
<stop offset="1" stop-color="#FFA78F"/>
</linearGradient>
<linearGradient id="paint2_linear_313_5184" x1="34.4927" y1="9.93147" x2="33.5165" y2="3.95174" gradientUnits="userSpaceOnUse">
<stop stop-color="#FFDFCF"/>
<stop offset="1" stop-color="#FFA78F"/>
</linearGradient>
<linearGradient id="paint3_linear_313_5184" x1="44.9943" y1="30.731" x2="57.4124" y2="43.149" gradientUnits="userSpaceOnUse">
<stop stop-color="#FEF48B"/>
<stop offset="0.1462" stop-color="#FDF07E"/>
<stop offset="0.4164" stop-color="#FCE55C"/>
<stop offset="0.778" stop-color="#FBD325"/>
<stop offset="1" stop-color="#FAC600"/>
</linearGradient>
<linearGradient id="paint4_linear_313_5184" x1="40.3964" y1="26.133" x2="55.8863" y2="41.6229" gradientUnits="userSpaceOnUse">
<stop stop-color="#FAC600" stop-opacity="0"/>
<stop offset="0.408" stop-color="#EFBD01" stop-opacity="0.408"/>
<stop offset="1" stop-color="#D7AA02"/>
</linearGradient>
<linearGradient id="paint5_linear_313_5184" x1="23.056" y1="14.042" x2="51.9893" y2="36.7652" gradientUnits="userSpaceOnUse">
<stop stop-color="#FAC600" stop-opacity="0"/>
<stop offset="0.408" stop-color="#EFBD01" stop-opacity="0.408"/>
<stop offset="1" stop-color="#D7AA02"/>
</linearGradient>
<linearGradient id="paint6_linear_313_5184" x1="48.0575" y1="35.4915" x2="48.0575" y2="41.8618" gradientUnits="userSpaceOnUse">
<stop stop-color="#FAC600" stop-opacity="0"/>
<stop offset="0.408" stop-color="#EFBD01" stop-opacity="0.408"/>
<stop offset="1" stop-color="#D7AA02"/>
</linearGradient>
<linearGradient id="paint7_linear_313_5184" x1="48.0575" y1="31.0745" x2="48.0575" y2="27.1507" gradientUnits="userSpaceOnUse">
<stop stop-color="#FAC600" stop-opacity="0"/>
<stop offset="0.408" stop-color="#EFBD01" stop-opacity="0.408"/>
<stop offset="1" stop-color="#D7AA02"/>
</linearGradient>
<linearGradient id="paint8_linear_313_5184" x1="33.2006" y1="7.70379" x2="41.3231" y2="29.5719" gradientUnits="userSpaceOnUse">
<stop stop-color="#BBEC6C"/>
<stop offset="1" stop-color="#78A91F"/>
</linearGradient>
<linearGradient id="paint9_linear_313_5184" x1="31.1613" y1="-0.328753" x2="45.2895" y2="43.7393" gradientUnits="userSpaceOnUse">
<stop stop-color="#78A91F" stop-opacity="0"/>
<stop offset="1" stop-color="#026841"/>
</linearGradient>
<linearGradient id="paint10_linear_313_5184" x1="37.2081" y1="25.728" x2="37.3545" y2="30.6326" gradientUnits="userSpaceOnUse">
<stop stop-color="#78A91F" stop-opacity="0"/>
<stop offset="1" stop-color="#026841"/>
</linearGradient>
<linearGradient id="paint11_linear_313_5184" x1="51.6922" y1="17.1935" x2="56.7364" y2="17.1935" gradientUnits="userSpaceOnUse">
<stop stop-color="#78A91F" stop-opacity="0"/>
<stop offset="1" stop-color="#026841"/>
</linearGradient>
<linearGradient id="paint12_linear_313_5184" x1="31.4093" y1="3.8813" x2="40.7087" y2="29.7131" gradientUnits="userSpaceOnUse">
<stop stop-color="#78A91F" stop-opacity="0"/>
<stop offset="1" stop-color="#026841"/>
</linearGradient>
<linearGradient id="paint13_linear_313_5184" x1="11.6998" y1="-1.17064" x2="40.633" y2="21.5525" gradientUnits="userSpaceOnUse">
<stop stop-color="#78A91F" stop-opacity="0"/>
<stop offset="1" stop-color="#026841"/>
</linearGradient>
<linearGradient id="paint14_linear_313_5184" x1="32.01" y1="26.2982" x2="29.0086" y2="16.4159" gradientUnits="userSpaceOnUse">
<stop stop-color="#026841" stop-opacity="0"/>
<stop offset="1" stop-color="#026841"/>
</linearGradient>
<linearGradient id="paint15_linear_313_5184" x1="22.1622" y1="2.61646" x2="31.7975" y2="23.814" gradientUnits="userSpaceOnUse">
<stop stop-color="#FFDFCF"/>
<stop offset="1" stop-color="#FFA78F"/>
</linearGradient>
<linearGradient id="paint16_linear_313_5184" x1="20.7921" y1="18.612" x2="20.7921" y2="24.7469" gradientUnits="userSpaceOnUse">
<stop stop-color="#F89580" stop-opacity="0"/>
<stop offset="0.2859" stop-color="#EE8E79" stop-opacity="0.287"/>
<stop offset="0.7624" stop-color="#D57B65" stop-opacity="0.765"/>
<stop offset="0.9972" stop-color="#C5715A"/>
</linearGradient>
<linearGradient id="paint17_linear_313_5184" x1="15.9765" y1="13.7709" x2="11.0522" y2="13.7709" gradientUnits="userSpaceOnUse">
<stop stop-color="#F89580" stop-opacity="0"/>
<stop offset="0.2859" stop-color="#EE8E79" stop-opacity="0.287"/>
<stop offset="0.7624" stop-color="#D57B65" stop-opacity="0.765"/>
<stop offset="0.9972" stop-color="#C5715A"/>
</linearGradient>
<linearGradient id="paint18_linear_313_5184" x1="8.87577" y1="15.91" x2="11.6978" y2="15.91" gradientUnits="userSpaceOnUse">
<stop stop-color="#FFFDF1"/>
<stop offset="1" stop-color="#FFF5C6"/>
</linearGradient>
<linearGradient id="paint19_linear_313_5184" x1="9.91891" y1="15.91" x2="7.97911" y2="15.91" gradientUnits="userSpaceOnUse">
<stop stop-color="#FEA613" stop-opacity="0"/>
<stop offset="0.1689" stop-color="#FDA016" stop-opacity="0.169"/>
<stop offset="0.4029" stop-color="#F98E1F" stop-opacity="0.403"/>
<stop offset="0.675" stop-color="#F3712E" stop-opacity="0.675"/>
<stop offset="0.9738" stop-color="#EA4842" stop-opacity="0.974"/>
<stop offset="1" stop-color="#E94444"/>
</linearGradient>
<linearGradient id="paint20_linear_313_5184" x1="9.08155" y1="21.5581" x2="9.08155" y2="27.5269" gradientUnits="userSpaceOnUse">
<stop stop-color="#FEA613" stop-opacity="0"/>
<stop offset="0.1689" stop-color="#FDA016" stop-opacity="0.169"/>
<stop offset="0.4029" stop-color="#F98E1F" stop-opacity="0.403"/>
<stop offset="0.675" stop-color="#F3712E" stop-opacity="0.675"/>
<stop offset="0.9738" stop-color="#EA4842" stop-opacity="0.974"/>
<stop offset="1" stop-color="#E94444"/>
</linearGradient>
<linearGradient id="paint21_linear_313_5184" x1="26.8269" y1="27.1129" x2="39.2449" y2="39.5309" gradientUnits="userSpaceOnUse">
<stop stop-color="#FEF48B"/>
<stop offset="0.1462" stop-color="#FDF07E"/>
<stop offset="0.4164" stop-color="#FCE55C"/>
<stop offset="0.778" stop-color="#FBD325"/>
<stop offset="1" stop-color="#FAC600"/>
</linearGradient>
<linearGradient id="paint22_linear_313_5184" x1="22.2289" y1="22.5149" x2="37.7189" y2="38.0049" gradientUnits="userSpaceOnUse">
<stop stop-color="#FAC600" stop-opacity="0"/>
<stop offset="0.408" stop-color="#EFBD01" stop-opacity="0.408"/>
<stop offset="1" stop-color="#D7AA02"/>
</linearGradient>
<linearGradient id="paint23_linear_313_5184" x1="4.8885" y1="10.4239" x2="33.8217" y2="33.1471" gradientUnits="userSpaceOnUse">
<stop stop-color="#FAC600" stop-opacity="0"/>
<stop offset="0.408" stop-color="#EFBD01" stop-opacity="0.408"/>
<stop offset="1" stop-color="#D7AA02"/>
</linearGradient>
<linearGradient id="paint24_linear_313_5184" x1="29.89" y1="31.8735" x2="29.89" y2="38.2438" gradientUnits="userSpaceOnUse">
<stop stop-color="#FAC600" stop-opacity="0"/>
<stop offset="0.408" stop-color="#EFBD01" stop-opacity="0.408"/>
<stop offset="1" stop-color="#D7AA02"/>
</linearGradient>
<linearGradient id="paint25_linear_313_5184" x1="34.0537" y1="44.9942" x2="46.4716" y2="57.4123" gradientUnits="userSpaceOnUse">
<stop stop-color="#FEF48B"/>
<stop offset="0.1462" stop-color="#FDF07E"/>
<stop offset="0.4164" stop-color="#FCE55C"/>
<stop offset="0.778" stop-color="#FBD325"/>
<stop offset="1" stop-color="#FAC600"/>
</linearGradient>
<linearGradient id="paint26_linear_313_5184" x1="29.4556" y1="40.3963" x2="44.9456" y2="55.8862" gradientUnits="userSpaceOnUse">
<stop stop-color="#FAC600" stop-opacity="0"/>
<stop offset="0.408" stop-color="#EFBD01" stop-opacity="0.408"/>
<stop offset="1" stop-color="#D7AA02"/>
</linearGradient>
<linearGradient id="paint27_linear_313_5184" x1="12.1154" y1="28.3052" x2="41.0486" y2="51.0284" gradientUnits="userSpaceOnUse">
<stop stop-color="#FAC600" stop-opacity="0"/>
<stop offset="0.408" stop-color="#EFBD01" stop-opacity="0.408"/>
<stop offset="1" stop-color="#D7AA02"/>
</linearGradient>
<linearGradient id="paint28_linear_313_5184" x1="37.1169" y1="49.7547" x2="37.1169" y2="56.1251" gradientUnits="userSpaceOnUse">
<stop stop-color="#FAC600" stop-opacity="0"/>
<stop offset="0.408" stop-color="#EFBD01" stop-opacity="0.408"/>
<stop offset="1" stop-color="#D7AA02"/>
</linearGradient>
<linearGradient id="paint29_linear_313_5184" x1="4.07406" y1="15.91" x2="8.43689" y2="15.91" gradientUnits="userSpaceOnUse">
<stop stop-color="#554E56"/>
<stop offset="1" stop-color="#433F43"/>
</linearGradient>
<linearGradient id="paint30_linear_313_5184" x1="4.39216" y1="21.7067" x2="4.39216" y2="25.7002" gradientUnits="userSpaceOnUse">
<stop stop-color="#433F43" stop-opacity="0"/>
<stop offset="1" stop-color="#1A1A1A"/>
</linearGradient>
<clipPath id="clip0_313_5184">
<rect width="56" height="56" fill="white"/>
</clipPath>
</defs>
</svg>
