<svg width="56" height="55" viewBox="0 0 56 55" fill="none" xmlns="http://www.w3.org/2000/svg">
<g clip-path="url(#clip0_313_5263)">
<path d="M22.612 8.04461C22.612 5.97856 24.3234 4.29784 26.4269 4.29784H31.9468V1.10204C31.9468 0.493389 31.4446 0 30.8249 0H8.45899C7.83927 0 7.33691 0.493389 7.33691 1.10204V33.8313H22.612V8.04461Z" fill="#0ED2B3"/>
<path d="M30.8251 0H26.208C26.8277 0 27.3301 0.493389 27.3301 1.10193V4.29773H31.9471V1.10193C31.947 0.493389 31.4448 0 30.8251 0Z" fill="#0AB69F"/>
<path d="M22.6121 25.4607H16.0142C15.5611 25.4607 15.1938 25.8213 15.1938 26.2664C15.1938 26.7114 15.5611 27.072 16.0142 27.072H22.6121V25.4607Z" fill="white"/>
<path d="M22.6119 8.04461C22.6119 7.45153 22.7536 6.89058 23.0044 6.3916H11.8999C11.59 6.3916 11.3389 6.63824 11.3389 6.94257V22.1502C11.3389 22.4545 11.59 22.7011 11.8999 22.7011H22.6119V8.04461Z" fill="white"/>
<path d="M13.3212 27.072H11.3389C10.8858 27.072 10.5186 26.7114 10.5186 26.2664C10.5186 25.8213 10.8858 25.4607 11.3389 25.4607H13.3212C13.7742 25.4607 14.1415 25.8213 14.1415 26.2664C14.1415 26.7114 13.7742 27.072 13.3212 27.072Z" fill="white"/>
<path d="M16.6028 11.9912H13.6497C13.408 11.9912 13.2122 11.7988 13.2122 11.5615V8.66113C13.2122 8.42384 13.408 8.23145 13.6497 8.23145H16.6028C16.8444 8.23145 17.0403 8.42384 17.0403 8.66113V11.5615C17.0403 11.7988 16.8445 11.9912 16.6028 11.9912Z" fill="#766E6E"/>
<path d="M16.6028 20.8613H13.6497C13.408 20.8613 13.2122 20.6689 13.2122 20.4316V17.5312C13.2122 17.294 13.408 17.1016 13.6497 17.1016H16.6028C16.8444 17.1016 17.0403 17.294 17.0403 17.5312V20.4316C17.0403 20.6689 16.8445 20.8613 16.6028 20.8613Z" fill="#766E6E"/>
<path d="M19.6419 15.352H16.5249C16.0719 15.352 15.7046 14.9914 15.7046 14.5464C15.7046 14.1013 16.0719 13.7407 16.5249 13.7407H18.8216V8.53772C18.8216 8.09267 19.1888 7.73206 19.6419 7.73206C20.0949 7.73206 20.4622 8.09267 20.4622 8.53772V14.5465C20.4622 14.9914 20.0949 15.352 19.6419 15.352Z" fill="#766E6E"/>
<path d="M14.3251 15.3519H13.5239C13.0709 15.3519 12.7036 14.9913 12.7036 14.5463C12.7036 14.1012 13.0709 13.7406 13.5239 13.7406H14.3251C14.7781 13.7406 15.1454 14.1012 15.1454 14.5463C15.1454 14.9913 14.7781 15.3519 14.3251 15.3519Z" fill="#766E6E"/>
<path d="M22.6119 16.6104C22.5752 16.6055 22.5379 16.6021 22.4997 16.6021H19.6418C19.1888 16.6021 18.8215 16.9627 18.8215 17.4077V20.5552C18.8215 21.0002 19.1888 21.3608 19.6418 21.3608C20.0949 21.3608 20.4622 21.0002 20.4622 20.5552V18.2134H22.4997C22.5379 18.2134 22.5752 18.2099 22.6119 18.205V16.6104Z" fill="#766E6E"/>
<path d="M22.612 28.5701H11.3389C10.8858 28.5701 10.5186 28.9307 10.5186 29.3757C10.5186 29.8208 10.8858 30.1814 11.3389 30.1814H22.612V28.5701Z" fill="white"/>
<path d="M22.6121 33.7211H6.06539C5.13581 33.7211 4.38232 34.4611 4.38232 35.3741V37.6883C4.38232 37.9926 4.63345 38.2392 4.94331 38.2392H22.6121V33.7211Z" fill="#FFD15B"/>
<path d="M50.797 47.9495V8.0446C50.797 5.91443 49.0388 4.18762 46.8699 4.18762H26.4269C24.258 4.18762 22.4998 5.91443 22.4998 8.0446V47.9495H50.797Z" fill="#DFF6FD"/>
<path d="M46.8699 4.18762H42.3005C44.4694 4.18762 46.2276 5.91443 46.2276 8.0446V47.9495H50.797V8.0446C50.797 5.91443 49.0388 4.18762 46.8699 4.18762Z" fill="#C8EFFE"/>
<path d="M22.4998 50.3373C22.4998 52.4675 24.258 54.1943 26.4269 54.1943H46.8699C49.0388 54.1943 50.797 52.4675 50.797 50.3373V47.8392H22.4998V50.3373Z" fill="#8379C1"/>
<path d="M46.2276 47.8392V50.3373C46.2276 52.4675 44.4694 54.1943 42.3005 54.1943H46.8699C49.0388 54.1943 50.797 52.4675 50.797 50.3373V47.8392H46.2276Z" fill="#6E61B6"/>
<path d="M43.3618 43.0904H29.9348C29.0052 43.0904 28.2517 42.3504 28.2517 41.4374V38.6873C28.2517 37.7743 29.0052 37.0343 29.9348 37.0343H43.3618C44.2913 37.0343 45.0448 37.7743 45.0448 38.6873V41.4374C45.0448 42.3504 44.2913 43.0904 43.3618 43.0904Z" fill="#0ED2B3"/>
<path d="M43.3618 37.0344H38.7026C39.6321 37.0344 40.3857 37.7745 40.3857 38.6874V41.4375C40.3857 42.3505 39.6322 43.0905 38.7026 43.0905H43.3618C44.2914 43.0905 45.0449 42.3505 45.0449 41.4375V38.6874C45.0449 37.7745 44.2914 37.0344 43.3618 37.0344Z" fill="#0AB69F"/>
<path d="M41.4732 40.8682H31.8237C31.3707 40.8682 31.0034 40.5075 31.0034 40.0625C31.0034 39.6175 31.3707 39.2568 31.8237 39.2568H41.4732C41.9263 39.2568 42.2935 39.6175 42.2935 40.0625C42.2935 40.5075 41.9263 40.8682 41.4732 40.8682Z" fill="white"/>
<path d="M28.693 8.10999H26.3772C25.9242 8.10999 25.5569 7.74937 25.5569 7.30432C25.5569 6.85927 25.9242 6.49866 26.3772 6.49866H28.693C29.146 6.49866 29.5133 6.85927 29.5133 7.30432C29.5133 7.74937 29.146 8.10999 28.693 8.10999Z" fill="#8379C1"/>
<path d="M39.6778 51.6389H33.6189C33.1659 51.6389 32.7986 51.2783 32.7986 50.8333C32.7986 50.3882 33.1659 50.0276 33.6189 50.0276H39.6778C40.1309 50.0276 40.4981 50.3882 40.4981 50.8333C40.4981 51.2783 40.1309 51.6389 39.6778 51.6389Z" fill="#54469C"/>
<path d="M45.2528 32.6044H28.0438C27.7373 32.6044 27.4888 32.3603 27.4888 32.0592V15.1575C27.4888 14.8564 27.7373 14.6123 28.0438 14.6123H45.2528C45.5594 14.6123 45.8079 14.8564 45.8079 15.1575V32.0591C45.808 32.3602 45.5595 32.6044 45.2528 32.6044Z" fill="white"/>
<path d="M45.2528 14.6123H41.9119C42.2184 14.6123 42.4669 14.8564 42.4669 15.1575V32.0591C42.4669 32.3602 42.2184 32.6043 41.9119 32.6043H45.2528C45.5594 32.6043 45.8079 32.3602 45.8079 32.0591V15.1575C45.808 14.8564 45.5595 14.6123 45.2528 14.6123Z" fill="#F9F3F1"/>
<path d="M45.2529 33.4101H28.0438C27.2854 33.4101 26.6685 32.804 26.6685 32.0592V15.1576C26.6685 14.4127 27.2854 13.8068 28.0438 13.8068H45.2528C46.0112 13.8068 46.6282 14.4128 46.6282 15.1576V32.0592C46.6283 32.804 46.0113 33.4101 45.2529 33.4101ZM28.3091 31.7987H44.9877V15.418H28.3091V31.7987Z" fill="#99E6FC"/>
<path d="M33.5378 20.983H30.0378C29.7962 20.983 29.6003 20.7906 29.6003 20.5533V17.1158C29.6003 16.8785 29.7962 16.6862 30.0378 16.6862H33.5378C33.7795 16.6862 33.9753 16.8785 33.9753 17.1158V20.5533C33.9753 20.7906 33.7795 20.983 33.5378 20.983Z" fill="#766E6E"/>
<path d="M43.259 20.983H39.759C39.5174 20.983 39.3215 20.7906 39.3215 20.5533V17.1158C39.3215 16.8785 39.5174 16.6862 39.759 16.6862H43.259C43.5006 16.6862 43.6965 16.8785 43.6965 17.1158V20.5533C43.6965 20.7906 43.5006 20.983 43.259 20.983Z" fill="#766E6E"/>
<path d="M33.5378 30.5306H30.0378C29.7962 30.5306 29.6003 30.3382 29.6003 30.101V26.6635C29.6003 26.4262 29.7962 26.2338 30.0378 26.2338H33.5378C33.7795 26.2338 33.9753 26.4262 33.9753 26.6635V30.101C33.9753 30.3382 33.7795 30.5306 33.5378 30.5306Z" fill="#766E6E"/>
<path d="M43.2337 30.8818H39.7842C39.3311 30.8818 38.9639 30.5212 38.9639 30.0761C38.9639 29.6311 39.3311 29.2704 39.7842 29.2704H42.4133V26.6882C42.4133 26.2432 42.7806 25.8826 43.2337 25.8826C43.6867 25.8826 44.054 26.2432 44.054 26.6882V30.0761C44.054 30.5212 43.6867 30.8818 43.2337 30.8818Z" fill="#766E6E"/>
<path d="M36.6483 24.4139H33.2932C32.8402 24.4139 32.4729 24.0533 32.4729 23.6083C32.4729 23.1632 32.8402 22.8026 33.2932 22.8026H35.828V17.1405C35.828 16.6955 36.1953 16.3348 36.6483 16.3348C37.1013 16.3348 37.4686 16.6955 37.4686 17.1405V23.6083C37.4686 24.0533 37.1013 24.4139 36.6483 24.4139Z" fill="#766E6E"/>
<path d="M30.9254 24.4139H30.063C29.61 24.4139 29.2427 24.0533 29.2427 23.6083C29.2427 23.1632 29.61 22.8026 30.063 22.8026H30.9254C31.3784 22.8026 31.7457 23.1632 31.7457 23.6083C31.7457 24.0533 31.3785 24.4139 30.9254 24.4139Z" fill="#766E6E"/>
<path d="M40.8246 24.4139H39.7842C39.3311 24.4139 38.9639 24.0533 38.9639 23.6083C38.9639 23.1632 39.3311 22.8026 39.7842 22.8026H40.8246C41.2776 22.8026 41.6449 23.1632 41.6449 23.6083C41.6449 24.0533 41.2776 24.4139 40.8246 24.4139Z" fill="#766E6E"/>
<path d="M43.2338 24.4139H43.0183C42.5653 24.4139 42.198 24.0533 42.198 23.6083C42.198 23.1632 42.5653 22.8026 43.0183 22.8026H43.2338C43.6868 22.8026 44.0541 23.1632 44.0541 23.6083C44.0541 24.0533 43.6868 24.4139 43.2338 24.4139Z" fill="#766E6E"/>
<path d="M36.6484 30.8818C36.1954 30.8818 35.8281 30.5212 35.8281 30.0761V26.6882C35.8281 26.2432 36.1954 25.8826 36.6484 25.8826H40.8248C41.2778 25.8826 41.6451 26.2432 41.6451 26.6882C41.6451 27.1333 41.2778 27.4939 40.8248 27.4939H37.4688V30.0761C37.4688 30.5212 37.1015 30.8818 36.6484 30.8818Z" fill="#766E6E"/>
<path d="M46.8699 55H26.4269C23.8091 55 21.6794 52.9083 21.6794 50.3373V8.0446C21.6794 5.47357 23.8092 3.38196 26.4269 3.38196H46.8699C49.4877 3.38196 51.6174 5.47368 51.6174 8.0446V50.3373C51.6174 52.9083 49.4876 55 46.8699 55ZM26.4269 4.99318C24.7137 4.99318 23.3201 6.36195 23.3201 8.0445V50.3372C23.3201 52.0198 24.7138 53.3886 26.4269 53.3886H46.8699C48.5831 53.3886 49.9767 52.0198 49.9767 50.3372V8.0446C49.9767 6.36206 48.583 4.99329 46.8699 4.99329H26.4269V4.99318Z" fill="#54469C"/>
<path d="M44.1055 8.11011C44.5585 8.11011 44.9258 7.7494 44.9258 7.30444C44.9258 6.85949 44.5585 6.49878 44.1055 6.49878C43.6524 6.49878 43.2852 6.85949 43.2852 7.30444C43.2852 7.7494 43.6524 8.11011 44.1055 8.11011Z" fill="#8379C1"/>
<path d="M46.9197 8.11011C47.3727 8.11011 47.74 7.7494 47.74 7.30444C47.74 6.85949 47.3727 6.49878 46.9197 6.49878C46.4666 6.49878 46.0994 6.85949 46.0994 7.30444C46.0994 7.7494 46.4666 8.11011 46.9197 8.11011Z" fill="#8379C1"/>
</g>
<defs>
<clipPath id="clip0_313_5263">
<rect width="56" height="55" fill="white"/>
</clipPath>
</defs>
</svg>
