<svg width="56" height="56" viewBox="0 0 56 56" fill="none" xmlns="http://www.w3.org/2000/svg">
<g clip-path="url(#clip0_313_5342)">
<path d="M27.9985 0.703437V2.94535L19.634 3.51177L10.7534 2.94535V0.703437C10.7534 0.31493 11.0683 0 11.4569 0H27.2951C27.6836 0 27.9985 0.31493 27.9985 0.703437Z" fill="#7CA1B1"/>
<path d="M27.9991 0.703099V2.94535L24.3934 3.1707V0.703099C24.3934 0.314366 24.0779 0 23.6892 0H27.2948C27.6836 0 27.9991 0.314366 27.9991 0.703099Z" fill="#678D98"/>
<path d="M37.7337 6.35602V51.6991C37.7337 53.5831 36.2069 55.1098 34.323 55.1098H4.42892C2.54498 55.1098 1.01709 53.5831 1.01709 51.6991V6.35602C1.01709 4.47207 2.54498 2.94531 4.42892 2.94531H6.22892L19.3764 3.81224L32.2198 2.94531H34.323C36.2069 2.94531 37.7337 4.47207 37.7337 6.35602Z" fill="#5986CB"/>
<path d="M37.7341 6.356V51.6991C37.7341 53.583 36.2073 55.1098 34.3234 55.1098H32.2197C34.1037 55.1098 35.6304 53.583 35.6304 51.6991V6.356C35.6304 2.8262 32.6107 2.9453 32.6107 2.9453H34.3234C36.2073 2.9453 37.7341 4.47206 37.7341 6.356Z" fill="#4278C3"/>
<path d="M34.3235 4.65799V47.6743C34.3235 48.6208 33.5562 49.387 32.6109 49.387H6.14212C5.19564 49.387 4.42944 48.6208 4.42944 47.6743V4.65799C4.42944 3.71264 5.19564 2.94531 6.14212 2.94531H32.6109C33.5562 2.94531 34.3235 3.71264 34.3235 4.65799Z" fill="#C8EFFE"/>
<path d="M34.3235 4.65799V47.6743C34.3235 48.6208 33.5562 49.387 32.6108 49.387H29.5889C30.5353 49.387 31.3015 48.6208 31.3015 47.6743V4.65799C31.3015 3.71264 30.5353 2.94531 29.5889 2.94531H32.6108C33.5562 2.94531 34.3235 3.71264 34.3235 4.65799Z" fill="#99E6FC"/>
<path d="M29.7609 14.7784H9.50717C9.13579 14.7784 8.83472 14.4773 8.83472 14.1059V12.0705C8.83472 11.6991 9.13579 11.3981 9.50717 11.3981H29.7609C30.1323 11.3981 30.4334 11.6991 30.4334 12.0705V14.1059C30.4334 14.4773 30.1323 14.7784 29.7609 14.7784Z" fill="#7CA1B1"/>
<path d="M24.8756 2.94531V4.52841C24.8756 5.59996 24.0046 6.47207 22.9331 6.47207H15.8187C14.7472 6.47207 13.8762 5.59996 13.8762 4.52841V2.94531H12.186V4.52841C12.186 6.53179 13.8153 8.16221 15.8187 8.16221H22.9331C24.9365 8.16221 26.5658 6.53179 26.5658 4.52841V2.94531H24.8756Z" fill="#EAF6FF"/>
<path d="M14.392 21.1998H9.67954C9.21284 21.1998 8.83447 20.8214 8.83447 20.3547C8.83447 19.888 9.21284 19.5096 9.67954 19.5096H14.392C14.8587 19.5096 15.2371 19.888 15.2371 20.3547C15.2371 20.8214 14.8587 21.1998 14.392 21.1998Z" fill="#7CA1B1"/>
<path d="M24.7185 26.7762H9.67954C9.21284 26.7762 8.83447 26.3978 8.83447 25.9311C8.83447 25.4644 9.21284 25.0861 9.67954 25.0861H24.7184C25.1851 25.0861 25.5635 25.4644 25.5635 25.9311C25.5635 26.3978 25.1852 26.7762 24.7185 26.7762Z" fill="#7CA1B1"/>
<path d="M23.2243 32.3526H9.67954C9.21284 32.3526 8.83447 31.9743 8.83447 31.5075C8.83447 31.0408 9.21284 30.6625 9.67954 30.6625H23.2242C23.6909 30.6625 24.0693 31.0408 24.0693 31.5075C24.0693 31.9743 23.691 32.3526 23.2243 32.3526Z" fill="#7CA1B1"/>
<path d="M21.7301 37.929H9.67954C9.21284 37.929 8.83447 37.5507 8.83447 37.084C8.83447 36.6173 9.21284 36.2389 9.67954 36.2389H21.7301C22.1968 36.2389 22.5752 36.6173 22.5752 37.084C22.5752 37.5507 22.1968 37.929 21.7301 37.929Z" fill="#7CA1B1"/>
<path d="M14.392 43.5054H9.67954C9.21284 43.5054 8.83447 43.1271 8.83447 42.6604C8.83447 42.1937 9.21284 41.8153 9.67954 41.8153H14.392C14.8587 41.8153 15.2371 42.1937 15.2371 42.6604C15.2371 43.1271 14.8587 43.5054 14.392 43.5054Z" fill="#7CA1B1"/>
<path d="M54.1096 21.5929L31.9192 15.647C31.2907 15.4786 30.6447 15.8516 30.4763 16.48L21.8776 48.5709C21.7092 49.1994 22.0822 49.8453 22.7106 50.0138L44.901 55.9597C45.5296 56.1281 46.1755 55.7551 46.344 55.1267L54.9426 23.0359C55.1111 22.4074 54.7381 21.7614 54.1096 21.5929Z" fill="#99E6FC"/>
<path d="M52.1626 18.2212L43.564 50.3117C43.3957 50.9397 42.7495 51.3136 42.1216 51.1454L19.9308 45.1994C19.3029 45.0312 18.9291 44.3839 19.0975 43.7559L27.6961 11.6654C27.8647 11.0363 28.5116 10.6637 29.1396 10.8321L51.3304 16.7781C51.9582 16.9463 52.3312 17.5922 52.1626 18.2212Z" fill="#EAF6FF"/>
<path d="M52.1623 18.2208L43.564 50.3121C43.3961 50.9397 42.7493 51.3138 42.1217 51.1459L38.5657 50.1927C39.1933 50.3606 39.8412 49.9876 40.0091 49.3589L48.6074 17.2687C48.7753 16.6434 48.4068 16 47.7848 15.8287L51.3296 16.7786C51.9583 16.9465 52.3313 17.5921 52.1623 18.2208Z" fill="#C8EFFE"/>
<path d="M34.1787 44.712C38.7658 44.712 42.4844 40.9934 42.4844 36.4063C42.4844 31.8192 38.7658 28.1006 34.1787 28.1006C29.5916 28.1006 25.873 31.8192 25.873 36.4063C25.873 40.9934 29.5916 44.712 34.1787 44.712Z" fill="#46CC8D"/>
<path d="M44.8268 26.2913L30.0145 22.3223C29.6739 22.231 29.4719 21.881 29.5632 21.5407L30.9575 16.3366C31.0488 15.9961 31.3988 15.7941 31.7393 15.8853L46.5517 19.8543C46.8922 19.9456 47.0942 20.2956 47.003 20.636L45.6086 25.84C45.5173 26.1804 45.1674 26.3825 44.8268 26.2913Z" fill="#80B4FB"/>
<path d="M33.7214 38.9615C33.4293 38.9615 33.1453 38.8099 32.9888 38.5388L30.2572 33.8076C30.0238 33.4034 30.1623 32.8866 30.5665 32.6532C30.9706 32.4197 31.4875 32.5583 31.7208 32.9625L34.0299 36.9619L41.4929 32.6532C41.897 32.4197 42.4139 32.5583 42.6472 32.9625C42.8806 33.3667 42.7421 33.8835 42.3379 34.1169L34.1431 38.8481C34.0101 38.925 33.8647 38.9615 33.7214 38.9615Z" fill="#B0E7C9"/>
</g>
<defs>
<clipPath id="clip0_313_5342">
<rect width="56" height="56" fill="white"/>
</clipPath>
</defs>
</svg>
