<svg width="56" height="56" viewBox="0 0 56 56" fill="none" xmlns="http://www.w3.org/2000/svg">
<g clip-path="url(#clip0_313_5227)">
<path d="M13.5956 9.52314C12.279 9.17034 10.9473 9.27904 9.77259 9.7501L4.14382 8.24194L0.550049 21.6539L3.57174 22.4636C4.38693 22.682 5.06815 23.2317 5.47454 23.9714C6.36724 25.5962 7.89549 26.8684 9.82771 27.3863L18.9239 29.8236L23.642 12.2151L13.5956 9.52314Z" fill="url(#paint0_linear_313_5227)"/>
<path d="M18.924 29.8235L9.82785 27.3864C7.88673 26.8662 6.35332 25.5847 5.46281 23.9488C5.06312 23.2157 4.37839 22.6795 3.5721 22.4635L0.550293 21.6538L4.14385 8.24217C4.14396 8.24184 4.14429 8.24162 4.14461 8.24173L9.77305 9.74988C10.9475 9.27916 12.2788 9.17056 13.5958 9.52347L23.6418 12.2153L18.924 29.8235Z" fill="url(#paint1_linear_313_5227)"/>
<path d="M54.9127 7.89415C41.6571 2.95572 28.3848 13.5004 15.1289 8.95979C14.343 8.69056 13.5247 9.2679 13.5247 10.0986V30.1711C13.5247 30.8671 13.9595 31.4875 14.6118 31.7306C27.867 36.6691 41.1396 26.1239 54.3957 30.665C55.1815 30.9342 55.9999 30.3568 55.9999 29.5262C55.9999 22.8354 55.9999 16.1446 55.9999 9.4538C55.9999 8.75765 55.565 8.13714 54.9127 7.89415Z" fill="url(#paint2_linear_313_5227)"/>
<path d="M22.4985 31.1612C20.4927 31.1612 18.6711 30.9321 16.9291 30.4607C16.0546 30.2242 15.4436 29.4265 15.4436 28.5208V13.612C15.4436 13.014 15.707 12.4514 16.1663 12.0684C16.6241 11.6868 17.2225 11.5294 17.8079 11.6364C19.3067 11.9105 20.8406 12.0437 22.4965 12.0437H22.4985C26.7936 12.0435 31.0528 11.111 35.1719 10.2092C39.2734 9.3113 43.146 8.4635 47.0255 8.4635C49.0311 8.4635 50.853 8.69266 52.5953 9.16405C53.4699 9.40057 54.0809 10.1983 54.0809 11.104V26.0128C54.0809 26.6108 53.8174 27.1734 53.3581 27.5564C52.9004 27.938 52.3023 28.0952 51.7166 27.9884C50.2172 27.7142 48.6828 27.581 47.0256 27.581C42.7308 27.581 38.4711 28.5136 34.3518 29.4155C30.2514 30.3133 26.3788 31.1612 22.4985 31.1612ZM17.446 13.2484C17.338 13.2484 17.26 13.2983 17.2198 13.3319C17.1708 13.3727 17.0887 13.4634 17.0887 13.612V28.5208C17.0887 28.6851 17.1998 28.83 17.3589 28.873C18.9589 29.3059 20.6401 29.5164 22.4986 29.5164C26.2009 29.5164 29.9891 28.687 33.9997 27.8089C38.2049 26.8882 42.5527 25.9363 47.0256 25.9363C48.7832 25.9363 50.4144 26.0782 52.0124 26.3704C52.1546 26.3963 52.2567 26.3331 52.3048 26.2931C52.3538 26.2523 52.4359 26.1616 52.4359 26.013V11.1041C52.4359 10.9398 52.3248 10.7949 52.1657 10.7519C50.5654 10.3189 48.8839 10.1084 47.0255 10.1084C43.3239 10.1084 39.5357 10.9377 35.5249 11.8157C31.3192 12.7365 26.9715 13.6884 22.4985 13.6885C22.4978 13.6885 22.4971 13.6885 22.4964 13.6885C20.7401 13.6885 19.1097 13.5465 17.5121 13.2545C17.4889 13.2502 17.4668 13.2484 17.446 13.2484Z" fill="url(#paint3_linear_313_5227)"/>
<path d="M22.4989 26.5554C21.314 26.5554 20.2014 26.4697 19.1356 26.2952C18.6331 26.2129 18.176 26.5963 18.176 27.1054V27.1066C18.176 27.5067 18.4633 27.852 18.8579 27.9169C20.0146 28.1071 21.2192 28.2003 22.4988 28.2003C22.6544 28.2003 22.81 28.199 22.9656 28.1963C23.4121 28.1886 23.7687 27.8206 23.7687 27.3739V27.3737C23.7687 26.9114 23.3879 26.5438 22.9256 26.5517C22.7833 26.5541 22.6411 26.5554 22.4989 26.5554ZM47.0256 11.4244C46.87 11.4244 46.7144 11.4258 46.5588 11.4284C46.1122 11.4361 45.7557 11.8041 45.7557 12.2508V12.251C45.7557 12.7133 46.1365 13.0809 46.5988 13.073C46.7412 13.0706 46.8834 13.0693 47.0256 13.0693C48.2105 13.0693 49.3231 13.1551 50.3889 13.3295C50.8913 13.4118 51.3485 13.0285 51.3485 12.5193V12.5181C51.3485 12.1181 51.0612 11.7727 50.6665 11.7077C49.5094 11.5177 48.3053 11.4244 47.0256 11.4244Z" fill="url(#paint4_linear_313_5227)"/>
<path d="M13.5247 17.5643V30.171C13.5247 30.8671 13.9595 31.4875 14.6118 31.7306C27.867 36.6691 41.1396 26.1239 54.3957 30.6649C55.1815 30.9342 55.9999 30.3568 55.9999 29.5262C55.9999 25.5388 55.9999 21.5516 55.9999 17.5644H13.5247V17.5643Z" fill="url(#paint5_linear_313_5227)"/>
<path d="M34.7623 29.2889C39.3573 29.2889 43.0823 25.0461 43.0823 19.8123C43.0823 14.5786 39.3573 10.3358 34.7623 10.3358C30.1674 10.3358 26.4424 14.5786 26.4424 19.8123C26.4424 25.0461 30.1674 29.2889 34.7623 29.2889Z" fill="url(#paint6_linear_313_5227)"/>
<path d="M18.7886 30.3946C26.8133 30.3946 33.3186 23.8893 33.3186 15.8646C33.3186 13.3858 32.6972 11.0523 31.6028 9.01039C26.1103 10.133 20.6183 10.8401 15.1291 8.95977C14.3433 8.69053 13.5249 9.26788 13.5249 10.0986V29.4111C15.157 30.0458 16.932 30.3946 18.7886 30.3946Z" fill="url(#paint7_linear_313_5227)"/>
<path d="M22.5735 8.88487L16.8391 7.34838C12.2325 6.11408 7.49784 8.84765 6.26342 13.4543L6.26386 13.454L5.57298 16.0326C5.2574 17.2104 5.95784 18.4238 7.13713 18.7319C7.16085 18.7382 7.18468 18.7439 7.20829 18.7503C11.0124 19.7052 14.9208 17.3984 15.9267 13.608C16.0392 13.1858 16.111 12.7626 16.1457 12.3417V12.3415L20.105 13.4024C21.7635 13.8468 23.4682 12.8626 23.9125 11.2042C24.1831 10.1938 23.5836 9.15554 22.5735 8.88487Z" fill="url(#paint8_linear_313_5227)"/>
<path d="M15.9262 13.6074C14.9211 17.3983 11.0127 19.7048 7.20829 18.7499C7.18425 18.7434 7.16097 18.7382 7.13692 18.7319C5.95807 18.4235 5.25686 17.2103 5.57244 16.0325L6.26596 13.4442C6.60294 12.1946 7.19687 11.0838 7.97571 10.1523L16.1451 12.3413C16.1106 12.7626 16.0392 13.1857 15.9262 13.6074Z" fill="url(#paint9_linear_313_5227)"/>
<path d="M9.77402 9.74999L4.1447 8.24162C4.14426 8.24151 4.14382 8.24162 4.14371 8.24195L0.550049 21.6536L5.12635 22.8798C5.48442 22.9758 5.82997 23.0995 6.15774 23.246L9.77402 9.74999Z" fill="url(#paint10_linear_313_5227)"/>
<path d="M6.67762 9.97843L3.62638 21.3653C3.40623 22.1883 2.56041 22.6768 1.73743 22.4555L0.656408 22.1658C0.269239 22.0619 0 21.7111 0 21.3102V7.7481C0 7.16581 0.552314 6.74185 1.11484 6.89261L5.58759 8.09068C6.40936 8.31084 6.89788 9.15666 6.67762 9.97843Z" fill="url(#paint11_linear_313_5227)"/>
<path d="M4.8933 16.6356L3.62638 21.3653C3.40623 22.1883 2.56041 22.6768 1.73743 22.4554L0.656408 22.1658C0.269239 22.0619 0 21.7111 0 21.3102V15.3253L4.8933 16.6356Z" fill="url(#paint12_linear_313_5227)"/>
<path d="M19.8939 41.2357L23.4249 44.8759C24.5573 46.0433 25.8014 47.0804 27.1311 47.9764V41.2332L23.6727 37.624C22.9781 36.8984 21.964 36.6595 21.059 36.9155C20.6578 37.0288 20.2779 37.2392 19.9575 37.5482C18.9172 38.5493 18.8879 40.1994 19.8939 41.2357Z" fill="url(#paint13_linear_313_5227)"/>
<path d="M16.5922 39.809L20.1231 43.4492C22.1508 45.5388 24.5322 47.2093 27.1313 48.4028V42.5908C26.1553 42.0087 25.2545 41.2946 24.4555 40.4605L21.0591 36.9157L20.3711 36.1975C19.3682 35.1507 17.7002 35.1164 16.6558 36.1217C15.6155 37.1227 15.5861 38.7728 16.5922 39.809Z" fill="url(#paint14_linear_313_5227)"/>
<path d="M13.5715 35.089C14.6159 34.0835 16.2841 34.1178 17.2868 35.165L21.371 39.428C22.9604 41.0878 24.9546 42.2713 27.1316 42.8875V48.5323C23.3294 47.3989 19.8446 45.3088 17.0384 42.4168L13.5076 38.7766C12.502 37.7404 12.5306 36.0899 13.5715 35.089Z" fill="url(#paint15_linear_313_5227)"/>
<path d="M10.1513 38.0156L13.6822 41.6558C17.9822 46.0875 23.8754 48.6379 30.0633 48.7444L36.6885 48.8594H49.5526V40.193C49.5526 38.6031 48.6259 37.1591 47.1805 36.4969L47.1802 36.4967C45.7548 35.8433 44.2276 35.5208 42.7059 35.5208C40.668 35.5208 38.6393 36.1 36.8767 37.2399C34.1975 38.972 31.0605 39.8672 27.866 39.8125L26.2544 39.7847C24.9217 39.7616 23.8227 40.806 23.7754 42.1266C21.5985 41.5103 19.6041 40.3269 18.0147 38.6672L13.9306 34.4041C12.9278 33.3569 11.2597 33.3227 10.2152 34.3281C9.17452 35.3289 9.14575 36.9795 10.1513 38.0156Z" fill="url(#paint16_linear_313_5227)"/>
<path d="M23.6622 42.0927C23.7 42.1037 23.7373 42.1159 23.7752 42.1267C23.7756 42.1153 23.7767 42.1041 23.7773 42.0927H49.5525V48.8594H36.6884L30.0632 48.7445C24.0817 48.6415 18.3759 46.2545 14.1179 42.0927H23.6622Z" fill="url(#paint17_linear_313_5227)"/>
<path d="M23.7754 42.1267C23.8224 40.8063 24.9219 39.7612 26.2544 39.7842L27.8662 39.8121C31.0601 39.8674 34.1975 38.9716 36.8763 37.2395C39.9554 35.2487 43.8449 34.9684 47.1803 36.497L47.4951 36.6413L41.0346 42.882L37.7806 43.6491C34.5607 44.4082 31.2588 44.7633 27.9511 44.706L26.2111 44.6759C24.8655 44.6526 23.7508 43.5422 23.774 42.1964C23.7745 42.1814 23.7754 42.1267 23.7754 42.1267Z" fill="url(#paint18_linear_313_5227)"/>
<path d="M40.6167 35.7273C41.3051 35.5909 42.0047 35.5208 42.7058 35.5208C44.2275 35.5208 45.7549 35.8432 47.1801 36.4966L47.1804 36.4968C48.6258 37.159 49.5525 38.6031 49.5525 40.1929V48.8593H40.6167V35.7273Z" fill="url(#paint19_linear_313_5227)"/>
<path d="M53.973 49.4556H48.2491C47.1296 49.4556 46.2219 48.548 46.2219 47.4284V35.6826C46.2219 34.563 47.1296 33.6554 48.2491 33.6554H53.973C55.0925 33.6554 56.0002 34.563 56.0002 35.6826V47.4284C56.0002 48.548 55.0925 49.4556 53.973 49.4556Z" fill="url(#paint20_linear_313_5227)"/>
<path d="M46.2219 40.9891V47.4285C46.2219 48.548 47.1296 49.4557 48.2491 49.4557H53.973C55.0925 49.4557 56.0002 48.548 56.0002 47.4285V40.9891H46.2219Z" fill="url(#paint21_linear_313_5227)"/>
</g>
<defs>
<linearGradient id="paint0_linear_313_5227" x1="12.3391" y1="6.15949" x2="11.9719" y2="22.6305" gradientUnits="userSpaceOnUse">
<stop stop-color="#FFDFCF"/>
<stop offset="1" stop-color="#FFA78F"/>
</linearGradient>
<linearGradient id="paint1_linear_313_5227" x1="9.10204" y1="19.0326" x2="14.0367" y2="19.0326" gradientUnits="userSpaceOnUse">
<stop stop-color="#F89580" stop-opacity="0"/>
<stop offset="0.9972" stop-color="#C5715A"/>
</linearGradient>
<linearGradient id="paint2_linear_313_5227" x1="19.6474" y1="4.69754" x2="47.9961" y2="33.0462" gradientUnits="userSpaceOnUse">
<stop stop-color="#4FC123"/>
<stop offset="1" stop-color="#02905D"/>
</linearGradient>
<linearGradient id="paint3_linear_313_5227" x1="20.4574" y1="-7.98743" x2="51.4548" y2="52.2528" gradientUnits="userSpaceOnUse">
<stop stop-color="#026841" stop-opacity="0"/>
<stop offset="0.3108" stop-color="#026447" stop-opacity="0.311"/>
<stop offset="0.7294" stop-color="#025758" stop-opacity="0.729"/>
<stop offset="1" stop-color="#024C67"/>
</linearGradient>
<linearGradient id="paint4_linear_313_5227" x1="32.7789" y1="15.9578" x2="37.0767" y2="24.3103" gradientUnits="userSpaceOnUse">
<stop stop-color="#FEF0AE"/>
<stop offset="1" stop-color="#FBC56D"/>
</linearGradient>
<linearGradient id="paint5_linear_313_5227" x1="34.8267" y1="24.425" x2="35.8136" y2="32.1561" gradientUnits="userSpaceOnUse">
<stop stop-color="#026841" stop-opacity="0"/>
<stop offset="0.3108" stop-color="#026447" stop-opacity="0.311"/>
<stop offset="0.7294" stop-color="#025758" stop-opacity="0.729"/>
<stop offset="1" stop-color="#024C67"/>
</linearGradient>
<linearGradient id="paint6_linear_313_5227" x1="14.2707" y1="7.06915" x2="49.3621" y2="28.8916" gradientUnits="userSpaceOnUse">
<stop stop-color="#FEF0AE"/>
<stop offset="1" stop-color="#FBC56D"/>
</linearGradient>
<linearGradient id="paint7_linear_313_5227" x1="23.4326" y1="20.2475" x2="16.9077" y2="12.4615" gradientUnits="userSpaceOnUse">
<stop stop-color="#026841" stop-opacity="0"/>
<stop offset="0.3108" stop-color="#026447" stop-opacity="0.311"/>
<stop offset="0.7294" stop-color="#025758" stop-opacity="0.729"/>
<stop offset="1" stop-color="#024C67"/>
</linearGradient>
<linearGradient id="paint8_linear_313_5227" x1="14.9068" y1="6.21661" x2="14.5396" y2="22.6876" gradientUnits="userSpaceOnUse">
<stop stop-color="#FFDFCF"/>
<stop offset="1" stop-color="#FFA78F"/>
</linearGradient>
<linearGradient id="paint9_linear_313_5227" x1="10.4312" y1="14.5903" x2="14.3176" y2="18.3166" gradientUnits="userSpaceOnUse">
<stop stop-color="#F89580" stop-opacity="0"/>
<stop offset="0.2599" stop-color="#F2917C" stop-opacity="0.261"/>
<stop offset="0.5954" stop-color="#E2856F" stop-opacity="0.597"/>
<stop offset="0.9709" stop-color="#C8725B" stop-opacity="0.974"/>
<stop offset="0.9972" stop-color="#C5715A"/>
</linearGradient>
<linearGradient id="paint10_linear_313_5227" x1="6.58933" y1="16.0374" x2="4.23553" y2="15.5941" gradientUnits="userSpaceOnUse">
<stop stop-color="#F89580" stop-opacity="0"/>
<stop offset="0.3822" stop-color="#E88974" stop-opacity="0.383"/>
<stop offset="0.9972" stop-color="#C5715A"/>
</linearGradient>
<linearGradient id="paint11_linear_313_5227" x1="-0.640377" y1="13.1803" x2="3.91506" y2="15.5285" gradientUnits="userSpaceOnUse">
<stop stop-color="#C4573A"/>
<stop offset="1" stop-color="#8C3D27"/>
</linearGradient>
<linearGradient id="paint12_linear_313_5227" x1="2.44665" y1="18.3606" x2="2.44665" y2="23.1286" gradientUnits="userSpaceOnUse">
<stop stop-color="#6D3326" stop-opacity="0"/>
<stop offset="1" stop-color="#42210B"/>
</linearGradient>
<linearGradient id="paint13_linear_313_5227" x1="25.96" y1="39.2918" x2="24.2752" y2="41.6833" gradientUnits="userSpaceOnUse">
<stop stop-color="#FFEEE6"/>
<stop offset="1" stop-color="#FFB09E"/>
</linearGradient>
<linearGradient id="paint14_linear_313_5227" x1="24.1978" y1="38.9499" x2="22.513" y2="41.3412" gradientUnits="userSpaceOnUse">
<stop stop-color="#FFEEE6"/>
<stop offset="1" stop-color="#FFB09E"/>
</linearGradient>
<linearGradient id="paint15_linear_313_5227" x1="22.4177" y1="38.8363" x2="20.7328" y2="41.2277" gradientUnits="userSpaceOnUse">
<stop stop-color="#FFEEE6"/>
<stop offset="1" stop-color="#FFB09E"/>
</linearGradient>
<linearGradient id="paint16_linear_313_5227" x1="33.4601" y1="30.0318" x2="27.2639" y2="49.1909" gradientUnits="userSpaceOnUse">
<stop stop-color="#FFEEE6"/>
<stop offset="1" stop-color="#FFB09E"/>
</linearGradient>
<linearGradient id="paint17_linear_313_5227" x1="31.8352" y1="43.5873" x2="31.8352" y2="48.3536" gradientUnits="userSpaceOnUse">
<stop stop-color="#FFB09E" stop-opacity="0"/>
<stop offset="1" stop-color="#EC806B"/>
</linearGradient>
<linearGradient id="paint18_linear_313_5227" x1="35.0256" y1="40.8037" x2="32.3943" y2="47.7186" gradientUnits="userSpaceOnUse">
<stop stop-color="#FFDECF" stop-opacity="0"/>
<stop offset="1" stop-color="white"/>
</linearGradient>
<linearGradient id="paint19_linear_313_5227" x1="43.0811" y1="42.1901" x2="46.8184" y2="42.1901" gradientUnits="userSpaceOnUse">
<stop stop-color="#FFB09E" stop-opacity="0"/>
<stop offset="1" stop-color="#EC806B"/>
</linearGradient>
<linearGradient id="paint20_linear_313_5227" x1="47.3716" y1="39.6279" x2="54.2659" y2="43.1817" gradientUnits="userSpaceOnUse">
<stop stop-color="#5A5A5A"/>
<stop offset="1" stop-color="#444444"/>
</linearGradient>
<linearGradient id="paint21_linear_313_5227" x1="51.1111" y1="44.5665" x2="51.1111" y2="50.1863" gradientUnits="userSpaceOnUse">
<stop stop-color="#433F43" stop-opacity="0"/>
<stop offset="1" stop-color="#1A1A1A"/>
</linearGradient>
<clipPath id="clip0_313_5227">
<rect width="56" height="56" fill="white"/>
</clipPath>
</defs>
</svg>
