<svg width="42" height="42" viewBox="0 0 42 42" fill="none" xmlns="http://www.w3.org/2000/svg">
<path d="M0.166504 37.6667H41.8332V41.8333H0.166504V37.6667ZM4.33317 21H8.49984V35.5833H4.33317V21ZM14.7498 21H18.9165V35.5833H14.7498V21ZM23.0832 21H27.2498V35.5833H23.0832V21ZM33.4998 21H37.6665V35.5833H33.4998V21ZM0.166504 10.5833L20.9998 0.166672L41.8332 10.5833V18.9167H0.166504V10.5833ZM20.9998 12.6667C21.5524 12.6667 22.0823 12.4472 22.473 12.0565C22.8637 11.6658 23.0832 11.1359 23.0832 10.5833C23.0832 10.0308 22.8637 9.5009 22.473 9.1102C22.0823 8.7195 21.5524 8.50001 20.9998 8.50001C20.4473 8.50001 19.9174 8.7195 19.5267 9.1102C19.136 9.5009 18.9165 10.0308 18.9165 10.5833C18.9165 11.1359 19.136 11.6658 19.5267 12.0565C19.9174 12.4472 20.4473 12.6667 20.9998 12.6667Z" fill="white"/>
</svg>
