<svg width="20" height="20" viewBox="0 0 20 20" fill="none" xmlns="http://www.w3.org/2000/svg">
  <g clip-path="url(#clip0_131_2414)">
    <path d="M1.66663 16.6667H18.3333V18.3333H1.66663V16.6667ZM3.33329 9.99999H4.99996V15.8333H3.33329V9.99999ZM7.49996 9.99999H9.16663V15.8333H7.49996V9.99999ZM10.8333 9.99999H12.5V15.8333H10.8333V9.99999ZM15 9.99999H16.6666V15.8333H15V9.99999ZM1.66663 5.83332L9.99996 1.66666L18.3333 5.83332V9.16666H1.66663V5.83332ZM9.99996 6.66666C10.221 6.66666 10.4329 6.57886 10.5892 6.42258C10.7455 6.2663 10.8333 6.05434 10.8333 5.83332C10.8333 5.61231 10.7455 5.40035 10.5892 5.24407C10.4329 5.08779 10.221 4.99999 9.99996 4.99999C9.77895 4.99999 9.56698 5.08779 9.4107 5.24407C9.25442 5.40035 9.16663 5.61231 9.16663 5.83332C9.16663 6.05434 9.25442 6.2663 9.4107 6.42258C9.56698 6.57886 9.77895 6.66666 9.99996 6.66666Z" fill="white"/>
  </g>
  <defs>
    <clipPath id="clip0_131_2414">
      <rect width="20" height="20" fill="white"/>
    </clipPath>
  </defs>
</svg>
