<svg width="50" height="50" viewBox="0 0 50 50" fill="none" xmlns="http://www.w3.org/2000/svg">
  <path d="M25.0029 1.56461C18.9715 1.56461 14.0624 6.46767 14.0624 12.499C14.0624 18.5304 18.9715 23.4396 25.0029 23.4396C31.0343 23.4396 35.9374 18.5304 35.9374 12.499C35.9374 6.46767 31.0343 1.56461 25.0029 1.56461ZM24.9999 4.68344C25.3906 4.68344 25.7811 4.94357 25.7811 5.4647V7.14779C27.1219 7.4984 28.1218 8.71629 28.1218 10.1629C28.1241 10.267 28.1056 10.3704 28.0674 10.4672C28.0292 10.564 27.972 10.6522 27.8992 10.7266C27.8264 10.801 27.7395 10.8602 27.6436 10.9006C27.5477 10.9409 27.4446 10.9616 27.3406 10.9616C27.2365 10.9616 27.1335 10.9409 27.0375 10.9006C26.9416 10.8602 26.8547 10.801 26.7819 10.7266C26.7091 10.6522 26.6519 10.564 26.6137 10.4672C26.5755 10.3704 26.557 10.267 26.5593 10.1629C26.5593 9.29066 25.8751 8.59885 25.0029 8.59885C24.1307 8.59885 23.4404 9.29066 23.4404 10.1629C23.4404 11.0351 24.1307 11.7254 25.0029 11.7254C26.7196 11.7254 28.1218 13.1337 28.1218 14.8504C28.1218 16.297 27.1219 17.5149 25.7811 17.8655V19.5334C25.7811 20.5753 24.2186 20.5753 24.2186 19.5334V17.8641C22.8794 17.5114 21.8764 16.2949 21.8764 14.8504C21.8764 14.643 21.9588 14.4441 22.1054 14.2975C22.2521 14.1508 22.451 14.0684 22.6584 14.0684C22.8658 14.0684 23.0647 14.1508 23.2114 14.2975C23.358 14.4441 23.4404 14.643 23.4404 14.8504C23.4404 15.7226 24.1307 16.4144 25.0029 16.4144C25.8751 16.4144 26.5593 15.7226 26.5593 14.8504C26.5593 13.9782 25.8751 13.2879 25.0029 13.2879C23.2863 13.2879 21.8764 11.8795 21.8764 10.1629C21.8764 8.71836 22.8794 7.50188 24.2186 7.14923V5.4647C24.2186 4.94371 24.6091 4.68344 24.9999 4.68344ZM44.8088 21.2484C43.8607 21.2484 42.9103 21.6119 42.1904 22.3318C40.5415 23.9807 38.8925 25.6297 37.2435 27.2787C37.8928 28.1778 38.2811 29.2772 38.2811 30.4692C38.2811 33.4854 35.8301 35.9365 32.8139 35.9365H24.298C23.163 36.0384 23.163 34.2782 24.298 34.3801H32.8139C34.9915 34.3801 36.7186 32.6468 36.7186 30.4692C36.7186 29.7028 36.495 29.0001 36.1205 28.4033C35.4316 27.3154 34.2204 26.5859 32.8139 26.5645L16.4061 26.5662C13.0867 26.5665 11.2434 28.2825 9.69987 29.8223L20.5473 40.6699C20.715 40.6433 20.8921 40.6255 21.0951 40.6255H34.3764C37.0608 40.6255 39.3042 39.2999 40.8934 36.9985C42.683 34.4069 46.0338 29.5578 47.5142 27.4587C48.053 26.6947 48.398 25.82 48.4313 24.9106C48.4643 24.0011 48.1499 23.0543 47.4272 22.3318C46.7073 21.6119 45.7569 21.2485 44.8088 21.2484ZM7.03111 29.6881C6.83146 29.6878 6.63229 29.7633 6.48026 29.9154L1.79276 34.6044C1.48575 34.9099 1.48575 35.4068 1.79276 35.7122L14.2958 48.2092C14.6006 48.5121 15.0927 48.5121 15.3975 48.2092L20.085 43.5201C20.3879 43.2153 20.3879 42.7232 20.085 42.4185L7.58195 29.9154C7.43085 29.7642 7.23075 29.6883 7.03111 29.6881Z" fill="url(#paint0_linear_297_2043)" fill-opacity="0.8"/>
  <defs>
    <linearGradient id="paint0_linear_297_2043" x1="1.5625" y1="24.9949" x2="48.4336" y2="24.9949" gradientUnits="userSpaceOnUse">
      <stop stop-color="#F9DF7B"/>
      <stop offset="0.2" stop-color="#B57E10"/>
      <stop offset="0.26" stop-color="#B78113"/>
      <stop offset="0.32" stop-color="#BE8C1F"/>
      <stop offset="0.38" stop-color="#CB9D32"/>
      <stop offset="0.44" stop-color="#DCB64E"/>
      <stop offset="0.49" stop-color="#F2D570"/>
      <stop offset="0.51" stop-color="#F9DF7B"/>
      <stop offset="0.52" stop-color="#FFF3A6"/>
      <stop offset="0.59" stop-color="#F9DF7B"/>
      <stop offset="0.84" stop-color="#B57E10"/>
      <stop offset="0.95" stop-color="#E5C25B"/>
      <stop offset="1" stop-color="#F9DF7B"/>
    </linearGradient>
  </defs>
</svg>
