<svg width="50" height="50" viewBox="0 0 50 50" fill="none" xmlns="http://www.w3.org/2000/svg">
  <path fill-rule="evenodd" clip-rule="evenodd" d="M12.5 12.5C12.5 8.35788 15.8579 5 20 5C21.9209 5 23.6731 5.72213 25 6.90975C26.327 5.72213 28.079 5 30 5C34.1422 5 37.5 8.35788 37.5 12.5C37.5 13.3766 37.3495 14.2181 37.0732 15H40C42.7615 15 45 17.2386 45 20C45 22.7614 42.7615 25 40 25H27.5V22.5C27.5 21.1193 26.3807 20 25 20C23.6193 20 22.5 21.1193 22.5 22.5V25H10C7.23857 25 5 22.7614 5 20C5 17.2386 7.23857 15 10 15H12.9268C12.6504 14.2181 12.5 13.3766 12.5 12.5ZM22.5 15V12.5C22.5 11.1193 21.3807 10 20 10C18.6193 10 17.5 11.1193 17.5 12.5C17.5 13.8807 18.6193 15 20 15H22.5ZM30 15C31.3807 15 32.5 13.8807 32.5 12.5C32.5 11.1193 31.3807 10 30 10C28.6192 10 27.5 11.1193 27.5 12.5V15H30Z" fill="url(#paint0_linear_297_2025)" fill-opacity="0.8"/>
  <path d="M22.5 27.5H7.5V40C7.5 42.7615 9.73857 45 12.5 45H22.5V27.5Z" fill="url(#paint1_linear_297_2025)" fill-opacity="0.8"/>
  <path d="M27.5 45H37.5C40.2615 45 42.5 42.7615 42.5 40V27.5H27.5V45Z" fill="url(#paint2_linear_297_2025)" fill-opacity="0.8"/>
  <defs>
    <linearGradient id="paint0_linear_297_2025" x1="5" y1="14.9976" x2="45" y2="14.9976" gradientUnits="userSpaceOnUse">
      <stop stop-color="#F9DF7B"/>
      <stop offset="0.2" stop-color="#B57E10"/>
      <stop offset="0.26" stop-color="#B78113"/>
      <stop offset="0.32" stop-color="#BE8C1F"/>
      <stop offset="0.38" stop-color="#CB9D32"/>
      <stop offset="0.44" stop-color="#DCB64E"/>
      <stop offset="0.49" stop-color="#F2D570"/>
      <stop offset="0.51" stop-color="#F9DF7B"/>
      <stop offset="0.52" stop-color="#FFF3A6"/>
      <stop offset="0.59" stop-color="#F9DF7B"/>
      <stop offset="0.84" stop-color="#B57E10"/>
      <stop offset="0.95" stop-color="#E5C25B"/>
      <stop offset="1" stop-color="#F9DF7B"/>
    </linearGradient>
    <linearGradient id="paint1_linear_297_2025" x1="7.5" y1="36.2479" x2="22.5" y2="36.2479" gradientUnits="userSpaceOnUse">
      <stop stop-color="#F9DF7B"/>
      <stop offset="0.2" stop-color="#B57E10"/>
      <stop offset="0.26" stop-color="#B78113"/>
      <stop offset="0.32" stop-color="#BE8C1F"/>
      <stop offset="0.38" stop-color="#CB9D32"/>
      <stop offset="0.44" stop-color="#DCB64E"/>
      <stop offset="0.49" stop-color="#F2D570"/>
      <stop offset="0.51" stop-color="#F9DF7B"/>
      <stop offset="0.52" stop-color="#FFF3A6"/>
      <stop offset="0.59" stop-color="#F9DF7B"/>
      <stop offset="0.84" stop-color="#B57E10"/>
      <stop offset="0.95" stop-color="#E5C25B"/>
      <stop offset="1" stop-color="#F9DF7B"/>
    </linearGradient>
    <linearGradient id="paint2_linear_297_2025" x1="27.5" y1="36.2479" x2="42.5" y2="36.2479" gradientUnits="userSpaceOnUse">
      <stop stop-color="#F9DF7B"/>
      <stop offset="0.2" stop-color="#B57E10"/>
      <stop offset="0.26" stop-color="#B78113"/>
      <stop offset="0.32" stop-color="#BE8C1F"/>
      <stop offset="0.38" stop-color="#CB9D32"/>
      <stop offset="0.44" stop-color="#DCB64E"/>
      <stop offset="0.49" stop-color="#F2D570"/>
      <stop offset="0.51" stop-color="#F9DF7B"/>
      <stop offset="0.52" stop-color="#FFF3A6"/>
      <stop offset="0.59" stop-color="#F9DF7B"/>
      <stop offset="0.84" stop-color="#B57E10"/>
      <stop offset="0.95" stop-color="#E5C25B"/>
      <stop offset="1" stop-color="#F9DF7B"/>
    </linearGradient>
  </defs>
</svg>
