<svg width="21" height="21" viewBox="0 0 21 21" fill="none" xmlns="http://www.w3.org/2000/svg">
  <path d="M11.3839 0.866113C10.8958 0.377963 10.1043 0.377963 9.61611 0.866113L0.866113 9.61611C0.377963 10.1043 0.377963 10.8958 0.866113 11.3839C1.35427 11.872 2.14572 11.872 2.63389 11.3839L3 11.0177V19.25C3 19.9404 3.55965 20.5 4.25 20.5H6.75C7.44035 20.5 8 19.9404 8 19.25V16.75C8 16.0596 8.55965 15.5 9.25 15.5H11.75C12.4404 15.5 13 16.0596 13 16.75V19.25C13 19.9404 13.5596 20.5 14.25 20.5H16.75C17.4404 20.5 18 19.9404 18 19.25V11.0177L18.3661 11.3839C18.8542 11.872 19.6458 11.872 20.1339 11.3839C20.622 10.8958 20.622 10.1043 20.1339 9.61611L11.3839 0.866113Z" fill="white"/>
</svg>
