<svg width="68" height="66" viewBox="0 0 68 66" fill="none" xmlns="http://www.w3.org/2000/svg">
<path d="M37.1241 53.0375C33.4046 54.3509 28.4733 55.5091 23.1874 55.0844C21.8384 54.976 13.5051 54.3065 13.1884 50.8408C13.0768 49.62 14.0542 49.0833 13.9344 47.4485C13.7925 45.5115 12.3294 45.0252 10.7331 43.1018C9.78055 41.9541 6.99295 38.5955 8.5812 35.6531C9.53029 33.8949 11.999 32.3648 14.2161 32.121C17.468 31.7633 19.541 34.2429 22.974 38.4972C26.0172 42.2684 26.0245 43.4499 28.2647 46.1285C29.9273 48.1164 32.6355 50.7085 37.1241 53.0375Z" fill="url(#paint0_linear_315_10677)"/>
<mask id="mask0_315_10677" style="mask-type:luminance" maskUnits="userSpaceOnUse" x="8" y="32" width="30" height="24">
<path d="M37.1241 53.0375C33.4046 54.3509 28.4733 55.5091 23.1874 55.0844C21.8384 54.976 13.5051 54.3065 13.1884 50.8408C13.0768 49.62 14.0542 49.0833 13.9344 47.4485C13.7925 45.5115 12.3294 45.0252 10.7331 43.1018C9.78055 41.9541 6.99295 38.5955 8.5812 35.6531C9.53029 33.8949 11.999 32.3648 14.2161 32.121C17.468 31.7633 19.541 34.2429 22.974 38.4972C26.0172 42.2684 26.0245 43.4499 28.2647 46.1285C29.9273 48.1164 32.6355 50.7085 37.1241 53.0375Z" fill="white"/>
</mask>
<g mask="url(#mask0_315_10677)">
<g opacity="0.5">
<path d="M39.3877 53.0876C34.7118 53.0876 30.073 51.638 25.5653 48.7633C20.1023 45.2794 16.2004 40.574 13.8892 37.2401C12.2794 34.918 11.3712 32.0473 11.19 28.7077L11.3186 28.7012C11.4986 32.0178 12.3994 34.8672 13.996 37.1703C16.3007 40.4947 20.1909 45.1863 25.636 48.6588C30.8651 51.9936 36.2705 53.4016 41.7018 52.8437C45.7789 52.4248 49.7207 50.9613 53.4179 48.4936L53.4908 48.5966C49.7758 51.0762 45.8139 52.5469 41.7154 52.968C40.939 53.0477 40.1625 53.0876 39.3877 53.0876Z" fill="white"/>
<path d="M19.2017 43.5524L19.1453 43.5395C9.26128 41.2741 7.21479 35.4471 6.82301 33.7151C6.81511 33.6802 6.81028 33.6577 6.80716 33.6486L6.92818 33.6059C6.9328 33.6181 6.93709 33.6366 6.94879 33.6883C7.33576 35.3989 9.3563 41.1467 19.1177 43.4047C19.2177 43.1083 19.6948 41.6064 19.8158 39.6253C19.9398 37.5933 19.7038 34.6266 17.8749 32.032L17.9812 31.9614C19.8315 34.5864 20.0699 37.5839 19.9441 39.6364C19.8079 41.8583 19.2267 43.4833 19.2209 43.4994L19.2017 43.5524Z" fill="white"/>
<path d="M17.2625 50.9324C16.4466 50.9324 15.7304 50.8589 15.121 50.7526C12.7337 50.3359 11.4233 49.3374 11.4104 49.3274L11.4907 49.2297C11.5035 49.2395 12.7939 50.2212 15.1521 50.631C17.3244 51.0085 20.8726 50.9638 25.4487 48.6133C25.4871 48.1622 25.8355 43.2091 23.281 37.6151L20.576 31.6913L20.6937 31.6406L23.3987 37.5644C26.0797 43.4354 25.5792 48.6073 25.5739 48.6589L25.5704 48.6921L25.54 48.7078C22.1947 50.4319 19.3903 50.9324 17.2625 50.9324Z" fill="white"/>
</g>
</g>
<path d="M53.16 9.31327L52.5457 8.71338L51.7907 12.4581L47.0537 22.3303L47.5805 22.9302L50.8536 22.9288V36.7214C50.8536 45.7532 43.6929 53.264 34.4154 53.9634L9.20786 55.3184L9.25527 55.7597L19.6978 58.6599L38.1948 57.0934C48.7452 56.2077 56.8449 47.6369 56.8449 37.3586V22.8325L59.7962 22.6672L53.16 9.31327Z" fill="url(#paint1_linear_315_10677)"/>
<path d="M52.5457 8.71338L47.0537 22.3303L50.2754 22.3289V36.1215C50.2754 45.1533 43.2271 52.6641 34.0951 53.3635L9.20786 55.3184L19.7587 58.0305L37.8153 56.4935C48.2002 55.6078 56.1729 47.037 56.1729 36.7587V22.2327L59.0778 22.0674L52.5457 8.71338Z" fill="url(#paint2_linear_315_10677)"/>
<g opacity="0.3">
<path d="M54.5422 37.5151C53.6889 33.8141 51.6736 32.0832 51.7588 27.5964C51.8256 24.0786 53.1153 22.4669 53.8956 19.6461C54.4239 17.7366 54.7214 15.2626 54.2185 12.1328L52.5457 8.71289L47.0537 22.3298L50.2754 22.3284V36.1211C50.2754 45.1528 43.2271 52.6636 34.0951 53.363L9.20786 55.3179L19.7587 58.03L37.8153 56.493C45.2875 55.8557 51.5107 51.2396 54.4138 44.8716C54.9762 42.4977 55.1095 39.9757 54.5422 37.5151Z" fill="#F4F7FA"/>
</g>
<path d="M41.9585 17.843C41.9585 21.8033 38.7679 24.9187 34.6901 24.7971C30.4462 24.6706 26.877 21.1132 26.877 16.8562C26.877 12.5991 30.4462 9.50879 34.6901 9.9377C38.7679 10.3498 41.9585 13.8827 41.9585 17.843Z" fill="url(#paint3_linear_315_10677)"/>
<path d="M43.0604 17.5017C43.0604 21.462 39.8699 24.5774 35.792 24.4558C31.5481 24.3293 27.9789 20.7719 27.9789 16.5149C27.9789 12.2578 31.5481 9.16748 35.792 9.5964C39.8699 10.0085 43.0604 13.5414 43.0604 17.5017Z" fill="url(#paint4_linear_315_10677)"/>
<path d="M42.7403 17.4806C42.7403 21.2665 39.6876 24.2396 35.792 24.1172C31.7452 23.99 28.3475 20.595 28.3475 16.5388C28.3475 12.4826 31.7452 9.53225 35.792 9.93468C39.6876 10.322 42.7403 13.6947 42.7403 17.4806Z" fill="url(#paint5_linear_315_10677)"/>
<path opacity="0.53" d="M42.4028 17.4588C42.4028 21.0627 39.4949 23.8896 35.7884 23.7688C31.943 23.6435 28.7183 20.4156 28.7183 16.5633C28.7183 12.7111 31.943 9.90519 35.7884 10.2831C39.4949 10.6474 42.4028 13.8548 42.4028 17.4588Z" fill="white"/>
<path opacity="0.3" d="M34.5761 18.3623C34.8031 16.1861 36.8637 15.2649 36.5948 13.2631C36.4291 12.0293 35.4656 10.9896 34.3908 10.1777C31.1309 10.5096 28.61 13.1295 28.61 16.5562C28.61 20.4694 31.8857 23.7484 35.792 23.8757C36.1712 23.888 36.5417 23.8689 36.9018 23.8231C35.3505 22.3248 34.381 20.232 34.5761 18.3623Z" fill="url(#paint6_linear_315_10677)"/>
<mask id="mask1_315_10677" style="mask-type:luminance" maskUnits="userSpaceOnUse" x="29" y="10" width="13" height="14">
<path d="M41.7292 17.4145C41.7292 20.6637 39.1076 23.2122 35.766 23.1034C32.2991 22.9904 29.3919 20.0802 29.3919 16.6072C29.3919 13.1343 32.2991 10.6046 35.766 10.9453C39.1076 11.2737 41.7292 14.1653 41.7292 17.4145Z" fill="white"/>
</mask>
<g mask="url(#mask1_315_10677)">
<path d="M35.7528 17.9095C36.9006 17.7587 37.6176 16.1063 37.4025 14.5633C37.1873 13.0203 36.1213 12.1711 34.9735 12.3219C33.8257 12.4727 33.0307 13.5664 33.2459 15.1094C33.4611 16.6523 34.6049 18.0603 35.7528 17.9095Z" fill="white"/>
<path d="M35.8276 18.4463C32.9728 18.8213 30.9718 21.3716 31.3582 24.1425L31.391 24.3778L41.7292 23.0195L41.6964 22.7842C41.31 20.0133 38.6824 18.0712 35.8276 18.4463Z" fill="white"/>
</g>
<path d="M34.9687 50.9417C36.6518 50.9417 38.0163 50.6537 38.0163 50.2985C38.0163 49.9432 36.6518 49.6553 34.9687 49.6553C33.2855 49.6553 31.9211 49.9432 31.9211 50.2985C31.9211 50.6537 33.2855 50.9417 34.9687 50.9417Z" fill="url(#paint7_linear_315_10677)"/>
<path d="M40.2368 42.1987L38.0163 50.2983H31.9211L29.7006 42.1987H40.2368Z" fill="url(#paint8_linear_315_10677)"/>
<path d="M34.9687 25.4133C44.3933 25.4133 52.0335 24.5092 52.0335 23.3939C52.0335 22.2786 44.3933 21.3745 34.9687 21.3745C25.5441 21.3745 17.9039 22.2786 17.9039 23.3939C17.9039 24.5092 25.5441 25.4133 34.9687 25.4133Z" fill="url(#paint9_linear_315_10677)"/>
<path d="M17.9039 24.6968H52.0335V23.394H17.9039V24.6968Z" fill="url(#paint10_linear_315_10677)"/>
<path d="M34.9687 26.6125C44.3933 26.6125 52.0335 25.7084 52.0335 24.5931C52.0335 23.4778 44.3933 22.5737 34.9687 22.5737C25.5441 22.5737 17.9039 23.4778 17.9039 24.5931C17.9039 25.7084 25.5441 26.6125 34.9687 26.6125Z" fill="url(#paint11_linear_315_10677)"/>
<path d="M34.9687 42.8225C37.8782 42.8225 40.2368 42.5434 40.2368 42.1991C40.2368 41.8548 37.8782 41.5757 34.9687 41.5757C32.0592 41.5757 29.7006 41.8548 29.7006 42.1991C29.7006 42.5434 32.0592 42.8225 34.9687 42.8225Z" fill="url(#paint12_linear_315_10677)"/>
<path d="M52.0335 24.5928L40.2368 42.1988H29.7006L17.9039 24.5928H52.0335Z" fill="url(#paint13_linear_315_10677)"/>
<g opacity="0.3">
<path d="M35.2666 37.6725C36.8924 35.3146 35.2386 33.8219 36.9479 31.2125C39.8128 26.8392 46.8318 27.4092 47.7001 24.3305C47.7841 24.0327 47.8174 23.6759 47.7325 23.2524C50.4084 23.609 52.0335 24.0785 52.0335 24.5928C52.0335 24.7023 51.9597 24.8096 51.8181 24.9143L40.2368 42.1988C40.2368 42.5431 37.8782 42.8222 34.9687 42.8222C32.0592 42.8222 29.7006 42.5431 29.7006 42.1988L29.0354 41.206C31.6863 40.5659 34.017 39.4848 35.2666 37.6725Z" fill="url(#paint14_linear_315_10677)"/>
</g>
<path d="M24.4122 20.1087C24.4122 23.547 21.6422 26.2517 18.1019 26.1462C14.4174 26.0364 11.3187 22.9479 11.3187 19.2519C11.3187 15.556 14.4174 12.8731 18.1019 13.2455C21.6422 13.6033 24.4122 16.6705 24.4122 20.1087Z" fill="url(#paint15_linear_315_10677)"/>
<path d="M25.3689 19.8123C25.3689 23.2506 22.5989 25.9553 19.0585 25.8498C15.3741 25.74 12.2753 22.6515 12.2753 18.9556C12.2753 15.2597 15.3741 12.5767 19.0585 12.9491C22.5989 13.3069 25.3689 16.3741 25.3689 19.8123Z" fill="url(#paint16_linear_315_10677)"/>
<path d="M25.091 19.7941C25.091 23.0809 22.4406 25.6622 19.0586 25.5559C15.5452 25.4454 12.5954 22.498 12.5954 18.9764C12.5954 15.4549 15.5452 12.8934 19.0586 13.2428C22.4407 13.5791 25.091 16.5072 25.091 19.7941Z" fill="url(#paint17_linear_315_10677)"/>
<path opacity="0.53" d="M24.798 19.775C24.798 22.9039 22.2734 25.3581 19.0554 25.2533C15.7169 25.1445 12.9173 22.342 12.9173 18.9976C12.9173 15.6532 15.7169 13.2171 19.0554 13.5452C22.2734 13.8615 24.798 16.6461 24.798 19.775Z" fill="white"/>
<path opacity="0.3" d="M18.0029 20.5593C18.2 18.67 19.989 17.8702 19.7556 16.1323C19.6117 15.0611 18.7752 14.1584 17.8421 13.4536C15.0119 13.7417 12.8233 16.0163 12.8233 18.9913C12.8233 22.3887 15.6672 25.2354 19.0586 25.346C19.3878 25.3567 19.7094 25.3401 20.0221 25.3003C18.6753 23.9995 17.8336 22.1825 18.0029 20.5593Z" fill="url(#paint18_linear_315_10677)"/>
<mask id="mask2_315_10677" style="mask-type:luminance" maskUnits="userSpaceOnUse" x="13" y="14" width="12" height="11">
<path d="M24.2132 19.7364C24.2132 22.5573 21.9371 24.7699 19.0359 24.6754C16.0261 24.5773 13.5021 22.0508 13.5021 19.0356C13.5021 16.0204 16.0261 13.8241 19.0359 14.12C21.9371 14.4051 24.2132 16.9156 24.2132 19.7364Z" fill="white"/>
</mask>
<g mask="url(#mask2_315_10677)">
<path d="M19.0245 20.1663C20.021 20.0354 20.6435 18.6007 20.4567 17.2612C20.2699 15.9216 19.3444 15.1843 18.3479 15.3152C17.3514 15.4462 16.6612 16.3957 16.848 17.7353C17.0348 19.0749 18.028 20.2972 19.0245 20.1663Z" fill="white"/>
<path d="M19.0895 20.632C16.611 20.9577 14.8737 23.1718 15.2092 25.5774L15.2377 25.7817L24.2132 24.6025L24.1847 24.3982C23.8492 21.9926 21.568 20.3064 19.0895 20.632Z" fill="white"/>
</g>
<path d="M18.2225 32.2083C18.2225 34.8828 16.0679 36.9867 13.3139 36.9047C10.4479 36.8193 8.03748 34.4168 8.03748 31.5419C8.03748 28.667 10.4479 26.58 13.3139 26.8696C16.0679 27.1479 18.2225 29.5338 18.2225 32.2083Z" fill="url(#paint19_linear_315_10677)"/>
<path d="M18.9667 31.9779C18.9667 34.6524 16.812 36.7563 14.0581 36.6742C11.1921 36.5888 8.78165 34.1864 8.78165 31.3114C8.78165 28.4365 11.1921 26.3495 14.0581 26.6392C16.812 26.9175 18.9667 29.3034 18.9667 31.9779Z" fill="url(#paint20_linear_315_10677)"/>
<path d="M18.7505 31.9636C18.7505 34.5203 16.6889 36.5282 14.0581 36.4455C11.3251 36.3596 9.03058 34.0669 9.03058 31.3276C9.03058 28.5883 11.3251 26.5958 14.0581 26.8676C16.6889 27.1292 18.7505 29.4068 18.7505 31.9636Z" fill="url(#paint21_linear_315_10677)"/>
<path opacity="0.53" d="M18.5226 31.9486C18.5226 34.3825 16.5588 36.2915 14.0557 36.2099C11.4587 36.1253 9.28101 33.9454 9.28101 31.3439C9.28101 28.7423 11.4587 26.8474 14.0557 27.1026C16.5588 27.3487 18.5226 29.5147 18.5226 31.9486Z" fill="white"/>
<path opacity="0.3" d="M13.2369 32.5591C13.3902 31.0894 14.7819 30.4673 14.6003 29.1154C14.4883 28.2822 13.8377 27.58 13.1118 27.0317C10.9103 27.2558 9.20786 29.0252 9.20786 31.3394C9.20786 33.9821 11.4201 36.1965 14.0581 36.2824C14.3142 36.2908 14.5643 36.2779 14.8076 36.2469C13.7599 35.2351 13.1052 33.8217 13.2369 32.5591Z" fill="url(#paint22_linear_315_10677)"/>
<mask id="mask3_315_10677" style="mask-type:luminance" maskUnits="userSpaceOnUse" x="9" y="27" width="10" height="9">
<path d="M18.0677 31.9189C18.0677 34.1132 16.2972 35.8343 14.0405 35.7608C11.6992 35.6845 9.73587 33.7192 9.73587 31.3738C9.73587 29.0283 11.6992 27.32 14.0405 27.5501C16.2972 27.7718 18.0677 29.7247 18.0677 31.9189Z" fill="white"/>
</mask>
<g mask="url(#mask3_315_10677)">
<path d="M14.0316 32.2534C14.8067 32.1516 15.291 31.0356 15.1456 29.9935C15.0003 28.9515 14.2804 28.378 13.5053 28.4799C12.7301 28.5817 12.1932 29.3203 12.3385 30.3624C12.4839 31.4044 13.2564 32.3552 14.0316 32.2534Z" fill="white"/>
<path d="M14.0821 32.6158C12.1542 32.8691 10.8028 34.5914 11.0638 36.4626L11.0859 36.6215L18.0677 35.7042L18.0455 35.5453C17.7846 33.6741 16.0101 32.3625 14.0821 32.6158Z" fill="white"/>
</g>
<path d="M24.0976 41.9631C24.0976 44.2722 22.2373 46.0887 19.8596 46.0178C17.3852 45.944 15.3041 43.8698 15.3041 41.3877C15.3041 38.9055 17.3852 37.1037 19.8596 37.3537C22.2373 37.594 24.0976 39.654 24.0976 41.9631Z" fill="url(#paint23_linear_315_10677)"/>
<path d="M24.7401 41.7638C24.7401 44.073 22.8798 45.8894 20.5022 45.8186C18.0277 45.7448 15.9466 43.6706 15.9466 41.1885C15.9466 38.7063 18.0277 36.9045 20.5022 37.1545C22.8798 37.3948 24.7401 39.4547 24.7401 41.7638Z" fill="url(#paint24_linear_315_10677)"/>
<path d="M24.5535 41.7517C24.5535 43.9592 22.7735 45.6927 20.5022 45.6213C18.1426 45.5472 16.1615 43.5677 16.1615 41.2026C16.1615 38.8376 18.1426 37.1173 20.5022 37.352C22.7735 37.5778 24.5535 39.5443 24.5535 41.7517Z" fill="url(#paint25_linear_315_10677)"/>
<path opacity="0.53" d="M24.3567 41.7389C24.3567 43.8403 22.6612 45.4885 20.5 45.4181C18.2579 45.345 16.3777 43.4629 16.3777 41.2168C16.3777 38.9707 18.2579 37.3347 20.5 37.555C22.6612 37.7675 24.3567 39.6376 24.3567 41.7389Z" fill="white"/>
<path opacity="0.3" d="M19.7932 42.2658C19.9256 40.9969 21.127 40.4598 20.9702 39.2926C20.8736 38.5732 20.3118 37.967 19.6852 37.4937C17.7844 37.6871 16.3146 39.2147 16.3146 41.2127C16.3146 43.4944 18.2245 45.4062 20.5021 45.4805C20.7233 45.4877 20.9393 45.4765 21.1492 45.4498C20.2447 44.5762 19.6795 43.3559 19.7932 42.2658Z" fill="url(#paint26_linear_315_10677)"/>
<mask id="mask4_315_10677" style="mask-type:luminance" maskUnits="userSpaceOnUse" x="16" y="37" width="8" height="9">
<path d="M23.964 41.7133C23.964 43.6078 22.4354 45.0937 20.4869 45.0302C18.4656 44.9644 16.7704 43.2676 16.7704 41.2426C16.7704 39.2176 18.4656 37.7426 20.4869 37.9413C22.4354 38.1328 23.964 39.8188 23.964 41.7133Z" fill="white"/>
</mask>
<g mask="url(#mask4_315_10677)">
<path d="M20.4793 42.0019C21.1485 41.914 21.5666 40.9505 21.4411 40.0508C21.3157 39.1511 20.6941 38.656 20.0249 38.7439C19.3557 38.8318 18.8921 39.4696 19.0176 40.3692C19.143 41.2689 19.81 42.0898 20.4793 42.0019Z" fill="white"/>
<path d="M20.5229 42.3146C18.8584 42.5333 17.6916 44.0203 17.9169 45.6359L17.9361 45.7731L23.964 44.9811L23.9448 44.8439C23.7195 43.2283 22.1875 42.0959 20.5229 42.3146Z" fill="white"/>
</g>
<path d="M38.2075 55.5467C38.2075 57.3817 36.7291 58.8253 34.8396 58.769C32.8731 58.7104 31.2193 57.062 31.2193 55.0894C31.2193 53.1169 32.8731 51.6849 34.8396 51.8837C36.7291 52.0746 38.2075 53.7116 38.2075 55.5467Z" fill="url(#paint27_linear_315_10677)"/>
<path d="M38.7181 55.3885C38.7181 57.2235 37.2397 58.6671 35.3502 58.6108C33.3837 58.5521 31.7299 56.9038 31.7299 54.9312C31.7299 52.9587 33.3837 51.5267 35.3502 51.7255C37.2397 51.9164 38.7181 53.5534 38.7181 55.3885Z" fill="url(#paint28_linear_315_10677)"/>
<path d="M38.5698 55.3788C38.5698 57.133 37.1553 58.5106 35.3502 58.4539C33.4751 58.395 31.9007 56.8219 31.9007 54.9424C31.9007 53.0629 33.4751 51.6958 35.3502 51.8823C37.1553 52.0617 38.5698 53.6245 38.5698 55.3788Z" fill="url(#paint29_linear_315_10677)"/>
<path d="M38.4636 55.3716C38.4636 57.068 37.0948 58.3986 35.3502 58.3417C33.5402 58.2827 32.0223 56.7634 32.0223 54.9502C32.0223 53.1369 33.5402 51.8162 35.3502 51.9941C37.0948 52.1656 38.4636 53.6752 38.4636 55.3716Z" fill="url(#paint30_linear_315_10677)"/>
<path d="M35.3323 52.5715C35.4252 52.5801 35.5003 52.6612 35.5003 52.7527V53.0651C35.6859 53.0852 35.8719 53.1165 36.058 53.159C36.1953 53.1903 36.3316 53.2276 36.4671 53.2708C36.5482 53.2967 36.6035 53.3762 36.5952 53.4582L36.5557 53.8499C36.5452 53.9538 36.4394 54.0148 36.3398 53.9717C36.2505 53.9331 36.1591 53.9 36.0653 53.8725C35.9018 53.8244 35.7293 53.7931 35.5478 53.7786L35.5003 53.7748V54.6693C35.9846 54.8008 36.3403 54.9777 36.5702 55.2002C36.7989 55.4217 36.9129 55.6977 36.9129 56.0291C36.9129 56.3874 36.7869 56.6743 36.5339 56.8907C36.2795 57.1083 35.9229 57.2307 35.4617 57.2571V57.6019C35.4617 57.6934 35.3865 57.7647 35.2936 57.7612L35.2906 57.7611C35.1975 57.7575 35.1219 57.6801 35.1219 57.5882V57.2481L35.0471 57.2449C34.8309 57.2354 34.6238 57.214 34.4259 57.1806C34.2794 57.1558 34.1363 57.1239 33.9967 57.0848C33.9123 57.0611 33.8543 56.983 33.862 56.8991L33.9085 56.3957C33.9186 56.2869 34.0312 56.2235 34.1379 56.2644C34.2621 56.3119 34.388 56.352 34.5154 56.3846C34.7138 56.4354 34.915 56.468 35.1189 56.4825L35.1219 55.4875C34.657 55.3759 34.309 55.2105 34.0803 54.9914C33.8505 54.7714 33.7353 54.4897 33.7353 54.1473C33.7353 53.7929 33.8603 53.5194 34.1093 53.3274C34.3571 53.1364 34.7093 53.0413 35.1637 53.0416V52.7223C35.1638 52.6304 35.2393 52.5629 35.3323 52.5715ZM35.1638 53.7655C35.0201 53.7757 34.908 53.814 34.8278 53.8805C34.7475 53.9471 34.7073 54.0366 34.7073 54.149C34.7073 54.2554 34.7445 54.3444 34.8188 54.4158C34.893 54.4871 35.0081 54.544 35.1637 54.5866L35.1638 53.7655ZM35.4617 55.5672V56.4796C35.6179 56.4799 35.7377 56.4437 35.8213 56.3712C35.9047 56.2987 35.9464 56.1964 35.9464 56.064C35.9464 55.9434 35.9077 55.8433 35.8301 55.7637C35.7524 55.684 35.6297 55.6185 35.4617 55.5672Z" fill="url(#paint31_linear_315_10677)"/>
<path opacity="0.3" d="M34.7868 55.7871C34.892 54.7787 35.8468 54.3518 35.7222 53.4243C35.6454 52.8526 35.199 52.3708 34.701 51.9946C33.1904 52.1484 32.0223 53.3624 32.0223 54.9502C32.0223 56.7634 33.5402 58.2828 35.3502 58.3418C35.5259 58.3475 35.6976 58.3386 35.8645 58.3174C35.1456 57.6231 34.6964 56.6534 34.7868 55.7871Z" fill="url(#paint32_linear_315_10677)"/>
<path d="M51.4764 54.1818C51.4764 57.4088 48.8767 59.9472 45.5539 59.8482C42.0959 59.7452 39.1876 56.8465 39.1876 53.3777C39.1876 49.909 42.0959 47.3909 45.5539 47.7404C48.8767 48.0762 51.4764 50.9549 51.4764 54.1818Z" fill="url(#paint33_linear_315_10677)"/>
<path d="M52.3743 53.9035C52.3743 57.1305 49.7746 59.6689 46.4518 59.5699C42.9938 59.4669 40.0855 56.5682 40.0855 53.0994C40.0855 49.6307 42.9938 47.1126 46.4518 47.4621C49.7746 47.7979 52.3743 50.6766 52.3743 53.9035Z" fill="url(#paint34_linear_315_10677)"/>
<path d="M52.1135 53.8865C52.1135 56.9714 49.626 59.394 46.4518 59.2942C43.1544 59.1906 40.3859 56.4243 40.3859 53.1192C40.3859 49.814 43.1544 47.41 46.4518 47.7379C49.626 48.0536 52.1135 50.8017 52.1135 53.8865Z" fill="url(#paint35_linear_315_10677)"/>
<path d="M51.9267 53.8744C51.9267 56.8575 49.5198 59.1973 46.4518 59.0973C43.2689 58.9936 40.5998 56.3218 40.5998 53.1332C40.5998 49.9447 43.2689 47.6222 46.4518 47.935C49.5198 48.2365 51.9267 50.8913 51.9267 53.8744Z" fill="url(#paint36_linear_315_10677)"/>
<path d="M46.4204 48.9495C46.5836 48.9646 46.7158 49.1072 46.7158 49.2682V49.8174C47.0422 49.8528 47.3691 49.9079 47.6965 49.9825C47.9379 50.0376 48.1776 50.1031 48.4158 50.1791C48.5585 50.2247 48.6557 50.3645 48.6412 50.5087L48.5717 51.1974C48.5532 51.3802 48.3672 51.4875 48.1919 51.4116C48.0351 51.3437 47.8742 51.2856 47.7094 51.2372C47.4217 51.1527 47.1184 51.0976 46.7992 51.0721L46.7158 51.0654V52.6383C47.5674 52.8696 48.1929 53.1807 48.5971 53.572C48.9994 53.9615 49.1998 54.4469 49.1998 55.0295C49.1998 55.6597 48.9782 56.1642 48.5333 56.5448C48.086 56.9274 47.4589 57.1425 46.6479 57.1891V57.7953C46.6479 57.9563 46.5157 58.0817 46.3523 58.0754L46.347 58.0752C46.1833 58.0689 46.0503 57.9328 46.0503 57.7712V57.1733L45.9187 57.1675C45.5386 57.1508 45.1744 57.1132 44.8265 57.0545C44.5688 57.011 44.3172 56.9548 44.0717 56.886C43.9232 56.8443 43.8213 56.7071 43.8349 56.5596L43.9167 55.6743C43.9343 55.4829 44.1324 55.3715 44.3199 55.4433C44.5385 55.527 44.7598 55.5975 44.9837 55.6548C45.3328 55.7441 45.6866 55.8014 46.0451 55.8269L46.0503 54.0772C45.2328 53.8809 44.6208 53.5901 44.2187 53.2049C43.8147 52.8179 43.612 52.3226 43.612 51.7204C43.612 51.0973 43.8318 50.6162 44.2697 50.2786C44.7054 49.9427 45.3249 49.7756 46.124 49.7761V49.2146C46.1239 49.0531 46.2568 48.9344 46.4204 48.9495ZM46.1239 51.0491C45.8713 51.067 45.6743 51.1343 45.5333 51.2513C45.392 51.3684 45.3213 51.5258 45.3213 51.7234C45.3213 51.9106 45.3867 52.0671 45.5174 52.1927C45.6478 52.3181 45.8502 52.4182 46.124 52.493L46.1239 51.0491ZM46.6479 54.2174V55.8219C46.9225 55.8225 47.1332 55.7588 47.2802 55.6312C47.427 55.5037 47.5002 55.3238 47.5002 55.0911C47.5002 54.8789 47.4321 54.7029 47.2957 54.563C47.1591 54.4228 46.9434 54.3077 46.6479 54.2174Z" fill="url(#paint37_linear_315_10677)"/>
<path opacity="0.3" d="M45.4611 54.6046C45.646 52.8313 47.3251 52.0807 47.106 50.4496C46.9709 49.4443 46.1859 48.597 45.3101 47.9355C42.6538 48.2059 40.5998 50.3407 40.5998 53.1329C40.5998 56.3215 43.2689 58.9933 46.4518 59.097C46.7609 59.107 47.0627 59.0915 47.3562 59.0541C46.0921 57.8333 45.3021 56.128 45.4611 54.6046Z" fill="url(#paint38_linear_315_10677)"/>
<path d="M60.1843 41.6644C60.1843 46.343 56.415 50.0234 51.5975 49.8798C46.584 49.7304 42.3674 45.5277 42.3674 40.4986C42.3674 35.4694 46.584 31.8186 51.5975 32.3253C56.415 32.8122 60.1843 36.9858 60.1843 41.6644Z" fill="url(#paint39_linear_315_10677)"/>
<path d="M61.4861 41.2611C61.4861 45.9397 57.7168 49.6201 52.8993 49.4765C47.8857 49.327 43.6691 45.1244 43.6691 40.0953C43.6691 35.0661 47.8857 31.4153 52.8993 31.922C57.7168 32.4089 61.4861 36.5825 61.4861 41.2611Z" fill="url(#paint40_linear_315_10677)"/>
<path d="M61.1079 41.2362C61.1079 45.7088 57.5015 49.2212 52.8994 49.0766C48.1186 48.9263 44.1046 44.9156 44.1046 40.1237C44.1046 35.3318 48.1186 31.8463 52.8994 32.3217C57.5015 32.7793 61.1079 36.7637 61.1079 41.2362Z" fill="url(#paint41_linear_315_10677)"/>
<path d="M60.8371 41.2186C60.8371 45.5436 57.3474 48.936 52.8993 48.791C48.2846 48.6406 44.4148 44.7669 44.4148 40.144C44.4148 35.5211 48.2846 32.1538 52.8993 32.6073C57.3474 33.0445 60.8371 36.8936 60.8371 41.2186Z" fill="url(#paint42_linear_315_10677)"/>
<path d="M52.8538 34.0785C53.0905 34.1004 53.2821 34.3072 53.2821 34.5405V35.3368C53.7554 35.3881 54.2293 35.468 54.704 35.5762C55.054 35.6561 55.4016 35.7511 55.7469 35.8613C55.9538 35.9273 56.0947 36.13 56.0736 36.3392L55.9729 37.3377C55.9461 37.6026 55.6763 37.7582 55.4223 37.6483C55.1949 37.5498 54.9617 37.4655 54.7227 37.3953C54.3056 37.2729 53.8659 37.193 53.4031 37.156L53.2821 37.1463V39.4268C54.5169 39.7621 55.4237 40.2132 56.0097 40.7806C56.5929 41.3452 56.8835 42.0489 56.8835 42.8937C56.8835 43.8073 56.5622 44.5388 55.9172 45.0906C55.2687 45.6452 54.3594 45.9572 53.1837 46.0247V46.9036C53.1837 47.137 52.9919 47.3189 52.755 47.3097L52.7474 47.3094C52.5101 47.3003 52.3173 47.103 52.3173 46.8687V46.0018L52.1265 45.9934C51.5753 45.9693 51.0473 45.9147 50.5429 45.8295C50.1693 45.7664 49.8045 45.685 49.4485 45.5852C49.2333 45.5249 49.0855 45.3258 49.1052 45.112L49.2238 43.8284C49.2494 43.5509 49.5366 43.3895 49.8084 43.4936C50.1253 43.6149 50.4461 43.7171 50.7709 43.8002C51.277 43.9297 51.7899 44.0128 52.3097 44.0497L52.3173 41.5129C51.132 41.2283 50.2447 40.8067 49.6616 40.2482C49.0759 39.6871 48.782 38.969 48.782 38.096C48.782 37.1925 49.1007 36.495 49.7357 36.0056C50.3674 35.5186 51.2654 35.2763 52.424 35.2769V34.4629C52.424 34.2287 52.6166 34.0566 52.8538 34.0785ZM52.424 37.1227C52.0577 37.1485 51.7721 37.2462 51.5676 37.4157C51.3628 37.5856 51.2603 37.8138 51.2603 38.1003C51.2603 38.3717 51.3551 38.5985 51.5446 38.7806C51.7337 38.9624 52.0271 39.1076 52.424 39.216V37.1227ZM53.1837 41.7162V44.0425C53.5819 44.0433 53.8872 43.951 54.1004 43.7659C54.3132 43.5812 54.4194 43.3202 54.4194 42.9828C54.4194 42.6752 54.3207 42.4201 54.1229 42.2172C53.9249 42.014 53.6121 41.847 53.1837 41.7162Z" fill="url(#paint43_linear_315_10677)"/>
<path opacity="0.3" d="M51.4629 42.2779C51.7311 39.707 54.1654 38.6187 53.8478 36.2538C53.652 34.7963 52.5137 33.568 51.244 32.6089C47.3928 33.0009 44.4148 36.096 44.4148 40.1443C44.4148 44.7672 48.2846 48.6409 52.8993 48.7913C53.3474 48.8059 53.785 48.7833 54.2105 48.7291C52.3778 46.9591 51.2325 44.4867 51.4629 42.2779Z" fill="url(#paint44_linear_315_10677)"/>
<defs>
<linearGradient id="paint0_linear_315_10677" x1="26.2081" y1="35.5567" x2="20.4793" y2="51.4002" gradientUnits="userSpaceOnUse">
<stop stop-color="#AA80F9"/>
<stop offset="0.9964" stop-color="#6165D7"/>
</linearGradient>
<linearGradient id="paint1_linear_315_10677" x1="19.1151" y1="53.8682" x2="53.6171" y2="27.2321" gradientUnits="userSpaceOnUse">
<stop stop-color="#AB316D"/>
<stop offset="1" stop-color="#792D3D"/>
</linearGradient>
<linearGradient id="paint2_linear_315_10677" x1="18.9554" y1="53.4871" x2="53.3134" y2="26.9622" gradientUnits="userSpaceOnUse">
<stop stop-color="#AA80F9"/>
<stop offset="0.9964" stop-color="#6165D7"/>
</linearGradient>
<linearGradient id="paint3_linear_315_10677" x1="31.8331" y1="18.1528" x2="23.0879" y2="21.0444" gradientUnits="userSpaceOnUse">
<stop stop-color="#AB316D"/>
<stop offset="1" stop-color="#792D3D"/>
</linearGradient>
<linearGradient id="paint4_linear_315_10677" x1="38.9481" y1="9.65549" x2="31.4774" y2="26.6367" gradientUnits="userSpaceOnUse">
<stop stop-color="#FF9085"/>
<stop offset="1" stop-color="#FB6FBB"/>
</linearGradient>
<linearGradient id="paint5_linear_315_10677" x1="30.6496" y1="24.5444" x2="34.5679" y2="18.1326" gradientUnits="userSpaceOnUse">
<stop stop-color="#FF9085"/>
<stop offset="1" stop-color="#FB6FBB"/>
</linearGradient>
<linearGradient id="paint6_linear_315_10677" x1="32.4546" y1="15.2385" x2="38.387" y2="28.2136" gradientUnits="userSpaceOnUse">
<stop stop-color="#FF9085"/>
<stop offset="1" stop-color="#FB6FBB"/>
</linearGradient>
<linearGradient id="paint7_linear_315_10677" x1="31.9611" y1="54.1906" x2="39.8793" y2="43.3131" gradientUnits="userSpaceOnUse">
<stop stop-color="#FCB148"/>
<stop offset="0.0521" stop-color="#FDBA46"/>
<stop offset="0.1424" stop-color="#FFC244"/>
<stop offset="0.3183" stop-color="#FFC444"/>
<stop offset="0.4849" stop-color="#FDB946"/>
<stop offset="0.7754" stop-color="#F99C4D"/>
<stop offset="0.8658" stop-color="#F8924F"/>
<stop offset="1" stop-color="#F8924F"/>
</linearGradient>
<linearGradient id="paint8_linear_315_10677" x1="29.2478" y1="52.2153" x2="37.166" y2="41.3376" gradientUnits="userSpaceOnUse">
<stop stop-color="#FCB148"/>
<stop offset="0.0521" stop-color="#FDBA46"/>
<stop offset="0.1424" stop-color="#FFC244"/>
<stop offset="0.3183" stop-color="#FFC444"/>
<stop offset="0.4849" stop-color="#FDB946"/>
<stop offset="0.7754" stop-color="#F99C4D"/>
<stop offset="0.8658" stop-color="#F8924F"/>
<stop offset="1" stop-color="#F8924F"/>
</linearGradient>
<linearGradient id="paint9_linear_315_10677" x1="34.8546" y1="39.5627" x2="34.895" y2="33.4792" gradientUnits="userSpaceOnUse">
<stop stop-color="#FCB148"/>
<stop offset="0.0521" stop-color="#FDBA46"/>
<stop offset="0.1424" stop-color="#FFC244"/>
<stop offset="0.3183" stop-color="#FFC444"/>
<stop offset="0.4849" stop-color="#FDB946"/>
<stop offset="0.7754" stop-color="#F99C4D"/>
<stop offset="0.8658" stop-color="#F8924F"/>
<stop offset="1" stop-color="#F8924F"/>
</linearGradient>
<linearGradient id="paint10_linear_315_10677" x1="34.8592" y1="39.5627" x2="34.8996" y2="33.4792" gradientUnits="userSpaceOnUse">
<stop stop-color="#FCB148"/>
<stop offset="0.0521" stop-color="#FDBA46"/>
<stop offset="0.1424" stop-color="#FFC244"/>
<stop offset="0.3183" stop-color="#FFC444"/>
<stop offset="0.4849" stop-color="#FDB946"/>
<stop offset="0.7754" stop-color="#F99C4D"/>
<stop offset="0.8658" stop-color="#F8924F"/>
<stop offset="1" stop-color="#F8924F"/>
</linearGradient>
<linearGradient id="paint11_linear_315_10677" x1="41.0567" y1="12.8485" x2="22.4334" y2="50.9855" gradientUnits="userSpaceOnUse">
<stop stop-color="#FCB148"/>
<stop offset="0.0521" stop-color="#FDBA46"/>
<stop offset="0.1424" stop-color="#FFC244"/>
<stop offset="0.3183" stop-color="#FFC444"/>
<stop offset="0.4849" stop-color="#FDB946"/>
<stop offset="0.7754" stop-color="#F99C4D"/>
<stop offset="0.8658" stop-color="#F8924F"/>
<stop offset="1" stop-color="#F8924F"/>
</linearGradient>
<linearGradient id="paint12_linear_315_10677" x1="49.6425" y1="13.8916" x2="31.0192" y2="52.0285" gradientUnits="userSpaceOnUse">
<stop stop-color="#FCB148"/>
<stop offset="0.0521" stop-color="#FDBA46"/>
<stop offset="0.1424" stop-color="#FFC244"/>
<stop offset="0.3183" stop-color="#FFC444"/>
<stop offset="0.4849" stop-color="#FDB946"/>
<stop offset="0.7754" stop-color="#F99C4D"/>
<stop offset="0.8658" stop-color="#F8924F"/>
<stop offset="1" stop-color="#F8924F"/>
</linearGradient>
<linearGradient id="paint13_linear_315_10677" x1="40.8395" y1="13.2673" x2="24.0018" y2="47.7477" gradientUnits="userSpaceOnUse">
<stop stop-color="#FCB148"/>
<stop offset="0.0521" stop-color="#FDBA46"/>
<stop offset="0.1424" stop-color="#FFC244"/>
<stop offset="0.3183" stop-color="#FFC444"/>
<stop offset="0.4849" stop-color="#FDB946"/>
<stop offset="0.7754" stop-color="#F99C4D"/>
<stop offset="0.8658" stop-color="#F8924F"/>
<stop offset="1" stop-color="#F8924F"/>
</linearGradient>
<linearGradient id="paint14_linear_315_10677" x1="48.8577" y1="16.8743" x2="31.8321" y2="51.7395" gradientUnits="userSpaceOnUse">
<stop stop-color="#FCB148"/>
<stop offset="0.0521" stop-color="#FDBA46"/>
<stop offset="0.1424" stop-color="#FFC244"/>
<stop offset="0.3183" stop-color="#FFC444"/>
<stop offset="0.4849" stop-color="#FDB946"/>
<stop offset="0.7754" stop-color="#F99C4D"/>
<stop offset="0.8658" stop-color="#F8924F"/>
<stop offset="1" stop-color="#F8924F"/>
</linearGradient>
<linearGradient id="paint15_linear_315_10677" x1="15.6215" y1="20.3777" x2="8.0291" y2="22.8881" gradientUnits="userSpaceOnUse">
<stop stop-color="#AB316D"/>
<stop offset="1" stop-color="#792D3D"/>
</linearGradient>
<linearGradient id="paint16_linear_315_10677" x1="21.7986" y1="13.0004" x2="15.3127" y2="27.7432" gradientUnits="userSpaceOnUse">
<stop stop-color="#FF9085"/>
<stop offset="1" stop-color="#FB6FBB"/>
</linearGradient>
<linearGradient id="paint17_linear_315_10677" x1="14.5941" y1="25.9267" x2="17.9959" y2="20.3601" gradientUnits="userSpaceOnUse">
<stop stop-color="#FF9085"/>
<stop offset="1" stop-color="#FB6FBB"/>
</linearGradient>
<linearGradient id="paint18_linear_315_10677" x1="16.1611" y1="17.8473" x2="21.3116" y2="29.1121" gradientUnits="userSpaceOnUse">
<stop stop-color="#FF9085"/>
<stop offset="1" stop-color="#FB6FBB"/>
</linearGradient>
<linearGradient id="paint19_linear_315_10677" x1="11.3845" y1="32.4175" x2="5.47861" y2="34.3703" gradientUnits="userSpaceOnUse">
<stop stop-color="#AB316D"/>
<stop offset="1" stop-color="#792D3D"/>
</linearGradient>
<linearGradient id="paint20_linear_315_10677" x1="16.1895" y1="26.6791" x2="11.1443" y2="38.1471" gradientUnits="userSpaceOnUse">
<stop stop-color="#FF9085"/>
<stop offset="1" stop-color="#FB6FBB"/>
</linearGradient>
<linearGradient id="paint21_linear_315_10677" x1="10.5853" y1="36.734" x2="13.2314" y2="32.4039" gradientUnits="userSpaceOnUse">
<stop stop-color="#FF9085"/>
<stop offset="1" stop-color="#FB6FBB"/>
</linearGradient>
<linearGradient id="paint22_linear_315_10677" x1="11.8042" y1="30.4495" x2="15.8106" y2="39.212" gradientUnits="userSpaceOnUse">
<stop stop-color="#FF9085"/>
<stop offset="1" stop-color="#FB6FBB"/>
</linearGradient>
<linearGradient id="paint23_linear_315_10677" x1="18.1939" y1="42.1437" x2="13.0948" y2="43.8297" gradientUnits="userSpaceOnUse">
<stop stop-color="#AB316D"/>
<stop offset="1" stop-color="#792D3D"/>
</linearGradient>
<linearGradient id="paint24_linear_315_10677" x1="22.3424" y1="37.189" x2="17.9864" y2="47.0902" gradientUnits="userSpaceOnUse">
<stop stop-color="#FF9085"/>
<stop offset="1" stop-color="#FB6FBB"/>
</linearGradient>
<linearGradient id="paint25_linear_315_10677" x1="17.5038" y1="45.8704" x2="19.7885" y2="42.1319" gradientUnits="userSpaceOnUse">
<stop stop-color="#FF9085"/>
<stop offset="1" stop-color="#FB6FBB"/>
</linearGradient>
<linearGradient id="paint26_linear_315_10677" x1="18.5562" y1="40.4444" x2="22.0152" y2="48.0098" gradientUnits="userSpaceOnUse">
<stop stop-color="#FF9085"/>
<stop offset="1" stop-color="#FB6FBB"/>
</linearGradient>
<linearGradient id="paint27_linear_315_10677" x1="33.5158" y1="55.6902" x2="29.4636" y2="57.0301" gradientUnits="userSpaceOnUse">
<stop stop-color="#FCB148"/>
<stop offset="0.0521" stop-color="#FDBA46"/>
<stop offset="0.1424" stop-color="#FFC244"/>
<stop offset="0.3183" stop-color="#FFC444"/>
<stop offset="0.4849" stop-color="#FDB946"/>
<stop offset="0.7754" stop-color="#F99C4D"/>
<stop offset="0.8658" stop-color="#F8924F"/>
<stop offset="1" stop-color="#F8924F"/>
</linearGradient>
<linearGradient id="paint28_linear_315_10677" x1="36.8126" y1="51.7528" x2="33.3509" y2="59.6213" gradientUnits="userSpaceOnUse">
<stop stop-color="#FFDB44"/>
<stop offset="1" stop-color="#FEEF06"/>
</linearGradient>
<linearGradient id="paint29_linear_315_10677" x1="36.1433" y1="59.979" x2="35.4808" y2="56.2497" gradientUnits="userSpaceOnUse">
<stop stop-color="#FCB148"/>
<stop offset="0.0521" stop-color="#FDBA46"/>
<stop offset="0.1424" stop-color="#FFC244"/>
<stop offset="0.3183" stop-color="#FFC444"/>
<stop offset="0.4849" stop-color="#FDB946"/>
<stop offset="0.7754" stop-color="#F99C4D"/>
<stop offset="0.8658" stop-color="#F8924F"/>
<stop offset="1" stop-color="#F8924F"/>
</linearGradient>
<linearGradient id="paint30_linear_315_10677" x1="34.6549" y1="53.9538" x2="37.4093" y2="59.9781" gradientUnits="userSpaceOnUse">
<stop stop-color="#FCB148"/>
<stop offset="0.0521" stop-color="#FDBA46"/>
<stop offset="0.1424" stop-color="#FFC244"/>
<stop offset="0.3183" stop-color="#FFC444"/>
<stop offset="0.4849" stop-color="#FDB946"/>
<stop offset="0.7754" stop-color="#F99C4D"/>
<stop offset="0.8658" stop-color="#F8924F"/>
<stop offset="1" stop-color="#F8924F"/>
</linearGradient>
<linearGradient id="paint31_linear_315_10677" x1="34.5396" y1="52.6714" x2="35.9154" y2="57.9837" gradientUnits="userSpaceOnUse">
<stop stop-color="#FFDB44"/>
<stop offset="1" stop-color="#FEEF06"/>
</linearGradient>
<linearGradient id="paint32_linear_315_10677" x1="33.8038" y1="54.3396" x2="36.5526" y2="60.3518" gradientUnits="userSpaceOnUse">
<stop stop-color="#FCB148"/>
<stop offset="0.0521" stop-color="#FDBA46"/>
<stop offset="0.1424" stop-color="#FFC244"/>
<stop offset="0.3183" stop-color="#FFC444"/>
<stop offset="0.4849" stop-color="#FDB946"/>
<stop offset="0.7754" stop-color="#F99C4D"/>
<stop offset="0.8658" stop-color="#F8924F"/>
<stop offset="1" stop-color="#F8924F"/>
</linearGradient>
<linearGradient id="paint33_linear_315_10677" x1="43.226" y1="54.4342" x2="36.1002" y2="56.7904" gradientUnits="userSpaceOnUse">
<stop stop-color="#FCB148"/>
<stop offset="0.0521" stop-color="#FDBA46"/>
<stop offset="0.1424" stop-color="#FFC244"/>
<stop offset="0.3183" stop-color="#FFC444"/>
<stop offset="0.4849" stop-color="#FDB946"/>
<stop offset="0.7754" stop-color="#F99C4D"/>
<stop offset="0.8658" stop-color="#F8924F"/>
<stop offset="1" stop-color="#F8924F"/>
</linearGradient>
<linearGradient id="paint34_linear_315_10677" x1="49.0235" y1="47.5102" x2="42.9361" y2="61.347" gradientUnits="userSpaceOnUse">
<stop stop-color="#FFDB44"/>
<stop offset="1" stop-color="#FEEF06"/>
</linearGradient>
<linearGradient id="paint35_linear_315_10677" x1="47.8466" y1="61.9761" x2="46.6814" y2="55.418" gradientUnits="userSpaceOnUse">
<stop stop-color="#FCB148"/>
<stop offset="0.0521" stop-color="#FDBA46"/>
<stop offset="0.1424" stop-color="#FFC244"/>
<stop offset="0.3183" stop-color="#FFC444"/>
<stop offset="0.4849" stop-color="#FDB946"/>
<stop offset="0.7754" stop-color="#F99C4D"/>
<stop offset="0.8658" stop-color="#F8924F"/>
<stop offset="1" stop-color="#F8924F"/>
</linearGradient>
<linearGradient id="paint36_linear_315_10677" x1="45.2292" y1="51.3812" x2="50.0729" y2="61.975" gradientUnits="userSpaceOnUse">
<stop stop-color="#FCB148"/>
<stop offset="0.0521" stop-color="#FDBA46"/>
<stop offset="0.1424" stop-color="#FFC244"/>
<stop offset="0.3183" stop-color="#FFC444"/>
<stop offset="0.4849" stop-color="#FDB946"/>
<stop offset="0.7754" stop-color="#F99C4D"/>
<stop offset="0.8658" stop-color="#F8924F"/>
<stop offset="1" stop-color="#F8924F"/>
</linearGradient>
<linearGradient id="paint37_linear_315_10677" x1="45.0264" y1="49.1252" x2="47.4457" y2="58.4669" gradientUnits="userSpaceOnUse">
<stop stop-color="#FFDB44"/>
<stop offset="1" stop-color="#FEEF06"/>
</linearGradient>
<linearGradient id="paint38_linear_315_10677" x1="43.7324" y1="52.0592" x2="48.5663" y2="62.6316" gradientUnits="userSpaceOnUse">
<stop stop-color="#FCB148"/>
<stop offset="0.0521" stop-color="#FDBA46"/>
<stop offset="0.1424" stop-color="#FFC244"/>
<stop offset="0.3183" stop-color="#FFC444"/>
<stop offset="0.4849" stop-color="#FDB946"/>
<stop offset="0.7754" stop-color="#F99C4D"/>
<stop offset="0.8658" stop-color="#F8924F"/>
<stop offset="1" stop-color="#F8924F"/>
</linearGradient>
<linearGradient id="paint39_linear_315_10677" x1="48.2224" y1="42.0304" x2="37.8911" y2="45.4465" gradientUnits="userSpaceOnUse">
<stop stop-color="#FCB148"/>
<stop offset="0.0521" stop-color="#FDBA46"/>
<stop offset="0.1424" stop-color="#FFC244"/>
<stop offset="0.3183" stop-color="#FFC444"/>
<stop offset="0.4849" stop-color="#FDB946"/>
<stop offset="0.7754" stop-color="#F99C4D"/>
<stop offset="0.8658" stop-color="#F8924F"/>
<stop offset="1" stop-color="#F8924F"/>
</linearGradient>
<linearGradient id="paint40_linear_315_10677" x1="56.6279" y1="31.9918" x2="47.8022" y2="52.053" gradientUnits="userSpaceOnUse">
<stop stop-color="#FFDB44"/>
<stop offset="1" stop-color="#FEEF06"/>
</linearGradient>
<linearGradient id="paint41_linear_315_10677" x1="54.9215" y1="52.9648" x2="53.2322" y2="43.4567" gradientUnits="userSpaceOnUse">
<stop stop-color="#FCB148"/>
<stop offset="0.0521" stop-color="#FDBA46"/>
<stop offset="0.1424" stop-color="#FFC244"/>
<stop offset="0.3183" stop-color="#FFC444"/>
<stop offset="0.4849" stop-color="#FDB946"/>
<stop offset="0.7754" stop-color="#F99C4D"/>
<stop offset="0.8658" stop-color="#F8924F"/>
<stop offset="1" stop-color="#F8924F"/>
</linearGradient>
<linearGradient id="paint42_linear_315_10677" x1="51.1267" y1="37.6038" x2="58.1493" y2="52.9632" gradientUnits="userSpaceOnUse">
<stop stop-color="#FCB148"/>
<stop offset="0.0521" stop-color="#FDBA46"/>
<stop offset="0.1424" stop-color="#FFC244"/>
<stop offset="0.3183" stop-color="#FFC444"/>
<stop offset="0.4849" stop-color="#FDB946"/>
<stop offset="0.7754" stop-color="#F99C4D"/>
<stop offset="0.8658" stop-color="#F8924F"/>
<stop offset="1" stop-color="#F8924F"/>
</linearGradient>
<linearGradient id="paint43_linear_315_10677" x1="50.8328" y1="34.3332" x2="54.3404" y2="47.8773" gradientUnits="userSpaceOnUse">
<stop stop-color="#FFDB44"/>
<stop offset="1" stop-color="#FEEF06"/>
</linearGradient>
<linearGradient id="paint44_linear_315_10677" x1="48.9566" y1="38.5875" x2="55.9651" y2="53.916" gradientUnits="userSpaceOnUse">
<stop stop-color="#FCB148"/>
<stop offset="0.0521" stop-color="#FDBA46"/>
<stop offset="0.1424" stop-color="#FFC244"/>
<stop offset="0.3183" stop-color="#FFC444"/>
<stop offset="0.4849" stop-color="#FDB946"/>
<stop offset="0.7754" stop-color="#F99C4D"/>
<stop offset="0.8658" stop-color="#F8924F"/>
<stop offset="1" stop-color="#F8924F"/>
</linearGradient>
</defs>
</svg>
