<svg width="26" height="26" viewBox="0 0 26 26" fill="none" xmlns="http://www.w3.org/2000/svg">
<path d="M13 26C5.8201 26 0 20.1799 0 13C0 5.8201 5.8201 0 13 0C20.1799 0 26 5.8201 26 13C26 20.1799 20.1799 26 13 26ZM13 23.4C15.7583 23.4 18.4035 22.3043 20.3539 20.3539C22.3043 18.4035 23.4 15.7583 23.4 13C23.4 10.2417 22.3043 7.59647 20.3539 5.64609C18.4035 3.69571 15.7583 2.6 13 2.6C10.2417 2.6 7.59647 3.69571 5.64609 5.64609C3.69571 7.59647 2.6 10.2417 2.6 13C2.6 15.7583 3.69571 18.4035 5.64609 20.3539C7.59647 22.3043 10.2417 23.4 13 23.4ZM11.7 16.9H14.3V19.5H11.7V16.9ZM14.3 14.7615V15.6H11.7V13.65C11.7 13.3052 11.837 12.9746 12.0808 12.7308C12.3246 12.487 12.6552 12.35 13 12.35C13.3693 12.35 13.731 12.2451 14.043 12.0475C14.355 11.85 14.6045 11.5679 14.7625 11.2341C14.9205 10.9002 14.9804 10.5284 14.9353 10.1619C14.8902 9.79536 14.7419 9.44916 14.5078 9.16358C14.2736 8.87801 13.9632 8.6648 13.6126 8.54876C13.262 8.43272 12.8856 8.41863 12.5274 8.50812C12.1691 8.59761 11.8435 8.787 11.5887 9.05426C11.3338 9.32152 11.1601 9.65566 11.0877 10.0178L8.5371 9.5069C8.69522 8.71661 9.06036 7.98248 9.5952 7.37956C10.13 6.77664 10.8154 6.32656 11.5812 6.07532C12.347 5.82408 13.1657 5.78069 13.9538 5.9496C14.7418 6.11851 15.4709 6.49365 16.0665 7.03667C16.662 7.5797 17.1027 8.27113 17.3434 9.04028C17.5842 9.80944 17.6164 10.6287 17.4367 11.4144C17.2571 12.2001 16.872 12.9239 16.3209 13.512C15.7698 14.1001 15.0724 14.5313 14.3 14.7615Z" fill="#00FFFF"/>
</svg>
