<svg width="21" height="27" viewBox="0 0 21 27" fill="none" xmlns="http://www.w3.org/2000/svg">
<path fill-rule="evenodd" clip-rule="evenodd" d="M4.98926 16.0627H16.011V22.0608L10.5001 26.618L4.98926 22.0608V16.0627Z" fill="url(#paint0_linear_17_5219)"/>
<path fill-rule="evenodd" clip-rule="evenodd" d="M10.5001 25.2428L4.98926 20.6855V22.0607L10.5001 26.6179L16.011 22.0607V20.6855L10.5001 25.2428Z" fill="url(#paint1_radial_17_5219)"/>
<path fill-rule="evenodd" clip-rule="evenodd" d="M10.5 3.81787C12.4145 3.81879 14.2504 4.57999 15.6038 5.93411C16.9573 7.28824 17.7176 9.12443 17.7176 11.039C17.7176 12.9542 16.9568 14.7909 15.6026 16.1451C14.2484 17.4993 12.4117 18.2601 10.4965 18.2601C8.58136 18.2601 6.74464 17.4993 5.39041 16.1451C4.03619 14.7909 3.27539 12.9542 3.27539 11.039C3.27631 9.12352 4.03787 7.2868 5.39264 5.93268C6.74741 4.57856 8.58449 3.81787 10.5 3.81787Z" fill="url(#paint2_radial_17_5219)"/>
<path style="mix-blend-mode:multiply" opacity="0.5" fill-rule="evenodd" clip-rule="evenodd" d="M10.5002 4.71607C12.0651 4.69502 13.5904 5.2079 14.8246 6.17015C16.0588 7.13239 16.9282 8.48653 17.2895 10.0093C17.0432 8.38487 16.2228 6.90256 14.9772 5.83125C13.7315 4.75995 12.1432 4.17061 10.5002 4.17017C8.85686 4.17049 7.26803 4.75971 6.02183 5.83096C4.77563 6.90221 3.95456 8.38458 3.70752 10.0093C4.06947 8.48625 4.93956 7.13203 6.17435 6.16982C7.40914 5.20762 8.93494 4.69486 10.5002 4.71607Z" fill="url(#paint3_radial_17_5219)"/>
<path fill-rule="evenodd" clip-rule="evenodd" d="M10.5002 2.73633C12.6994 2.73633 14.8086 3.60997 16.3637 5.16506C17.9188 6.72015 18.7924 8.8293 18.7924 11.0285C18.7924 13.2278 17.9188 15.3369 16.3637 16.892C14.8086 18.4471 12.6994 19.3207 10.5002 19.3207C8.30098 19.3207 6.19183 18.4471 4.63674 16.892C3.08165 15.3369 2.20801 13.2278 2.20801 11.0285C2.20801 8.8293 3.08165 6.72015 4.63674 5.16506C6.19183 3.60997 8.30098 2.73633 10.5002 2.73633ZM10.5002 4.17019C11.4026 4.16928 12.2964 4.3463 13.1303 4.69112C13.9643 5.03594 14.7221 5.5418 15.3604 6.17975C15.9986 6.8177 16.5049 7.57524 16.8501 8.40902C17.1954 9.2428 17.3728 10.1365 17.3724 11.0389C17.3728 11.9407 17.1956 12.8338 16.8508 13.6672C16.506 14.5005 16.0003 15.2577 15.3628 15.8956C14.7253 16.5335 13.9683 17.0395 13.1351 17.3847C12.302 17.7299 11.409 17.9076 10.5071 17.9076C9.60453 17.9085 8.71061 17.7315 7.87646 17.3867C7.04231 17.042 6.28429 16.5362 5.64574 15.8983C5.00719 15.2603 4.50063 14.5028 4.15501 13.669C3.8094 12.8352 3.6315 11.9415 3.6315 11.0389C3.6315 9.2172 4.35517 7.47012 5.6433 6.18199C6.93143 4.89385 8.67851 4.17019 10.5002 4.17019Z" fill="#808080"/>
<path fill-rule="evenodd" clip-rule="evenodd" d="M10.5002 3.45499C12.5132 3.45956 14.4421 4.26242 15.8639 5.68742C17.2857 7.11242 18.0841 9.0432 18.0841 11.0562C18.0841 13.0691 17.2857 14.9999 15.8639 16.4249C14.4421 17.8499 12.5132 18.6528 10.5002 18.6574C8.48425 18.6574 6.55086 17.8565 5.12536 16.431C3.69986 15.0055 2.89902 13.0721 2.89902 11.0562C2.9036 9.04321 3.70646 7.11425 5.13146 5.69249C6.55646 4.27072 8.48724 3.47226 10.5002 3.47226V3.45499ZM10.5002 2.73633C8.30098 2.73633 6.19183 3.60997 4.63674 5.16506C3.08165 6.72015 2.20801 8.8293 2.20801 11.0285C2.20801 13.2278 3.08165 15.3369 4.63674 16.892C6.19183 18.4471 8.30098 19.3207 10.5002 19.3207C12.6994 19.3207 14.8086 18.4471 16.3637 16.892C17.9188 15.3369 18.7924 13.2278 18.7924 11.0285C18.7924 8.8293 17.9188 6.72015 16.3637 5.16506C14.8086 3.60997 12.6994 2.73633 10.5002 2.73633Z" fill="url(#paint4_linear_17_5219)"/>
<path fill-rule="evenodd" clip-rule="evenodd" d="M18.084 11.039C18.0795 9.02901 17.279 7.10266 15.8577 5.68139C14.4364 4.26012 12.5101 3.45964 10.5001 3.45508C8.48415 3.45508 6.55076 4.25592 5.12526 5.68141C3.69976 7.10691 2.89893 9.0403 2.89893 11.0563C2.89893 13.0722 3.69976 15.0056 5.12526 16.4311C6.55076 17.8566 8.48415 18.6574 10.5001 18.6574C12.5131 18.6529 14.442 17.85 15.8638 16.425C17.2856 15 18.084 13.0692 18.084 11.0563V11.039ZM10.5001 4.17028C11.4025 4.16937 12.2963 4.34639 13.1302 4.69121C13.9642 5.03603 14.722 5.54189 15.3603 6.17984C15.9985 6.8178 16.5048 7.57533 16.85 8.40911C17.1953 9.24289 17.3727 10.1366 17.3723 11.039C17.3727 11.9408 17.1955 12.8339 16.8507 13.6673C16.5059 14.5006 16.0003 15.2578 15.3627 15.8957C14.7252 16.5336 13.9682 17.0395 13.135 17.3848C12.3019 17.73 11.4089 17.9077 10.507 17.9077C9.60443 17.9086 8.71051 17.7316 7.87636 17.3868C7.04221 17.0421 6.28419 16.5363 5.64564 15.8983C5.00709 15.2604 4.50053 14.5029 4.15492 13.6691C3.8093 12.8353 3.6314 11.9416 3.6314 11.039C3.6314 9.21729 4.35507 7.47021 5.6432 6.18208C6.93133 4.89395 8.67842 4.17028 10.5001 4.17028Z" fill="url(#paint5_linear_17_5219)"/>
<path style="mix-blend-mode:screen" fill-rule="evenodd" clip-rule="evenodd" d="M5.23467 5.77695C6.26433 4.73577 7.57177 4.01277 9.00103 3.6942C10.4303 3.37564 11.921 3.47495 13.2954 3.9803C11.9158 3.40313 10.3961 3.24771 8.92824 3.53366C7.46038 3.81961 6.11016 4.5341 5.0481 5.58692C3.99576 6.64857 3.28179 7.99839 2.99644 9.46573C2.71109 10.9331 2.86717 12.4521 3.44494 13.8307C2.93816 12.4577 2.83743 10.9677 3.15481 9.5389C3.47218 8.1101 4.19423 6.8029 5.23467 5.77349V5.77695Z" fill="url(#paint6_radial_17_5219)"/>
<path style="mix-blend-mode:screen" fill-rule="evenodd" clip-rule="evenodd" d="M15.7619 16.3012C14.7323 17.3435 13.4241 18.067 11.9938 18.385C10.5636 18.7031 9.07208 18.6021 7.69775 18.0943C9.0771 18.6715 10.5965 18.8272 12.0642 18.5419C13.532 18.2566 14.8823 17.543 15.945 16.4912C16.9981 15.4292 17.7125 14.0788 17.9978 12.6108C18.2832 11.1427 18.1267 9.623 17.5482 8.2439C18.0576 9.61662 18.1597 11.1072 17.8422 12.5366C17.5247 13.9659 16.8011 15.2732 15.7585 16.3012H15.7619Z" fill="url(#paint7_radial_17_5219)"/>
<path fill-rule="evenodd" clip-rule="evenodd" d="M10.5001 3.45508L8.58252 2.96101L10.5001 0L12.4177 2.96101L10.5001 3.45508Z" fill="#999999"/>
<path fill-rule="evenodd" clip-rule="evenodd" d="M10.5001 3.45508L8.58252 2.96101L10.5001 0V3.45508Z" fill="url(#paint8_radial_17_5219)"/>
<path fill-rule="evenodd" clip-rule="evenodd" d="M10.5 3.45508L12.4176 2.96101L10.5 0V3.45508Z" fill="url(#paint9_radial_17_5219)"/>
<path fill-rule="evenodd" clip-rule="evenodd" d="M17.7142 8.69652L17.5898 6.72021L21 7.6289L18.7749 10.3653L17.7142 8.69652Z" fill="#999999"/>
<path fill-rule="evenodd" clip-rule="evenodd" d="M17.7142 8.69652L17.5898 6.72021L21 7.6289L17.7142 8.69652Z" fill="url(#paint10_radial_17_5219)"/>
<path fill-rule="evenodd" clip-rule="evenodd" d="M17.7144 8.69653L18.7751 10.3653L21.0001 7.62891L17.7144 8.69653Z" fill="url(#paint11_radial_17_5219)"/>
<path fill-rule="evenodd" clip-rule="evenodd" d="M14.9569 17.1753L16.7984 16.4497L16.9885 19.9704L13.6992 18.7024L14.9569 17.1753Z" fill="#999999"/>
<path fill-rule="evenodd" clip-rule="evenodd" d="M14.957 17.1753L16.7986 16.4497L16.9886 19.9704L14.957 17.1753Z" fill="url(#paint12_radial_17_5219)"/>
<path fill-rule="evenodd" clip-rule="evenodd" d="M14.9569 17.1753L13.6992 18.7024L16.9885 19.9705L14.9569 17.1753Z" fill="url(#paint13_radial_17_5219)"/>
<path fill-rule="evenodd" clip-rule="evenodd" d="M6.03936 17.1753L7.30047 18.7024L4.01123 19.9704L4.1978 16.4497L6.03936 17.1753Z" fill="#999999"/>
<path fill-rule="evenodd" clip-rule="evenodd" d="M6.03936 17.1753L7.30047 18.7024L4.01123 19.9705L6.03936 17.1753Z" fill="url(#paint14_radial_17_5219)"/>
<path fill-rule="evenodd" clip-rule="evenodd" d="M6.03936 17.1753L4.19781 16.4497L4.01123 19.9704L6.03936 17.1753Z" fill="url(#paint15_radial_17_5219)"/>
<path fill-rule="evenodd" clip-rule="evenodd" d="M3.28578 8.69652L2.22162 10.3653L0 7.6289L3.40671 6.72021L3.28578 8.69652Z" fill="#999999"/>
<path fill-rule="evenodd" clip-rule="evenodd" d="M3.28578 8.69653L2.22162 10.3653L0 7.62891L3.28578 8.69653Z" fill="url(#paint16_radial_17_5219)"/>
<path fill-rule="evenodd" clip-rule="evenodd" d="M3.28578 8.69652L3.40671 6.72021L0 7.6289L3.28578 8.69652Z" fill="url(#paint17_radial_17_5219)"/>
<path style="mix-blend-mode:screen" fill-rule="evenodd" clip-rule="evenodd" d="M10.2998 3.40321C10.4282 2.58707 10.4952 1.76244 10.5002 0.936279V3.45504L10.2998 3.40321Z" fill="url(#paint18_radial_17_5219)"/>
<path style="mix-blend-mode:screen" fill-rule="evenodd" clip-rule="evenodd" d="M3.28243 8.70327L0.490723 7.78076C1.41416 8.0323 2.35556 8.2125 3.30661 8.31975L3.28243 8.69636V8.70327Z" fill="url(#paint19_radial_17_5219)"/>
<path fill-rule="evenodd" clip-rule="evenodd" d="M10.5001 18.6265L7.80518 18.896L10.5001 21.1245L13.1951 18.896L10.5001 18.6265Z" fill="#B3B3B3"/>
<path fill-rule="evenodd" clip-rule="evenodd" d="M10.5 18.6265L13.195 18.896L10.5 21.1245V18.6265Z" fill="url(#paint20_radial_17_5219)"/>
<path fill-rule="evenodd" clip-rule="evenodd" d="M10.5001 18.6265L7.80518 18.896L10.5001 21.1245V18.6265Z" fill="url(#paint21_radial_17_5219)"/>
<path fill-rule="evenodd" clip-rule="evenodd" d="M17.7142 13.385L17.1372 16.0316L20.0913 14.1555L18.8026 10.9043L17.7142 13.385Z" fill="#B3B3B3"/>
<path fill-rule="evenodd" clip-rule="evenodd" d="M17.7144 13.385L18.8027 10.9043L20.0915 14.1555L17.7144 13.385Z" fill="url(#paint22_radial_17_5219)"/>
<path fill-rule="evenodd" clip-rule="evenodd" d="M17.7142 13.385L17.1372 16.0316L20.0913 14.1555L17.7142 13.385Z" fill="url(#paint23_radial_17_5219)"/>
<path fill-rule="evenodd" clip-rule="evenodd" d="M14.9573 4.90282L17.2964 6.27103L16.4291 2.88159L12.936 3.09926L14.9573 4.90282Z" fill="#B3B3B3"/>
<path fill-rule="evenodd" clip-rule="evenodd" d="M14.9573 4.90282L12.936 3.09926L16.4291 2.88159L14.9573 4.90282Z" fill="url(#paint24_radial_17_5219)"/>
<path fill-rule="evenodd" clip-rule="evenodd" d="M14.957 4.90282L17.2961 6.27103L16.4289 2.88159L14.957 4.90282Z" fill="url(#paint25_radial_17_5219)"/>
<path fill-rule="evenodd" clip-rule="evenodd" d="M6.03929 4.90282L8.06397 3.09926L4.57088 2.88159L3.7002 6.27103L6.03929 4.90282Z" fill="#B3B3B3"/>
<path fill-rule="evenodd" clip-rule="evenodd" d="M6.03929 4.90282L3.7002 6.27103L4.57088 2.88159L6.03929 4.90282Z" fill="url(#paint26_radial_17_5219)"/>
<path fill-rule="evenodd" clip-rule="evenodd" d="M6.0397 4.90282L8.06438 3.09926L4.57129 2.88159L6.0397 4.90282Z" fill="url(#paint27_radial_17_5219)"/>
<path fill-rule="evenodd" clip-rule="evenodd" d="M3.28579 13.385L2.19744 10.9043L0.908691 14.1555L3.86279 16.0316L3.28579 13.385Z" fill="#B3B3B3"/>
<path fill-rule="evenodd" clip-rule="evenodd" d="M3.28579 13.385L3.86279 16.0316L0.908691 14.1555L3.28579 13.385Z" fill="url(#paint28_radial_17_5219)"/>
<path fill-rule="evenodd" clip-rule="evenodd" d="M3.28579 13.385L2.19744 10.9043L0.908691 14.1555L3.28579 13.385Z" fill="url(#paint29_radial_17_5219)"/>
<path style="mix-blend-mode:screen" fill-rule="evenodd" clip-rule="evenodd" d="M6.0395 4.90271L4.72656 3.0957C5.25519 3.69343 5.88056 4.40864 6.36082 4.6194L6.0395 4.90271Z" fill="url(#paint30_radial_17_5219)"/>
<path style="mix-blend-mode:screen" fill-rule="evenodd" clip-rule="evenodd" d="M17.7178 13.3849L19.0169 13.8064C18.5786 13.6467 18.1818 13.3905 17.856 13.0566L17.7144 13.4021L17.7178 13.3849Z" fill="url(#paint31_radial_17_5219)"/>
<path fill-rule="evenodd" clip-rule="evenodd" d="M19.0685 13.8273C20.8444 13.4092 20.5853 11.6575 19.6179 10.5657C18.9752 11.2567 17.9595 12.9497 19.0685 13.8273Z" fill="url(#paint32_radial_17_5219)"/>
<path style="mix-blend-mode:multiply" fill-rule="evenodd" clip-rule="evenodd" d="M19.0688 13.8273C19.5179 12.8019 19.7066 11.6815 19.6182 10.5657C20.5856 11.6575 20.8448 13.4092 19.0688 13.8273Z" fill="url(#paint33_radial_17_5219)"/>
<path fill-rule="evenodd" clip-rule="evenodd" d="M12.8807 19.1827C14.7148 18.6934 16.3758 17.7013 17.6763 16.3185C18.9684 14.9287 19.6707 13.0918 19.6354 11.1946C19.1931 14.9952 16.4359 17.697 12.777 18.7025C10.9959 19.1808 9.14481 19.3434 7.30762 19.1827C8.60673 19.7805 11.236 19.663 12.8807 19.2035V19.1827Z" fill="url(#paint34_radial_17_5219)"/>
<path fill-rule="evenodd" clip-rule="evenodd" d="M1.928 13.8273C0.152092 13.4092 0.414677 11.6575 1.3821 10.5657C2.02475 11.2567 3.03709 12.9497 1.928 13.8273Z" fill="url(#paint35_radial_17_5219)"/>
<path style="mix-blend-mode:multiply" fill-rule="evenodd" clip-rule="evenodd" d="M1.928 13.8273C1.48013 12.8016 1.2926 11.6812 1.3821 10.5657C0.414677 11.6575 0.152092 13.4092 1.928 13.8273Z" fill="url(#paint36_radial_17_5219)"/>
<path fill-rule="evenodd" clip-rule="evenodd" d="M8.11935 19.1827C6.28483 18.6942 4.62363 17.702 3.32369 16.3185C2.03038 14.9295 1.32786 13.0921 1.36466 11.1946C1.80691 14.9952 4.56061 17.697 8.223 18.7025C10.0029 19.1809 11.8529 19.3434 13.6889 19.1827C12.3933 19.7805 9.76397 19.663 8.11935 19.2035V19.1827Z" fill="url(#paint37_radial_17_5219)"/>
<path fill-rule="evenodd" clip-rule="evenodd" d="M2.86081 16.0454C2.35637 16.5568 1.5617 16.46 1.01925 16.0454C0.464857 15.6266 0.0984889 15.0057 0 14.3179C0.929418 14.3179 2.8919 14.5217 2.86081 16.0454Z" fill="url(#paint38_radial_17_5219)"/>
<path fill-rule="evenodd" clip-rule="evenodd" d="M4.24285 16.4946C4.50001 16.2903 4.67602 16.0011 4.73933 15.6788C4.80264 15.3566 4.74912 15.0223 4.58836 14.7359C4.28138 14.1572 3.77411 13.7101 3.16141 13.4783C2.98175 14.3524 2.8159 16.2423 4.24631 16.4946H4.24285Z" fill="url(#paint39_radial_17_5219)"/>
<path fill-rule="evenodd" clip-rule="evenodd" d="M5.23109 17.9112C5.07377 18.2154 4.81462 18.4547 4.49889 18.5873C4.18316 18.7199 3.83089 18.7374 3.50355 18.6368C2.84461 18.4482 2.27555 18.0288 1.90039 17.4552C2.76416 17.082 4.66446 16.505 5.23109 17.9181V17.9112Z" fill="url(#paint40_radial_17_5219)"/>
<path fill-rule="evenodd" clip-rule="evenodd" d="M6.59913 18.122C6.81374 17.9153 6.94577 17.6375 6.97056 17.3406C6.99536 17.0437 6.91123 16.7479 6.73387 16.5085C6.40846 16.0215 5.91739 15.6691 5.35184 15.5168C5.27237 16.3184 5.30001 18.0287 6.60949 18.122H6.59913Z" fill="url(#paint41_radial_17_5219)"/>
<path fill-rule="evenodd" clip-rule="evenodd" d="M7.20043 18.8856C7.16238 19.1158 7.04465 19.3253 6.86782 19.4775C6.69099 19.6297 6.46629 19.7149 6.23301 19.7183C5.76777 19.7326 5.31288 19.5793 4.95117 19.2864C5.42797 18.8649 6.53705 18.0909 7.20043 18.8856Z" fill="url(#paint42_radial_17_5219)"/>
<path style="mix-blend-mode:multiply" fill-rule="evenodd" clip-rule="evenodd" d="M2.86081 16.0454C1.52369 15.6101 0.787759 15.1989 0 14.3179C0.0984889 15.0057 0.464857 15.6266 1.01925 16.0454C1.5617 16.4427 2.35637 16.5395 2.86081 16.0454Z" fill="url(#paint43_radial_17_5219)"/>
<path style="mix-blend-mode:multiply" fill-rule="evenodd" clip-rule="evenodd" d="M5.23109 17.9111C4.1026 18.1751 2.91639 18.0126 1.90039 17.4551C2.27263 18.03 2.83918 18.4518 3.49664 18.6436C3.82397 18.7442 4.17625 18.7267 4.49198 18.5941C4.80772 18.4615 5.06685 18.2222 5.22418 17.9181L5.23109 17.9111Z" fill="url(#paint44_radial_17_5219)"/>
<path style="mix-blend-mode:multiply" fill-rule="evenodd" clip-rule="evenodd" d="M7.20043 18.8855C6.87299 19.1029 6.50436 19.2506 6.11744 19.3196C5.73051 19.3885 5.33354 19.3772 4.95117 19.2863C5.31288 19.5792 5.76777 19.7325 6.23301 19.7182C6.46629 19.7148 6.69099 19.6296 6.86782 19.4774C7.04465 19.3252 7.16238 19.1157 7.20043 18.8855Z" fill="url(#paint45_radial_17_5219)"/>
<path style="mix-blend-mode:multiply" fill-rule="evenodd" clip-rule="evenodd" d="M5.34159 15.5168C5.26212 16.3184 5.28977 18.0287 6.59924 18.122C6.53014 16.854 6.12589 16.2977 5.34159 15.5168Z" fill="url(#paint46_radial_17_5219)"/>
<path style="mix-blend-mode:multiply" fill-rule="evenodd" clip-rule="evenodd" d="M4.24285 16.4946C4.2916 15.3863 3.90326 14.3031 3.16141 13.4783C2.98175 14.3524 2.8159 16.2423 4.24631 16.4946H4.24285Z" fill="url(#paint47_radial_17_5219)"/>
<path fill-rule="evenodd" clip-rule="evenodd" d="M3.47931 16.384C1.93834 15.7621 1.44081 15.7483 0.314453 14.6565C1.56519 15.5859 2.04199 15.6377 3.55187 16.194C3.5648 16.1988 3.57666 16.206 3.58679 16.2154C3.59691 16.2247 3.60509 16.236 3.61087 16.2485C3.61664 16.261 3.6199 16.2745 3.62044 16.2883C3.62099 16.3021 3.61882 16.3158 3.61405 16.3288C3.60929 16.3417 3.60203 16.3536 3.59268 16.3637C3.58333 16.3738 3.57207 16.382 3.55956 16.3878C3.54705 16.3935 3.53352 16.3968 3.51975 16.3973C3.50598 16.3979 3.49224 16.3957 3.47931 16.3909V16.384Z" fill="url(#paint48_radial_17_5219)"/>
<path fill-rule="evenodd" clip-rule="evenodd" d="M4.21542 16.9126C4.05303 15.6653 4.12213 15.0848 3.43457 13.803C4.24652 14.881 4.22924 15.42 4.42618 16.8573C4.43031 16.8851 4.42367 16.9135 4.40763 16.9366C4.39158 16.9597 4.36732 16.9758 4.3398 16.9817C4.32617 16.9847 4.31207 16.9849 4.29835 16.9823C4.28462 16.9797 4.27157 16.9744 4.25995 16.9667C4.24833 16.9589 4.2384 16.9489 4.23075 16.9373C4.2231 16.9256 4.21788 16.9125 4.21542 16.8987V16.9126Z" fill="url(#paint49_radial_17_5219)"/>
<path fill-rule="evenodd" clip-rule="evenodd" d="M5.6251 17.9456C4.15323 18.1529 3.66261 18.1806 2.29785 17.645C3.64533 17.9214 4.13596 17.9905 5.57673 17.7383C5.59035 17.7347 5.60456 17.734 5.61849 17.7361C5.63242 17.7382 5.64578 17.7431 5.65774 17.7505C5.66971 17.758 5.68003 17.7678 5.68808 17.7793C5.69613 17.7909 5.70174 17.804 5.70456 17.8178C5.70991 17.8452 5.70469 17.8736 5.68995 17.8973C5.6752 17.921 5.65204 17.9383 5.6251 17.9456Z" fill="url(#paint50_radial_17_5219)"/>
<path fill-rule="evenodd" clip-rule="evenodd" d="M6.5441 18.3915C6.49661 17.4803 6.19237 16.6011 5.6665 15.8555C6.46117 16.7227 6.58556 17.2064 6.7514 18.3535C6.75608 18.3685 6.75738 18.3844 6.75523 18.4C6.75307 18.4156 6.74751 18.4305 6.73893 18.4437C6.73036 18.4569 6.71898 18.468 6.70561 18.4763C6.69224 18.4846 6.6772 18.4899 6.66157 18.4917C6.64769 18.4947 6.63334 18.4948 6.61942 18.492C6.6055 18.4892 6.5923 18.4836 6.58063 18.4755C6.56897 18.4674 6.55909 18.457 6.55162 18.4449C6.54415 18.4329 6.53923 18.4194 6.53719 18.4053L6.5441 18.3915Z" fill="url(#paint51_radial_17_5219)"/>
<path fill-rule="evenodd" clip-rule="evenodd" d="M7.43203 18.8371C6.80075 19.2813 6.02083 19.4611 5.25879 19.3381C6.00327 19.3738 6.73675 19.1477 7.33184 18.6989C7.34066 18.6932 7.35054 18.6892 7.3609 18.6873C7.37126 18.6854 7.38189 18.6856 7.39218 18.6879C7.40247 18.6901 7.4122 18.6944 7.42083 18.7004C7.42945 18.7065 7.43678 18.7142 7.4424 18.7231C7.45418 18.7415 7.45825 18.7637 7.45372 18.7851C7.44919 18.8064 7.43644 18.8251 7.41822 18.8371H7.43203Z" fill="url(#paint52_radial_17_5219)"/>
<path fill-rule="evenodd" clip-rule="evenodd" d="M18.1323 16.0454C18.6333 16.5568 19.4314 16.46 19.9704 16.0454C20.5313 15.6298 20.9041 15.0084 21.0069 14.3179C20.0775 14.3179 18.115 14.5217 18.1496 16.0454H18.1323Z" fill="url(#paint53_radial_17_5219)"/>
<path fill-rule="evenodd" clip-rule="evenodd" d="M16.7504 16.4946C16.4933 16.2903 16.3173 16.0011 16.254 15.6788C16.1906 15.3566 16.2442 15.0223 16.4049 14.7359C16.7131 14.1555 17.2232 13.7081 17.8388 13.4783C18.0184 14.3524 18.1843 16.2423 16.7504 16.4946Z" fill="url(#paint54_radial_17_5219)"/>
<path fill-rule="evenodd" clip-rule="evenodd" d="M15.769 17.9112C15.9253 18.2163 16.1844 18.4565 16.5004 18.5892C16.8165 18.722 17.1693 18.7388 17.4966 18.6368C18.1555 18.4482 18.7246 18.0288 19.0997 17.4552C18.2394 17.082 16.3357 16.505 15.7725 17.9181L15.769 17.9112Z" fill="url(#paint55_radial_17_5219)"/>
<path fill-rule="evenodd" clip-rule="evenodd" d="M14.401 18.122C14.1865 17.9153 14.0543 17.6379 14.0289 17.3412C14.0035 17.0444 14.0866 16.7486 14.2628 16.5085C14.5882 16.0215 15.0793 15.6691 15.6448 15.5168C15.7209 16.3184 15.6932 18.0287 14.3872 18.122H14.401Z" fill="url(#paint56_radial_17_5219)"/>
<path fill-rule="evenodd" clip-rule="evenodd" d="M13.7998 18.8856C13.8372 19.1161 13.9548 19.3259 14.1317 19.4783C14.3087 19.6306 14.5337 19.7156 14.7672 19.7183C15.2323 19.7317 15.6869 19.5785 16.0491 19.2864C15.5688 18.8649 14.4632 18.0909 13.7998 18.8856Z" fill="url(#paint57_radial_17_5219)"/>
<path style="mix-blend-mode:multiply" fill-rule="evenodd" clip-rule="evenodd" d="M18.1325 16.0454C19.4662 15.6101 20.2056 15.1989 20.9899 14.3179C20.8871 15.0084 20.5142 15.6298 19.9533 16.0454C19.4143 16.4427 18.6162 16.5395 18.1152 16.0454H18.1325Z" fill="url(#paint58_radial_17_5219)"/>
<path style="mix-blend-mode:multiply" fill-rule="evenodd" clip-rule="evenodd" d="M15.769 17.9111C16.8975 18.1757 18.084 18.0133 19.0997 17.4551C18.7275 18.03 18.161 18.4518 17.5035 18.6436C17.1762 18.7457 16.8234 18.7288 16.5073 18.5961C16.1913 18.4633 15.9322 18.2232 15.776 17.9181L15.769 17.9111Z" fill="url(#paint59_radial_17_5219)"/>
<path style="mix-blend-mode:multiply" fill-rule="evenodd" clip-rule="evenodd" d="M13.7998 18.8855C14.1272 19.1029 14.4959 19.2506 14.8828 19.3196C15.2697 19.3885 15.6667 19.3772 16.0491 19.2863C15.6869 19.5784 15.2323 19.7316 14.7672 19.7182C14.5337 19.7155 14.3087 19.6305 14.1317 19.4782C13.9548 19.3259 13.8372 19.116 13.7998 18.8855Z" fill="url(#paint60_radial_17_5219)"/>
<path style="mix-blend-mode:multiply" fill-rule="evenodd" clip-rule="evenodd" d="M15.6449 15.5168C15.7209 16.3184 15.6932 18.0287 14.3872 18.122C14.4563 16.854 14.8571 16.2977 15.6449 15.5168Z" fill="url(#paint61_radial_17_5219)"/>
<path style="mix-blend-mode:multiply" fill-rule="evenodd" clip-rule="evenodd" d="M16.7503 16.4946C16.7038 15.3854 17.0946 14.3022 17.8387 13.4783C18.0183 14.3524 18.1842 16.2423 16.7503 16.4946Z" fill="url(#paint62_radial_17_5219)"/>
<path fill-rule="evenodd" clip-rule="evenodd" d="M17.5205 16.384C19.0581 15.7621 19.559 15.7483 20.6819 14.6565C19.4312 15.5859 18.9544 15.6377 17.4445 16.194C17.4315 16.1986 17.4195 16.2058 17.4093 16.2151C17.3991 16.2244 17.3908 16.2357 17.385 16.2483C17.3792 16.2608 17.376 16.2744 17.3755 16.2882C17.3751 16.3021 17.3774 16.3158 17.3823 16.3288C17.3873 16.3419 17.3949 16.354 17.4045 16.3642C17.4141 16.3745 17.4257 16.3827 17.4385 16.3885C17.4514 16.3943 17.4652 16.3975 17.4793 16.3979C17.4934 16.3983 17.5074 16.3959 17.5205 16.3909V16.384Z" fill="url(#paint63_radial_17_5219)"/>
<path fill-rule="evenodd" clip-rule="evenodd" d="M16.7815 16.9126C16.9474 15.6653 16.8783 15.0848 17.5624 13.803C16.7539 14.881 16.7677 15.42 16.5742 16.8573C16.5712 16.8709 16.571 16.885 16.5736 16.8987C16.5761 16.9124 16.5814 16.9255 16.5892 16.9371C16.5969 16.9487 16.6069 16.9587 16.6186 16.9663C16.6303 16.974 16.6434 16.9792 16.6571 16.9817C16.6708 16.9847 16.6849 16.9849 16.6986 16.9823C16.7123 16.9797 16.7254 16.9744 16.737 16.9667C16.7486 16.9589 16.7585 16.9489 16.7662 16.9373C16.7738 16.9256 16.7791 16.9125 16.7815 16.8987V16.9126Z" fill="url(#paint64_radial_17_5219)"/>
<path fill-rule="evenodd" clip-rule="evenodd" d="M15.3787 17.9456C16.8506 18.1529 17.3378 18.1806 18.706 17.645C17.3585 17.9214 16.8644 17.9905 15.4237 17.7383C15.3962 17.7321 15.3674 17.7369 15.3434 17.7518C15.3195 17.7667 15.3024 17.7904 15.2958 17.8178C15.2906 17.8457 15.2963 17.8745 15.3118 17.8983C15.3272 17.9221 15.3512 17.939 15.3787 17.9456Z" fill="url(#paint65_radial_17_5219)"/>
<path fill-rule="evenodd" clip-rule="evenodd" d="M14.4561 18.3915C14.5026 17.4807 14.8056 16.6015 15.3302 15.8555C14.5356 16.7227 14.4112 17.2064 14.2453 18.3535C14.2412 18.3813 14.2478 18.4097 14.2639 18.4328C14.2799 18.4559 14.3042 18.472 14.3317 18.4779C14.3597 18.4829 14.3885 18.4766 14.4118 18.4604C14.4351 18.4442 14.4511 18.4194 14.4561 18.3915Z" fill="url(#paint66_radial_17_5219)"/>
<path fill-rule="evenodd" clip-rule="evenodd" d="M13.5717 18.8371C14.2019 19.2808 14.9806 19.4605 15.7415 19.3381C14.9969 19.375 14.263 19.1487 13.6684 18.6989C13.6501 18.6871 13.6278 18.6831 13.6065 18.6876C13.5851 18.6921 13.5664 18.7049 13.5544 18.7231C13.5419 18.7406 13.5368 18.7623 13.54 18.7836C13.5432 18.8049 13.5546 18.8241 13.5717 18.8371Z" fill="url(#paint67_radial_17_5219)"/>
<path fill-rule="evenodd" clip-rule="evenodd" d="M13.9828 13.7373V14.5078C13.9828 14.5078 13.9828 14.5354 13.9378 14.5458C13.6373 14.6564 12.2276 14.7462 10.5 14.7462C8.7725 14.7462 7.36282 14.6564 7.04495 14.5458C7.0104 14.5458 6.99658 14.5216 6.99658 14.5078V13.7373C7.34209 14.031 13.6234 14.031 13.9655 13.7373H13.9828Z" fill="url(#paint68_linear_17_5219)"/>
<path style="mix-blend-mode:multiply" fill-rule="evenodd" clip-rule="evenodd" d="M7.71885 14.6496V13.893C7.48253 13.8941 7.24811 13.8507 7.02783 13.7651V14.508C7.02783 14.508 7.02783 14.5356 7.0762 14.546C7.29099 14.6025 7.51093 14.6372 7.73267 14.6496H7.71885Z" fill="url(#paint69_linear_17_5219)"/>
<path style="mix-blend-mode:multiply" fill-rule="evenodd" clip-rule="evenodd" d="M12.687 13.9344V14.6911C13.1078 14.6862 13.527 14.6376 13.9378 14.546C13.9688 14.546 13.9827 14.5218 13.9827 14.508V13.7651C13.9274 13.8342 13.4333 13.893 12.687 13.9344Z" fill="url(#paint70_linear_17_5219)"/>
<path style="mix-blend-mode:screen" opacity="0.65" fill-rule="evenodd" clip-rule="evenodd" d="M13.7168 13.8377C12.6364 13.9604 11.5493 14.0146 10.4621 14.0001C9.37972 14.0187 8.29729 13.9691 7.22119 13.8515C8.29639 13.9802 9.37959 14.0299 10.4621 14.0001C11.5461 14.0241 12.6304 13.9687 13.7064 13.8342L13.7168 13.8377Z" fill="url(#paint71_radial_17_5219)"/>
<g style="mix-blend-mode:screen">
<path d="M10.2684 14.1071C12.0163 14.1071 13.4332 13.9415 13.4332 13.7374C13.4332 13.5332 12.0163 13.3677 10.2684 13.3677C8.52047 13.3677 7.10352 13.5332 7.10352 13.7374C7.10352 13.9415 8.52047 14.1071 10.2684 14.1071Z" fill="#D2E1F7"/>
</g>
<path fill-rule="evenodd" clip-rule="evenodd" d="M12.8805 7.60815C12.7265 7.60815 12.5789 7.66931 12.47 7.77817C12.3612 7.88702 12.3 8.03466 12.3 8.18861C12.3002 8.29762 12.3311 8.40437 12.3891 8.49663C12.4472 8.5889 12.5301 8.66296 12.6282 8.71033C12.4556 9.28712 12.178 9.8271 11.8094 10.3031C11.6586 10.5109 11.4621 10.6813 11.2351 10.8011C11.0081 10.9209 10.7565 10.987 10.4999 10.9941C10.2432 10.9875 9.99145 10.9217 9.76433 10.8018C9.5372 10.6819 9.34081 10.5113 9.19042 10.3031C8.81948 9.82806 8.54059 9.28785 8.36811 8.71033C8.4659 8.6628 8.54828 8.58861 8.60574 8.4963C8.6632 8.404 8.69341 8.29734 8.69289 8.18861C8.69289 8.03526 8.63221 7.88814 8.5241 7.77938C8.41599 7.67062 8.26924 7.60907 8.11589 7.60815C7.96195 7.60815 7.81431 7.66931 7.70545 7.77817C7.59659 7.88702 7.53544 8.03466 7.53544 8.18861C7.53536 8.32251 7.58185 8.45226 7.66695 8.55564C7.75205 8.65902 7.87046 8.72958 8.00187 8.75524C8.00187 9.44626 7.65637 10.5657 7.1001 10.9078L7.44561 12.2138H13.53L13.8755 10.9078C13.3158 10.5623 12.9841 9.43589 12.9737 8.75524C13.1052 8.72958 13.2236 8.65902 13.3087 8.55564C13.3938 8.45226 13.4402 8.32251 13.4402 8.18861C13.4403 8.03819 13.382 7.8936 13.2776 7.78532C13.1731 7.67704 13.0308 7.61353 12.8805 7.60815Z" fill="url(#paint72_radial_17_5219)"/>
<path style="mix-blend-mode:multiply" fill-rule="evenodd" clip-rule="evenodd" d="M10.4999 10.9802C10.2432 10.9735 9.99145 10.9077 9.76433 10.7879C9.5372 10.668 9.34081 10.4974 9.19042 10.2892C8.97425 10.0099 8.78782 9.70885 8.63416 9.39087C8.6279 9.51413 8.59641 9.63479 8.54163 9.74538C8.48686 9.85598 8.40996 9.95415 8.31571 10.0338C8.22146 10.1135 8.11186 10.173 7.99369 10.2086C7.87552 10.2442 7.7513 10.2552 7.62873 10.2408C7.51703 10.5036 7.33389 10.7299 7.1001 10.8938L7.44561 12.1999H10.4895L10.4999 10.9802Z" fill="url(#paint73_radial_17_5219)"/>
<path style="mix-blend-mode:multiply" fill-rule="evenodd" clip-rule="evenodd" d="M10.5 10.9802C10.7566 10.973 11.0082 10.907 11.2352 10.7872C11.4622 10.6674 11.6587 10.497 11.8095 10.2892C12.0244 10.0091 12.2108 9.70814 12.3657 9.39087C12.3715 9.51397 12.4026 9.63457 12.457 9.74515C12.5114 9.85573 12.588 9.95394 12.682 10.0337C12.7759 10.1134 12.8853 10.1729 13.0033 10.2086C13.1213 10.2442 13.2453 10.2552 13.3677 10.2408C13.4805 10.503 13.6634 10.7289 13.8963 10.8938L13.5508 12.1999H10.5104L10.5 10.9802Z" fill="url(#paint74_radial_17_5219)"/>
<path fill-rule="evenodd" clip-rule="evenodd" d="M10.4998 14.0242C8.59949 14.0242 7.04471 13.8963 7.01361 13.7409C6.66216 11.9804 6.20878 10.2419 5.65576 8.53404C5.87596 8.47902 6.10871 8.50709 6.3095 8.61291C6.51029 8.71872 6.66503 8.89484 6.74412 9.10759C6.8001 9.25492 6.8106 9.41567 6.77426 9.56904C6.73792 9.72241 6.65641 9.86135 6.54026 9.9679C7.60097 11.7818 9.94698 10.8662 10.0541 7.61499H10.942C11.0491 10.8662 13.3952 11.7818 14.4559 9.9679C14.3399 9.86122 14.2588 9.72209 14.223 9.56864C14.1873 9.41519 14.1986 9.25452 14.2555 9.10759C14.3346 8.89484 14.4893 8.71872 14.6901 8.61291C14.8909 8.50709 15.1236 8.47902 15.3438 8.53404C14.7876 10.241 14.3342 11.9797 13.986 13.7409C13.9445 13.8963 12.4001 14.0242 10.4998 14.0242Z" fill="url(#paint75_linear_17_5219)"/>
<mask id="mask0_17_5219" style="mask-type:luminance" maskUnits="userSpaceOnUse" x="5" y="7" width="11" height="8">
<path d="M10.4998 14.0242C8.59949 14.0242 7.04471 13.8963 7.01361 13.7409C6.66216 11.9804 6.20878 10.2419 5.65576 8.53404C5.87596 8.47902 6.10871 8.50709 6.3095 8.61291C6.51029 8.71872 6.66503 8.89484 6.74412 9.10759C6.8001 9.25492 6.8106 9.41567 6.77426 9.56904C6.73792 9.72241 6.65641 9.86135 6.54026 9.9679C7.60097 11.7818 9.94698 10.8662 10.0541 7.61499H10.942C11.0491 10.8662 13.3952 11.7818 14.4559 9.9679C14.3399 9.86122 14.2588 9.72209 14.223 9.56864C14.1873 9.41519 14.1986 9.25452 14.2555 9.10759C14.3346 8.89484 14.4893 8.71872 14.6901 8.61291C14.8909 8.50709 15.1236 8.47902 15.3438 8.53404C14.7876 10.241 14.3342 11.9797 13.986 13.7409C13.9445 13.8963 12.4001 14.0242 10.4998 14.0242Z" fill="white"/>
</mask>
<g mask="url(#mask0_17_5219)">
<g style="mix-blend-mode:color-dodge">
<path d="M9.07976 10.2306C9.07976 10.3481 9.07977 10.4483 9.04867 10.4518C9.01757 10.4552 8.98648 10.3619 8.97611 10.241C8.96575 10.1201 8.97611 10.0233 9.00375 10.0199C9.03139 10.0164 9.07976 10.1097 9.07976 10.2306Z" fill="#D2E1F7"/>
</g>
</g>
<path fill-rule="evenodd" clip-rule="evenodd" d="M10.5 5.98755C10.6198 5.98755 10.7384 6.01114 10.8491 6.05698C10.9598 6.10282 11.0603 6.17001 11.145 6.25471C11.2297 6.33941 11.2969 6.43996 11.3427 6.55063C11.3886 6.6613 11.4122 6.77991 11.4122 6.89969C11.4113 7.14133 11.3149 7.3728 11.144 7.54367C10.9731 7.71453 10.7417 7.81092 10.5 7.81183C10.2581 7.81183 10.0261 7.71573 9.85505 7.54467C9.68399 7.37361 9.58789 7.14161 9.58789 6.89969C9.58789 6.77991 9.61148 6.6613 9.65732 6.55063C9.70316 6.43996 9.77035 6.33941 9.85505 6.25471C9.93975 6.17001 10.0403 6.10282 10.151 6.05698C10.2616 6.01114 10.3802 5.98755 10.5 5.98755Z" fill="url(#paint76_radial_17_5219)"/>
<path style="mix-blend-mode:screen" fill-rule="evenodd" clip-rule="evenodd" d="M10.3966 6.10522C10.5799 6.10522 10.7556 6.17803 10.8852 6.30762C11.0148 6.43721 11.0876 6.61297 11.0876 6.79624C11.0876 6.97951 11.0148 7.15527 10.8852 7.28486C10.7556 7.41445 10.5799 7.48726 10.3966 7.48726C10.2133 7.48726 10.0376 7.41445 9.90796 7.28486C9.77837 7.15527 9.70557 6.97951 9.70557 6.79624C9.70557 6.61297 9.77837 6.43721 9.90796 6.30762C10.0376 6.17803 10.2133 6.10522 10.3966 6.10522Z" fill="url(#paint77_radial_17_5219)"/>
<g style="mix-blend-mode:multiply" opacity="0.5">
<path fill-rule="evenodd" clip-rule="evenodd" d="M10.4999 10.4067C10.7032 10.3958 10.9057 10.4382 11.0876 10.5297C11.2694 10.6212 11.4241 10.7587 11.5364 10.9284C11.7377 11.2866 11.8257 11.6974 11.7887 12.1066C11.7842 12.499 11.6533 12.8794 11.4155 13.1915C11.3046 13.3263 11.1646 13.4342 11.006 13.5072C10.8475 13.5802 10.6744 13.6164 10.4999 13.613C10.3237 13.6179 10.1486 13.5825 9.98814 13.5095C9.82766 13.4364 9.68599 13.3277 9.57395 13.1915C9.33737 12.879 9.20774 12.4986 9.20426 12.1066C9.16444 11.6977 9.25128 11.2864 9.45303 10.9284C9.5656 10.7589 9.72038 10.6217 9.90214 10.5302C10.0839 10.4387 10.2863 10.3961 10.4896 10.4067H10.4999Z" fill="#535F6D"/>
</g>
<path fill-rule="evenodd" clip-rule="evenodd" d="M10.4999 10.1615C10.7108 10.1478 10.9217 10.1901 11.111 10.2841C11.3003 10.3782 11.4614 10.5206 11.5779 10.697C11.7919 11.0695 11.8848 11.4993 11.8439 11.927C11.8375 12.3318 11.7019 12.7241 11.457 13.0464C11.3407 13.1861 11.1939 13.2973 11.0281 13.3716C10.8622 13.4458 10.6815 13.4812 10.4999 13.4749C10.3174 13.4799 10.1362 13.443 9.9703 13.3669C9.80436 13.2908 9.65812 13.1776 9.54284 13.0361C9.29969 12.7169 9.16528 12.3282 9.15933 11.927C9.11841 11.4993 9.21138 11.0695 9.42537 10.697C9.5427 10.5206 9.70443 10.3782 9.89428 10.2842C10.0841 10.1902 10.2954 10.1479 10.5068 10.1615H10.4999Z" fill="url(#paint78_linear_17_5219)"/>
<path fill-rule="evenodd" clip-rule="evenodd" d="M10.5002 13.1846C10.3596 13.1884 10.22 13.1591 10.0928 13.0991C9.96557 13.0391 9.85422 12.9501 9.76771 12.8391C9.56141 12.5653 9.44984 12.2318 9.44984 11.889C9.41384 11.5301 9.48731 11.1688 9.6606 10.8525C9.75165 10.716 9.87745 10.6063 10.025 10.5346C10.1726 10.4629 10.3366 10.4319 10.5002 10.4448C10.6633 10.4318 10.8268 10.4628 10.9739 10.5345C11.1209 10.6062 11.2461 10.716 11.3363 10.8525C11.5094 11.1689 11.584 11.5299 11.5505 11.889C11.5478 12.2319 11.4352 12.5649 11.2292 12.8391C11.1434 12.95 11.0327 13.039 10.906 13.0991C10.7794 13.1591 10.6403 13.1884 10.5002 13.1846Z" fill="url(#paint79_radial_17_5219)"/>
<g style="mix-blend-mode:screen">
<path fill-rule="evenodd" clip-rule="evenodd" d="M10.4411 11.4466C10.2338 11.6539 9.84339 11.7921 9.69136 11.6539C9.53934 11.5157 9.69136 11.0631 9.88485 10.873C9.97603 10.7873 10.0921 10.7327 10.2163 10.7172C10.3405 10.7017 10.4664 10.726 10.5759 10.7867C10.7313 10.9318 10.6484 11.2358 10.4411 11.4466Z" fill="#C9FFA9"/>
</g>
<path style="mix-blend-mode:screen" fill-rule="evenodd" clip-rule="evenodd" d="M10.8074 12.7355C11.1943 12.4901 11.2842 12.2034 11.3671 12.2034C11.45 12.2034 11.4086 12.6974 11.0216 12.9704C10.7866 13.1432 10.4135 13.1432 10.3306 13.0119C10.2476 12.8806 10.5448 12.8909 10.8074 12.7355Z" fill="url(#paint80_radial_17_5219)"/>
<defs>
<linearGradient id="paint0_linear_17_5219" x1="10.5001" y1="26.618" x2="10.5001" y2="18.623" gradientUnits="userSpaceOnUse">
<stop stop-color="#FF3385"/>
<stop offset="0.31" stop-color="#DC1364"/>
<stop offset="0.54" stop-color="#C70050"/>
<stop offset="1" stop-color="#4B172C"/>
</linearGradient>
<radialGradient id="paint1_radial_17_5219" cx="0" cy="0" r="1" gradientUnits="userSpaceOnUse" gradientTransform="translate(8.24049 23.9195) scale(8.29566)">
<stop stop-color="#B8CBE6"/>
<stop offset="0.63" stop-color="#3E4559"/>
<stop offset="0.73" stop-color="#4A5268"/>
<stop offset="0.93" stop-color="#68748E"/>
<stop offset="1" stop-color="#75829E"/>
</radialGradient>
<radialGradient id="paint2_radial_17_5219" cx="0" cy="0" r="1" gradientUnits="userSpaceOnUse" gradientTransform="translate(7.92248 7.577) scale(11.3085)">
<stop stop-color="#FF87C3"/>
<stop offset="0.55" stop-color="#EB1A7C"/>
<stop offset="0.65" stop-color="#D2156C"/>
<stop offset="0.86" stop-color="#910943"/>
<stop offset="1" stop-color="#610025"/>
</radialGradient>
<radialGradient id="paint3_radial_17_5219" cx="0" cy="0" r="1" gradientUnits="userSpaceOnUse" gradientTransform="translate(10.5002 11.032) scale(6.85143 6.85143)">
<stop offset="0.91" stop-color="white"/>
<stop offset="0.92" stop-color="#FCF7F8"/>
<stop offset="0.93" stop-color="#F4E2E6"/>
<stop offset="0.95" stop-color="#E7BFC8"/>
<stop offset="0.97" stop-color="#D58F9E"/>
<stop offset="0.99" stop-color="#BE5269"/>
<stop offset="1" stop-color="#AD2643"/>
</radialGradient>
<linearGradient id="paint4_linear_17_5219" x1="10.5002" y1="19.3415" x2="10.5002" y2="2.73633" gradientUnits="userSpaceOnUse">
<stop stop-color="#4C6E9C"/>
<stop offset="1" stop-color="#CCD8EB"/>
</linearGradient>
<linearGradient id="paint5_linear_17_5219" x1="10.5001" y1="18.6229" x2="10.5001" y2="3.45508" gradientUnits="userSpaceOnUse">
<stop stop-color="#91A4BF"/>
<stop offset="1" stop-color="#693649"/>
</linearGradient>
<radialGradient id="paint6_radial_17_5219" cx="0" cy="0" r="1" gradientUnits="userSpaceOnUse" gradientTransform="translate(6.23664 5.06174) scale(8.81046)">
<stop stop-color="#99B2D6"/>
<stop offset="1"/>
</radialGradient>
<radialGradient id="paint7_radial_17_5219" cx="0" cy="0" r="1" gradientUnits="userSpaceOnUse" gradientTransform="translate(13.6543 17.044) scale(8.79664 8.79664)">
<stop stop-color="#99B2D6"/>
<stop offset="1"/>
</radialGradient>
<radialGradient id="paint8_radial_17_5219" cx="0" cy="0" r="1" gradientUnits="userSpaceOnUse" gradientTransform="translate(10.2271 -0.286772) scale(5.10316)">
<stop stop-color="#E6F0FF"/>
<stop offset="1" stop-color="#99B2D6"/>
</radialGradient>
<radialGradient id="paint9_radial_17_5219" cx="0" cy="0" r="1" gradientUnits="userSpaceOnUse" gradientTransform="translate(7.62883 0.500987) scale(5.27246 5.27246)">
<stop stop-color="#A5BEE8"/>
<stop offset="1" stop-color="#46648A"/>
</radialGradient>
<radialGradient id="paint10_radial_17_5219" cx="0" cy="0" r="1" gradientUnits="userSpaceOnUse" gradientTransform="translate(19.5523 4.28438) scale(7.04146)">
<stop stop-color="#CEDBF0"/>
<stop offset="1" stop-color="#6D87AB"/>
</radialGradient>
<radialGradient id="paint11_radial_17_5219" cx="0" cy="0" r="1" gradientUnits="userSpaceOnUse" gradientTransform="translate(16.5569 3.9907) scale(7.07601 7.07601)">
<stop stop-color="#A5BEE8"/>
<stop offset="1" stop-color="#46648A"/>
</radialGradient>
<radialGradient id="paint12_radial_17_5219" cx="0" cy="0" r="1" gradientUnits="userSpaceOnUse" gradientTransform="translate(19.8011 16.9576) scale(5.98766 5.98766)">
<stop stop-color="#CCD8EB"/>
<stop offset="1" stop-color="#4C6E9C"/>
</radialGradient>
<radialGradient id="paint13_radial_17_5219" cx="0" cy="0" r="1" gradientUnits="userSpaceOnUse" gradientTransform="translate(19.6627 16.5845) scale(5.88401 5.88401)">
<stop stop-color="#95B0DE"/>
<stop offset="1" stop-color="#394F6E"/>
</radialGradient>
<radialGradient id="paint14_radial_17_5219" cx="0" cy="0" r="1" gradientUnits="userSpaceOnUse" gradientTransform="translate(3.02999 16.5603) scale(4.654)">
<stop stop-color="#596D8F"/>
<stop offset="1" stop-color="#46648A"/>
</radialGradient>
<radialGradient id="paint15_radial_17_5219" cx="0" cy="0" r="1" gradientUnits="userSpaceOnUse" gradientTransform="translate(-0.152146 15.4374) scale(6.50938)">
<stop stop-color="#CEDBF0"/>
<stop offset="1" stop-color="#6D87AB"/>
</radialGradient>
<radialGradient id="paint16_radial_17_5219" cx="0" cy="0" r="1" gradientUnits="userSpaceOnUse" gradientTransform="translate(2.15943 5.92901) scale(4.98914)">
<stop stop-color="#A5BEE8"/>
<stop offset="1" stop-color="#46648A"/>
</radialGradient>
<radialGradient id="paint17_radial_17_5219" cx="0" cy="0" r="1" gradientUnits="userSpaceOnUse" gradientTransform="translate(2.26999 6.21232) scale(4.51925)">
<stop stop-color="#CEDBF0"/>
<stop offset="1" stop-color="#6D87AB"/>
</radialGradient>
<radialGradient id="paint18_radial_17_5219" cx="0" cy="0" r="1" gradientUnits="userSpaceOnUse" gradientTransform="translate(11.0392 3.03006) scale(4.27395 4.27394)">
<stop stop-color="#99B2D6"/>
<stop offset="1"/>
</radialGradient>
<radialGradient id="paint19_radial_17_5219" cx="0" cy="0" r="1" gradientUnits="userSpaceOnUse" gradientTransform="translate(4.23258 7.28668) scale(4.53998 4.53998)">
<stop stop-color="#99B2D6"/>
<stop offset="1"/>
</radialGradient>
<radialGradient id="paint20_radial_17_5219" cx="0" cy="0" r="1" gradientUnits="userSpaceOnUse" gradientTransform="translate(10.227 17.5934) scale(6.16041)">
<stop stop-color="#596D8F"/>
<stop offset="1" stop-color="#30455E"/>
</radialGradient>
<radialGradient id="paint21_radial_17_5219" cx="0" cy="0" r="1" gradientUnits="userSpaceOnUse" gradientTransform="translate(12.245 16.5258) scale(5.808)">
<stop stop-color="#CEDBF0"/>
<stop offset="1" stop-color="#5C7494"/>
</radialGradient>
<radialGradient id="paint22_radial_17_5219" cx="0" cy="0" r="1" gradientUnits="userSpaceOnUse" gradientTransform="translate(20.6339 7.89146) scale(6.12932)">
<stop stop-color="#CEDBF0"/>
<stop offset="1" stop-color="#5C7494"/>
</radialGradient>
<radialGradient id="paint23_radial_17_5219" cx="0" cy="0" r="1" gradientUnits="userSpaceOnUse" gradientTransform="translate(20.3435 9.69844) scale(7.33169 7.33169)">
<stop stop-color="#596D8F"/>
<stop offset="1" stop-color="#30455E"/>
</radialGradient>
<radialGradient id="paint24_radial_17_5219" cx="0" cy="0" r="1" gradientUnits="userSpaceOnUse" gradientTransform="translate(15.8832 4.13924) scale(6.91017)">
<stop stop-color="#CEDBF0"/>
<stop offset="1" stop-color="#6D87AB"/>
</radialGradient>
<radialGradient id="paint25_radial_17_5219" cx="0" cy="0" r="1" gradientUnits="userSpaceOnUse" gradientTransform="translate(14.1624 0.794721) scale(6.22606)">
<stop stop-color="#A5BEE8"/>
<stop offset="1" stop-color="#46648A"/>
</radialGradient>
<radialGradient id="paint26_radial_17_5219" cx="0" cy="0" r="1" gradientUnits="userSpaceOnUse" gradientTransform="translate(3.51017 2.69847) scale(6.6614)">
<stop stop-color="#A5BEE8"/>
<stop offset="1" stop-color="#46648A"/>
</radialGradient>
<radialGradient id="paint27_radial_17_5219" cx="0" cy="0" r="1" gradientUnits="userSpaceOnUse" gradientTransform="translate(6.09844 5.17922) scale(4.077)">
<stop stop-color="#E6F0FF"/>
<stop offset="1" stop-color="#99B2D6"/>
</radialGradient>
<radialGradient id="paint28_radial_17_5219" cx="0" cy="0" r="1" gradientUnits="userSpaceOnUse" gradientTransform="translate(3.52765 10.2167) scale(6.78578)">
<stop stop-color="#596D8F"/>
<stop offset="1" stop-color="#30455E"/>
</radialGradient>
<radialGradient id="paint29_radial_17_5219" cx="0" cy="0" r="1" gradientUnits="userSpaceOnUse" gradientTransform="translate(0.366243 6.34359) scale(7.87068 7.87068)">
<stop stop-color="#CEDBF0"/>
<stop offset="1" stop-color="#6D87AB"/>
</radialGradient>
<radialGradient id="paint30_radial_17_5219" cx="0" cy="0" r="1" gradientUnits="userSpaceOnUse" gradientTransform="translate(6.3781 5.2033) scale(4.05282 4.05281)">
<stop stop-color="#99B2D6"/>
<stop offset="1"/>
</radialGradient>
<radialGradient id="paint31_radial_17_5219" cx="0" cy="0" r="1" gradientUnits="userSpaceOnUse" gradientTransform="translate(18.4365 14.2797) scale(3.81789 3.81787)">
<stop stop-color="#99B2D6"/>
<stop offset="1"/>
</radialGradient>
<radialGradient id="paint32_radial_17_5219" cx="0" cy="0" r="1" gradientUnits="userSpaceOnUse" gradientTransform="translate(19.3277 10.6486) rotate(180) scale(3.83169 3.83169)">
<stop stop-color="#CCD8EB"/>
<stop offset="1" stop-color="#4C6E9C"/>
</radialGradient>
<radialGradient id="paint33_radial_17_5219" cx="0" cy="0" r="1" gradientUnits="userSpaceOnUse" gradientTransform="translate(17.8077 12.0479) rotate(180) scale(2.89881 2.89882)">
<stop stop-color="white"/>
<stop offset="0.11" stop-color="#F7F8F9"/>
<stop offset="0.28" stop-color="#E2E4EA"/>
<stop offset="0.49" stop-color="#BFC4D0"/>
<stop offset="0.72" stop-color="#8F98AD"/>
<stop offset="0.98" stop-color="#526080"/>
<stop offset="1" stop-color="#4E5C7D"/>
</radialGradient>
<radialGradient id="paint34_radial_17_5219" cx="0" cy="0" r="1" gradientUnits="userSpaceOnUse" gradientTransform="translate(13.0707 9.16299) scale(11.7058 11.7058)">
<stop stop-color="#CCD8EB"/>
<stop offset="1" stop-color="#4C6E9C"/>
</radialGradient>
<radialGradient id="paint35_radial_17_5219" cx="0" cy="0" r="1" gradientUnits="userSpaceOnUse" gradientTransform="translate(1.67233 10.6486) scale(3.83169)">
<stop stop-color="#CEDBF0"/>
<stop offset="1" stop-color="#6D87AB"/>
</radialGradient>
<radialGradient id="paint36_radial_17_5219" cx="0" cy="0" r="1" gradientUnits="userSpaceOnUse" gradientTransform="translate(2.55338 11.9512) scale(2.89882)">
<stop stop-color="white"/>
<stop offset="0.11" stop-color="#F7F8F9"/>
<stop offset="0.28" stop-color="#E2E4EA"/>
<stop offset="0.49" stop-color="#BFC4D0"/>
<stop offset="0.72" stop-color="#8F98AD"/>
<stop offset="0.98" stop-color="#526080"/>
<stop offset="1" stop-color="#4E5C7D"/>
</radialGradient>
<radialGradient id="paint37_radial_17_5219" cx="0" cy="0" r="1" gradientUnits="userSpaceOnUse" gradientTransform="translate(4.50533 12.6975) scale(10.3791)">
<stop stop-color="#DDEAFF"/>
<stop offset="1" stop-color="#4C6E9C"/>
</radialGradient>
<radialGradient id="paint38_radial_17_5219" cx="0" cy="0" r="1" gradientUnits="userSpaceOnUse" gradientTransform="translate(0.798124 14.038) scale(3.37562)">
<stop stop-color="#CEDBF0"/>
<stop offset="1" stop-color="#6D87AB"/>
</radialGradient>
<radialGradient id="paint39_radial_17_5219" cx="0" cy="0" r="1" gradientUnits="userSpaceOnUse" gradientTransform="translate(3.53456 13.4886) scale(4.21521 4.2152)">
<stop stop-color="#CEDBF0"/>
<stop offset="1" stop-color="#6D87AB"/>
</radialGradient>
<radialGradient id="paint40_radial_17_5219" cx="0" cy="0" r="1" gradientUnits="userSpaceOnUse" gradientTransform="translate(2.80562 16.8436) scale(3.98371)">
<stop stop-color="#CEDBF0"/>
<stop offset="1" stop-color="#6D87AB"/>
</radialGradient>
<radialGradient id="paint41_radial_17_5219" cx="0" cy="0" r="1" gradientUnits="userSpaceOnUse" gradientTransform="translate(5.801 15.4201) scale(3.13375 3.13376)">
<stop stop-color="#CEDBF0"/>
<stop offset="1" stop-color="#6D87AB"/>
</radialGradient>
<radialGradient id="paint42_radial_17_5219" cx="0" cy="0" r="1" gradientUnits="userSpaceOnUse" gradientTransform="translate(4.84752 17.78) scale(3.37907 3.37907)">
<stop stop-color="#CEDBF0"/>
<stop offset="1" stop-color="#6D87AB"/>
</radialGradient>
<radialGradient id="paint43_radial_17_5219" cx="0" cy="0" r="1" gradientUnits="userSpaceOnUse" gradientTransform="translate(2.346 13.8411) scale(3.25814)">
<stop stop-color="white"/>
<stop offset="0.11" stop-color="#F7F8F9"/>
<stop offset="0.28" stop-color="#E2E4EA"/>
<stop offset="0.49" stop-color="#BFC4D0"/>
<stop offset="0.72" stop-color="#8F98AD"/>
<stop offset="0.98" stop-color="#526080"/>
<stop offset="1" stop-color="#4E5C7D"/>
</radialGradient>
<radialGradient id="paint44_radial_17_5219" cx="0" cy="0" r="1" gradientUnits="userSpaceOnUse" gradientTransform="translate(3.91125 16.4013) scale(2.68805)">
<stop stop-color="white"/>
<stop offset="0.11" stop-color="#F7F8F9"/>
<stop offset="0.28" stop-color="#E2E4EA"/>
<stop offset="0.49" stop-color="#BFC4D0"/>
<stop offset="0.72" stop-color="#8F98AD"/>
<stop offset="0.98" stop-color="#526080"/>
<stop offset="1" stop-color="#4E5C7D"/>
</radialGradient>
<radialGradient id="paint45_radial_17_5219" cx="0" cy="0" r="1" gradientUnits="userSpaceOnUse" gradientTransform="translate(5.73202 17.7315) scale(2.61204 2.61204)">
<stop stop-color="white"/>
<stop offset="0.11" stop-color="#F7F8F9"/>
<stop offset="0.28" stop-color="#E2E4EA"/>
<stop offset="0.49" stop-color="#BFC4D0"/>
<stop offset="0.72" stop-color="#8F98AD"/>
<stop offset="0.98" stop-color="#526080"/>
<stop offset="1" stop-color="#4E5C7D"/>
</radialGradient>
<radialGradient id="paint46_radial_17_5219" cx="0" cy="0" r="1" gradientUnits="userSpaceOnUse" gradientTransform="translate(7.18315 16.1077) scale(2.90228 2.90227)">
<stop stop-color="white"/>
<stop offset="0.11" stop-color="#F7F8F9"/>
<stop offset="0.28" stop-color="#E2E4EA"/>
<stop offset="0.49" stop-color="#BFC4D0"/>
<stop offset="0.72" stop-color="#8F98AD"/>
<stop offset="0.98" stop-color="#526080"/>
<stop offset="1" stop-color="#4E5C7D"/>
</radialGradient>
<radialGradient id="paint47_radial_17_5219" cx="0" cy="0" r="1" gradientUnits="userSpaceOnUse" gradientTransform="translate(5.41413 14.5459) scale(3.42399 3.42399)">
<stop stop-color="white"/>
<stop offset="0.11" stop-color="#F7F8F9"/>
<stop offset="0.28" stop-color="#E2E4EA"/>
<stop offset="0.49" stop-color="#BFC4D0"/>
<stop offset="0.72" stop-color="#8F98AD"/>
<stop offset="0.98" stop-color="#526080"/>
<stop offset="1" stop-color="#4E5C7D"/>
</radialGradient>
<radialGradient id="paint48_radial_17_5219" cx="0" cy="0" r="1" gradientUnits="userSpaceOnUse" gradientTransform="translate(1.93143 15.0607) scale(4.70928 4.70928)">
<stop stop-color="#DDEAFF"/>
<stop offset="1" stop-color="#4C6E9C"/>
</radialGradient>
<radialGradient id="paint49_radial_17_5219" cx="0" cy="0" r="1" gradientUnits="userSpaceOnUse" gradientTransform="translate(3.67297 14.1554) scale(5.80453 5.80454)">
<stop stop-color="#DDEAFF"/>
<stop offset="1" stop-color="#4C6E9C"/>
</radialGradient>
<radialGradient id="paint50_radial_17_5219" cx="0" cy="0" r="1" gradientUnits="userSpaceOnUse" gradientTransform="translate(3.22727 16.9816) scale(4.85785)">
<stop stop-color="#DDEAFF"/>
<stop offset="1" stop-color="#4C6E9C"/>
</radialGradient>
<radialGradient id="paint51_radial_17_5219" cx="0" cy="0" r="1" gradientUnits="userSpaceOnUse" gradientTransform="translate(5.936 16.2286) scale(4.13574)">
<stop stop-color="#DDEAFF"/>
<stop offset="1" stop-color="#4C6E9C"/>
</radialGradient>
<radialGradient id="paint52_radial_17_5219" cx="0" cy="0" r="1" gradientUnits="userSpaceOnUse" gradientTransform="translate(5.00311 19.7458) scale(4.46396 4.46397)">
<stop stop-color="#DDEAFF"/>
<stop offset="1" stop-color="#4C6E9C"/>
</radialGradient>
<radialGradient id="paint53_radial_17_5219" cx="0" cy="0" r="1" gradientUnits="userSpaceOnUse" gradientTransform="translate(20.2019 14.038) rotate(180) scale(3.37561 3.37562)">
<stop stop-color="#CCD8EB"/>
<stop offset="1" stop-color="#4C6E9C"/>
</radialGradient>
<radialGradient id="paint54_radial_17_5219" cx="0" cy="0" r="1" gradientUnits="userSpaceOnUse" gradientTransform="translate(17.4656 13.4886) rotate(180) scale(4.21521 4.2152)">
<stop stop-color="#CCD8EB"/>
<stop offset="1" stop-color="#4C6E9C"/>
</radialGradient>
<radialGradient id="paint55_radial_17_5219" cx="0" cy="0" r="1" gradientUnits="userSpaceOnUse" gradientTransform="translate(18.1945 16.8436) rotate(180) scale(3.98371)">
<stop stop-color="#CCD8EB"/>
<stop offset="1" stop-color="#4C6E9C"/>
</radialGradient>
<radialGradient id="paint56_radial_17_5219" cx="0" cy="0" r="1" gradientUnits="userSpaceOnUse" gradientTransform="translate(15.1991 15.4201) rotate(180) scale(3.13377 3.13376)">
<stop stop-color="#CCD8EB"/>
<stop offset="1" stop-color="#4C6E9C"/>
</radialGradient>
<radialGradient id="paint57_radial_17_5219" cx="0" cy="0" r="1" gradientUnits="userSpaceOnUse" gradientTransform="translate(16.1527 17.78) rotate(180) scale(3.37907 3.37907)">
<stop stop-color="#CCD8EB"/>
<stop offset="1" stop-color="#4C6E9C"/>
</radialGradient>
<radialGradient id="paint58_radial_17_5219" cx="0" cy="0" r="1" gradientUnits="userSpaceOnUse" gradientTransform="translate(18.4573 13.4472) rotate(180) scale(3.25815 3.25814)">
<stop stop-color="white"/>
<stop offset="0.11" stop-color="#F7F8F9"/>
<stop offset="0.28" stop-color="#E2E4EA"/>
<stop offset="0.49" stop-color="#BFC4D0"/>
<stop offset="0.72" stop-color="#8F98AD"/>
<stop offset="0.98" stop-color="#526080"/>
<stop offset="1" stop-color="#4E5C7D"/>
</radialGradient>
<radialGradient id="paint59_radial_17_5219" cx="0" cy="0" r="1" gradientUnits="userSpaceOnUse" gradientTransform="translate(16.968 16.156) rotate(180) scale(2.68805)">
<stop stop-color="white"/>
<stop offset="0.11" stop-color="#F7F8F9"/>
<stop offset="0.28" stop-color="#E2E4EA"/>
<stop offset="0.49" stop-color="#BFC4D0"/>
<stop offset="0.72" stop-color="#8F98AD"/>
<stop offset="0.98" stop-color="#526080"/>
<stop offset="1" stop-color="#4E5C7D"/>
</radialGradient>
<radialGradient id="paint60_radial_17_5219" cx="0" cy="0" r="1" gradientUnits="userSpaceOnUse" gradientTransform="translate(15.2924 17.4862) rotate(180) scale(2.61204 2.61204)">
<stop stop-color="white"/>
<stop offset="0.11" stop-color="#F7F8F9"/>
<stop offset="0.28" stop-color="#E2E4EA"/>
<stop offset="0.49" stop-color="#BFC4D0"/>
<stop offset="0.72" stop-color="#8F98AD"/>
<stop offset="0.98" stop-color="#526080"/>
<stop offset="1" stop-color="#4E5C7D"/>
</radialGradient>
<radialGradient id="paint61_radial_17_5219" cx="0" cy="0" r="1" gradientUnits="userSpaceOnUse" gradientTransform="translate(13.2747 16.2286) rotate(180) scale(2.90227)">
<stop stop-color="white"/>
<stop offset="0.11" stop-color="#F7F8F9"/>
<stop offset="0.28" stop-color="#E2E4EA"/>
<stop offset="0.49" stop-color="#BFC4D0"/>
<stop offset="0.72" stop-color="#8F98AD"/>
<stop offset="0.98" stop-color="#526080"/>
<stop offset="1" stop-color="#4E5C7D"/>
</radialGradient>
<radialGradient id="paint62_radial_17_5219" cx="0" cy="0" r="1" gradientUnits="userSpaceOnUse" gradientTransform="translate(15.0228 14.3973) rotate(180) scale(3.42399 3.42399)">
<stop stop-color="white"/>
<stop offset="0.11" stop-color="#F7F8F9"/>
<stop offset="0.28" stop-color="#E2E4EA"/>
<stop offset="0.49" stop-color="#BFC4D0"/>
<stop offset="0.72" stop-color="#8F98AD"/>
<stop offset="0.98" stop-color="#526080"/>
<stop offset="1" stop-color="#4E5C7D"/>
</radialGradient>
<radialGradient id="paint63_radial_17_5219" cx="0" cy="0" r="1" gradientUnits="userSpaceOnUse" gradientTransform="translate(19.0684 15.0607) rotate(180) scale(3.21668 3.21668)">
<stop stop-color="#CCD8EB"/>
<stop offset="1" stop-color="#4C6E9C"/>
</radialGradient>
<radialGradient id="paint64_radial_17_5219" cx="0" cy="0" r="1" gradientUnits="userSpaceOnUse" gradientTransform="translate(17.3274 14.1554) rotate(180) scale(3.95605 3.95607)">
<stop stop-color="#CCD8EB"/>
<stop offset="1" stop-color="#4C6E9C"/>
</radialGradient>
<radialGradient id="paint65_radial_17_5219" cx="0" cy="0" r="1" gradientUnits="userSpaceOnUse" gradientTransform="translate(17.7731 16.9816) rotate(180) scale(3.59328 3.59329)">
<stop stop-color="#CCD8EB"/>
<stop offset="1" stop-color="#4C6E9C"/>
</radialGradient>
<radialGradient id="paint66_radial_17_5219" cx="0" cy="0" r="1" gradientUnits="userSpaceOnUse" gradientTransform="translate(15.0642 16.2286) rotate(180) scale(2.90918)">
<stop stop-color="#CCD8EB"/>
<stop offset="1" stop-color="#4C6E9C"/>
</radialGradient>
<radialGradient id="paint67_radial_17_5219" cx="0" cy="0" r="1" gradientUnits="userSpaceOnUse" gradientTransform="translate(15.9972 19.7458) rotate(180) scale(3.32724 3.32725)">
<stop stop-color="#CCD8EB"/>
<stop offset="1" stop-color="#4C6E9C"/>
</radialGradient>
<linearGradient id="paint68_linear_17_5219" x1="7.01386" y1="14.2417" x2="13.9828" y2="14.2417" gradientUnits="userSpaceOnUse">
<stop stop-color="#97ADD4"/>
<stop offset="0.29" stop-color="#D2E1F7"/>
<stop offset="0.37" stop-color="#C1D0E5"/>
<stop offset="0.53" stop-color="#95A3B5"/>
<stop offset="0.74" stop-color="#535F6D"/>
<stop offset="0.78" stop-color="#586474"/>
<stop offset="0.83" stop-color="#657488"/>
<stop offset="0.9" stop-color="#7A8DA8"/>
<stop offset="0.97" stop-color="#98AFD5"/>
<stop offset="1" stop-color="#A5BEE8"/>
</linearGradient>
<linearGradient id="paint69_linear_17_5219" x1="7.01401" y1="14.2074" x2="7.71885" y2="14.2074" gradientUnits="userSpaceOnUse">
<stop stop-color="#535F6D"/>
<stop offset="0.18" stop-color="#868F98"/>
<stop offset="0.37" stop-color="#B2B7BD"/>
<stop offset="0.55" stop-color="#D3D6DA"/>
<stop offset="0.72" stop-color="#EBEDEE"/>
<stop offset="0.87" stop-color="#FAFAFB"/>
<stop offset="1" stop-color="white"/>
</linearGradient>
<linearGradient id="paint70_linear_17_5219" x1="12.687" y1="14.2281" x2="13.9827" y2="14.2281" gradientUnits="userSpaceOnUse">
<stop stop-color="white"/>
<stop offset="0.13" stop-color="#FAFAFB"/>
<stop offset="0.28" stop-color="#EBEDEE"/>
<stop offset="0.45" stop-color="#D3D6DA"/>
<stop offset="0.63" stop-color="#B2B7BD"/>
<stop offset="0.82" stop-color="#868F98"/>
<stop offset="1" stop-color="#535F6D"/>
</linearGradient>
<radialGradient id="paint71_radial_17_5219" cx="0" cy="0" r="1" gradientUnits="userSpaceOnUse" gradientTransform="translate(10.4724 13.9499) scale(5.18608 1.14094)">
<stop stop-color="#B59F8F"/>
<stop offset="1"/>
</radialGradient>
<radialGradient id="paint72_radial_17_5219" cx="0" cy="0" r="1" gradientUnits="userSpaceOnUse" gradientTransform="translate(13.8617 6.22958) scale(9.47384)">
<stop stop-color="#99A9C7"/>
<stop offset="1" stop-color="#5D738F"/>
</radialGradient>
<radialGradient id="paint73_radial_17_5219" cx="0" cy="0" r="1" gradientUnits="userSpaceOnUse" gradientTransform="translate(7.18302 8.52364) scale(2.7848 2.7848)">
<stop offset="0.68" stop-color="white"/>
<stop offset="0.72" stop-color="#FAFAFB"/>
<stop offset="0.77" stop-color="#EBEDEE"/>
<stop offset="0.82" stop-color="#D3D6DA"/>
<stop offset="0.88" stop-color="#B2B7BD"/>
<stop offset="0.94" stop-color="#868F98"/>
<stop offset="1" stop-color="#535F6D"/>
</radialGradient>
<radialGradient id="paint74_radial_17_5219" cx="0" cy="0" r="1" gradientUnits="userSpaceOnUse" gradientTransform="translate(13.8169 8.52364) rotate(180) scale(2.7848)">
<stop offset="0.68" stop-color="white"/>
<stop offset="0.72" stop-color="#FAFAFB"/>
<stop offset="0.77" stop-color="#EBEDEE"/>
<stop offset="0.82" stop-color="#D3D6DA"/>
<stop offset="0.88" stop-color="#B2B7BD"/>
<stop offset="0.94" stop-color="#868F98"/>
<stop offset="1" stop-color="#535F6D"/>
</radialGradient>
<linearGradient id="paint75_linear_17_5219" x1="5.65576" y1="10.8179" x2="15.3438" y2="10.8179" gradientUnits="userSpaceOnUse">
<stop stop-color="#788AA8"/>
<stop offset="0.15" stop-color="#90A0B9"/>
<stop offset="0.31" stop-color="#A5B3C7"/>
<stop offset="0.41" stop-color="#ADBACC"/>
<stop offset="0.52" stop-color="#A2AFC0"/>
<stop offset="0.71" stop-color="#8591A1"/>
<stop offset="0.96" stop-color="#56616E"/>
<stop offset="1" stop-color="#4E5966"/>
</linearGradient>
<radialGradient id="paint76_radial_17_5219" cx="0" cy="0" r="1" gradientUnits="userSpaceOnUse" gradientTransform="translate(10.1718 6.40216) scale(1.63771)">
<stop stop-color="#C3D0E8"/>
<stop offset="0.16" stop-color="#BFCCE5"/>
<stop offset="0.31" stop-color="#B4C2DA"/>
<stop offset="0.46" stop-color="#A2B0C8"/>
<stop offset="0.6" stop-color="#8796B0"/>
<stop offset="0.74" stop-color="#65758F"/>
<stop offset="1" stop-color="#D2E1F7"/>
</radialGradient>
<radialGradient id="paint77_radial_17_5219" cx="0" cy="0" r="1" gradientUnits="userSpaceOnUse" gradientTransform="translate(10.1236 6.38854) scale(1.58243)">
<stop stop-color="#A5BEE8"/>
<stop offset="0.05" stop-color="#97AED4"/>
<stop offset="0.19" stop-color="#6F839D"/>
<stop offset="0.33" stop-color="#4D5D6D"/>
<stop offset="0.47" stop-color="#313F46"/>
<stop offset="0.61" stop-color="#1C2727"/>
<stop offset="0.75" stop-color="#0C1611"/>
<stop offset="0.88" stop-color="#030B04"/>
<stop offset="1" stop-color="#000800"/>
</radialGradient>
<linearGradient id="paint78_linear_17_5219" x1="10.4999" y1="13.4749" x2="10.4999" y2="10.1615" gradientUnits="userSpaceOnUse">
<stop stop-color="#707A85"/>
<stop offset="0.14" stop-color="#818C99"/>
<stop offset="0.54" stop-color="#ADBACC"/>
<stop offset="0.83" stop-color="#C8D6EB"/>
<stop offset="1" stop-color="#D2E1F7"/>
</linearGradient>
<radialGradient id="paint79_radial_17_5219" cx="0" cy="0" r="1" gradientUnits="userSpaceOnUse" gradientTransform="translate(10.0614 10.9872) scale(2.4531 2.45311)">
<stop stop-color="#FF87C3"/>
<stop offset="0.55" stop-color="#EB1A7C"/>
<stop offset="0.61" stop-color="#D21268"/>
<stop offset="0.71" stop-color="#99003A"/>
<stop offset="1" stop-color="#F968AE"/>
</radialGradient>
<radialGradient id="paint80_radial_17_5219" cx="0" cy="0" r="1" gradientUnits="userSpaceOnUse" gradientTransform="translate(10.0887 11.6436) scale(1.91066)">
<stop offset="0.67" stop-color="#080819"/>
<stop offset="0.7" stop-color="#110C1E"/>
<stop offset="0.75" stop-color="#29162D"/>
<stop offset="0.8" stop-color="#512645"/>
<stop offset="0.87" stop-color="#873D66"/>
<stop offset="0.95" stop-color="#CC5990"/>
<stop offset="1" stop-color="#FF6EAF"/>
</radialGradient>
</defs>
</svg>
