<svg width="66" height="67" viewBox="0 0 66 67" fill="none" xmlns="http://www.w3.org/2000/svg">
<g clip-path="url(#clip0_315_10786)">
<path d="M48.931 0H17.0689C15.1836 0 13.6552 1.55156 13.6552 3.46552V12.7069C13.6552 14.6208 15.1836 16.1724 17.0689 16.1724H48.931C50.8164 16.1724 52.3448 14.6208 52.3448 12.7069V3.46552C52.3448 1.55156 50.8164 0 48.931 0Z" fill="#F33A4D"/>
<path d="M26.1724 50.8276H3.41379C1.52841 50.8276 0 52.3792 0 54.2932V63.5345C0 65.4485 1.52841 67 3.41379 67H26.1724C28.0578 67 29.5862 65.4485 29.5862 63.5345V54.2932C29.5862 52.3792 28.0578 50.8276 26.1724 50.8276Z" fill="#8AD256"/>
<path d="M26.1724 30.0347H3.41379C1.52841 30.0347 0 31.5862 0 33.5002V42.7416C0 44.6555 1.52841 46.2071 3.41379 46.2071H26.1724C28.0578 46.2071 29.5862 44.6555 29.5862 42.7416V33.5002C29.5862 31.5862 28.0578 30.0347 26.1724 30.0347Z" fill="#FFA334"/>
<path d="M62.5862 50.8276H39.8276C37.9422 50.8276 36.4138 52.3792 36.4138 54.2932V63.5345C36.4138 65.4485 37.9422 67 39.8276 67H62.5862C64.4716 67 66 65.4485 66 63.5345V54.2932C66 52.3792 64.4716 50.8276 62.5862 50.8276Z" fill="#8AD256"/>
<path d="M62.5862 30.0347H39.8276C37.9422 30.0347 36.4138 31.5862 36.4138 33.5002V42.7416C36.4138 44.6555 37.9422 46.2071 39.8276 46.2071H62.5862C64.4716 46.2071 66 44.6555 66 42.7416V33.5002C66 31.5862 64.4716 30.0347 62.5862 30.0347Z" fill="#FFA334"/>
<path d="M19.3448 5.77568H18.2069C17.5784 5.77568 17.069 5.25849 17.069 4.6205C17.069 3.98252 17.5784 3.46533 18.2069 3.46533H19.3448C19.9733 3.46533 20.4828 3.98252 20.4828 4.6205C20.4828 5.25849 19.9733 5.77568 19.3448 5.77568Z" fill="#FF526F"/>
<path d="M34.1379 5.77568H23.8965C23.2681 5.77568 22.7586 5.25849 22.7586 4.6205C22.7586 3.98252 23.2681 3.46533 23.8965 3.46533H34.1379C34.7664 3.46533 35.2758 3.98252 35.2758 4.6205C35.2758 5.25849 34.7664 5.77568 34.1379 5.77568Z" fill="#FF526F"/>
<path d="M5.68968 56.6033H4.55175C3.92329 56.6033 3.41382 56.0861 3.41382 55.4481C3.41382 54.8102 3.92329 54.293 4.55175 54.293H5.68968C6.31814 54.293 6.82761 54.8102 6.82761 55.4481C6.82761 56.0861 6.31814 56.6033 5.68968 56.6033Z" fill="#A5DF6C"/>
<path d="M20.4828 56.6033H10.2414C9.61292 56.6033 9.10345 56.0861 9.10345 55.4481C9.10345 54.8102 9.61292 54.293 10.2414 54.293H20.4828C21.1112 54.293 21.6207 54.8102 21.6207 55.4481C21.6207 56.0861 21.1112 56.6033 20.4828 56.6033Z" fill="#A5DF6C"/>
<path d="M5.68968 35.8103H4.55175C3.92329 35.8103 3.41382 35.2932 3.41382 34.6552C3.41382 34.0172 3.92329 33.5 4.55175 33.5H5.68968C6.31814 33.5 6.82761 34.0172 6.82761 34.6552C6.82761 35.2932 6.31814 35.8103 5.68968 35.8103Z" fill="#FFCD62"/>
<path d="M20.4828 35.8103H10.2414C9.61292 35.8103 9.10345 35.2932 9.10345 34.6552C9.10345 34.0172 9.61292 33.5 10.2414 33.5H20.4828C21.1112 33.5 21.6207 34.0172 21.6207 34.6552C21.6207 35.2932 21.1112 35.8103 20.4828 35.8103Z" fill="#FFCD62"/>
<path d="M42.1034 56.6033H40.9655C40.337 56.6033 39.8276 56.0861 39.8276 55.4481C39.8276 54.8102 40.337 54.293 40.9655 54.293H42.1034C42.7319 54.293 43.2414 54.8102 43.2414 55.4481C43.2414 56.0861 42.7319 56.6033 42.1034 56.6033Z" fill="#A5DF6C"/>
<path d="M56.8965 56.6033H46.6551C46.0267 56.6033 45.5172 56.0861 45.5172 55.4481C45.5172 54.8102 46.0267 54.293 46.6551 54.293H56.8965C57.525 54.293 58.0345 54.8102 58.0345 55.4481C58.0345 56.0861 57.525 56.6033 56.8965 56.6033Z" fill="#A5DF6C"/>
<path d="M42.1034 35.8103H40.9655C40.337 35.8103 39.8276 35.2932 39.8276 34.6552C39.8276 34.0172 40.337 33.5 40.9655 33.5H42.1034C42.7319 33.5 43.2414 34.0172 43.2414 34.6552C43.2414 35.2932 42.7319 35.8103 42.1034 35.8103Z" fill="#FFCD62"/>
<path d="M56.8965 35.8103H46.6551C46.0267 35.8103 45.5172 35.2932 45.5172 34.6552C45.5172 34.0172 46.0267 33.5 46.6551 33.5H56.8965C57.525 33.5 58.0345 34.0172 58.0345 34.6552C58.0345 35.2932 57.525 35.8103 56.8965 35.8103Z" fill="#FFCD62"/>
<path d="M52.3448 26.5689V30.0344H50.0689V26.5689C50.0689 25.9309 49.5595 25.4137 48.931 25.4137H17.0689C16.4405 25.4137 15.931 25.9309 15.931 26.5689V30.0344H13.6552V26.5689C13.6608 24.6573 15.1859 23.1091 17.0689 23.1034H31.862V16.1724H34.1379V23.1034H48.931C50.8141 23.1091 52.3392 24.6573 52.3448 26.5689Z" fill="#79818F"/>
<path d="M13.6552 46.207H15.931V50.8277H13.6552V46.207Z" fill="#79818F"/>
<path d="M50.069 46.207H52.3448V50.8277H50.069V46.207Z" fill="#79818F"/>
</g>
<defs>
<clipPath id="clip0_315_10786">
<rect width="66" height="67" fill="white"/>
</clipPath>
</defs>
</svg>
