<svg width="41" height="40" viewBox="0 0 41 40" fill="none" xmlns="http://www.w3.org/2000/svg">
<path d="M27.913 15.5375C28.6032 14.9099 28.6413 13.8552 27.9979 13.1819C27.3548 12.5085 26.2737 12.4714 25.5836 13.099L20.5848 17.6444L15.9257 12.7675C15.2825 12.0942 14.2015 12.0571 13.5113 12.6846C12.8211 13.3122 12.7831 14.3668 13.4263 15.0402L18.0853 19.917L13.0865 24.4625C12.3964 25.09 12.3583 26.1447 13.0016 26.818C13.6449 27.4914 14.7259 27.5285 15.4161 26.9009L20.4148 22.3555L25.074 27.2324C25.7171 27.9057 26.7982 27.9429 27.4883 27.3152C28.1785 26.6877 28.2166 25.633 27.5732 24.9597L22.9143 20.0829L27.913 15.5375Z" fill="white"/>
<path fill-rule="evenodd" clip-rule="evenodd" d="M1.70801 20C1.70801 9.87474 10.1213 1.66663 20.4997 1.66663C30.878 1.66663 39.2914 9.87474 39.2914 20C39.2914 30.1251 30.878 38.3333 20.4997 38.3333C10.1213 38.3333 1.70801 30.1251 1.70801 20ZM20.4997 35C12.0083 35 5.12468 28.2843 5.12468 20C5.12468 11.7157 12.0083 4.99996 20.4997 4.99996C28.9911 4.99996 35.8747 11.7157 35.8747 20C35.8747 28.2843 28.9911 35 20.4997 35Z" fill="white"/>
</svg>
