<svg width="26" height="32" viewBox="0 0 26 32" fill="none" xmlns="http://www.w3.org/2000/svg">
<path fill-rule="evenodd" clip-rule="evenodd" d="M6.17725 19.3147H19.8232V26.5213L13.0002 32.0001L6.17725 26.5213V19.3147Z" fill="url(#paint0_linear_17_3666)"/>
<path fill-rule="evenodd" clip-rule="evenodd" d="M13.0002 30.3469L6.17725 24.8682V26.5213L13.0002 32L19.8232 26.5213V24.8682L13.0002 30.3469Z" fill="url(#paint1_radial_17_3666)"/>
<path fill-rule="evenodd" clip-rule="evenodd" d="M13 4.58984C14.7693 4.58902 16.4991 5.09771 17.9706 6.05157C19.4421 7.00543 20.5892 8.36161 21.2669 9.94858C21.9446 11.5355 22.1223 13.282 21.7777 14.9671C21.433 16.6522 20.5814 18.2001 19.3307 19.4152C18.0799 20.6303 16.4861 21.4579 14.7509 21.7934C13.0157 22.1288 11.217 21.9571 9.58228 21.2998C7.9476 20.6426 6.55037 19.5294 5.56732 18.101C4.58427 16.6726 4.05957 14.9932 4.05957 13.2752C4.05901 12.1348 4.28984 11.0055 4.73889 9.95177C5.18794 8.89804 5.8464 7.94054 6.67665 7.13398C7.5069 6.32741 8.49268 5.68759 9.57766 5.25106C10.6626 4.81453 11.8256 4.58984 13 4.58984Z" fill="url(#paint2_radial_17_3666)"/>
<path style="mix-blend-mode:multiply" opacity="0.5" fill-rule="evenodd" clip-rule="evenodd" d="M13 5.67404C14.9379 5.64854 16.827 6.26497 18.3558 7.42174C19.8846 8.5785 20.9618 10.2065 21.41 12.0375C21.1048 10.0845 20.0887 8.30243 18.546 7.01468C17.0034 5.72692 15.0364 5.0188 13.0021 5.0188C10.9678 5.0188 9.00082 5.72692 7.45818 7.01468C5.91555 8.30243 4.89944 10.0845 4.59424 12.0375C5.04079 10.2065 6.11702 8.57813 7.64526 7.4212C9.17349 6.26428 11.0623 5.64797 13 5.67404Z" fill="url(#paint3_radial_17_3666)"/>
<path fill-rule="evenodd" clip-rule="evenodd" d="M12.9999 3.29395C15.0305 3.29395 17.0154 3.87861 18.7037 4.974C20.392 6.06939 21.7079 7.62631 22.485 9.44788C23.262 11.2695 23.4653 13.2739 23.0692 15.2076C22.6731 17.1414 21.6953 18.9177 20.2595 20.3118C18.8237 21.706 16.9944 22.6554 15.0028 23.0401C13.0113 23.4247 10.9471 23.2273 9.0711 22.4728C7.19514 21.7183 5.59172 20.4406 4.46362 18.8012C3.33552 17.1618 2.7334 15.2344 2.7334 13.2628C2.7334 10.6189 3.81505 8.08328 5.7404 6.21376C7.66574 4.34423 10.2771 3.29395 12.9999 3.29395ZM12.9999 5.01773C14.6819 5.01773 16.3261 5.50202 17.7246 6.40937C19.1231 7.31672 20.2131 8.60637 20.8567 10.1152C21.5004 11.6241 21.6688 13.2844 21.3406 14.8862C21.0125 16.488 20.2026 17.9594 19.0133 19.1142C17.8239 20.269 16.3086 21.0555 14.659 21.3741C13.0094 21.6927 11.2995 21.5292 9.74555 20.9042C8.19163 20.2792 6.86347 19.2208 5.92902 17.8629C4.99458 16.5049 4.49582 14.9084 4.49582 13.2753C4.49582 11.0852 5.39179 8.98489 6.98662 7.4363C8.58145 5.88772 10.7445 5.01773 12.9999 5.01773Z" fill="#808080"/>
<path fill-rule="evenodd" clip-rule="evenodd" d="M12.9999 4.15376C14.8622 4.14965 16.6838 4.6821 18.2342 5.6837C19.7847 6.68531 20.9942 8.11105 21.7098 9.78045C22.4254 11.4499 22.6148 13.2879 22.2541 15.0619C21.8934 16.8358 20.9988 18.466 19.6835 19.7461C18.3682 21.0262 16.6913 21.8986 14.8652 22.2528C13.0391 22.6071 11.1457 22.4274 9.42486 21.7364C7.70398 21.0453 6.23291 19.8741 5.19787 18.3709C4.16283 16.8677 3.61034 15.1001 3.61034 13.2919C3.60753 12.0928 3.84832 10.905 4.31893 9.79644C4.78954 8.68787 5.48073 7.68033 6.35292 6.8315C7.2251 5.98268 8.26115 5.30924 9.40175 4.84976C10.5423 4.39027 11.7651 4.15376 12.9999 4.15376ZM12.9999 3.29395C10.9694 3.29395 8.98448 3.87861 7.29616 4.974C5.60784 6.06939 4.29195 7.62631 3.5149 9.44788C2.73785 11.2695 2.53454 13.2739 2.93067 15.2076C3.32681 17.1414 4.3046 18.9177 5.7404 20.3118C7.1762 21.706 9.00553 22.6554 10.997 23.0401C12.9886 23.4247 15.0528 23.2273 16.9288 22.4728C18.8047 21.7183 20.4082 20.4406 21.5363 18.8012C22.6644 17.1618 23.2665 15.2344 23.2665 13.2628C23.2665 10.6189 22.1848 8.08328 20.2595 6.21376C18.3341 4.34423 15.7228 3.29395 12.9999 3.29395Z" fill="url(#paint4_linear_17_3666)"/>
<path fill-rule="evenodd" clip-rule="evenodd" d="M22.3896 13.2753C22.3896 11.4729 21.8394 9.71101 20.8086 8.21212C19.7778 6.71324 18.3126 5.54464 16.5981 4.85396C14.8836 4.16329 12.9968 3.98152 11.176 4.33164C9.35517 4.68175 7.68207 5.54803 6.36806 6.82104C5.05406 8.09405 4.1581 9.71666 3.79339 11.4839C3.42868 13.2511 3.61158 15.0836 4.31897 16.75C5.02637 18.4163 6.22653 19.8417 7.76783 20.846C9.30912 21.8503 11.1224 22.3885 12.9786 22.3926C14.2134 22.3954 15.4367 22.1615 16.5784 21.7046C17.7201 21.2476 18.7577 20.5765 19.6319 19.7296C20.506 18.8827 21.1996 17.8767 21.6728 16.7691C22.146 15.6616 22.3896 14.4743 22.3896 13.2753ZM12.9786 5.01775C14.6605 5.01775 16.3047 5.50205 17.7032 6.4094C19.1017 7.31674 20.1917 8.60639 20.8353 10.1153C21.479 11.6241 21.6474 13.2844 21.3193 14.8862C20.9911 16.488 20.1812 17.9594 18.9919 19.1142C17.8026 20.2691 16.2873 21.0555 14.6376 21.3741C12.988 21.6928 11.2781 21.5292 9.72419 20.9042C8.17026 20.2792 6.8421 19.2209 5.90766 17.8629C4.97321 16.505 4.47446 14.9085 4.47446 13.2753C4.47446 11.0853 5.37042 8.98492 6.96525 7.43633C8.56008 5.88774 10.7231 5.01775 12.9786 5.01775Z" fill="url(#paint5_linear_17_3666)"/>
<path style="mix-blend-mode:screen" fill-rule="evenodd" clip-rule="evenodd" d="M6.48514 6.94505C7.75964 5.69424 9.37808 4.8262 11.1471 4.44465C12.9161 4.0631 14.7608 4.18419 16.4608 4.79344C14.7548 4.09187 12.8719 3.90083 11.0534 4.24482C9.23484 4.5888 7.56348 5.45213 6.25342 6.7242C4.94335 7.99628 4.05424 9.61917 3.69999 11.385C3.34574 13.1508 3.54247 14.9791 4.265 16.6356C3.6388 14.9837 3.51515 13.1918 3.9088 11.4736C4.30245 9.75538 5.19679 8.18336 6.48514 6.94505Z" fill="url(#paint6_radial_17_3666)"/>
<path style="mix-blend-mode:screen" fill-rule="evenodd" clip-rule="evenodd" d="M19.5152 19.6012C18.2425 20.8547 16.624 21.7245 14.8543 22.1062C13.0847 22.4879 11.2391 22.3652 9.53955 21.7528C11.2456 22.4566 13.1294 22.6493 14.949 22.3062C16.7687 21.963 18.4412 21.0997 19.752 19.8269C21.0627 18.5542 21.9518 16.9302 22.3052 15.1633C22.6586 13.3964 22.4602 11.5672 21.7353 9.91064C22.3631 11.5623 22.4876 13.3546 22.0939 15.0732C21.7002 16.7917 20.8049 18.3637 19.5152 19.6012Z" fill="url(#paint7_radial_17_3666)"/>
<path fill-rule="evenodd" clip-rule="evenodd" d="M13.0001 4.15369L10.626 3.55971L13.0001 0L15.3742 3.55971L13.0001 4.15369Z" fill="#999999"/>
<path fill-rule="evenodd" clip-rule="evenodd" d="M13.0001 4.15369L10.626 3.55971L13.0001 0V4.15369Z" fill="url(#paint8_radial_17_3666)"/>
<path fill-rule="evenodd" clip-rule="evenodd" d="M13 4.15369L15.3741 3.55971L13 0V4.15369Z" fill="url(#paint9_radial_17_3666)"/>
<path fill-rule="evenodd" clip-rule="evenodd" d="M21.9318 10.4548L21.7778 8.07886L25.9999 9.17128L23.2451 12.461L21.9318 10.4548Z" fill="#999999"/>
<path fill-rule="evenodd" clip-rule="evenodd" d="M21.9318 10.4548L21.7778 8.07886L25.9999 9.17128L21.9318 10.4548Z" fill="url(#paint10_radial_17_3666)"/>
<path fill-rule="evenodd" clip-rule="evenodd" d="M21.9321 10.4549L23.2454 12.4611L26.0002 9.17139L21.9321 10.4549Z" fill="url(#paint11_radial_17_3666)"/>
<path fill-rule="evenodd" clip-rule="evenodd" d="M18.518 20.6479L20.7981 19.7756L21.0333 24.0082L16.9609 22.4838L18.518 20.6479Z" fill="#999999"/>
<path fill-rule="evenodd" clip-rule="evenodd" d="M18.5181 20.6479L20.7981 19.7756L21.0334 24.0082L18.5181 20.6479Z" fill="url(#paint12_radial_17_3666)"/>
<path fill-rule="evenodd" clip-rule="evenodd" d="M18.518 20.6479L16.9609 22.4839L21.0333 24.0083L18.518 20.6479Z" fill="url(#paint13_radial_17_3666)"/>
<path fill-rule="evenodd" clip-rule="evenodd" d="M7.47733 20.6479L9.0387 22.4838L4.96631 24.0082L5.19731 19.7756L7.47733 20.6479Z" fill="#999999"/>
<path fill-rule="evenodd" clip-rule="evenodd" d="M7.47733 20.6479L9.0387 22.4839L4.96631 24.0083L7.47733 20.6479Z" fill="url(#paint14_radial_17_3666)"/>
<path fill-rule="evenodd" clip-rule="evenodd" d="M7.47733 20.6479L5.19731 19.7756L4.96631 24.0082L7.47733 20.6479Z" fill="url(#paint15_radial_17_3666)"/>
<path fill-rule="evenodd" clip-rule="evenodd" d="M4.06811 10.4548L2.75058 12.461L0 9.17128L4.21783 8.07886L4.06811 10.4548Z" fill="#999999"/>
<path fill-rule="evenodd" clip-rule="evenodd" d="M4.06811 10.4549L2.75058 12.4611L0 9.17139L4.06811 10.4549Z" fill="url(#paint16_radial_17_3666)"/>
<path fill-rule="evenodd" clip-rule="evenodd" d="M4.06811 10.4548L4.21783 8.07886L0 9.17128L4.06811 10.4548Z" fill="url(#paint17_radial_17_3666)"/>
<path style="mix-blend-mode:screen" fill-rule="evenodd" clip-rule="evenodd" d="M12.752 4.09146C12.9113 3.11035 12.9942 2.11896 13.0001 1.12573V4.15377L12.752 4.09146Z" fill="url(#paint18_radial_17_3666)"/>
<path style="mix-blend-mode:screen" fill-rule="evenodd" clip-rule="evenodd" d="M4.06382 10.463L0.607422 9.3623C1.75208 9.66603 2.91904 9.88404 4.09805 10.0144L4.06382 10.463Z" fill="url(#paint19_radial_17_3666)"/>
<path style="mix-blend-mode:screen" fill-rule="evenodd" clip-rule="evenodd" d="M18.5181 20.652L20.1179 22.787C19.7372 22.2096 18.9672 20.9926 19.0314 20.4568L18.5181 20.652Z" fill="url(#paint20_radial_17_3666)"/>
<path fill-rule="evenodd" clip-rule="evenodd" d="M13.0002 22.3926L9.66357 22.7166L13.0002 25.3957L16.3368 22.7166L13.0002 22.3926Z" fill="#B54837"/>
<path fill-rule="evenodd" clip-rule="evenodd" d="M13 22.3926L16.3366 22.7166L13 25.3957V22.3926Z" fill="url(#paint21_radial_17_3666)"/>
<path fill-rule="evenodd" clip-rule="evenodd" d="M13.0002 22.3926L9.66357 22.7166L13.0002 25.3957V22.3926Z" fill="url(#paint22_radial_17_3666)"/>
<path fill-rule="evenodd" clip-rule="evenodd" d="M21.9317 16.0915L21.2173 19.2732L24.8747 17.0178L23.2791 13.1091L21.9317 16.0915Z" fill="#B54837"/>
<path fill-rule="evenodd" clip-rule="evenodd" d="M21.9321 16.0915L23.2796 13.1091L24.8752 17.0178L21.9321 16.0915Z" fill="url(#paint23_radial_17_3666)"/>
<path fill-rule="evenodd" clip-rule="evenodd" d="M21.9317 16.0913L21.2173 19.273L24.8747 17.0176L21.9317 16.0913Z" fill="url(#paint24_radial_17_3666)"/>
<path fill-rule="evenodd" clip-rule="evenodd" d="M18.5181 5.89402L21.4141 7.53888L20.3404 3.46411L16.0156 3.72579L18.5181 5.89402Z" fill="#B54837"/>
<path fill-rule="evenodd" clip-rule="evenodd" d="M18.5181 5.89402L16.0156 3.72579L20.3404 3.46411L18.5181 5.89402Z" fill="url(#paint25_radial_17_3666)"/>
<path fill-rule="evenodd" clip-rule="evenodd" d="M18.5181 5.89402L21.4141 7.53888L20.3404 3.46411L18.5181 5.89402Z" fill="url(#paint26_radial_17_3666)"/>
<path fill-rule="evenodd" clip-rule="evenodd" d="M7.47756 5.89402L9.98431 3.72579L5.65953 3.46411L4.58154 7.53888L7.47756 5.89402Z" fill="#B54837"/>
<path fill-rule="evenodd" clip-rule="evenodd" d="M7.47756 5.89402L4.58154 7.53888L5.65953 3.46411L7.47756 5.89402Z" fill="url(#paint27_radial_17_3666)"/>
<path fill-rule="evenodd" clip-rule="evenodd" d="M7.4777 5.89402L9.98445 3.72579L5.65967 3.46411L7.4777 5.89402Z" fill="url(#paint28_radial_17_3666)"/>
<path fill-rule="evenodd" clip-rule="evenodd" d="M4.06807 16.0915L2.72059 13.1091L1.125 17.0178L4.78245 19.2732L4.06807 16.0915Z" fill="#B54837"/>
<path fill-rule="evenodd" clip-rule="evenodd" d="M4.06807 16.0913L4.78245 19.273L1.125 17.0176L4.06807 16.0913Z" fill="url(#paint29_radial_17_3666)"/>
<path fill-rule="evenodd" clip-rule="evenodd" d="M4.06807 16.0915L2.72059 13.1091L1.125 17.0178L4.06807 16.0915Z" fill="url(#paint30_radial_17_3666)"/>
<path style="mix-blend-mode:screen" fill-rule="evenodd" clip-rule="evenodd" d="M7.48198 5.89821L5.85645 3.72168C6.51094 4.44027 7.28093 5.30008 7.87553 5.55346L7.48198 5.89821Z" fill="url(#paint31_radial_17_3666)"/>
<path style="mix-blend-mode:screen" fill-rule="evenodd" clip-rule="evenodd" d="M21.9321 16.0831L23.5406 16.5898C22.9998 16.3985 22.5101 16.0919 22.1075 15.6926L21.9321 16.0831Z" fill="url(#paint32_radial_17_3666)"/>
<path style="mix-blend-mode:screen" fill-rule="evenodd" clip-rule="evenodd" d="M13 22.3926V23.7301C13.0144 23.2808 13.1115 22.8377 13.2866 22.4217L13 22.3926Z" fill="url(#paint33_radial_17_3666)"/>
<path fill-rule="evenodd" clip-rule="evenodd" d="M23.609 16.623C25.812 16.1245 25.4869 14.0145 24.2891 12.7019C23.4935 13.5326 22.2358 15.5679 23.609 16.623Z" fill="url(#paint34_radial_17_3666)"/>
<path style="mix-blend-mode:multiply" fill-rule="evenodd" clip-rule="evenodd" d="M23.6089 16.623C24.1676 15.3911 24.4014 14.0435 24.289 12.7019C25.4868 14.0145 25.8119 16.1245 23.6089 16.623Z" fill="url(#paint35_radial_17_3666)"/>
<path fill-rule="evenodd" clip-rule="evenodd" d="M15.9473 23.0655C18.2176 22.4781 20.274 21.287 21.8848 19.6262C23.4855 17.9545 24.3551 15.7444 24.3103 13.4622C23.7627 18.0312 20.3491 21.2794 15.819 22.4881C13.6124 23.0551 11.3205 23.2421 9.04736 23.0406C10.6558 23.7633 13.9111 23.6221 15.9473 23.0655Z" fill="url(#paint36_radial_17_3666)"/>
<path fill-rule="evenodd" clip-rule="evenodd" d="M2.39134 16.623C0.188313 16.1245 0.513422 14.0145 1.71118 12.7019C2.50684 13.5326 3.76449 15.5679 2.39134 16.623Z" fill="url(#paint37_radial_17_3666)"/>
<path style="mix-blend-mode:multiply" fill-rule="evenodd" clip-rule="evenodd" d="M2.39134 16.623C1.83468 15.3905 1.60101 14.0434 1.71118 12.7019C0.513422 14.0145 0.188313 16.1245 2.39134 16.623Z" fill="url(#paint38_radial_17_3666)"/>
<path fill-rule="evenodd" clip-rule="evenodd" d="M10.0525 23.0655C7.78217 22.4781 5.72583 21.287 4.11498 19.6262C2.5158 17.9535 1.64644 15.7441 1.68952 13.4622C2.23706 18.0312 5.65069 21.2794 10.1808 22.4881C12.3874 23.0551 14.6793 23.2421 16.9524 23.0406C15.344 23.7633 12.0887 23.6221 10.0525 23.0655Z" fill="url(#paint39_radial_17_3666)"/>
<path fill-rule="evenodd" clip-rule="evenodd" d="M3.55037 19.2939C2.9301 19.9045 1.94195 19.7882 1.27462 19.2939C0.587167 18.7913 0.133286 18.0443 0.0126953 17.217C1.1634 17.217 3.59315 17.4663 3.55037 19.2939Z" fill="url(#paint40_radial_17_3666)"/>
<path fill-rule="evenodd" clip-rule="evenodd" d="M5.2572 19.8215C5.57664 19.5757 5.79524 19.2273 5.87366 18.8389C5.95208 18.4506 5.88517 18.0478 5.68497 17.7031C5.30532 17.0086 4.67911 16.4714 3.92255 16.1912C3.7001 17.2462 3.49477 19.5141 5.26575 19.8215H5.2572Z" fill="url(#paint41_radial_17_3666)"/>
<path fill-rule="evenodd" clip-rule="evenodd" d="M6.4765 21.5326C6.28235 21.8988 5.96159 22.187 5.57047 22.3465C5.17935 22.506 4.74288 22.5267 4.33763 22.4049C3.52224 22.177 2.8199 21.6692 2.36133 20.976C3.42648 20.5316 5.7835 19.8337 6.48077 21.5326H6.4765Z" fill="url(#paint42_radial_17_3666)"/>
<path fill-rule="evenodd" clip-rule="evenodd" d="M8.17043 21.7862C8.43565 21.5384 8.5992 21.2056 8.63067 20.8496C8.66215 20.4936 8.5594 20.1386 8.34154 19.8506C7.93659 19.2662 7.32963 18.8419 6.63045 18.6543C6.53634 19.6221 6.57056 21.6782 8.18754 21.7862H8.17043Z" fill="url(#paint43_radial_17_3666)"/>
<path fill-rule="evenodd" clip-rule="evenodd" d="M8.91468 22.7042C8.86917 22.9816 8.72387 23.2344 8.50459 23.4177C8.28531 23.6009 8.00623 23.7028 7.71692 23.7052C7.14052 23.7251 6.57638 23.5405 6.12988 23.186C6.72449 22.6793 8.09336 21.7488 8.91468 22.7042Z" fill="url(#paint44_radial_17_3666)"/>
<path style="mix-blend-mode:multiply" fill-rule="evenodd" clip-rule="evenodd" d="M3.55037 19.2939C1.89917 18.7705 0.983738 18.2762 0.0126953 17.217C0.133286 18.0443 0.587167 18.7913 1.27462 19.2939C1.94195 19.7716 2.9301 19.8879 3.55037 19.2939Z" fill="url(#paint45_radial_17_3666)"/>
<path style="mix-blend-mode:multiply" fill-rule="evenodd" clip-rule="evenodd" d="M6.47638 21.5327C5.07966 21.8496 3.61149 21.6512 2.35693 20.9761C2.8155 21.6693 3.51785 22.1771 4.33325 22.4049C4.73849 22.5267 5.17496 22.5061 5.56607 22.3466C5.95719 22.1871 6.27797 21.8989 6.47211 21.5327H6.47638Z" fill="url(#paint46_radial_17_3666)"/>
<path style="mix-blend-mode:multiply" fill-rule="evenodd" clip-rule="evenodd" d="M8.91468 22.7041C8.50928 22.9654 8.05288 23.143 7.57383 23.2259C7.09478 23.3088 6.60329 23.2952 6.12988 23.1859C6.57638 23.5404 7.14052 23.725 7.71692 23.7051C8.00623 23.7027 8.28531 23.6009 8.50459 23.4176C8.72387 23.2343 8.86917 22.9815 8.91468 22.7041Z" fill="url(#paint47_radial_17_3666)"/>
<path style="mix-blend-mode:multiply" fill-rule="evenodd" clip-rule="evenodd" d="M6.61336 18.6543C6.51925 19.6221 6.55347 21.6782 8.17045 21.7862C8.0849 20.2659 7.5844 19.5972 6.61336 18.6543Z" fill="url(#paint48_radial_17_3666)"/>
<path style="mix-blend-mode:multiply" fill-rule="evenodd" clip-rule="evenodd" d="M5.25745 19.8215C5.31686 18.4872 4.83453 17.1836 3.91424 16.1912C3.6918 17.2462 3.48648 19.5141 5.25745 19.8215Z" fill="url(#paint49_radial_17_3666)"/>
<path fill-rule="evenodd" clip-rule="evenodd" d="M4.30768 19.7009C2.40409 18.9532 1.78381 18.9366 0.393555 17.624C1.94209 18.7414 2.53242 18.8037 4.40179 19.4724C4.43469 19.4845 4.46128 19.5088 4.47572 19.54C4.49016 19.5712 4.49126 19.6066 4.47878 19.6386C4.4663 19.6705 4.44126 19.6963 4.40917 19.7104C4.37709 19.7244 4.34058 19.7254 4.30768 19.7133V19.7009Z" fill="url(#paint50_radial_17_3666)"/>
<path fill-rule="evenodd" clip-rule="evenodd" d="M5.22312 20.3323C5.01779 18.837 5.10334 18.1391 4.25635 16.6147C5.25733 17.9107 5.23595 18.5587 5.47978 20.2866C5.48612 20.3196 5.47894 20.3537 5.45976 20.3816C5.44058 20.4096 5.41093 20.4291 5.37712 20.4361C5.35993 20.4397 5.34217 20.4399 5.32493 20.4365C5.30769 20.4332 5.29134 20.4264 5.2769 20.4167C5.26246 20.4069 5.25024 20.3944 5.24099 20.3799C5.23174 20.3654 5.22565 20.3492 5.22312 20.3323Z" fill="url(#paint51_radial_17_3666)"/>
<path fill-rule="evenodd" clip-rule="evenodd" d="M6.95978 21.5743C5.13747 21.8235 4.53003 21.8609 2.84033 21.2129C4.50864 21.5493 5.12036 21.6283 6.90417 21.325C6.93604 21.3228 6.96769 21.3318 6.99329 21.3503C7.01888 21.3689 7.03671 21.3959 7.04347 21.4262C7.05024 21.4565 7.0455 21.4882 7.03013 21.5154C7.01475 21.5426 6.98977 21.5635 6.95978 21.5743Z" fill="url(#paint52_radial_17_3666)"/>
<path fill-rule="evenodd" clip-rule="evenodd" d="M8.10179 22.1142C8.04345 21.0181 7.66838 19.9601 7.01953 19.0613C8.00341 20.1039 8.15313 20.6895 8.36274 22.0686C8.36685 22.1019 8.35823 22.1355 8.33852 22.163C8.31881 22.1906 8.28938 22.2102 8.25579 22.2181C8.23861 22.2217 8.22085 22.2218 8.20361 22.2185C8.18637 22.2151 8.17003 22.2083 8.15559 22.1986C8.14115 22.1889 8.12892 22.1764 8.11967 22.1619C8.11041 22.1473 8.10433 22.1311 8.10179 22.1142Z" fill="url(#paint53_radial_17_3666)"/>
<path fill-rule="evenodd" clip-rule="evenodd" d="M9.20155 22.6459C8.42189 23.1807 7.4578 23.3983 6.51514 23.2523C7.43739 23.2941 8.34557 23.0207 9.08177 22.4797C9.10529 22.467 9.13289 22.4633 9.15905 22.4695C9.18522 22.4756 9.20804 22.4912 9.22294 22.5129C9.23581 22.5351 9.23943 22.5613 9.23307 22.586C9.2267 22.6107 9.21083 22.6321 9.18871 22.6459H9.20155Z" fill="url(#paint54_radial_17_3666)"/>
<path fill-rule="evenodd" clip-rule="evenodd" d="M22.4497 19.2939C23.07 19.9045 24.0581 19.7882 24.7297 19.2939C25.4224 18.7926 25.8835 18.0464 26.0131 17.217C24.8581 17.217 22.4326 17.4663 22.4711 19.2939H22.4497Z" fill="url(#paint55_radial_17_3666)"/>
<path fill-rule="evenodd" clip-rule="evenodd" d="M20.7427 19.8215C20.4232 19.5757 20.2046 19.2273 20.1262 18.8389C20.0478 18.4506 20.1147 18.0478 20.3149 17.7031C20.697 17.0105 21.3224 16.474 22.0773 16.1912C22.2998 17.2462 22.5051 19.5141 20.7341 19.8215H20.7427Z" fill="url(#paint56_radial_17_3666)"/>
<path fill-rule="evenodd" clip-rule="evenodd" d="M19.5237 21.5326C19.7185 21.8983 20.0393 22.1859 20.4302 22.3453C20.8211 22.5048 21.2573 22.5258 21.6626 22.4049C22.4767 22.1768 23.1776 21.6689 23.6346 20.976C22.5694 20.5316 20.2124 19.8337 19.5151 21.5326H19.5237Z" fill="url(#paint57_radial_17_3666)"/>
<path fill-rule="evenodd" clip-rule="evenodd" d="M17.8467 21.7862C17.5814 21.5384 17.4179 21.2056 17.3864 20.8496C17.355 20.4936 17.4577 20.1386 17.6756 19.8506C18.0813 19.267 18.688 18.8429 19.3866 18.6543C19.485 19.6221 19.4465 21.6782 17.8296 21.7862H17.8467Z" fill="url(#paint58_radial_17_3666)"/>
<path fill-rule="evenodd" clip-rule="evenodd" d="M17.0854 22.7042C17.1318 22.9813 17.2773 23.2336 17.4964 23.4167C17.7155 23.5998 17.9941 23.702 18.2832 23.7052C18.8597 23.7258 19.4241 23.5412 19.8702 23.186C19.2799 22.6793 17.9068 21.7488 17.0854 22.7042Z" fill="url(#paint59_radial_17_3666)"/>
<path style="mix-blend-mode:multiply" fill-rule="evenodd" clip-rule="evenodd" d="M22.4496 19.2939C24.1051 18.7705 25.0162 18.2762 25.9916 17.217C25.862 18.0464 25.4009 18.7926 24.7082 19.2939C24.0366 19.7716 23.0485 19.8879 22.4282 19.2939H22.4496Z" fill="url(#paint60_radial_17_3666)"/>
<path style="mix-blend-mode:multiply" fill-rule="evenodd" clip-rule="evenodd" d="M19.5234 21.5327C20.9201 21.85 22.3885 21.6516 23.6429 20.9761C23.1859 21.669 22.485 22.1769 21.6709 22.4049C21.2656 22.5259 20.8294 22.5048 20.4385 22.3454C20.0476 22.186 19.7268 21.8983 19.532 21.5327H19.5234Z" fill="url(#paint61_radial_17_3666)"/>
<path style="mix-blend-mode:multiply" fill-rule="evenodd" clip-rule="evenodd" d="M17.0854 22.7041C17.4909 22.9654 17.9472 23.143 18.4263 23.2259C18.9054 23.3088 19.3968 23.2952 19.8702 23.1859C19.4241 23.5411 18.8597 23.7258 18.2832 23.7051C17.9941 23.7019 17.7155 23.5997 17.4964 23.4166C17.2773 23.2335 17.1318 22.9812 17.0854 22.7041Z" fill="url(#paint62_radial_17_3666)"/>
<path style="mix-blend-mode:multiply" fill-rule="evenodd" clip-rule="evenodd" d="M19.3867 18.6543C19.4851 19.6221 19.4466 21.6782 17.8296 21.7862C17.9151 20.2659 18.4156 19.5972 19.3867 18.6543Z" fill="url(#paint63_radial_17_3666)"/>
<path style="mix-blend-mode:multiply" fill-rule="evenodd" clip-rule="evenodd" d="M20.7427 19.8215C20.6833 18.4872 21.1656 17.1836 22.0859 16.1912C22.3083 17.2462 22.5137 19.5141 20.7427 19.8215Z" fill="url(#paint64_radial_17_3666)"/>
<path fill-rule="evenodd" clip-rule="evenodd" d="M21.6967 19.7009C23.6045 18.9532 24.2205 18.9366 25.6151 17.624C24.0665 18.7414 23.4762 18.8037 21.6025 19.4724C21.5703 19.4854 21.5444 19.5098 21.5301 19.5407C21.5158 19.5715 21.5142 19.6066 21.5256 19.6386C21.5317 19.6544 21.541 19.6689 21.553 19.6812C21.5649 19.6935 21.5793 19.7034 21.5951 19.7104C21.611 19.7173 21.6282 19.7212 21.6456 19.7217C21.663 19.7222 21.6804 19.7193 21.6967 19.7133V19.7009Z" fill="url(#paint65_radial_17_3666)"/>
<path fill-rule="evenodd" clip-rule="evenodd" d="M20.7812 20.3323C20.9822 18.837 20.8967 18.1391 21.7437 16.6147C20.7427 17.9107 20.7641 18.5587 20.5203 20.2866C20.5167 20.3034 20.5167 20.3207 20.5201 20.3376C20.5236 20.3544 20.5305 20.3704 20.5404 20.3846C20.5503 20.3988 20.5631 20.4109 20.5779 20.4203C20.5927 20.4296 20.6093 20.436 20.6267 20.4391C20.644 20.4421 20.6619 20.4417 20.6791 20.438C20.6964 20.4343 20.7127 20.4272 20.7271 20.4173C20.7415 20.4073 20.7537 20.3947 20.763 20.3801C20.7723 20.3655 20.7785 20.3492 20.7812 20.3323Z" fill="url(#paint66_radial_17_3666)"/>
<path fill-rule="evenodd" clip-rule="evenodd" d="M19.0401 21.5743C20.8624 21.8235 21.4698 21.8609 23.1595 21.2129C21.4912 21.5493 20.8795 21.6283 19.1 21.325C19.066 21.3175 19.0303 21.3234 19.0006 21.3413C18.971 21.3591 18.9498 21.3876 18.9417 21.4206C18.9373 21.437 18.9363 21.454 18.9389 21.4708C18.9415 21.4875 18.9476 21.5036 18.9568 21.518C18.966 21.5323 18.9782 21.5448 18.9925 21.5544C19.0068 21.5641 19.023 21.5709 19.0401 21.5743Z" fill="url(#paint67_radial_17_3666)"/>
<path fill-rule="evenodd" clip-rule="evenodd" d="M17.8982 22.1142C17.9582 21.0178 18.3348 19.9598 18.9847 19.0613C18.0008 20.1039 17.8468 20.6895 17.6372 22.0686C17.6331 22.1019 17.6417 22.1355 17.6614 22.163C17.6812 22.1906 17.7106 22.2102 17.7442 22.2181C17.7614 22.2217 17.7791 22.2218 17.7964 22.2185C17.8136 22.2151 17.83 22.2083 17.8444 22.1986C17.8588 22.1889 17.8711 22.1764 17.8803 22.1619C17.8896 22.1473 17.8956 22.1311 17.8982 22.1142Z" fill="url(#paint68_radial_17_3666)"/>
<path fill-rule="evenodd" clip-rule="evenodd" d="M16.7988 22.646C17.5798 23.1815 18.5454 23.3991 19.4895 23.2524C18.5673 23.2939 17.6592 23.0205 16.9228 22.4799C16.9 22.4674 16.873 22.4638 16.8476 22.47C16.8221 22.4762 16.8001 22.4916 16.786 22.5131C16.7788 22.5237 16.774 22.5356 16.7716 22.548C16.7693 22.5605 16.7695 22.5733 16.7723 22.5856C16.7751 22.598 16.7804 22.6097 16.7879 22.6201C16.7953 22.6304 16.8049 22.6392 16.8159 22.646H16.7988Z" fill="url(#paint69_radial_17_3666)"/>
<path fill-rule="evenodd" clip-rule="evenodd" d="M10.9511 9.64478V10.5752H10.9254C10.7711 10.5752 10.6231 10.6347 10.514 10.7407C10.4049 10.8466 10.3436 10.9903 10.3436 11.1401V15.4059C10.3436 15.5561 10.4048 15.7003 10.5138 15.8069C10.6227 15.9135 10.7707 15.9739 10.9254 15.975H10.9511V16.9137H7.17383V15.9833C7.32926 15.9833 7.47832 15.9233 7.58823 15.8166C7.69813 15.7099 7.75987 15.5652 7.75987 15.4142V11.1401C7.75988 11.0656 7.74469 10.9918 7.71518 10.923C7.68568 10.8541 7.64245 10.7917 7.58797 10.7392C7.5335 10.6867 7.46885 10.6451 7.39777 10.617C7.32669 10.5889 7.25059 10.5747 7.17383 10.5752V9.64478H10.9511Z" fill="#BF6019"/>
<path fill-rule="evenodd" clip-rule="evenodd" d="M7.16943 9.64062L9.06019 10.0145L10.9509 9.64062H7.16943Z" fill="url(#paint70_radial_17_3666)"/>
<path fill-rule="evenodd" clip-rule="evenodd" d="M7.16943 16.9014L9.06019 16.5317L10.9509 16.9014H7.16943Z" fill="url(#paint71_radial_17_3666)"/>
<path fill-rule="evenodd" clip-rule="evenodd" d="M7.17383 16.9137L9.06031 16.5399V10.0145L7.17383 9.64478V10.5752C7.25059 10.5747 7.32669 10.5889 7.39777 10.617C7.46885 10.6451 7.5335 10.6867 7.58797 10.7392C7.64245 10.7917 7.68568 10.8541 7.71518 10.923C7.74469 10.9918 7.75988 11.0656 7.75987 11.1401V15.4059C7.75987 15.5569 7.69813 15.7016 7.58823 15.8083C7.47832 15.915 7.32926 15.975 7.17383 15.975V16.9137Z" fill="url(#paint72_linear_17_3666)"/>
<path fill-rule="evenodd" clip-rule="evenodd" d="M10.9508 16.9137L9.06006 16.5399V10.0145L10.9508 9.64478V10.5752H10.9251C10.7709 10.5752 10.6229 10.6347 10.5138 10.7407C10.4047 10.8466 10.3434 10.9903 10.3434 11.1401V15.4059C10.3434 15.5561 10.4045 15.7003 10.5135 15.8069C10.6225 15.9135 10.7705 15.9739 10.9251 15.975H10.9508V16.9137Z" fill="url(#paint73_linear_17_3666)"/>
<path style="mix-blend-mode:screen" fill-rule="evenodd" clip-rule="evenodd" d="M7.36621 16.864L8.69658 16.5442C8.76879 16.5264 8.83316 16.4865 8.88016 16.4304C8.92717 16.3743 8.9543 16.3049 8.95752 16.2327L9.06019 14.0894L9.14575 16.241C9.1475 16.3118 9.17251 16.3802 9.21715 16.4363C9.26178 16.4923 9.3237 16.533 9.39385 16.5525L9.8644 16.6896L9.58635 16.6563C9.23763 16.6148 8.88452 16.6232 8.53831 16.6813L7.36621 16.864Z" fill="url(#paint74_radial_17_3666)"/>
<path style="mix-blend-mode:screen" fill-rule="evenodd" clip-rule="evenodd" d="M7.36621 9.68213L8.69658 10.002C8.76981 10.0193 8.83509 10.0597 8.88227 10.1168C8.92946 10.1739 8.95591 10.2445 8.95752 10.3176L9.06019 13.8317L9.14575 10.3052C9.1475 10.2344 9.17251 10.1659 9.21715 10.1099C9.26178 10.0538 9.3237 10.0131 9.39385 9.99366L9.8644 9.85658L9.58635 9.88981C9.23784 9.93273 8.88473 9.92573 8.53831 9.86904L7.36621 9.68213Z" fill="url(#paint75_radial_17_3666)"/>
<path fill-rule="evenodd" clip-rule="evenodd" d="M14.8905 9.64478V10.5752H14.852C14.6977 10.5752 14.5498 10.6347 14.4407 10.7407C14.3316 10.8466 14.2703 10.9903 14.2703 11.1401V15.4059C14.2703 15.5561 14.3314 15.7003 14.4404 15.8069C14.5494 15.9135 14.6973 15.9739 14.852 15.975H14.8777V16.9137H11.0962V15.9833H11.1219C11.2769 15.9822 11.4254 15.9219 11.535 15.8154C11.6447 15.7089 11.7068 15.5648 11.7079 15.4142V11.1401C11.7068 10.9899 11.6445 10.8462 11.5348 10.7404C11.425 10.6346 11.2765 10.5752 11.1219 10.5752H11.0962V9.64478H14.8905Z" fill="#BF6019"/>
<path fill-rule="evenodd" clip-rule="evenodd" d="M11.1094 9.64062L13.0001 10.0145L14.8909 9.64062H11.1094Z" fill="url(#paint76_radial_17_3666)"/>
<path fill-rule="evenodd" clip-rule="evenodd" d="M11.1094 16.9014L13.0001 16.5317L14.8909 16.9014H11.1094Z" fill="url(#paint77_radial_17_3666)"/>
<path fill-rule="evenodd" clip-rule="evenodd" d="M11.1094 16.9137L13.0001 16.5399V10.0145L11.1094 9.64478V10.5752H11.135C11.2897 10.5752 11.4382 10.6346 11.5479 10.7404C11.6577 10.8462 11.72 10.9899 11.7211 11.1401V15.4059C11.72 15.5565 11.6579 15.7006 11.5482 15.8071C11.4385 15.9136 11.2901 15.9739 11.135 15.975H11.1094V16.9137Z" fill="url(#paint78_linear_17_3666)"/>
<path fill-rule="evenodd" clip-rule="evenodd" d="M14.8908 16.9137L13 16.5399V10.0145L14.8908 9.64478V10.5752H14.8523C14.698 10.5752 14.55 10.6347 14.4409 10.7407C14.3318 10.8466 14.2705 10.9903 14.2705 11.1401V15.4059C14.2705 15.5561 14.3316 15.7003 14.4406 15.8069C14.5496 15.9135 14.6976 15.9739 14.8523 15.975H14.8779V16.9137H14.8908Z" fill="url(#paint79_linear_17_3666)"/>
<path style="mix-blend-mode:screen" fill-rule="evenodd" clip-rule="evenodd" d="M11.3062 16.864L12.6365 16.5442C12.7086 16.5269 12.7728 16.487 12.8192 16.4306C12.8656 16.3743 12.8916 16.3048 12.8932 16.2327L13.0001 14.0894L13.0857 16.241C13.0858 16.3116 13.1097 16.3803 13.1537 16.4365C13.1977 16.4927 13.2595 16.5335 13.3295 16.5525L13.8043 16.6896L13.5263 16.6563C13.1776 16.6147 12.8244 16.6231 12.4782 16.6813L11.3062 16.864Z" fill="url(#paint80_radial_17_3666)"/>
<path style="mix-blend-mode:screen" fill-rule="evenodd" clip-rule="evenodd" d="M11.3062 9.68213L12.6365 10.002C12.7093 10.0195 12.774 10.06 12.8205 10.1171C12.867 10.1743 12.8925 10.2448 12.8932 10.3176L13.0001 13.8317L13.0857 10.3052C13.0865 10.2347 13.1106 10.1664 13.1545 10.1103C13.1985 10.0542 13.2598 10.0133 13.3295 9.99366L13.8043 9.85658L13.5263 9.88981C13.1778 9.93279 12.8247 9.92579 12.4782 9.86904L11.3062 9.68213Z" fill="url(#paint81_radial_17_3666)"/>
<path fill-rule="evenodd" clip-rule="evenodd" d="M18.8303 9.64478V10.5752H18.8047C18.65 10.5752 18.5016 10.6346 18.3918 10.7404C18.282 10.8462 18.2197 10.9899 18.2186 11.1401V15.4059C18.2197 15.5565 18.2818 15.7006 18.3915 15.8071C18.5012 15.9136 18.6496 15.9739 18.8047 15.975H18.8303V16.9137H15.0488V15.9833H15.0745C15.2292 15.9822 15.3771 15.9218 15.4861 15.8152C15.5951 15.7086 15.6563 15.5645 15.6563 15.4142V11.1401C15.6563 11.0659 15.6412 10.9925 15.612 10.9239C15.5827 10.8554 15.5399 10.7931 15.4859 10.7407C15.4318 10.6882 15.3677 10.6466 15.2971 10.6182C15.2265 10.5898 15.1509 10.5752 15.0745 10.5752H15.0488V9.64478H18.8303Z" fill="#BF6019"/>
<path fill-rule="evenodd" clip-rule="evenodd" d="M15.0488 9.64062L16.9396 10.0145L18.8261 9.64062H15.0488Z" fill="url(#paint82_radial_17_3666)"/>
<path fill-rule="evenodd" clip-rule="evenodd" d="M15.0488 16.9014L16.9396 16.5317L18.8261 16.9014H15.0488Z" fill="url(#paint83_radial_17_3666)"/>
<path fill-rule="evenodd" clip-rule="evenodd" d="M15.0488 16.9137L16.9396 16.5399V10.0145L15.0488 9.64478V10.5752H15.0745C15.2288 10.5752 15.3768 10.6347 15.4859 10.7407C15.595 10.8466 15.6563 10.9903 15.6563 11.1401V15.4059C15.6563 15.5561 15.5951 15.7003 15.4861 15.8069C15.3771 15.9135 15.2292 15.9739 15.0745 15.975H15.0488V16.9137Z" fill="url(#paint84_linear_17_3666)"/>
<path fill-rule="evenodd" clip-rule="evenodd" d="M18.8307 16.9137L16.9399 16.5399V10.0145L18.8307 9.64478V10.5752H18.805C18.6503 10.5752 18.5019 10.6346 18.3921 10.7404C18.2823 10.8462 18.2201 10.9899 18.219 11.1401V15.4059C18.2201 15.5565 18.2822 15.7006 18.3919 15.8071C18.5015 15.9136 18.6499 15.9739 18.805 15.975H18.8307V16.9137Z" fill="url(#paint85_linear_17_3666)"/>
<path style="mix-blend-mode:screen" fill-rule="evenodd" clip-rule="evenodd" d="M15.2456 16.864L16.5717 16.5442C16.6442 16.527 16.709 16.4873 16.7561 16.431C16.8032 16.3748 16.8301 16.3051 16.8326 16.2327L16.9396 14.0894L17.0251 16.241C17.0253 16.3116 17.0491 16.3803 17.0932 16.4365C17.1372 16.4927 17.1989 16.5335 17.269 16.5525L17.7438 16.6896L17.4615 16.6563C17.1142 16.6148 16.7625 16.6232 16.4177 16.6813L15.2456 16.864Z" fill="url(#paint86_radial_17_3666)"/>
<path style="mix-blend-mode:screen" fill-rule="evenodd" clip-rule="evenodd" d="M15.2456 9.68213L16.5717 10.002C16.6453 10.0187 16.711 10.0589 16.7583 10.1161C16.8056 10.1733 16.8318 10.2443 16.8326 10.3176L16.9396 13.8317L17.0251 10.3052C17.0259 10.2347 17.0501 10.1664 17.094 10.1103C17.1379 10.0542 17.1993 10.0133 17.269 9.99366L17.7438 9.85658L17.4615 9.88981C17.1144 9.93275 16.7627 9.92575 16.4177 9.86904L15.2456 9.68213Z" fill="url(#paint87_radial_17_3666)"/>
<defs>
<linearGradient id="paint0_linear_17_3666" x1="13.0002" y1="32.0001" x2="13.0002" y2="22.3884" gradientUnits="userSpaceOnUse">
<stop stop-color="#81D106"/>
<stop offset="0.47" stop-color="#4D9100"/>
<stop offset="0.84" stop-color="#315C00"/>
</linearGradient>
<radialGradient id="paint1_radial_17_3666" cx="0" cy="0" r="1" gradientUnits="userSpaceOnUse" gradientTransform="translate(10.2026 28.756) scale(10.2708 9.973)">
<stop stop-color="#F59040"/>
<stop offset="0.63" stop-color="#994100"/>
<stop offset="0.71" stop-color="#A84E0A"/>
<stop offset="0.86" stop-color="#CE6F25"/>
<stop offset="1" stop-color="#F59040"/>
</radialGradient>
<radialGradient id="paint2_radial_17_3666" cx="0" cy="0" r="1" gradientUnits="userSpaceOnUse" gradientTransform="translate(9.80883 9.11321) scale(14.001 13.595)">
<stop stop-color="#9FD819"/>
<stop offset="0.7" stop-color="#208500"/>
<stop offset="1" stop-color="#114D2C"/>
</radialGradient>
<radialGradient id="paint3_radial_17_3666" cx="0" cy="0" r="1" gradientUnits="userSpaceOnUse" gradientTransform="translate(13 13.2628) scale(8.48272 8.23676)">
<stop offset="0.91" stop-color="white"/>
<stop offset="0.92" stop-color="#F8FAF7"/>
<stop offset="0.94" stop-color="#E4ECE2"/>
<stop offset="0.96" stop-color="#C4D5BF"/>
<stop offset="0.98" stop-color="#97B590"/>
<stop offset="1" stop-color="#6F9965"/>
</radialGradient>
<linearGradient id="paint4_linear_17_3666" x1="12.9999" y1="23.2524" x2="12.9999" y2="3.29395" gradientUnits="userSpaceOnUse">
<stop stop-color="#853E05"/>
<stop offset="0.21" stop-color="#914506"/>
<stop offset="0.47" stop-color="#9D4B06"/>
<stop offset="0.63" stop-color="#BD661E"/>
<stop offset="0.88" stop-color="#ED8E41"/>
<stop offset="1" stop-color="#FF9E4F"/>
</linearGradient>
<linearGradient id="paint5_linear_17_3666" x1="13" y1="22.3926" x2="13" y2="4.15379" gradientUnits="userSpaceOnUse">
<stop stop-color="#ED7615"/>
<stop offset="0.15" stop-color="#DB6C12"/>
<stop offset="0.45" stop-color="#AB5309"/>
<stop offset="0.53" stop-color="#9D4B06"/>
<stop offset="0.79" stop-color="#914506"/>
<stop offset="1" stop-color="#853E05"/>
</linearGradient>
<radialGradient id="paint6_radial_17_3666" cx="0" cy="0" r="1" gradientUnits="userSpaceOnUse" gradientTransform="translate(6.3568 7.3978) scale(12.5551 12.1911)">
<stop stop-color="#DC7C2D"/>
<stop offset="1" stop-color="#000200"/>
</radialGradient>
<radialGradient id="paint7_radial_17_3666" cx="0" cy="0" r="1" gradientUnits="userSpaceOnUse" gradientTransform="translate(19.3698 20.4319) scale(13.1454 12.7643)">
<stop stop-color="#C45900"/>
<stop offset="1" stop-color="#000200"/>
</radialGradient>
<radialGradient id="paint8_radial_17_3666" cx="0" cy="0" r="1" gradientUnits="userSpaceOnUse" gradientTransform="translate(13.4536 0.307373) scale(11.5798 11.244)">
<stop stop-color="#FFDBBF"/>
<stop offset="1" stop-color="#F27913"/>
</radialGradient>
<radialGradient id="paint9_radial_17_3666" cx="0" cy="0" r="1" gradientUnits="userSpaceOnUse" gradientTransform="translate(12.7262 0.34891) scale(10.2879 9.98961)">
<stop stop-color="#D46E1B"/>
<stop offset="1" stop-color="#984F12"/>
</radialGradient>
<radialGradient id="paint10_radial_17_3666" cx="0" cy="0" r="1" gradientUnits="userSpaceOnUse" gradientTransform="translate(25.9401 8.2907) scale(12.1445 11.7923)">
<stop stop-color="#D46E1B"/>
<stop offset="1" stop-color="#984F12"/>
</radialGradient>
<radialGradient id="paint11_radial_17_3666" cx="0" cy="0" r="1" gradientUnits="userSpaceOnUse" gradientTransform="translate(21.3204 5.28354) scale(10.0612 9.76947)">
<stop stop-color="#914100"/>
<stop offset="1" stop-color="#612C00"/>
</radialGradient>
<radialGradient id="paint12_radial_17_3666" cx="0" cy="0" r="1" gradientUnits="userSpaceOnUse" gradientTransform="translate(22.2825 22.5545) scale(10.9681 10.65)">
<stop stop-color="#D46E1B"/>
<stop offset="1" stop-color="#984F12"/>
</radialGradient>
<radialGradient id="paint13_radial_17_3666" cx="0" cy="0" r="1" gradientUnits="userSpaceOnUse" gradientTransform="translate(27.0649 22.7289) scale(11.2675 10.9408)">
<stop stop-color="#D46E1B"/>
<stop offset="1" stop-color="#984F12"/>
</radialGradient>
<radialGradient id="paint14_radial_17_3666" cx="0" cy="0" r="1" gradientUnits="userSpaceOnUse" gradientTransform="translate(2.76328 16.0457) scale(9.76176 9.47871)">
<stop stop-color="#D46E1B"/>
<stop offset="1" stop-color="#984F12"/>
</radialGradient>
<radialGradient id="paint15_radial_17_3666" cx="0" cy="0" r="1" gradientUnits="userSpaceOnUse" gradientTransform="translate(0.205204 15.9169) scale(10.6858 10.3759)">
<stop stop-color="#FFA963"/>
<stop offset="1" stop-color="#C96410"/>
</radialGradient>
<radialGradient id="paint16_radial_17_3666" cx="0" cy="0" r="1" gradientUnits="userSpaceOnUse" gradientTransform="translate(5.13327 7.41022) scale(11.9348 11.5888)">
<stop stop-color="#D46E1B"/>
<stop offset="1" stop-color="#984F12"/>
</radialGradient>
<radialGradient id="paint17_radial_17_3666" cx="0" cy="0" r="1" gradientUnits="userSpaceOnUse" gradientTransform="translate(2.26292 6.434) scale(7.3363 7.12357)">
<stop stop-color="#FFDBBF"/>
<stop offset="1" stop-color="#F27913"/>
</radialGradient>
<radialGradient id="paint18_radial_17_3666" cx="0" cy="0" r="1" gradientUnits="userSpaceOnUse" gradientTransform="translate(12.1017 5.82771) scale(6.41661 6.23053)">
<stop stop-color="#DC7C2D"/>
<stop offset="1" stop-color="#000200"/>
</radialGradient>
<radialGradient id="paint19_radial_17_3666" cx="0" cy="0" r="1" gradientUnits="userSpaceOnUse" gradientTransform="translate(4.95359 8.09959) scale(8.32018 8.0789)">
<stop stop-color="#DC7C2D"/>
<stop offset="1" stop-color="#000200"/>
</radialGradient>
<radialGradient id="paint20_radial_17_3666" cx="0" cy="0" r="1" gradientUnits="userSpaceOnUse" gradientTransform="translate(19.4549 20.3363) scale(7.36194 7.1485)">
<stop stop-color="#DC7C2D"/>
<stop offset="1" stop-color="#000200"/>
</radialGradient>
<radialGradient id="paint21_radial_17_3666" cx="0" cy="0" r="1" gradientUnits="userSpaceOnUse" gradientTransform="translate(22.92 27.701) scale(11.1606 10.837)">
<stop stop-color="#914100"/>
<stop offset="1" stop-color="#612C00"/>
</radialGradient>
<radialGradient id="paint22_radial_17_3666" cx="0" cy="0" r="1" gradientUnits="userSpaceOnUse" gradientTransform="translate(5.63396 26.6376) scale(8.85916 8.60228)">
<stop stop-color="#FFA963"/>
<stop offset="1" stop-color="#C96410"/>
</radialGradient>
<radialGradient id="paint23_radial_17_3666" cx="0" cy="0" r="1" gradientUnits="userSpaceOnUse" gradientTransform="translate(25.3158 18.2514) scale(8.42712 8.18276)">
<stop stop-color="#D46E1B"/>
<stop offset="1" stop-color="#984F12"/>
</radialGradient>
<radialGradient id="paint24_radial_17_3666" cx="0" cy="0" r="1" gradientUnits="userSpaceOnUse" gradientTransform="translate(26.7355 11.352) scale(10.1553 9.86085)">
<stop stop-color="#914100"/>
<stop offset="1" stop-color="#612C00"/>
</radialGradient>
<radialGradient id="paint25_radial_17_3666" cx="0" cy="0" r="1" gradientUnits="userSpaceOnUse" gradientTransform="translate(26.4276 -1.20879) scale(14.3004 13.8858)">
<stop stop-color="#FFA963"/>
<stop offset="1" stop-color="#C96410"/>
</radialGradient>
<radialGradient id="paint26_radial_17_3666" cx="0" cy="0" r="1" gradientUnits="userSpaceOnUse" gradientTransform="translate(11.1689 5.63234) scale(10.4034 10.1018)">
<stop stop-color="#D46E1B"/>
<stop offset="1" stop-color="#984F12"/>
</radialGradient>
<radialGradient id="paint27_radial_17_3666" cx="0" cy="0" r="1" gradientUnits="userSpaceOnUse" gradientTransform="translate(7.90106 0.498379) scale(12.9316 12.5566)">
<stop stop-color="#E68333"/>
<stop offset="1" stop-color="#A3510C"/>
</radialGradient>
<radialGradient id="paint28_radial_17_3666" cx="0" cy="0" r="1" gradientUnits="userSpaceOnUse" gradientTransform="translate(6.18155 3.30627) scale(10.7542 10.4424)">
<stop stop-color="#FFDBBF"/>
<stop offset="1" stop-color="#F27913"/>
</radialGradient>
<radialGradient id="paint29_radial_17_3666" cx="0" cy="0" r="1" gradientUnits="userSpaceOnUse" gradientTransform="translate(5.46261 12.4568) scale(8.62389 8.37383)">
<stop stop-color="#D46E1B"/>
<stop offset="1" stop-color="#984F12"/>
</radialGradient>
<radialGradient id="paint30_radial_17_3666" cx="0" cy="0" r="1" gradientUnits="userSpaceOnUse" gradientTransform="translate(0.727171 22.1891) scale(11.7595 11.4185)">
<stop stop-color="#FFA963"/>
<stop offset="1" stop-color="#C96410"/>
</radialGradient>
<radialGradient id="paint31_radial_17_3666" cx="0" cy="0" r="1" gradientUnits="userSpaceOnUse" gradientTransform="translate(9.69356 3.43923) scale(7.22508 7.01558)">
<stop stop-color="#DC7C2D"/>
<stop offset="1" stop-color="#000200"/>
</radialGradient>
<radialGradient id="paint32_radial_17_3666" cx="0" cy="0" r="1" gradientUnits="userSpaceOnUse" gradientTransform="translate(27.4761 14.1558) scale(8.40144 8.15785)">
<stop stop-color="#DC7C2D"/>
<stop offset="1" stop-color="#000200"/>
</radialGradient>
<radialGradient id="paint33_radial_17_3666" cx="0" cy="0" r="1" gradientUnits="userSpaceOnUse" gradientTransform="translate(16.0158 25.8484) scale(6.947 6.74559)">
<stop stop-color="#DC7C2D"/>
<stop offset="1" stop-color="#000200"/>
</radialGradient>
<radialGradient id="paint34_radial_17_3666" cx="0" cy="0" r="1" gradientUnits="userSpaceOnUse" gradientTransform="translate(22.7491 12.7767) rotate(180) scale(4.74399 4.60644)">
<stop stop-color="#FFA359"/>
<stop offset="1" stop-color="#BA6116"/>
</radialGradient>
<radialGradient id="paint35_radial_17_3666" cx="0" cy="0" r="1" gradientUnits="userSpaceOnUse" gradientTransform="translate(22.0518 14.488) rotate(180) scale(3.58901 3.48494)">
<stop stop-color="white"/>
<stop offset="0.11" stop-color="#FBF8F7"/>
<stop offset="0.28" stop-color="#EFE5E2"/>
<stop offset="0.49" stop-color="#DCC7BF"/>
<stop offset="0.73" stop-color="#C19C8F"/>
<stop offset="1" stop-color="#9E6551"/>
</radialGradient>
<radialGradient id="paint36_radial_17_3666" cx="0" cy="0" r="1" gradientUnits="userSpaceOnUse" gradientTransform="translate(16.1826 11.0198) scale(14.4929 14.0727)">
<stop stop-color="#FF9139"/>
<stop offset="1" stop-color="#A3510C"/>
</radialGradient>
<radialGradient id="paint37_radial_17_3666" cx="0" cy="0" r="1" gradientUnits="userSpaceOnUse" gradientTransform="translate(2.07051 12.8057) scale(4.74399 4.60644)">
<stop stop-color="#FFAD6E"/>
<stop offset="1" stop-color="#DB6502"/>
</radialGradient>
<radialGradient id="paint38_radial_17_3666" cx="0" cy="0" r="1" gradientUnits="userSpaceOnUse" gradientTransform="translate(3.16133 14.3675) scale(3.58901 3.48494)">
<stop stop-color="white"/>
<stop offset="0.11" stop-color="#FBF8F7"/>
<stop offset="0.28" stop-color="#EFE5E2"/>
<stop offset="0.49" stop-color="#DCC7BF"/>
<stop offset="0.73" stop-color="#C19C8F"/>
<stop offset="1" stop-color="#9E6551"/>
</radialGradient>
<radialGradient id="paint39_radial_17_3666" cx="0" cy="0" r="1" gradientUnits="userSpaceOnUse" gradientTransform="translate(5.57797 15.269) scale(12.8503 12.4777)">
<stop stop-color="#F79A52"/>
<stop offset="1" stop-color="#A14900"/>
</radialGradient>
<radialGradient id="paint40_radial_17_3666" cx="0" cy="0" r="1" gradientUnits="userSpaceOnUse" gradientTransform="translate(0.992294 16.8764) scale(4.17934 4.05815)">
<stop stop-color="#FFAD6E"/>
<stop offset="1" stop-color="#DB6502"/>
</radialGradient>
<radialGradient id="paint41_radial_17_3666" cx="0" cy="0" r="1" gradientUnits="userSpaceOnUse" gradientTransform="translate(4.38026 16.2202) scale(5.21883 5.0675)">
<stop stop-color="#FFAD6E"/>
<stop offset="1" stop-color="#DB6502"/>
</radialGradient>
<radialGradient id="paint42_radial_17_3666" cx="0" cy="0" r="1" gradientUnits="userSpaceOnUse" gradientTransform="translate(3.47353 20.2533) scale(4.93221 4.7892)">
<stop stop-color="#FFAD6E"/>
<stop offset="1" stop-color="#DB6502"/>
</radialGradient>
<radialGradient id="paint43_radial_17_3666" cx="0" cy="0" r="1" gradientUnits="userSpaceOnUse" gradientTransform="translate(7.18228 18.538) scale(3.8799 3.76739)">
<stop stop-color="#FFAD6E"/>
<stop offset="1" stop-color="#DB6502"/>
</radialGradient>
<radialGradient id="paint44_radial_17_3666" cx="0" cy="0" r="1" gradientUnits="userSpaceOnUse" gradientTransform="translate(6.00155 21.3791) scale(4.18361 4.06231)">
<stop stop-color="#FFAD6E"/>
<stop offset="1" stop-color="#DB6502"/>
</radialGradient>
<radialGradient id="paint45_radial_17_3666" cx="0" cy="0" r="1" gradientUnits="userSpaceOnUse" gradientTransform="translate(2.90444 16.6397) scale(4.03389 3.91693)">
<stop stop-color="white"/>
<stop offset="0.11" stop-color="#FBF8F7"/>
<stop offset="0.28" stop-color="#EFE5E2"/>
<stop offset="0.49" stop-color="#DCC7BF"/>
<stop offset="0.73" stop-color="#C19C8F"/>
<stop offset="1" stop-color="#9E6551"/>
</radialGradient>
<radialGradient id="paint46_radial_17_3666" cx="0" cy="0" r="1" gradientUnits="userSpaceOnUse" gradientTransform="translate(4.84229 19.7175) scale(3.33235 3.23572)">
<stop stop-color="white"/>
<stop offset="0.11" stop-color="#FBF8F7"/>
<stop offset="0.28" stop-color="#EFE5E2"/>
<stop offset="0.49" stop-color="#DCC7BF"/>
<stop offset="0.73" stop-color="#C19C8F"/>
<stop offset="1" stop-color="#9E6551"/>
</radialGradient>
<radialGradient id="paint47_radial_17_3666" cx="0" cy="0" r="1" gradientUnits="userSpaceOnUse" gradientTransform="translate(7.09665 21.3209) scale(3.23396 3.14019)">
<stop stop-color="white"/>
<stop offset="0.11" stop-color="#FBF8F7"/>
<stop offset="0.28" stop-color="#EFE5E2"/>
<stop offset="0.49" stop-color="#DCC7BF"/>
<stop offset="0.73" stop-color="#C19C8F"/>
<stop offset="1" stop-color="#9E6551"/>
</radialGradient>
<radialGradient id="paint48_radial_17_3666" cx="0" cy="0" r="1" gradientUnits="userSpaceOnUse" gradientTransform="translate(8.89766 19.3646) scale(3.59329 3.48909)">
<stop stop-color="white"/>
<stop offset="0.11" stop-color="#FBF8F7"/>
<stop offset="0.28" stop-color="#EFE5E2"/>
<stop offset="0.49" stop-color="#DCC7BF"/>
<stop offset="0.73" stop-color="#C19C8F"/>
<stop offset="1" stop-color="#9E6551"/>
</radialGradient>
<radialGradient id="paint49_radial_17_3666" cx="0" cy="0" r="1" gradientUnits="userSpaceOnUse" gradientTransform="translate(6.70333 17.4871) scale(4.23924 4.11631)">
<stop stop-color="white"/>
<stop offset="0.11" stop-color="#FBF8F7"/>
<stop offset="0.28" stop-color="#EFE5E2"/>
<stop offset="0.49" stop-color="#DCC7BF"/>
<stop offset="0.73" stop-color="#C19C8F"/>
<stop offset="1" stop-color="#9E6551"/>
</radialGradient>
<radialGradient id="paint50_radial_17_3666" cx="0" cy="0" r="1" gradientUnits="userSpaceOnUse" gradientTransform="translate(2.39553 18.1059) scale(5.83054 5.66147)">
<stop stop-color="#F79A52"/>
<stop offset="1" stop-color="#A14900"/>
</radialGradient>
<radialGradient id="paint51_radial_17_3666" cx="0" cy="0" r="1" gradientUnits="userSpaceOnUse" gradientTransform="translate(4.55151 17.0218) scale(7.18658 6.9782)">
<stop stop-color="#F79A52"/>
<stop offset="1" stop-color="#A14900"/>
</radialGradient>
<radialGradient id="paint52_radial_17_3666" cx="0" cy="0" r="1" gradientUnits="userSpaceOnUse" gradientTransform="translate(3.99532 20.4154) scale(6.01448 5.84007)">
<stop stop-color="#F79A52"/>
<stop offset="1" stop-color="#A14900"/>
</radialGradient>
<radialGradient id="paint53_radial_17_3666" cx="0" cy="0" r="1" gradientUnits="userSpaceOnUse" gradientTransform="translate(7.34892 19.5099) scale(5.12043 4.97196)">
<stop stop-color="#F79A52"/>
<stop offset="1" stop-color="#A14900"/>
</radialGradient>
<radialGradient id="paint54_radial_17_3666" cx="0" cy="0" r="1" gradientUnits="userSpaceOnUse" gradientTransform="translate(6.19431 23.7383) scale(5.52682 5.36655)">
<stop stop-color="#F79A52"/>
<stop offset="1" stop-color="#A14900"/>
</radialGradient>
<radialGradient id="paint55_radial_17_3666" cx="0" cy="0" r="1" gradientUnits="userSpaceOnUse" gradientTransform="translate(25.0121 16.8764) rotate(180) scale(4.17934 4.05815)">
<stop stop-color="#FFA359"/>
<stop offset="1" stop-color="#BA6116"/>
</radialGradient>
<radialGradient id="paint56_radial_17_3666" cx="0" cy="0" r="1" gradientUnits="userSpaceOnUse" gradientTransform="translate(19.6775 16.1579) rotate(180) scale(5.21882 5.0675)">
<stop stop-color="#FFA359"/>
<stop offset="1" stop-color="#BA6116"/>
</radialGradient>
<radialGradient id="paint57_radial_17_3666" cx="0" cy="0" r="1" gradientUnits="userSpaceOnUse" gradientTransform="translate(22.5267 20.2533) rotate(180) scale(4.93222 4.7892)">
<stop stop-color="#FFA359"/>
<stop offset="1" stop-color="#BA6116"/>
</radialGradient>
<radialGradient id="paint58_radial_17_3666" cx="0" cy="0" r="1" gradientUnits="userSpaceOnUse" gradientTransform="translate(16.9655 18.0977) rotate(180) scale(3.8799 3.76739)">
<stop stop-color="#FFA359"/>
<stop offset="1" stop-color="#BA6116"/>
</radialGradient>
<radialGradient id="paint59_radial_17_3666" cx="0" cy="0" r="1" gradientUnits="userSpaceOnUse" gradientTransform="translate(19.9986 21.3791) rotate(180) scale(4.18361 4.06231)">
<stop stop-color="#FFA359"/>
<stop offset="1" stop-color="#BA6116"/>
</radialGradient>
<radialGradient id="paint60_radial_17_3666" cx="0" cy="0" r="1" gradientUnits="userSpaceOnUse" gradientTransform="translate(22.856 16.1703) rotate(180) scale(4.03389 3.91693)">
<stop stop-color="white"/>
<stop offset="0.11" stop-color="#FBF8F7"/>
<stop offset="0.28" stop-color="#EFE5E2"/>
<stop offset="0.49" stop-color="#DCC7BF"/>
<stop offset="0.73" stop-color="#C19C8F"/>
<stop offset="1" stop-color="#9E6551"/>
</radialGradient>
<radialGradient id="paint61_radial_17_3666" cx="0" cy="0" r="1" gradientUnits="userSpaceOnUse" gradientTransform="translate(21.0078 19.4226) rotate(180) scale(3.33234 3.23572)">
<stop stop-color="white"/>
<stop offset="0.11" stop-color="#FBF8F7"/>
<stop offset="0.28" stop-color="#EFE5E2"/>
<stop offset="0.49" stop-color="#DCC7BF"/>
<stop offset="0.73" stop-color="#C19C8F"/>
<stop offset="1" stop-color="#9E6551"/>
</radialGradient>
<radialGradient id="paint62_radial_17_3666" cx="0" cy="0" r="1" gradientUnits="userSpaceOnUse" gradientTransform="translate(18.9377 21.026) rotate(180) scale(3.23396 3.14019)">
<stop stop-color="white"/>
<stop offset="0.11" stop-color="#FBF8F7"/>
<stop offset="0.28" stop-color="#EFE5E2"/>
<stop offset="0.49" stop-color="#DCC7BF"/>
<stop offset="0.73" stop-color="#C19C8F"/>
<stop offset="1" stop-color="#9E6551"/>
</radialGradient>
<radialGradient id="paint63_radial_17_3666" cx="0" cy="0" r="1" gradientUnits="userSpaceOnUse" gradientTransform="translate(16.4393 19.5141) rotate(180) scale(3.59329 3.48909)">
<stop stop-color="white"/>
<stop offset="0.11" stop-color="#FBF8F7"/>
<stop offset="0.28" stop-color="#EFE5E2"/>
<stop offset="0.49" stop-color="#DCC7BF"/>
<stop offset="0.73" stop-color="#C19C8F"/>
<stop offset="1" stop-color="#9E6551"/>
</radialGradient>
<radialGradient id="paint64_radial_17_3666" cx="0" cy="0" r="1" gradientUnits="userSpaceOnUse" gradientTransform="translate(18.5996 17.3085) rotate(180) scale(4.23922 4.11631)">
<stop stop-color="white"/>
<stop offset="0.11" stop-color="#FBF8F7"/>
<stop offset="0.28" stop-color="#EFE5E2"/>
<stop offset="0.49" stop-color="#DCC7BF"/>
<stop offset="0.73" stop-color="#C19C8F"/>
<stop offset="1" stop-color="#9E6551"/>
</radialGradient>
<radialGradient id="paint65_radial_17_3666" cx="0" cy="0" r="1" gradientUnits="userSpaceOnUse" gradientTransform="translate(23.6088 18.1059) rotate(180) scale(3.98256 3.86708)">
<stop stop-color="#FF9139"/>
<stop offset="1" stop-color="#A3510C"/>
</radialGradient>
<radialGradient id="paint66_radial_17_3666" cx="0" cy="0" r="1" gradientUnits="userSpaceOnUse" gradientTransform="translate(21.4528 17.0218) rotate(180) scale(4.89799 4.75597)">
<stop stop-color="#FF9139"/>
<stop offset="1" stop-color="#A3510C"/>
</radialGradient>
<radialGradient id="paint67_radial_17_3666" cx="0" cy="0" r="1" gradientUnits="userSpaceOnUse" gradientTransform="translate(22.0088 20.4154) rotate(180) scale(4.44884 4.31982)">
<stop stop-color="#FF9139"/>
<stop offset="1" stop-color="#A3510C"/>
</radialGradient>
<radialGradient id="paint68_radial_17_3666" cx="0" cy="0" r="1" gradientUnits="userSpaceOnUse" gradientTransform="translate(18.6553 19.5099) rotate(180) scale(3.60185 3.49741)">
<stop stop-color="#FF9139"/>
<stop offset="1" stop-color="#A3510C"/>
</radialGradient>
<radialGradient id="paint69_radial_17_3666" cx="0" cy="0" r="1" gradientUnits="userSpaceOnUse" gradientTransform="translate(19.8103 23.7384) rotate(180) scale(4.11944 4)">
<stop stop-color="#FF9139"/>
<stop offset="1" stop-color="#A3510C"/>
</radialGradient>
<radialGradient id="paint70_radial_17_3666" cx="0" cy="0" r="1" gradientUnits="userSpaceOnUse" gradientTransform="translate(7.9822 9.99784) scale(6.48931 6.30115)">
<stop stop-color="#FFDBBF"/>
<stop offset="1" stop-color="#F27913"/>
</radialGradient>
<radialGradient id="paint71_radial_17_3666" cx="0" cy="0" r="1" gradientUnits="userSpaceOnUse" gradientTransform="translate(8.6538 16.2451) scale(4.44455 4.31568)">
<stop stop-color="#914100"/>
<stop offset="1" stop-color="#612C00"/>
</radialGradient>
<linearGradient id="paint72_linear_17_3666" x1="7.17383" y1="13.2751" x2="9.06031" y2="13.2751" gradientUnits="userSpaceOnUse">
<stop stop-color="#F27913"/>
<stop offset="1" stop-color="#FFDBBF"/>
</linearGradient>
<linearGradient id="paint73_linear_17_3666" x1="9.06006" y1="13.2751" x2="10.9508" y2="13.2751" gradientUnits="userSpaceOnUse">
<stop stop-color="#984F12"/>
<stop offset="1" stop-color="#D46E1B"/>
</linearGradient>
<radialGradient id="paint74_radial_17_3666" cx="0" cy="0" r="1" gradientUnits="userSpaceOnUse" gradientTransform="translate(8.72225 16.1911) scale(5.60381 5.44134)">
<stop stop-color="#FF9C30"/>
<stop offset="1"/>
</radialGradient>
<radialGradient id="paint75_radial_17_3666" cx="0" cy="0" r="1" gradientUnits="userSpaceOnUse" gradientTransform="translate(8.82491 10.0809) scale(5.70648 5.54102)">
<stop stop-color="#FF9C30"/>
<stop offset="1"/>
</radialGradient>
<radialGradient id="paint76_radial_17_3666" cx="0" cy="0" r="1" gradientUnits="userSpaceOnUse" gradientTransform="translate(11.9179 9.99784) scale(6.48931 6.30115)">
<stop stop-color="#FFDBBF"/>
<stop offset="1" stop-color="#F27913"/>
</radialGradient>
<radialGradient id="paint77_radial_17_3666" cx="0" cy="0" r="1" gradientUnits="userSpaceOnUse" gradientTransform="translate(12.5937 16.2451) scale(4.44456 4.31568)">
<stop stop-color="#914100"/>
<stop offset="1" stop-color="#612C00"/>
</radialGradient>
<linearGradient id="paint78_linear_17_3666" x1="11.1094" y1="13.2751" x2="13.0001" y2="13.2751" gradientUnits="userSpaceOnUse">
<stop stop-color="#F27913"/>
<stop offset="1" stop-color="#FFDBBF"/>
</linearGradient>
<linearGradient id="paint79_linear_17_3666" x1="13" y1="13.2751" x2="14.8908" y2="13.2751" gradientUnits="userSpaceOnUse">
<stop stop-color="#984F12"/>
<stop offset="1" stop-color="#D46E1B"/>
</linearGradient>
<radialGradient id="paint80_radial_17_3666" cx="0" cy="0" r="1" gradientUnits="userSpaceOnUse" gradientTransform="translate(12.6579 16.1911) scale(5.60381 5.44134)">
<stop stop-color="#FF9C30"/>
<stop offset="1"/>
</radialGradient>
<radialGradient id="paint81_radial_17_3666" cx="0" cy="0" r="1" gradientUnits="userSpaceOnUse" gradientTransform="translate(12.7649 10.0809) scale(5.70648 5.54102)">
<stop stop-color="#FF9C30"/>
<stop offset="1"/>
</radialGradient>
<radialGradient id="paint82_radial_17_3666" cx="0" cy="0" r="1" gradientUnits="userSpaceOnUse" gradientTransform="translate(15.8573 9.99784) scale(6.4893 6.30115)">
<stop stop-color="#FFDBBF"/>
<stop offset="1" stop-color="#F27913"/>
</radialGradient>
<radialGradient id="paint83_radial_17_3666" cx="0" cy="0" r="1" gradientUnits="userSpaceOnUse" gradientTransform="translate(16.5332 16.2451) scale(4.44455 4.31568)">
<stop stop-color="#914100"/>
<stop offset="1" stop-color="#612C00"/>
</radialGradient>
<linearGradient id="paint84_linear_17_3666" x1="15.0488" y1="13.2751" x2="16.9396" y2="13.2751" gradientUnits="userSpaceOnUse">
<stop stop-color="#F27913"/>
<stop offset="1" stop-color="#FFDBBF"/>
</linearGradient>
<linearGradient id="paint85_linear_17_3666" x1="16.9399" y1="13.2751" x2="18.8307" y2="13.2751" gradientUnits="userSpaceOnUse">
<stop stop-color="#984F12"/>
<stop offset="1" stop-color="#D46E1B"/>
</linearGradient>
<radialGradient id="paint86_radial_17_3666" cx="0" cy="0" r="1" gradientUnits="userSpaceOnUse" gradientTransform="translate(16.5974 16.1911) scale(5.60381 5.44134)">
<stop stop-color="#FF9C30"/>
<stop offset="1"/>
</radialGradient>
<radialGradient id="paint87_radial_17_3666" cx="0" cy="0" r="1" gradientUnits="userSpaceOnUse" gradientTransform="translate(16.7043 10.0809) scale(5.70648 5.54102)">
<stop stop-color="#FF9C30"/>
<stop offset="1"/>
</radialGradient>
</defs>
</svg>
