<svg width="19" height="19" viewBox="0 0 19 19" fill="none" xmlns="http://www.w3.org/2000/svg">
  <path d="M10.2917 3.17374C10.2918 2.73651 9.93756 2.38193 9.50033 2.38176C9.06309 2.38159 8.7085 2.7359 8.70834 3.17312L8.70581 9.50918C8.70565 9.94642 9.06 10.301 9.49724 10.3012C9.9344 10.3013 10.289 9.94705 10.2891 9.50982L10.2917 3.17374Z" fill="#F8F8F8"/>
  <path d="M3.16675 10.2851C3.16675 8.53622 3.87561 6.95289 5.02169 5.80678L6.14128 6.92637C5.28173 7.78595 4.75008 8.97346 4.75008 10.2851C4.75008 12.9084 6.87673 15.0351 9.50008 15.0351C12.1234 15.0351 14.2501 12.9084 14.2501 10.2851C14.2501 8.97338 13.7184 7.7859 12.8588 6.92632L13.9784 5.80672C15.1246 6.95284 15.8334 8.53615 15.8334 10.2851C15.8334 13.7829 12.9979 16.6184 9.50008 16.6184C6.00228 16.6184 3.16675 13.7829 3.16675 10.2851Z" fill="#F8F8F8"/>
</svg>
