<svg width="24" height="24" viewBox="0 0 24 24" fill="none" xmlns="http://www.w3.org/2000/svg">
<path d="M12.793 2.29303C12.9805 2.10556 13.2348 2.00024 13.5 2.00024C13.7652 2.00024 14.0195 2.10556 14.207 2.29303L17.207 5.29303C17.3945 5.48056 17.4998 5.73487 17.4998 6.00003C17.4998 6.26519 17.3945 6.5195 17.207 6.70703L14.207 9.70703C14.0184 9.88919 13.7658 9.98998 13.5036 9.9877C13.2414 9.98543 12.9906 9.88026 12.8052 9.69485C12.6198 9.50944 12.5146 9.25863 12.5123 8.99643C12.51 8.73423 12.6108 8.48163 12.793 8.29303L14.086 7.00003H12.5C8.952 7.00003 6 9.95203 6 13.5C6 17.048 8.952 20 12.5 20C16.048 20 19 17.048 19 13.5C19 13.2348 19.1054 12.9805 19.2929 12.7929C19.4804 12.6054 19.7348 12.5 20 12.5C20.2652 12.5 20.5196 12.6054 20.7071 12.7929C20.8946 12.9805 21 13.2348 21 13.5C21 18.152 17.152 22 12.5 22C7.848 22 4 18.152 4 13.5C4 8.84803 7.848 5.00003 12.5 5.00003H14.086L12.793 3.70703C12.6055 3.5195 12.5002 3.26519 12.5002 3.00003C12.5002 2.73487 12.6055 2.48056 12.793 2.29303Z" fill="white"/>
</svg>
