<svg width="50" height="50" viewBox="0 0 50 50" fill="none" xmlns="http://www.w3.org/2000/svg">
  <path fill-rule="evenodd" clip-rule="evenodd" d="M3.479 19.2658C2.10078 19.2658 0.976562 18.3274 0.976562 17.1768V7.47928C0.976562 6.3288 2.10068 5.39032 3.479 5.39032H46.521C47.8992 5.39032 49.0234 6.3288 49.0234 7.47928V17.1769C49.0234 18.3274 47.8992 19.2659 46.521 19.2659H42.5727V13.3047H44.1062C44.6455 13.3047 45.0827 12.8675 45.0827 12.3281C45.0827 11.7888 44.6455 11.3516 44.1062 11.3516H5.89385C5.35449 11.3516 4.91729 11.7888 4.91729 12.3281C4.91729 12.8675 5.35449 13.3047 5.89385 13.3047H7.42734V19.2658H3.479ZM9.38047 13.3047V43.6331C9.38047 44.171 9.81914 44.6097 10.357 44.6097H39.6431C40.1809 44.6097 40.6196 44.171 40.6196 43.6331V13.3047H36.5836V34.886C36.5836 35.4041 36.1807 35.8309 35.6634 35.8608C33.6226 35.9788 31.9888 37.6126 31.8708 39.6534C31.8409 40.1706 31.4141 40.5736 30.896 40.5736H19.1041C18.586 40.5736 18.1592 40.1707 18.1293 39.6534C18.0113 37.6126 16.3774 35.9788 14.3367 35.8608C13.8195 35.8309 13.4165 35.4041 13.4165 34.886V13.3047H9.38047ZM33.3608 21.5628C33.3608 16.9452 29.6176 13.2019 25 13.2019C20.3824 13.2019 16.6392 16.9453 16.6392 21.5628C16.6392 26.1803 20.3824 29.9236 25 29.9236C29.6176 29.9236 33.3608 26.1804 33.3608 21.5628ZM29.6613 20.5661L29.392 20.5725C29.2578 20.1632 29.0434 19.7933 28.7695 19.4867C27.6768 18.263 25.8629 18.2632 24.7701 19.4867C24.2883 20.0263 23.9902 20.761 23.9902 21.5629C23.9902 21.8761 23.8847 22.1509 23.714 22.342C23.5687 22.5047 23.3738 22.6053 23.1639 22.6053C22.9539 22.6053 22.7591 22.5047 22.6138 22.342C22.4431 22.1508 22.3374 21.876 22.3374 21.5629C22.3374 21.3443 22.3716 21.1901 22.4349 21.065C22.5145 20.9076 22.6582 20.7394 22.8453 20.5411C23.214 20.1492 23.1952 19.5326 22.8033 19.164C22.4114 18.7953 21.7948 18.8141 21.4262 19.2059C21.1248 19.5254 20.881 19.8207 20.6953 20.1876C20.6268 20.3231 20.5689 20.4624 20.5224 20.6085L20.2927 20.614C19.7555 20.6266 19.3302 21.0724 19.3428 21.6097C19.3554 22.1469 19.8012 22.5722 20.3384 22.5596L20.542 22.5546C20.6762 22.9634 20.8904 23.3326 21.164 23.639C21.6712 24.2069 22.3779 24.5584 23.1637 24.5584C23.9494 24.5584 24.6562 24.207 25.1634 23.639C25.6452 23.0994 25.9432 22.3646 25.9432 21.5628C25.9432 21.2496 26.0487 20.9748 26.2194 20.7836C26.5353 20.43 27.0042 20.4304 27.3196 20.7836C27.4903 20.9747 27.596 21.2496 27.596 21.5627C27.596 21.7203 27.5691 21.8676 27.5205 21.9991C27.4709 22.1332 27.4022 22.2494 27.3197 22.3419C26.9615 22.7422 26.9957 23.357 27.396 23.7152C27.7963 24.0733 28.4111 24.0392 28.7693 23.639C29.0191 23.3592 29.2185 23.0306 29.3517 22.6706C29.3701 22.6206 29.3874 22.57 29.4034 22.5188L29.707 22.5116C30.2442 22.499 30.6695 22.0532 30.6569 21.516C30.6443 20.9787 30.1986 20.5534 29.6613 20.5661Z" fill="url(#paint0_linear_297_2034)" fill-opacity="0.8"/>
  <defs>
    <linearGradient id="paint0_linear_297_2034" x1="0.976562" y1="24.9953" x2="49.0234" y2="24.9953" gradientUnits="userSpaceOnUse">
      <stop stop-color="#F9DF7B"/>
      <stop offset="0.2" stop-color="#B57E10"/>
      <stop offset="0.26" stop-color="#B78113"/>
      <stop offset="0.32" stop-color="#BE8C1F"/>
      <stop offset="0.38" stop-color="#CB9D32"/>
      <stop offset="0.44" stop-color="#DCB64E"/>
      <stop offset="0.49" stop-color="#F2D570"/>
      <stop offset="0.51" stop-color="#F9DF7B"/>
      <stop offset="0.52" stop-color="#FFF3A6"/>
      <stop offset="0.59" stop-color="#F9DF7B"/>
      <stop offset="0.84" stop-color="#B57E10"/>
      <stop offset="0.95" stop-color="#E5C25B"/>
      <stop offset="1" stop-color="#F9DF7B"/>
    </linearGradient>
  </defs>
</svg>
