<svg width="21" height="21" viewBox="0 0 21 21" fill="none" xmlns="http://www.w3.org/2000/svg">
<path d="M3.28125 11.1562L17.7188 11.1562C18.0817 11.1562 18.375 10.8623 18.375 10.5L18.375 2.625C18.375 2.26275 18.0817 1.96875 17.7188 1.96875L3.28125 1.96875C2.91834 1.96875 2.625 2.26275 2.625 2.625L2.625 10.5C2.625 10.8622 2.91834 11.1562 3.28125 11.1562ZM5.81372 3.28125L15.1863 3.28125C15.4245 4.20066 16.1431 4.91925 17.0625 5.15747L17.0625 7.96819C16.1431 8.20575 15.4245 8.92434 15.1863 9.84375L5.81306 9.84375C5.57484 8.92434 4.85625 8.20575 3.93684 7.96753L3.93684 5.15681C4.85691 4.91925 5.5755 4.20066 5.81372 3.28125Z" fill="white"/>
<path d="M8.53125 6.5625C8.53125 5.47706 9.41456 4.59375 10.5 4.59375C11.5854 4.59375 12.4688 5.47706 12.4688 6.5625C12.4688 7.64794 11.5854 8.53125 10.5 8.53125C9.41456 8.53125 8.53125 7.64794 8.53125 6.5625Z" fill="white"/>
<path d="M7.41115 15.286L10.0362 12.661C10.2921 12.4051 10.7082 12.4051 10.9641 12.661L13.5891 15.286C13.7768 15.4737 13.8332 15.7559 13.7315 16.0013C13.6304 16.2461 13.3902 16.4063 13.1251 16.4063L11.8126 16.4063L11.8126 18.375C11.8126 19.1002 11.2253 19.6875 10.5001 19.6875C9.77496 19.6875 9.18762 19.1002 9.18762 18.375L9.18762 16.4062L7.87512 16.4062C7.61 16.4062 7.36981 16.2461 7.26875 16.0013C7.16703 15.7559 7.22346 15.4737 7.41115 15.286Z" fill="white"/>
</svg>
