<svg width="21" height="21" viewBox="0 0 21 21" fill="none" xmlns="http://www.w3.org/2000/svg">
<path d="M17.7188 9.84375H3.28125C2.91834 9.84375 2.625 10.1377 2.625 10.5V18.375C2.625 18.7373 2.91834 19.0312 3.28125 19.0312H17.7188C18.0817 19.0312 18.375 18.7373 18.375 18.375V10.5C18.375 10.1377 18.0817 9.84375 17.7188 9.84375ZM15.1863 17.7188H5.81372C5.5755 16.7993 4.85691 16.0808 3.9375 15.8425V13.0318C4.85691 12.7942 5.5755 12.0757 5.81372 11.1562H15.1869C15.4252 12.0757 16.1437 12.7942 17.0632 13.0325V15.8432C16.1431 16.0807 15.4245 16.7993 15.1863 17.7188Z" fill="white"/>
<path d="M12.4688 14.4375C12.4688 15.5229 11.5854 16.4062 10.5 16.4062C9.41456 16.4062 8.53125 15.5229 8.53125 14.4375C8.53125 13.3521 9.41456 12.4688 10.5 12.4688C11.5854 12.4688 12.4688 13.3521 12.4688 14.4375Z" fill="white"/>
<path d="M13.5888 5.71397L10.9638 8.33897C10.7079 8.59491 10.2918 8.59491 10.0359 8.33897L7.41091 5.71397C7.22322 5.52628 7.16679 5.24409 7.26851 4.99866C7.36957 4.75387 7.60975 4.59375 7.87488 4.59375H9.18738V2.625C9.18738 1.89984 9.77472 1.3125 10.4999 1.3125C11.225 1.3125 11.8124 1.89984 11.8124 2.625V4.59375H13.1249C13.39 4.59375 13.6302 4.75387 13.7313 4.99866C13.833 5.24409 13.7765 5.52628 13.5888 5.71397Z" fill="white"/>
</svg>
