<svg width="15" height="15" viewBox="0 0 15 15" fill="none" xmlns="http://www.w3.org/2000/svg">
  <path d="M11.1269 7.58494C11.0834 7.54047 11.0315 7.50511 10.9742 7.48091C10.9168 7.45671 10.8553 7.44416 10.7931 7.44399C10.7309 7.44382 10.6693 7.45604 10.6118 7.47992C10.5544 7.50381 10.5023 7.53889 10.4585 7.58312C10.4148 7.62735 10.3803 7.67984 10.357 7.73754C10.3338 7.79524 10.3222 7.85699 10.3231 7.91919C10.324 7.98139 10.3372 8.0428 10.362 8.09983C10.3868 8.15687 10.4228 8.2084 10.4677 8.25141C10.8654 8.64274 11.1809 9.10956 11.3958 9.62449C11.6106 10.1394 11.7204 10.6921 11.7188 11.25C11.7188 11.8233 10.0754 12.6562 7.50002 12.6562C4.92466 12.6562 3.28127 11.8229 3.28127 11.2491C3.27969 10.695 3.38804 10.146 3.60004 9.63409C3.81204 9.12213 4.12348 8.65732 4.51633 8.26655C4.56077 8.22322 4.59616 8.17151 4.62045 8.11441C4.64474 8.0573 4.65745 7.99594 4.65785 7.93389C4.65824 7.87183 4.64631 7.81031 4.62274 7.75291C4.59917 7.6955 4.56444 7.64334 4.52056 7.59946C4.47668 7.55558 4.42452 7.52085 4.36712 7.49728C4.30971 7.47371 4.24819 7.46178 4.18614 7.46218C4.12408 7.46257 4.06272 7.47528 4.00561 7.49957C3.94851 7.52386 3.8968 7.55925 3.85348 7.60369C3.3732 8.08143 2.99248 8.6497 2.73333 9.2756C2.47419 9.90149 2.34178 10.5726 2.34377 11.25C2.34377 12.7723 5.00018 13.5937 7.50002 13.5937C9.99987 13.5937 12.6563 12.7723 12.6563 11.25C12.6584 10.568 12.5241 9.89249 12.2615 9.2631C11.9989 8.63372 11.6131 8.06316 11.1269 7.58494Z" fill="white"/>
  <path d="M7.5 7.96875C8.14897 7.96875 8.78337 7.77631 9.32296 7.41576C9.86256 7.05521 10.2831 6.54275 10.5315 5.94318C10.7798 5.34361 10.8448 4.68386 10.7182 4.04736C10.5916 3.41086 10.2791 2.8262 9.82019 2.36731C9.3613 1.90842 8.77664 1.59591 8.14014 1.4693C7.50364 1.34269 6.84389 1.40767 6.24432 1.65602C5.64475 1.90437 5.13229 2.32494 4.77174 2.86454C4.41119 3.40414 4.21875 4.03853 4.21875 4.6875C4.21975 5.55743 4.56578 6.39145 5.18092 7.00659C5.79605 7.62172 6.63007 7.96775 7.5 7.96875ZM7.5 2.34375C7.96355 2.34375 8.41669 2.48121 8.80212 2.73874C9.18755 2.99628 9.48795 3.36232 9.66534 3.79059C9.84274 4.21885 9.88915 4.6901 9.79872 5.14474C9.70828 5.59939 9.48506 6.017 9.15728 6.34478C8.8295 6.67256 8.41189 6.89578 7.95724 6.98622C7.5026 7.07665 7.03135 7.03024 6.60309 6.85284C6.17482 6.67545 5.80878 6.37505 5.55124 5.98962C5.29371 5.60419 5.15625 5.15105 5.15625 4.6875C5.15698 4.06612 5.40415 3.47041 5.84353 3.03103C6.28291 2.59165 6.87862 2.34448 7.5 2.34375Z" fill="white"/>
</svg>
