<svg width="15" height="15" viewBox="0 0 15 15" fill="none" xmlns="http://www.w3.org/2000/svg">
  <g clip-path="url(#clip0_1_52)">
    <path d="M12.8125 4.02929H2.18751C0.98124 4.02929 0 5.01053 0 6.21677V12.4668C0 13.673 0.98124 14.6543 2.18751 14.6543H12.8125C14.0188 14.6543 15 13.673 15 12.4668V6.21677C15 5.01053 14.0188 4.02929 12.8125 4.02929ZM14.375 12.4668C14.375 13.328 13.6744 14.0293 12.8125 14.0293H2.18751C1.32562 14.0293 0.62502 13.328 0.62502 12.4668V6.21677C0.62502 5.35553 1.32565 4.65428 2.18751 4.65428H12.8125C13.6744 4.65428 14.375 5.35553 14.375 6.21677V12.4668Z" fill="white"/>
    <path d="M12.1875 8.40428C11.6706 8.40428 11.25 8.8249 11.25 9.34178C11.25 9.85867 11.6706 10.2793 12.1875 10.2793C12.7044 10.2793 13.125 9.85867 13.125 9.34178C13.125 8.8249 12.7044 8.40428 12.1875 8.40428ZM12.1875 9.65429C12.0156 9.65429 11.875 9.51428 11.875 9.34178C11.875 9.16928 12.0156 9.02927 12.1875 9.02927C12.3594 9.02927 12.5 9.16928 12.5 9.34178C12.5 9.51428 12.3594 9.65429 12.1875 9.65429Z" fill="white"/>
    <path d="M14.6875 7.15427H12.1875C10.9813 7.15427 10 8.13551 10 9.34178C10 10.548 10.9812 11.5293 12.1875 11.5293H14.6875C14.86 11.5293 15 11.3893 15 11.2168V7.46678C15 7.29428 14.86 7.15427 14.6875 7.15427ZM14.375 10.9043H12.1875C11.3256 10.9043 10.625 10.203 10.625 9.34178C10.625 8.48054 11.3257 7.77929 12.1875 7.77929H14.375V10.9043Z" fill="white"/>
    <path d="M12.7793 4.20179L11.4562 1.55552C11.1893 1.02176 10.7287 0.628656 10.1599 0.448656C9.5912 0.269271 8.98868 0.325521 8.46245 0.608031L2.03932 4.06679C1.88744 4.14803 1.83058 4.33805 1.91243 4.48993C1.99432 4.6418 2.18431 4.69867 2.33557 4.61681L8.75993 1.15928C9.13493 0.956781 9.5668 0.916146 9.9718 1.04491C10.3781 1.17302 10.7068 1.45427 10.8974 1.83554L12.2206 4.48178C12.2756 4.59115 12.3856 4.65428 12.4999 4.65428C12.5468 4.65428 12.5943 4.64365 12.6393 4.62115C12.7937 4.54366 12.8562 4.35616 12.7793 4.20179Z" fill="white"/>
    <path d="M11.5256 1.69427C11.4431 1.54178 11.2531 1.48553 11.1019 1.56677L6.45875 4.06676C6.30688 4.14864 6.25001 4.33802 6.33187 4.48989C6.38812 4.59489 6.49561 4.65428 6.60688 4.65428C6.65689 4.65428 6.70813 4.64241 6.75562 4.61739L11.3987 2.1174C11.5506 2.03552 11.6075 1.84614 11.5256 1.69427Z" fill="white"/>
    <path d="M5.625 2.15429H3.43749C1.54251 2.15429 0 3.69615 0 5.59178V6.21677C0 6.38927 0.14001 6.52928 0.31251 6.52928C0.48501 6.52928 0.62502 6.38927 0.62502 6.21677V5.59178C0.62502 4.04115 1.88689 2.77928 3.43752 2.77928H5.625C5.7975 2.77928 5.93751 2.63927 5.93751 2.46677C5.93751 2.29427 5.7975 2.15429 5.625 2.15429Z" fill="white"/>
    <path d="M11.5625 2.15429C11.39 2.15429 11.25 2.2943 11.25 2.4668C11.25 2.6393 11.39 2.77931 11.5625 2.77931C13.1131 2.77931 14.375 4.04118 14.375 5.59181V6.2168C14.375 6.3893 14.515 6.52931 14.6875 6.52931C14.86 6.52931 15 6.3893 15 6.2168V5.59181C15 3.69615 13.4575 2.15429 11.5625 2.15429Z" fill="white"/>
  </g>
  <defs>
    <clipPath id="clip0_1_52">
      <rect width="15" height="15" fill="white"/>
    </clipPath>
  </defs>
</svg>
