<svg width="60" height="60" viewBox="0 0 60 60" fill="none" xmlns="http://www.w3.org/2000/svg">
  <path d="M40.8482 23.3061C41.8582 22.3647 41.914 20.7828 40.9725 19.7728C40.0312 18.7627 38.4492 18.7071 37.4392 19.6484L30.124 26.4665L23.3059 19.1512C22.3645 18.1412 20.7825 18.0855 19.7725 19.0269C18.7625 19.9683 18.7068 21.5502 19.6482 22.5602L26.4662 29.8755L19.1509 36.6937C18.1409 37.635 18.0853 39.217 19.0266 40.227C19.968 41.237 21.5499 41.2927 22.56 40.3512L29.8752 33.5332L36.6935 40.8485C37.6347 41.8585 39.2167 41.9142 40.2267 40.9727C41.2367 40.0315 41.2925 38.4495 40.351 37.4395L33.533 30.1242L40.8482 23.3061Z" fill="white"/>
  <path fill-rule="evenodd" clip-rule="evenodd" d="M2.5 30C2.5 14.8122 14.8122 2.5 30 2.5C45.1878 2.5 57.5 14.8122 57.5 30C57.5 45.1878 45.1878 57.5 30 57.5C14.8122 57.5 2.5 45.1878 2.5 30ZM30 52.5C17.5736 52.5 7.5 42.4265 7.5 30C7.5 17.5736 17.5736 7.5 30 7.5C42.4265 7.5 52.5 17.5736 52.5 30C52.5 42.4265 42.4265 52.5 30 52.5Z" fill="white"/>
</svg>
